G75*
%MOIN*%
%OFA0B0*%
%FSLAX24Y24*%
%IPPOS*%
%LPD*%
%AMOC8*
5,1,8,0,0,1.08239X$1,22.5*
%
%ADD10C,0.0010*%
%ADD11R,0.0433X0.0394*%
%ADD12R,0.0117X0.0335*%
%ADD13R,0.0945X0.0650*%
%ADD14R,0.0276X0.0110*%
%ADD15R,0.0394X0.0433*%
%ADD16R,0.0315X0.0315*%
%ADD17R,0.0472X0.0217*%
%ADD18R,0.0157X0.0551*%
%ADD19R,0.0709X0.0709*%
%ADD20C,0.0472*%
%ADD21C,0.0787*%
%ADD22R,0.0394X0.0551*%
%ADD23C,0.0800*%
%ADD24R,0.0800X0.0800*%
%ADD25C,0.0740*%
%ADD26R,0.0394X0.1811*%
%ADD27R,0.0630X0.1260*%
%ADD28C,0.0000*%
%ADD29C,0.0400*%
%ADD30C,0.0350*%
%ADD31C,0.0100*%
%ADD32C,0.0120*%
%ADD33C,0.0160*%
D10*
X000725Y000628D02*
X009725Y000628D01*
X009755Y000630D01*
X009785Y000635D01*
X009814Y000644D01*
X009841Y000657D01*
X009867Y000672D01*
X009891Y000691D01*
X009912Y000712D01*
X009931Y000736D01*
X009946Y000762D01*
X009959Y000789D01*
X009968Y000818D01*
X009973Y000848D01*
X009975Y000878D01*
X009975Y010228D01*
X009973Y010258D01*
X009968Y010288D01*
X009959Y010317D01*
X009946Y010344D01*
X009931Y010370D01*
X009912Y010394D01*
X009891Y010415D01*
X009867Y010434D01*
X009841Y010449D01*
X009814Y010462D01*
X009785Y010471D01*
X009755Y010476D01*
X009725Y010478D01*
X000725Y010478D01*
X000695Y010476D01*
X000665Y010471D01*
X000636Y010462D01*
X000609Y010449D01*
X000583Y010434D01*
X000559Y010415D01*
X000538Y010394D01*
X000519Y010370D01*
X000504Y010344D01*
X000491Y010317D01*
X000482Y010288D01*
X000477Y010258D01*
X000475Y010228D01*
X000475Y000878D01*
X000477Y000848D01*
X000482Y000818D01*
X000491Y000789D01*
X000504Y000762D01*
X000519Y000736D01*
X000538Y000712D01*
X000559Y000691D01*
X000583Y000672D01*
X000609Y000657D01*
X000636Y000644D01*
X000665Y000635D01*
X000695Y000630D01*
X000725Y000628D01*
D11*
X001021Y005128D03*
X001729Y005128D03*
X002840Y006528D03*
X003510Y006528D03*
X004621Y007528D03*
X004621Y008028D03*
X004621Y008728D03*
X004079Y008728D03*
X003371Y008728D03*
X005329Y008728D03*
X005329Y008028D03*
X005329Y007528D03*
X005421Y004578D03*
X005421Y004078D03*
X006129Y004078D03*
X006129Y004578D03*
D12*
X005369Y005447D03*
X005172Y005447D03*
X004975Y005447D03*
X004778Y005447D03*
X004581Y005447D03*
X004581Y006608D03*
X004778Y006608D03*
X004975Y006608D03*
X005172Y006608D03*
X005369Y006608D03*
D13*
X004975Y006028D03*
D14*
X004384Y006126D03*
X004384Y005929D03*
X005566Y005929D03*
X005566Y006126D03*
D15*
X006175Y006623D03*
X006175Y007332D03*
X007075Y005212D03*
X007625Y005212D03*
X007625Y004503D03*
X007075Y004503D03*
X009675Y004473D03*
X009675Y005182D03*
X004125Y004582D03*
X003475Y004582D03*
X002825Y004582D03*
X002825Y003873D03*
X003475Y003873D03*
X004125Y003873D03*
X003475Y005323D03*
X002825Y005323D03*
X002825Y006032D03*
X003475Y006032D03*
X002175Y008523D03*
X002175Y009232D03*
D16*
X008280Y005288D03*
X008870Y005288D03*
X008870Y004478D03*
X008280Y004478D03*
D17*
X003887Y007054D03*
X003887Y007802D03*
X002863Y007802D03*
X002863Y007428D03*
X002863Y007054D03*
D18*
X003613Y002271D03*
X003869Y002271D03*
X004125Y002271D03*
X004381Y002271D03*
X004637Y002271D03*
D19*
X004578Y001228D03*
X003672Y001228D03*
D20*
X003170Y002330D03*
X005080Y002330D03*
D21*
X005546Y001228D03*
X002704Y001228D03*
D22*
X005251Y003311D03*
X005999Y003311D03*
X005625Y002444D03*
D23*
X008525Y008197D03*
D24*
X008525Y006819D03*
D25*
X007475Y009978D03*
X006475Y009978D03*
X005475Y009978D03*
X003975Y009978D03*
X002975Y009978D03*
X000975Y008128D03*
X000975Y007128D03*
X000975Y006128D03*
X000975Y004128D03*
X000975Y003128D03*
D26*
X007531Y003284D03*
X008319Y003284D03*
D27*
X009264Y001237D03*
X006586Y001237D03*
D28*
X000575Y001378D02*
X000577Y001428D01*
X000583Y001478D01*
X000593Y001528D01*
X000606Y001576D01*
X000623Y001624D01*
X000644Y001670D01*
X000668Y001714D01*
X000696Y001756D01*
X000727Y001796D01*
X000761Y001833D01*
X000798Y001868D01*
X000837Y001899D01*
X000878Y001928D01*
X000922Y001953D01*
X000968Y001975D01*
X001015Y001993D01*
X001063Y002007D01*
X001112Y002018D01*
X001162Y002025D01*
X001212Y002028D01*
X001263Y002027D01*
X001313Y002022D01*
X001363Y002013D01*
X001411Y002001D01*
X001459Y001984D01*
X001505Y001964D01*
X001550Y001941D01*
X001593Y001914D01*
X001633Y001884D01*
X001671Y001851D01*
X001706Y001815D01*
X001739Y001776D01*
X001768Y001735D01*
X001794Y001692D01*
X001817Y001647D01*
X001836Y001600D01*
X001851Y001552D01*
X001863Y001503D01*
X001871Y001453D01*
X001875Y001403D01*
X001875Y001353D01*
X001871Y001303D01*
X001863Y001253D01*
X001851Y001204D01*
X001836Y001156D01*
X001817Y001109D01*
X001794Y001064D01*
X001768Y001021D01*
X001739Y000980D01*
X001706Y000941D01*
X001671Y000905D01*
X001633Y000872D01*
X001593Y000842D01*
X001550Y000815D01*
X001505Y000792D01*
X001459Y000772D01*
X001411Y000755D01*
X001363Y000743D01*
X001313Y000734D01*
X001263Y000729D01*
X001212Y000728D01*
X001162Y000731D01*
X001112Y000738D01*
X001063Y000749D01*
X001015Y000763D01*
X000968Y000781D01*
X000922Y000803D01*
X000878Y000828D01*
X000837Y000857D01*
X000798Y000888D01*
X000761Y000923D01*
X000727Y000960D01*
X000696Y001000D01*
X000668Y001042D01*
X000644Y001086D01*
X000623Y001132D01*
X000606Y001180D01*
X000593Y001228D01*
X000583Y001278D01*
X000577Y001328D01*
X000575Y001378D01*
X000575Y009728D02*
X000577Y009778D01*
X000583Y009828D01*
X000593Y009878D01*
X000606Y009926D01*
X000623Y009974D01*
X000644Y010020D01*
X000668Y010064D01*
X000696Y010106D01*
X000727Y010146D01*
X000761Y010183D01*
X000798Y010218D01*
X000837Y010249D01*
X000878Y010278D01*
X000922Y010303D01*
X000968Y010325D01*
X001015Y010343D01*
X001063Y010357D01*
X001112Y010368D01*
X001162Y010375D01*
X001212Y010378D01*
X001263Y010377D01*
X001313Y010372D01*
X001363Y010363D01*
X001411Y010351D01*
X001459Y010334D01*
X001505Y010314D01*
X001550Y010291D01*
X001593Y010264D01*
X001633Y010234D01*
X001671Y010201D01*
X001706Y010165D01*
X001739Y010126D01*
X001768Y010085D01*
X001794Y010042D01*
X001817Y009997D01*
X001836Y009950D01*
X001851Y009902D01*
X001863Y009853D01*
X001871Y009803D01*
X001875Y009753D01*
X001875Y009703D01*
X001871Y009653D01*
X001863Y009603D01*
X001851Y009554D01*
X001836Y009506D01*
X001817Y009459D01*
X001794Y009414D01*
X001768Y009371D01*
X001739Y009330D01*
X001706Y009291D01*
X001671Y009255D01*
X001633Y009222D01*
X001593Y009192D01*
X001550Y009165D01*
X001505Y009142D01*
X001459Y009122D01*
X001411Y009105D01*
X001363Y009093D01*
X001313Y009084D01*
X001263Y009079D01*
X001212Y009078D01*
X001162Y009081D01*
X001112Y009088D01*
X001063Y009099D01*
X001015Y009113D01*
X000968Y009131D01*
X000922Y009153D01*
X000878Y009178D01*
X000837Y009207D01*
X000798Y009238D01*
X000761Y009273D01*
X000727Y009310D01*
X000696Y009350D01*
X000668Y009392D01*
X000644Y009436D01*
X000623Y009482D01*
X000606Y009530D01*
X000593Y009578D01*
X000583Y009628D01*
X000577Y009678D01*
X000575Y009728D01*
X008575Y009728D02*
X008577Y009778D01*
X008583Y009828D01*
X008593Y009878D01*
X008606Y009926D01*
X008623Y009974D01*
X008644Y010020D01*
X008668Y010064D01*
X008696Y010106D01*
X008727Y010146D01*
X008761Y010183D01*
X008798Y010218D01*
X008837Y010249D01*
X008878Y010278D01*
X008922Y010303D01*
X008968Y010325D01*
X009015Y010343D01*
X009063Y010357D01*
X009112Y010368D01*
X009162Y010375D01*
X009212Y010378D01*
X009263Y010377D01*
X009313Y010372D01*
X009363Y010363D01*
X009411Y010351D01*
X009459Y010334D01*
X009505Y010314D01*
X009550Y010291D01*
X009593Y010264D01*
X009633Y010234D01*
X009671Y010201D01*
X009706Y010165D01*
X009739Y010126D01*
X009768Y010085D01*
X009794Y010042D01*
X009817Y009997D01*
X009836Y009950D01*
X009851Y009902D01*
X009863Y009853D01*
X009871Y009803D01*
X009875Y009753D01*
X009875Y009703D01*
X009871Y009653D01*
X009863Y009603D01*
X009851Y009554D01*
X009836Y009506D01*
X009817Y009459D01*
X009794Y009414D01*
X009768Y009371D01*
X009739Y009330D01*
X009706Y009291D01*
X009671Y009255D01*
X009633Y009222D01*
X009593Y009192D01*
X009550Y009165D01*
X009505Y009142D01*
X009459Y009122D01*
X009411Y009105D01*
X009363Y009093D01*
X009313Y009084D01*
X009263Y009079D01*
X009212Y009078D01*
X009162Y009081D01*
X009112Y009088D01*
X009063Y009099D01*
X009015Y009113D01*
X008968Y009131D01*
X008922Y009153D01*
X008878Y009178D01*
X008837Y009207D01*
X008798Y009238D01*
X008761Y009273D01*
X008727Y009310D01*
X008696Y009350D01*
X008668Y009392D01*
X008644Y009436D01*
X008623Y009482D01*
X008606Y009530D01*
X008593Y009578D01*
X008583Y009628D01*
X008577Y009678D01*
X008575Y009728D01*
D29*
X007325Y007528D03*
X005375Y006018D03*
X004975Y006018D03*
X004575Y006018D03*
X005735Y005038D03*
X006525Y003378D03*
X009425Y006878D03*
D30*
X006575Y005378D03*
X004625Y004628D03*
X004625Y003978D03*
X004525Y003128D03*
X003405Y002798D03*
X002275Y004578D03*
X003375Y007078D03*
X003375Y007778D03*
X002325Y007778D03*
X001375Y007618D03*
X002175Y009768D03*
X003475Y009568D03*
X007075Y002518D03*
D31*
X007204Y002499D02*
X005952Y002499D01*
X005952Y002401D02*
X007204Y002401D01*
X007204Y002388D02*
X005952Y002388D01*
X005952Y002774D01*
X005876Y002850D01*
X005374Y002850D01*
X005298Y002774D01*
X005298Y002629D01*
X005287Y002640D01*
X005153Y002696D01*
X005298Y002696D01*
X005319Y002795D02*
X004305Y002795D01*
X004352Y002869D02*
X004305Y002916D01*
X004305Y002676D01*
X004483Y002676D01*
X004500Y002686D01*
X004538Y002696D01*
X004637Y002696D01*
X004637Y002696D01*
X004637Y002271D01*
X004637Y002271D01*
X004637Y002696D01*
X004735Y002696D01*
X004773Y002686D01*
X004808Y002666D01*
X004836Y002639D01*
X004848Y002616D01*
X004872Y002640D01*
X005007Y002696D01*
X005153Y002696D01*
X005007Y002696D02*
X004737Y002696D01*
X004637Y002598D02*
X004637Y002598D01*
X004637Y002499D02*
X004637Y002499D01*
X004637Y002401D02*
X004637Y002401D01*
X004637Y002302D02*
X004637Y002302D01*
X004637Y002271D02*
X004637Y001845D01*
X004735Y001845D01*
X004773Y001855D01*
X004808Y001875D01*
X004836Y001903D01*
X004855Y001937D01*
X004866Y001976D01*
X004866Y002026D01*
X004872Y002019D01*
X005007Y001964D01*
X005153Y001964D01*
X005287Y002019D01*
X005340Y002073D01*
X005374Y002039D01*
X005567Y002039D01*
X005638Y001968D01*
X006188Y001968D01*
X006141Y001921D01*
X006141Y000763D01*
X005792Y000763D01*
X005843Y000784D01*
X005990Y000931D01*
X006070Y001123D01*
X006070Y001332D01*
X005990Y001524D01*
X005843Y001672D01*
X005650Y001751D01*
X005442Y001751D01*
X005250Y001672D01*
X005102Y001524D01*
X005062Y001427D01*
X005062Y001636D01*
X004986Y001712D01*
X004170Y001712D01*
X004125Y001667D01*
X004080Y001712D01*
X003264Y001712D01*
X003188Y001636D01*
X003188Y001427D01*
X003148Y001524D01*
X003000Y001672D01*
X002808Y001751D01*
X002600Y001751D01*
X002407Y001672D01*
X002260Y001524D01*
X002180Y001332D01*
X002180Y001123D01*
X002260Y000931D01*
X002407Y000784D01*
X002458Y000763D01*
X001770Y000763D01*
X001920Y000913D01*
X002045Y001214D01*
X002045Y001541D01*
X001920Y001842D01*
X001689Y002073D01*
X001388Y002198D01*
X001062Y002198D01*
X001062Y002198D01*
X000761Y002073D01*
X000610Y001922D01*
X000610Y002785D01*
X000692Y002704D01*
X000876Y002628D01*
X001074Y002628D01*
X001258Y002704D01*
X001399Y002844D01*
X001442Y002948D01*
X003137Y002948D01*
X003100Y002858D01*
X003100Y002737D01*
X003117Y002696D01*
X003097Y002696D01*
X001240Y002696D01*
X001349Y002795D02*
X003100Y002795D01*
X003097Y002696D02*
X002963Y002640D01*
X002860Y002537D01*
X002804Y002403D01*
X002804Y002257D01*
X002860Y002122D01*
X002963Y002019D01*
X003097Y001964D01*
X003243Y001964D01*
X003378Y002019D01*
X003404Y002046D01*
X003404Y001941D01*
X003481Y001865D01*
X004483Y001865D01*
X004500Y001855D01*
X004538Y001845D01*
X004637Y001845D01*
X004637Y002271D01*
X004637Y002271D01*
X004637Y002204D02*
X004637Y002204D01*
X004637Y002105D02*
X004637Y002105D01*
X004637Y002007D02*
X004637Y002007D01*
X004637Y001908D02*
X004637Y001908D01*
X004838Y001908D02*
X006141Y001908D01*
X006141Y001810D02*
X001934Y001810D01*
X001920Y001842D02*
X001920Y001842D01*
X001854Y001908D02*
X003438Y001908D01*
X003404Y002007D02*
X003347Y002007D01*
X003613Y002271D02*
X003613Y002579D01*
X003405Y002798D01*
X003114Y002893D02*
X001419Y002893D01*
X001575Y003328D02*
X001475Y003428D01*
X001475Y004028D01*
X001375Y004128D01*
X000975Y004128D01*
X001341Y004469D02*
X001519Y004469D01*
X001519Y004371D02*
X001416Y004371D01*
X001399Y004411D02*
X001442Y004308D01*
X001450Y004308D01*
X001519Y004238D01*
X001519Y004801D01*
X001459Y004801D01*
X001383Y004877D01*
X001383Y004894D01*
X001377Y004873D01*
X001357Y004839D01*
X001329Y004811D01*
X001295Y004791D01*
X001257Y004781D01*
X001069Y004781D01*
X001069Y005079D01*
X000972Y005079D01*
X000654Y005079D01*
X000654Y004911D01*
X000664Y004873D01*
X000684Y004839D01*
X000712Y004811D01*
X000746Y004791D01*
X000784Y004781D01*
X000972Y004781D01*
X000972Y005079D01*
X000972Y005176D01*
X000654Y005176D01*
X000654Y005344D01*
X000664Y005382D01*
X000684Y005416D01*
X000712Y005444D01*
X000746Y005464D01*
X000784Y005474D01*
X000972Y005474D01*
X000972Y005176D01*
X001069Y005176D01*
X001069Y005474D01*
X001257Y005474D01*
X001295Y005464D01*
X001329Y005444D01*
X001357Y005416D01*
X001377Y005382D01*
X001383Y005361D01*
X001383Y005378D01*
X001459Y005454D01*
X001313Y005454D01*
X001459Y005454D02*
X001565Y005454D01*
X001565Y005865D01*
X001819Y006119D01*
X001942Y006242D01*
X002498Y006242D01*
X001483Y006242D01*
X001482Y006249D02*
X001494Y006178D01*
X001025Y006178D01*
X001025Y006078D01*
X001494Y006078D01*
X001482Y006006D01*
X001457Y005928D01*
X001420Y005855D01*
X001372Y005789D01*
X001314Y005731D01*
X001248Y005683D01*
X001175Y005646D01*
X001097Y005620D01*
X001025Y005609D01*
X001025Y006078D01*
X000925Y006078D01*
X000925Y005609D01*
X000853Y005620D01*
X000775Y005646D01*
X000702Y005683D01*
X000636Y005731D01*
X000610Y005757D01*
X000610Y004470D01*
X000692Y004551D01*
X000876Y004628D01*
X001074Y004628D01*
X001258Y004551D01*
X001399Y004411D01*
X001485Y004272D02*
X001519Y004272D01*
X001519Y004568D02*
X001219Y004568D01*
X001519Y004666D02*
X000610Y004666D01*
X000610Y004568D02*
X000731Y004568D01*
X000610Y004765D02*
X001519Y004765D01*
X001397Y004863D02*
X001371Y004863D01*
X001069Y004863D02*
X000972Y004863D01*
X000972Y004962D02*
X001069Y004962D01*
X001069Y005060D02*
X000972Y005060D01*
X000972Y005159D02*
X000610Y005159D01*
X000610Y005257D02*
X000654Y005257D01*
X000657Y005356D02*
X000610Y005356D01*
X000610Y005454D02*
X000729Y005454D01*
X000610Y005553D02*
X001565Y005553D01*
X001565Y005651D02*
X001185Y005651D01*
X001332Y005750D02*
X001565Y005750D01*
X001565Y005848D02*
X001415Y005848D01*
X001463Y005947D02*
X001647Y005947D01*
X001746Y006045D02*
X001488Y006045D01*
X001482Y006249D02*
X001457Y006327D01*
X001420Y006400D01*
X001372Y006466D01*
X001314Y006524D01*
X001248Y006572D01*
X001175Y006609D01*
X001097Y006635D01*
X001093Y006635D01*
X001258Y006704D01*
X001398Y006844D01*
X002545Y006844D01*
X002552Y006836D01*
X002494Y006778D01*
X002494Y006277D01*
X002498Y006273D01*
X002498Y006242D01*
X002494Y006341D02*
X001450Y006341D01*
X001391Y006439D02*
X002494Y006439D01*
X002494Y006538D02*
X001295Y006538D01*
X001289Y006735D02*
X002494Y006735D01*
X002494Y006636D02*
X001095Y006636D01*
X001388Y006833D02*
X002549Y006833D01*
X002487Y007264D02*
X001460Y007264D01*
X001399Y007411D01*
X001258Y007551D01*
X001074Y007628D01*
X001258Y007704D01*
X001399Y007844D01*
X001442Y007948D01*
X002065Y007948D01*
X002020Y007838D01*
X002020Y007717D01*
X002066Y007605D01*
X002152Y007519D01*
X002264Y007473D01*
X002386Y007473D01*
X002477Y007510D01*
X002477Y007432D01*
X002859Y007432D01*
X002859Y007423D01*
X002477Y007423D01*
X002477Y007300D01*
X002487Y007264D01*
X002477Y007326D02*
X001434Y007326D01*
X001386Y007424D02*
X002859Y007424D01*
X002867Y007424D02*
X004274Y007424D01*
X004274Y007326D02*
X003558Y007326D01*
X003548Y007336D02*
X003594Y007289D01*
X003597Y007292D01*
X004177Y007292D01*
X004253Y007216D01*
X004253Y007060D01*
X004295Y007102D01*
X004394Y007201D01*
X004350Y007201D01*
X004274Y007277D01*
X004274Y007777D01*
X004274Y007998D01*
X004219Y007998D01*
X004253Y007964D01*
X004253Y007639D01*
X004177Y007563D01*
X003597Y007563D01*
X003594Y007566D01*
X003548Y007519D01*
X003436Y007473D01*
X003314Y007473D01*
X003249Y007499D01*
X003249Y007432D01*
X002867Y007432D01*
X002867Y007423D01*
X003249Y007423D01*
X003249Y007356D01*
X003314Y007383D01*
X003436Y007383D01*
X003548Y007336D01*
X003551Y007523D02*
X004274Y007523D01*
X004274Y007621D02*
X004235Y007621D01*
X004253Y007720D02*
X004274Y007720D01*
X004274Y007818D02*
X004253Y007818D01*
X004253Y007917D02*
X004274Y007917D01*
X004471Y008178D02*
X003525Y008178D01*
X003371Y008332D01*
X003166Y008128D01*
X000975Y008128D01*
X000610Y007785D02*
X000692Y007704D01*
X000876Y007628D01*
X001074Y007628D01*
X000876Y007628D01*
X000692Y007551D01*
X000610Y007470D01*
X000610Y007785D01*
X000610Y007720D02*
X000676Y007720D01*
X000610Y007621D02*
X000860Y007621D01*
X000663Y007523D02*
X000610Y007523D01*
X001090Y007621D02*
X002060Y007621D01*
X002020Y007720D02*
X001274Y007720D01*
X001373Y007818D02*
X002020Y007818D01*
X002052Y007917D02*
X001429Y007917D01*
X001287Y007523D02*
X002149Y007523D01*
X002325Y007778D02*
X002839Y007778D01*
X002863Y007802D01*
X003375Y007778D02*
X003863Y007778D01*
X003887Y007802D01*
X003843Y008381D02*
X004031Y008381D01*
X004031Y008679D01*
X004128Y008679D01*
X004128Y008381D01*
X004316Y008381D01*
X004354Y008391D01*
X004371Y008401D01*
X004891Y008401D01*
X004967Y008477D01*
X004967Y008495D01*
X004973Y008473D01*
X004993Y008439D01*
X005021Y008411D01*
X005055Y008391D01*
X005093Y008381D01*
X005281Y008381D01*
X005281Y008679D01*
X005378Y008679D01*
X005378Y008381D01*
X005565Y008381D01*
X005565Y008354D01*
X005059Y008354D01*
X004983Y008278D01*
X004983Y007424D01*
X004967Y007440D01*
X004967Y008278D01*
X004891Y008354D01*
X004548Y008354D01*
X004545Y008358D01*
X003600Y008358D01*
X003556Y008401D01*
X003641Y008401D01*
X003717Y008477D01*
X003717Y008495D01*
X003723Y008473D01*
X003743Y008439D01*
X003771Y008411D01*
X003805Y008391D01*
X003843Y008381D01*
X003773Y008409D02*
X003649Y008409D01*
X003371Y008332D02*
X003371Y008728D01*
X003189Y009054D02*
X003189Y009082D01*
X003189Y009169D01*
X003187Y009524D01*
X003258Y009554D01*
X003399Y009694D01*
X003475Y009878D01*
X003551Y009694D01*
X003692Y009554D01*
X003876Y009478D01*
X004074Y009478D01*
X004258Y009554D01*
X004399Y009694D01*
X004411Y009723D01*
X004411Y009054D01*
X004371Y009054D01*
X004354Y009064D01*
X004316Y009074D01*
X004128Y009074D01*
X004128Y008776D01*
X004031Y008776D01*
X004031Y009074D01*
X003843Y009074D01*
X003805Y009064D01*
X003771Y009044D01*
X003743Y009016D01*
X003723Y008982D01*
X003717Y008961D01*
X003717Y008978D01*
X003641Y009054D01*
X003189Y009054D01*
X003189Y009099D02*
X004411Y009099D01*
X004411Y009197D02*
X003189Y009197D01*
X003189Y009169D02*
X003189Y009169D01*
X003188Y009296D02*
X004411Y009296D01*
X004411Y009394D02*
X003188Y009394D01*
X003187Y009493D02*
X003839Y009493D01*
X003654Y009591D02*
X003296Y009591D01*
X003394Y009690D02*
X003556Y009690D01*
X003512Y009788D02*
X003438Y009788D01*
X003475Y009878D02*
X003475Y010077D01*
X003475Y009878D01*
X003475Y009887D02*
X003475Y009887D01*
X003475Y009985D02*
X003475Y009985D01*
X003475Y010077D02*
X003551Y010261D01*
X003633Y010343D01*
X003317Y010343D01*
X003399Y010261D01*
X003475Y010077D01*
X003472Y010084D02*
X003478Y010084D01*
X003519Y010182D02*
X003431Y010182D01*
X003379Y010281D02*
X003571Y010281D01*
X004317Y010343D02*
X005133Y010343D01*
X005051Y010261D01*
X004975Y010077D01*
X004975Y009878D01*
X005051Y009694D01*
X005192Y009554D01*
X005376Y009478D01*
X005565Y009478D01*
X005565Y009074D01*
X005378Y009074D01*
X005378Y008776D01*
X005281Y008776D01*
X005281Y009074D01*
X005093Y009074D01*
X005055Y009064D01*
X005021Y009044D01*
X004993Y009016D01*
X004973Y008982D01*
X004967Y008961D01*
X004967Y008978D01*
X004891Y009054D01*
X004831Y009054D01*
X004831Y009919D01*
X004685Y010065D01*
X004562Y010188D01*
X004429Y010188D01*
X004399Y010261D01*
X004317Y010343D01*
X004379Y010281D02*
X005071Y010281D01*
X005019Y010182D02*
X004567Y010182D01*
X004666Y010084D02*
X004978Y010084D01*
X004975Y009985D02*
X004764Y009985D01*
X004831Y009887D02*
X004975Y009887D01*
X005012Y009788D02*
X004831Y009788D01*
X004831Y009690D02*
X005056Y009690D01*
X005154Y009591D02*
X004831Y009591D01*
X004831Y009493D02*
X005339Y009493D01*
X005565Y009394D02*
X004831Y009394D01*
X004831Y009296D02*
X005565Y009296D01*
X005565Y009197D02*
X004831Y009197D01*
X004831Y009099D02*
X005565Y009099D01*
X005378Y009000D02*
X005281Y009000D01*
X005281Y008902D02*
X005378Y008902D01*
X005378Y008803D02*
X005281Y008803D01*
X005281Y008606D02*
X005378Y008606D01*
X005378Y008508D02*
X005281Y008508D01*
X005281Y008409D02*
X005378Y008409D01*
X005023Y008409D02*
X004899Y008409D01*
X004935Y008311D02*
X005015Y008311D01*
X004983Y008212D02*
X004967Y008212D01*
X004967Y008114D02*
X004983Y008114D01*
X004983Y008015D02*
X004967Y008015D01*
X004967Y007917D02*
X004983Y007917D01*
X004983Y007818D02*
X004967Y007818D01*
X004967Y007720D02*
X004983Y007720D01*
X004983Y007621D02*
X004967Y007621D01*
X004967Y007523D02*
X004983Y007523D01*
X004625Y007528D02*
X004621Y007528D01*
X004621Y008028D01*
X004471Y008178D01*
X004128Y008409D02*
X004031Y008409D01*
X004031Y008508D02*
X004128Y008508D01*
X004128Y008606D02*
X004031Y008606D01*
X004031Y008803D02*
X004128Y008803D01*
X004128Y008902D02*
X004031Y008902D01*
X004031Y009000D02*
X004128Y009000D01*
X003733Y009000D02*
X003695Y009000D01*
X004111Y009493D02*
X004411Y009493D01*
X004411Y009591D02*
X004296Y009591D01*
X004394Y009690D02*
X004411Y009690D01*
X004945Y009000D02*
X004983Y009000D01*
X006263Y007818D02*
X007164Y007818D01*
X007138Y007807D02*
X007045Y007714D01*
X006995Y007593D01*
X006995Y007462D01*
X007045Y007341D01*
X007115Y007271D01*
X007115Y006815D01*
X005927Y005627D01*
X005577Y005627D01*
X005587Y005645D01*
X005597Y005683D01*
X005597Y005724D01*
X005723Y005724D01*
X005761Y005734D01*
X005795Y005754D01*
X005823Y005782D01*
X005843Y005816D01*
X005853Y005854D01*
X005853Y005929D01*
X005754Y005929D01*
X005853Y005929D01*
X005853Y006004D01*
X005847Y006028D01*
X005853Y006051D01*
X005853Y006126D01*
X005853Y006201D01*
X005843Y006239D01*
X005823Y006273D01*
X005795Y006301D01*
X005761Y006321D01*
X005723Y006331D01*
X005597Y006331D01*
X005597Y006372D01*
X005587Y006410D01*
X005577Y006428D01*
X005680Y006428D01*
X005790Y006538D01*
X005804Y006538D01*
X005828Y006538D01*
X005828Y006562D02*
X005828Y006387D01*
X005838Y006349D01*
X005858Y006315D01*
X005886Y006287D01*
X005920Y006267D01*
X005958Y006257D01*
X006127Y006257D01*
X006127Y006575D01*
X006223Y006575D01*
X006223Y006257D01*
X006392Y006257D01*
X006430Y006267D01*
X006464Y006287D01*
X006492Y006315D01*
X006512Y006349D01*
X006522Y006387D01*
X006522Y006575D01*
X006223Y006575D01*
X006223Y006672D01*
X006522Y006672D01*
X006522Y006860D01*
X006512Y006898D01*
X006492Y006932D01*
X006464Y006960D01*
X006430Y006980D01*
X006408Y006985D01*
X006426Y006985D01*
X006502Y007061D01*
X006502Y007602D01*
X006426Y007678D01*
X006123Y007678D01*
X006162Y007718D01*
X006285Y007841D01*
X006285Y008991D01*
X006362Y009068D01*
X007412Y009068D01*
X007535Y009191D01*
X007562Y009218D01*
X007685Y009341D01*
X007685Y009523D01*
X007758Y009554D01*
X007899Y009694D01*
X007975Y009878D01*
X007975Y010077D01*
X007899Y010261D01*
X007817Y010343D01*
X008680Y010343D01*
X008530Y010192D01*
X008405Y009891D01*
X008405Y009564D01*
X008530Y009263D01*
X008761Y009032D01*
X009062Y008908D01*
X009388Y008908D01*
X009689Y009032D01*
X009840Y009183D01*
X009840Y005548D01*
X009723Y005548D01*
X009723Y005230D01*
X009627Y005230D01*
X009627Y005548D01*
X009485Y005548D01*
X009485Y006141D01*
X009512Y006168D01*
X009635Y006291D01*
X009635Y006621D01*
X009705Y006691D01*
X009755Y006812D01*
X009755Y006943D01*
X009705Y007064D01*
X009612Y007157D01*
X009491Y007208D01*
X009359Y007208D01*
X009238Y007157D01*
X009145Y007064D01*
X009095Y006943D01*
X009095Y006812D01*
X009145Y006691D01*
X009215Y006621D01*
X009215Y006465D01*
X009065Y006315D01*
X009065Y005575D01*
X008659Y005575D01*
X008583Y005499D01*
X008583Y005076D01*
X008659Y005000D01*
X009065Y005000D01*
X009065Y004780D01*
X009048Y004785D01*
X008899Y004785D01*
X008899Y004506D01*
X008842Y004506D01*
X008842Y004785D01*
X008693Y004785D01*
X008655Y004775D01*
X008621Y004755D01*
X008593Y004727D01*
X008573Y004693D01*
X008567Y004671D01*
X008567Y004689D01*
X008491Y004765D01*
X008155Y004765D01*
X008155Y005000D01*
X008491Y005000D01*
X008567Y005076D01*
X008567Y005499D01*
X008491Y005575D01*
X008490Y005575D01*
X008490Y005760D01*
X008385Y005865D01*
X008262Y005988D01*
X007088Y005988D01*
X006988Y005888D01*
X006865Y005765D01*
X006865Y005558D01*
X006825Y005558D01*
X006748Y005636D01*
X006636Y005683D01*
X006577Y005683D01*
X007412Y006518D01*
X007535Y006641D01*
X007535Y007271D01*
X007605Y007341D01*
X007655Y007462D01*
X007655Y007593D01*
X007605Y007714D01*
X007512Y007807D01*
X007391Y007858D01*
X007259Y007858D01*
X007138Y007807D01*
X007072Y007818D02*
X006525Y007818D01*
X006525Y007720D02*
X007004Y007720D01*
X007011Y007737D02*
X006955Y007601D01*
X006955Y007454D01*
X007011Y007318D01*
X007048Y007281D01*
X007025Y006781D01*
X006968Y006724D01*
X006225Y006028D01*
X005925Y005728D01*
X005554Y005728D01*
X005498Y005784D01*
X005405Y005784D01*
X005405Y005873D01*
X005270Y006008D01*
X005080Y006008D01*
X004942Y005870D01*
X004942Y005784D01*
X004452Y005784D01*
X004396Y005728D01*
X004275Y005728D01*
X003654Y005148D01*
X003434Y005148D01*
X003314Y005028D01*
X003183Y005028D01*
X003192Y005036D01*
X003192Y005470D01*
X003413Y005645D01*
X003742Y005645D01*
X003842Y005745D01*
X003842Y005919D01*
X004156Y006234D01*
X004275Y006328D01*
X004396Y006328D01*
X004452Y006271D01*
X004710Y006271D01*
X004778Y006339D01*
X004846Y006271D01*
X005498Y006271D01*
X005584Y006358D01*
X005625Y006358D01*
X005975Y006378D01*
X005975Y006945D01*
X006442Y006945D01*
X006503Y007006D01*
X006525Y007008D01*
X006525Y007028D01*
X006542Y007045D01*
X006542Y007619D01*
X006525Y007636D01*
X006525Y008628D01*
X009175Y008628D01*
X009175Y007151D01*
X009111Y007087D01*
X009107Y007078D01*
X009095Y007078D01*
X009095Y007289D01*
X008995Y007389D01*
X008055Y007389D01*
X007955Y007289D01*
X007955Y007078D01*
X007725Y007078D01*
X007725Y007878D01*
X007447Y007878D01*
X007399Y007898D01*
X007251Y007898D01*
X007203Y007878D01*
X007075Y007878D01*
X007071Y007797D01*
X007011Y007737D01*
X007050Y007720D02*
X006164Y007720D01*
X006285Y007917D02*
X008050Y007917D01*
X008055Y007908D02*
X008105Y007838D01*
X008167Y007777D01*
X008237Y007726D01*
X008314Y007687D01*
X008396Y007660D01*
X008475Y007648D01*
X008475Y008147D01*
X007976Y008147D01*
X007989Y008068D01*
X008015Y007985D01*
X008055Y007908D01*
X008126Y007818D02*
X007486Y007818D01*
X007600Y007720D02*
X008250Y007720D01*
X008475Y007720D02*
X008575Y007720D01*
X008575Y007648D02*
X008654Y007660D01*
X008736Y007687D01*
X008813Y007726D01*
X008883Y007777D01*
X008945Y007838D01*
X008995Y007908D01*
X009035Y007985D01*
X009061Y008068D01*
X009074Y008147D01*
X008575Y008147D01*
X008575Y008247D01*
X008475Y008247D01*
X008475Y008745D01*
X008396Y008733D01*
X008314Y008706D01*
X008237Y008667D01*
X008167Y008616D01*
X008105Y008555D01*
X008055Y008485D01*
X008015Y008408D01*
X007989Y008325D01*
X007976Y008247D01*
X008475Y008247D01*
X008475Y008147D01*
X008575Y008147D01*
X008575Y007648D01*
X008575Y007818D02*
X008475Y007818D01*
X008475Y007917D02*
X008575Y007917D01*
X008575Y008015D02*
X008475Y008015D01*
X008475Y008114D02*
X008575Y008114D01*
X008575Y008212D02*
X009840Y008212D01*
X009840Y008114D02*
X009069Y008114D01*
X009044Y008015D02*
X009840Y008015D01*
X009840Y007917D02*
X009000Y007917D01*
X008924Y007818D02*
X009840Y007818D01*
X009840Y007720D02*
X008800Y007720D01*
X009175Y007720D02*
X007725Y007720D01*
X007725Y007818D02*
X009175Y007818D01*
X009175Y007917D02*
X006525Y007917D01*
X006525Y008015D02*
X009175Y008015D01*
X009175Y008114D02*
X006525Y008114D01*
X006525Y008212D02*
X009175Y008212D01*
X009175Y008311D02*
X006525Y008311D01*
X006525Y008409D02*
X009175Y008409D01*
X009175Y008508D02*
X006525Y008508D01*
X006525Y008606D02*
X009175Y008606D01*
X008995Y008485D02*
X008945Y008555D01*
X008883Y008616D01*
X008813Y008667D01*
X008736Y008706D01*
X008654Y008733D01*
X008575Y008745D01*
X008575Y008247D01*
X009074Y008247D01*
X009061Y008325D01*
X009035Y008408D01*
X008995Y008485D01*
X008979Y008508D02*
X009840Y008508D01*
X009840Y008606D02*
X008893Y008606D01*
X008739Y008705D02*
X009840Y008705D01*
X009840Y008803D02*
X006285Y008803D01*
X006285Y008705D02*
X008311Y008705D01*
X008157Y008606D02*
X006285Y008606D01*
X006285Y008508D02*
X008071Y008508D01*
X008016Y008409D02*
X006285Y008409D01*
X006285Y008311D02*
X007986Y008311D01*
X007981Y008114D02*
X006285Y008114D01*
X006285Y008212D02*
X008475Y008212D01*
X008475Y008311D02*
X008575Y008311D01*
X008575Y008409D02*
X008475Y008409D01*
X008475Y008508D02*
X008575Y008508D01*
X008575Y008606D02*
X008475Y008606D01*
X008475Y008705D02*
X008575Y008705D01*
X008761Y009032D02*
X008761Y009032D01*
X008839Y009000D02*
X006295Y009000D01*
X006285Y008902D02*
X009840Y008902D01*
X009840Y009000D02*
X009611Y009000D01*
X009689Y009032D02*
X009689Y009032D01*
X009756Y009099D02*
X009840Y009099D01*
X009840Y008409D02*
X009034Y008409D01*
X009064Y008311D02*
X009840Y008311D01*
X009840Y007621D02*
X007643Y007621D01*
X007725Y007621D02*
X009175Y007621D01*
X009175Y007523D02*
X007725Y007523D01*
X007655Y007523D02*
X009840Y007523D01*
X009840Y007424D02*
X007639Y007424D01*
X007725Y007424D02*
X009175Y007424D01*
X009175Y007326D02*
X009058Y007326D01*
X009055Y007272D02*
X008979Y007349D01*
X008071Y007349D01*
X007995Y007272D01*
X007995Y006365D01*
X008071Y006289D01*
X008979Y006289D01*
X009055Y006365D01*
X009055Y007272D01*
X009055Y007227D02*
X009840Y007227D01*
X009840Y007129D02*
X009641Y007129D01*
X009719Y007030D02*
X009840Y007030D01*
X009840Y006932D02*
X009755Y006932D01*
X009755Y006833D02*
X009840Y006833D01*
X009840Y006735D02*
X009723Y006735D01*
X009650Y006636D02*
X009840Y006636D01*
X009840Y006538D02*
X009635Y006538D01*
X009635Y006439D02*
X009840Y006439D01*
X009840Y006341D02*
X009635Y006341D01*
X009586Y006242D02*
X009840Y006242D01*
X009840Y006144D02*
X009488Y006144D01*
X009485Y006045D02*
X009840Y006045D01*
X009840Y005947D02*
X009485Y005947D01*
X009485Y005848D02*
X009840Y005848D01*
X009840Y005750D02*
X009485Y005750D01*
X009485Y005651D02*
X009840Y005651D01*
X009840Y005553D02*
X009485Y005553D01*
X009627Y005454D02*
X009723Y005454D01*
X009723Y005356D02*
X009627Y005356D01*
X009627Y005257D02*
X009723Y005257D01*
X009065Y004962D02*
X008155Y004962D01*
X008155Y004863D02*
X009065Y004863D01*
X008899Y004765D02*
X008842Y004765D01*
X008842Y004666D02*
X008899Y004666D01*
X008899Y004568D02*
X008842Y004568D01*
X008842Y004449D02*
X008899Y004449D01*
X008899Y004170D01*
X009048Y004170D01*
X009065Y004175D01*
X009065Y002415D01*
X009038Y002388D01*
X008666Y002388D01*
X008666Y003236D01*
X008367Y003236D01*
X008367Y003333D01*
X008666Y003333D01*
X008666Y004177D01*
X008693Y004170D01*
X008842Y004170D01*
X008842Y004449D01*
X008842Y004371D02*
X008899Y004371D01*
X008899Y004272D02*
X008842Y004272D01*
X008842Y004174D02*
X008899Y004174D01*
X009061Y004174D02*
X009065Y004174D01*
X009065Y004075D02*
X008666Y004075D01*
X008666Y003977D02*
X009065Y003977D01*
X009065Y003878D02*
X008666Y003878D01*
X008666Y003780D02*
X009065Y003780D01*
X009065Y003681D02*
X008666Y003681D01*
X008666Y003583D02*
X009065Y003583D01*
X009065Y003484D02*
X008666Y003484D01*
X008666Y003386D02*
X009065Y003386D01*
X009065Y003287D02*
X008367Y003287D01*
X008270Y003287D02*
X007858Y003287D01*
X007858Y003189D02*
X007972Y003189D01*
X007972Y003236D02*
X007972Y002388D01*
X007858Y002388D01*
X007858Y004157D01*
X007876Y004157D01*
X007952Y004233D01*
X007952Y004298D01*
X007992Y004298D01*
X007992Y004266D01*
X007993Y004266D01*
X007982Y004248D01*
X007972Y004210D01*
X007972Y003333D01*
X008270Y003333D01*
X008270Y003236D01*
X007972Y003236D01*
X007972Y003090D02*
X007858Y003090D01*
X007858Y002992D02*
X007972Y002992D01*
X007972Y002893D02*
X007858Y002893D01*
X007858Y002795D02*
X007972Y002795D01*
X007972Y002696D02*
X007858Y002696D01*
X007858Y002598D02*
X007972Y002598D01*
X007972Y002499D02*
X007858Y002499D01*
X007858Y002401D02*
X007972Y002401D01*
X008666Y002401D02*
X009051Y002401D01*
X009065Y002499D02*
X008666Y002499D01*
X008666Y002598D02*
X009065Y002598D01*
X009065Y002696D02*
X008666Y002696D01*
X008666Y002795D02*
X009065Y002795D01*
X009065Y002893D02*
X008666Y002893D01*
X008666Y002992D02*
X009065Y002992D01*
X009065Y003090D02*
X008666Y003090D01*
X008666Y003189D02*
X009065Y003189D01*
X008680Y004174D02*
X008666Y004174D01*
X008280Y004478D02*
X008025Y004478D01*
X007975Y004528D01*
X007975Y005158D01*
X007921Y005212D01*
X007625Y005212D01*
X007075Y004503D02*
X006779Y004503D01*
X006675Y004608D01*
X006675Y005278D01*
X006575Y005378D01*
X006712Y005651D02*
X006865Y005651D01*
X006865Y005750D02*
X006644Y005750D01*
X006742Y005848D02*
X006949Y005848D01*
X007047Y005947D02*
X006841Y005947D01*
X006939Y006045D02*
X009065Y006045D01*
X009065Y005947D02*
X008303Y005947D01*
X008401Y005848D02*
X009065Y005848D01*
X009065Y005750D02*
X008490Y005750D01*
X008490Y005651D02*
X009065Y005651D01*
X008636Y005553D02*
X008514Y005553D01*
X008567Y005454D02*
X008583Y005454D01*
X008583Y005356D02*
X008567Y005356D01*
X008567Y005257D02*
X008583Y005257D01*
X008583Y005159D02*
X008567Y005159D01*
X008551Y005060D02*
X008599Y005060D01*
X008637Y004765D02*
X008492Y004765D01*
X007992Y004272D02*
X007952Y004272D01*
X007972Y004174D02*
X007893Y004174D01*
X007858Y004075D02*
X007972Y004075D01*
X007972Y003977D02*
X007858Y003977D01*
X007858Y003878D02*
X007972Y003878D01*
X007972Y003780D02*
X007858Y003780D01*
X007858Y003681D02*
X007972Y003681D01*
X007972Y003583D02*
X007858Y003583D01*
X007858Y003484D02*
X007972Y003484D01*
X007972Y003386D02*
X007858Y003386D01*
X007204Y003314D02*
X007204Y002388D01*
X007204Y002598D02*
X005952Y002598D01*
X005952Y002696D02*
X007204Y002696D01*
X007204Y002795D02*
X005931Y002795D01*
X005748Y002905D02*
X006250Y002905D01*
X006326Y002981D01*
X006326Y003110D01*
X006338Y003098D01*
X006459Y003048D01*
X006591Y003048D01*
X006712Y003098D01*
X006805Y003191D01*
X006855Y003312D01*
X006855Y003443D01*
X006805Y003564D01*
X006712Y003657D01*
X006591Y003708D01*
X006459Y003708D01*
X006338Y003657D01*
X006323Y003643D01*
X006284Y003682D01*
X006309Y003707D01*
X006309Y003751D01*
X006400Y003751D01*
X006476Y003827D01*
X006476Y003868D01*
X006651Y003868D01*
X007204Y003314D01*
X007204Y003287D02*
X006845Y003287D01*
X006855Y003386D02*
X007133Y003386D01*
X007034Y003484D02*
X006838Y003484D01*
X006787Y003583D02*
X006936Y003583D01*
X006837Y003681D02*
X006655Y003681D01*
X006739Y003780D02*
X006429Y003780D01*
X006395Y003681D02*
X006285Y003681D01*
X006129Y003782D02*
X006075Y003728D01*
X004875Y003728D01*
X004625Y003478D01*
X003855Y003478D01*
X003755Y003578D01*
X003575Y003578D01*
X003475Y003678D01*
X003475Y003873D01*
X003725Y003328D02*
X001575Y003328D01*
X000975Y003128D02*
X003625Y003128D01*
X003869Y002883D01*
X003869Y002271D01*
X004125Y002271D02*
X004125Y002928D01*
X003725Y003328D01*
X004305Y002893D02*
X004328Y002893D01*
X004352Y002869D02*
X004464Y002823D01*
X004586Y002823D01*
X004698Y002869D01*
X004776Y002948D01*
X004949Y002948D01*
X004960Y002945D01*
X005000Y002905D01*
X005502Y002905D01*
X005578Y002981D01*
X005578Y003548D01*
X005672Y003548D01*
X005672Y002981D01*
X005748Y002905D01*
X005672Y002992D02*
X005578Y002992D01*
X005578Y003090D02*
X005672Y003090D01*
X005672Y003189D02*
X005578Y003189D01*
X005578Y003287D02*
X005672Y003287D01*
X005672Y003386D02*
X005578Y003386D01*
X005578Y003484D02*
X005672Y003484D01*
X005251Y003311D02*
X004968Y003128D01*
X004525Y003128D01*
X004722Y002893D02*
X007204Y002893D01*
X007204Y002992D02*
X006326Y002992D01*
X006326Y003090D02*
X006357Y003090D01*
X006693Y003090D02*
X007204Y003090D01*
X007204Y003189D02*
X006803Y003189D01*
X006129Y003782D02*
X006129Y004078D01*
X006129Y004578D02*
X006125Y004582D01*
X006125Y005328D02*
X006006Y005447D01*
X005369Y005447D01*
X005172Y005447D02*
X005172Y005178D01*
X005172Y005447D02*
X005172Y005774D01*
X005025Y005896D02*
X004982Y005853D01*
X004982Y005744D01*
X004925Y005744D01*
X004925Y005978D01*
X004672Y005978D01*
X004672Y006004D01*
X004666Y006028D01*
X004672Y006051D01*
X004672Y006078D01*
X004925Y006078D01*
X004925Y006311D01*
X005025Y006311D01*
X005025Y006078D01*
X004925Y006078D01*
X004925Y005978D01*
X005025Y005978D01*
X005278Y005978D01*
X005278Y006004D01*
X005284Y006028D01*
X005278Y006051D01*
X005278Y006078D01*
X005025Y006078D01*
X005025Y005978D01*
X005025Y005896D01*
X005025Y005947D02*
X004925Y005947D01*
X005019Y005947D02*
X003869Y005947D01*
X003813Y005947D02*
X004097Y005947D01*
X004097Y005929D02*
X004196Y005929D01*
X004196Y005929D01*
X004097Y005929D01*
X004097Y005854D01*
X004107Y005816D01*
X004127Y005782D01*
X004155Y005754D01*
X004189Y005734D01*
X004227Y005724D01*
X004353Y005724D01*
X004353Y005683D01*
X004363Y005645D01*
X004383Y005611D01*
X004386Y005608D01*
X004250Y005608D01*
X004145Y005502D01*
X003822Y005179D01*
X003822Y005275D01*
X003523Y005275D01*
X003523Y005372D01*
X003822Y005372D01*
X003822Y005560D01*
X003812Y005598D01*
X003792Y005632D01*
X003764Y005660D01*
X003730Y005680D01*
X003708Y005685D01*
X003726Y005685D01*
X003802Y005761D01*
X003802Y005936D01*
X004109Y006243D01*
X004107Y006239D01*
X004097Y006201D01*
X004097Y006126D01*
X004097Y006051D01*
X004103Y006028D01*
X004097Y006004D01*
X004097Y005929D01*
X004098Y005848D02*
X003802Y005848D01*
X003842Y005848D02*
X004942Y005848D01*
X004925Y005848D02*
X004982Y005848D01*
X004982Y005750D02*
X004925Y005750D01*
X004925Y006045D02*
X004671Y006045D01*
X004778Y006224D02*
X004778Y006608D01*
X004581Y006608D02*
X004551Y006578D01*
X004175Y006578D01*
X004225Y006778D02*
X004025Y006778D01*
X003775Y006528D01*
X003510Y006528D01*
X003475Y006032D02*
X003629Y006032D01*
X003911Y006045D02*
X004098Y006045D01*
X004097Y006126D02*
X004196Y006126D01*
X004196Y006126D01*
X004097Y006126D01*
X004097Y006144D02*
X004010Y006144D01*
X004066Y006144D02*
X006349Y006144D01*
X006444Y006144D02*
X005853Y006144D01*
X005853Y006126D02*
X005754Y006126D01*
X005754Y006126D01*
X005853Y006126D01*
X005852Y006045D02*
X006346Y006045D01*
X006244Y006045D02*
X003968Y006045D01*
X004108Y006242D02*
X004109Y006242D01*
X004167Y006242D02*
X006454Y006242D01*
X006543Y006242D02*
X005841Y006242D01*
X005843Y006341D02*
X005597Y006341D01*
X005567Y006341D02*
X006559Y006341D01*
X006507Y006341D02*
X006641Y006341D01*
X006664Y006439D02*
X005975Y006439D01*
X005975Y006538D02*
X006769Y006538D01*
X006838Y006538D02*
X006522Y006538D01*
X006522Y006439D02*
X006740Y006439D01*
X006874Y006636D02*
X005975Y006636D01*
X005975Y006735D02*
X006978Y006735D01*
X007035Y006735D02*
X006522Y006735D01*
X006522Y006833D02*
X007115Y006833D01*
X007028Y006833D02*
X005975Y006833D01*
X005975Y006932D02*
X007032Y006932D01*
X007115Y006932D02*
X006492Y006932D01*
X006470Y007030D02*
X007115Y007030D01*
X007036Y007030D02*
X006527Y007030D01*
X006542Y007129D02*
X007041Y007129D01*
X007115Y007129D02*
X006502Y007129D01*
X006502Y007227D02*
X007115Y007227D01*
X007045Y007227D02*
X006542Y007227D01*
X006542Y007326D02*
X007008Y007326D01*
X007060Y007326D02*
X006502Y007326D01*
X006502Y007424D02*
X007011Y007424D01*
X006967Y007424D02*
X006542Y007424D01*
X006542Y007523D02*
X006955Y007523D01*
X006995Y007523D02*
X006502Y007523D01*
X006483Y007621D02*
X007007Y007621D01*
X006963Y007621D02*
X006540Y007621D01*
X006285Y008015D02*
X008006Y008015D01*
X007992Y007326D02*
X007725Y007326D01*
X007725Y007227D02*
X007955Y007227D01*
X007995Y007227D02*
X007535Y007227D01*
X007535Y007129D02*
X007995Y007129D01*
X007955Y007129D02*
X007725Y007129D01*
X007535Y007030D02*
X007995Y007030D01*
X007995Y006932D02*
X007535Y006932D01*
X007535Y006833D02*
X007995Y006833D01*
X007995Y006735D02*
X007535Y006735D01*
X007530Y006636D02*
X007995Y006636D01*
X007995Y006538D02*
X007432Y006538D01*
X007333Y006439D02*
X007995Y006439D01*
X008019Y006341D02*
X007235Y006341D01*
X007136Y006242D02*
X009065Y006242D01*
X009065Y006144D02*
X007038Y006144D01*
X006937Y006636D02*
X006223Y006636D01*
X006223Y006538D02*
X006127Y006538D01*
X006127Y006439D02*
X006223Y006439D01*
X006223Y006341D02*
X006127Y006341D01*
X005828Y006439D02*
X005691Y006439D01*
X005804Y006538D02*
X005828Y006562D01*
X005725Y006728D02*
X005606Y006608D01*
X005369Y006608D01*
X005175Y006611D02*
X005175Y006978D01*
X004625Y007528D01*
X004324Y007227D02*
X004242Y007227D01*
X004253Y007129D02*
X004321Y007129D01*
X004475Y007028D02*
X004825Y007028D01*
X004975Y006878D01*
X004975Y006608D01*
X005172Y006608D02*
X005175Y006611D01*
X005025Y006242D02*
X004925Y006242D01*
X004925Y006144D02*
X005025Y006144D01*
X005025Y006045D02*
X005279Y006045D01*
X005331Y005947D02*
X006144Y005947D01*
X006149Y005848D02*
X005852Y005848D01*
X005853Y005947D02*
X006247Y005947D01*
X006046Y005848D02*
X005405Y005848D01*
X005532Y005750D02*
X005947Y005750D01*
X005952Y005651D02*
X005589Y005651D01*
X005788Y005750D02*
X006050Y005750D01*
X005754Y005929D02*
X005754Y005929D01*
X005566Y005978D02*
X005566Y005978D01*
X005566Y006078D01*
X005566Y006078D01*
X005566Y005978D01*
X005566Y006045D02*
X005566Y006045D01*
X004975Y005447D02*
X004975Y004223D01*
X005121Y004078D01*
X005421Y004078D01*
X005251Y003311D02*
X005118Y003328D01*
X004537Y002696D02*
X004305Y002696D01*
X004866Y002007D02*
X004903Y002007D01*
X004987Y001711D02*
X005345Y001711D01*
X005191Y001613D02*
X005062Y001613D01*
X005062Y001514D02*
X005098Y001514D01*
X005256Y002007D02*
X005599Y002007D01*
X005747Y001711D02*
X006141Y001711D01*
X006141Y001613D02*
X005902Y001613D01*
X005994Y001514D02*
X006141Y001514D01*
X006141Y001416D02*
X006035Y001416D01*
X006070Y001317D02*
X006141Y001317D01*
X006141Y001219D02*
X006070Y001219D01*
X006069Y001120D02*
X006141Y001120D01*
X006141Y001022D02*
X006028Y001022D01*
X005982Y000923D02*
X006141Y000923D01*
X006141Y000825D02*
X005884Y000825D01*
X004169Y001711D02*
X004081Y001711D01*
X003263Y001711D02*
X002905Y001711D01*
X003059Y001613D02*
X003188Y001613D01*
X003188Y001514D02*
X003152Y001514D01*
X002994Y002007D02*
X001756Y002007D01*
X001689Y002073D02*
X001689Y002073D01*
X001611Y002105D02*
X002877Y002105D01*
X002826Y002204D02*
X000610Y002204D01*
X000610Y002302D02*
X002804Y002302D01*
X002804Y002401D02*
X000610Y002401D01*
X000610Y002499D02*
X002844Y002499D01*
X002920Y002598D02*
X000610Y002598D01*
X000610Y002696D02*
X000710Y002696D01*
X000610Y002105D02*
X000839Y002105D01*
X000694Y002007D02*
X000610Y002007D01*
X001832Y000825D02*
X002366Y000825D01*
X002268Y000923D02*
X001924Y000923D01*
X001920Y000913D02*
X001920Y000913D01*
X001965Y001022D02*
X002222Y001022D01*
X002181Y001120D02*
X002006Y001120D01*
X002045Y001219D02*
X002180Y001219D01*
X002180Y001317D02*
X002045Y001317D01*
X002045Y001416D02*
X002215Y001416D01*
X002256Y001514D02*
X002045Y001514D01*
X002015Y001613D02*
X002348Y001613D01*
X002503Y001711D02*
X001974Y001711D01*
X002275Y004578D02*
X002821Y004578D01*
X002825Y004582D01*
X002825Y005323D01*
X003192Y005356D02*
X003876Y005356D01*
X003900Y005257D02*
X003822Y005257D01*
X003771Y005257D02*
X003192Y005257D01*
X003192Y005159D02*
X003665Y005159D01*
X003523Y005356D02*
X003998Y005356D01*
X003982Y005454D02*
X003192Y005454D01*
X003296Y005553D02*
X004088Y005553D01*
X004097Y005454D02*
X003822Y005454D01*
X003822Y005553D02*
X004195Y005553D01*
X004193Y005651D02*
X003748Y005651D01*
X003773Y005651D02*
X004361Y005651D01*
X004418Y005750D02*
X003842Y005750D01*
X003790Y005750D02*
X004162Y005750D01*
X004384Y005978D02*
X004384Y005978D01*
X004384Y006078D01*
X004384Y006078D01*
X004384Y005978D01*
X004384Y006045D02*
X004384Y006045D01*
X004325Y005428D02*
X004562Y005428D01*
X004581Y005447D01*
X004775Y005444D02*
X004778Y005447D01*
X004775Y005444D02*
X004775Y005128D01*
X004725Y005078D01*
X004275Y005078D01*
X004125Y004928D01*
X004125Y004582D01*
X004579Y004582D01*
X004625Y004628D01*
X003825Y004928D02*
X004325Y005428D01*
X003825Y004928D02*
X003525Y004928D01*
X003475Y004878D01*
X003475Y004582D01*
X003346Y005060D02*
X003192Y005060D01*
X001844Y006144D02*
X001025Y006144D01*
X001025Y006045D02*
X000925Y006045D01*
X000925Y005947D02*
X001025Y005947D01*
X001025Y005848D02*
X000925Y005848D01*
X000925Y005750D02*
X001025Y005750D01*
X001025Y005651D02*
X000925Y005651D01*
X000765Y005651D02*
X000610Y005651D01*
X000610Y005750D02*
X000618Y005750D01*
X000972Y005454D02*
X001069Y005454D01*
X001069Y005356D02*
X000972Y005356D01*
X000972Y005257D02*
X001069Y005257D01*
X000654Y005060D02*
X000610Y005060D01*
X000610Y004962D02*
X000654Y004962D01*
X000670Y004863D02*
X000610Y004863D01*
X004225Y006778D02*
X004475Y007028D01*
X002601Y009000D02*
X002522Y009000D01*
X002522Y008996D02*
X002522Y009183D01*
X002223Y009183D01*
X002223Y009280D01*
X002127Y009280D01*
X002127Y009598D01*
X002045Y009598D01*
X002045Y009891D01*
X001920Y010192D01*
X001770Y010343D01*
X002633Y010343D01*
X002551Y010261D01*
X002475Y010077D01*
X002475Y009878D01*
X002551Y009694D01*
X002692Y009554D01*
X002767Y009522D01*
X002769Y009168D01*
X002448Y008847D01*
X002426Y008870D01*
X002408Y008870D01*
X002430Y008876D01*
X002464Y008895D01*
X002492Y008923D01*
X002512Y008957D01*
X002522Y008996D01*
X002502Y008902D02*
X002470Y008902D01*
X002522Y009099D02*
X002699Y009099D01*
X002769Y009197D02*
X002223Y009197D01*
X002223Y009280D02*
X002522Y009280D01*
X002522Y009468D01*
X002512Y009506D01*
X002492Y009541D01*
X002464Y009568D01*
X002430Y009588D01*
X002392Y009598D01*
X002223Y009598D01*
X002223Y009280D01*
X002223Y009296D02*
X002127Y009296D01*
X002127Y009394D02*
X002223Y009394D01*
X002223Y009493D02*
X002127Y009493D01*
X002127Y009591D02*
X002223Y009591D01*
X002419Y009591D02*
X002654Y009591D01*
X002556Y009690D02*
X002045Y009690D01*
X002045Y009788D02*
X002512Y009788D01*
X002475Y009887D02*
X002045Y009887D01*
X002006Y009985D02*
X002475Y009985D01*
X002478Y010084D02*
X001965Y010084D01*
X001924Y010182D02*
X002519Y010182D01*
X002571Y010281D02*
X001832Y010281D01*
X001920Y010192D02*
X001920Y010192D01*
X002515Y009493D02*
X002767Y009493D01*
X002768Y009394D02*
X002522Y009394D01*
X002522Y009296D02*
X002768Y009296D01*
X007443Y009099D02*
X008694Y009099D01*
X008596Y009197D02*
X007542Y009197D01*
X007535Y009191D02*
X007535Y009191D01*
X007562Y009218D02*
X007562Y009218D01*
X007640Y009296D02*
X008516Y009296D01*
X008530Y009263D02*
X008530Y009263D01*
X008476Y009394D02*
X007685Y009394D01*
X007685Y009493D02*
X008435Y009493D01*
X008405Y009591D02*
X007796Y009591D01*
X007894Y009690D02*
X008405Y009690D01*
X008405Y009788D02*
X007938Y009788D01*
X007975Y009887D02*
X008405Y009887D01*
X008444Y009985D02*
X007975Y009985D01*
X007972Y010084D02*
X008485Y010084D01*
X008526Y010182D02*
X007931Y010182D01*
X007879Y010281D02*
X008618Y010281D01*
X008530Y010192D02*
X008530Y010192D01*
X009002Y007326D02*
X009840Y007326D01*
X009209Y007129D02*
X009055Y007129D01*
X009095Y007129D02*
X009153Y007129D01*
X009175Y007227D02*
X009095Y007227D01*
X009131Y007030D02*
X009055Y007030D01*
X009055Y006932D02*
X009095Y006932D01*
X009095Y006833D02*
X009055Y006833D01*
X009055Y006735D02*
X009127Y006735D01*
X009055Y006636D02*
X009200Y006636D01*
X009215Y006538D02*
X009055Y006538D01*
X009055Y006439D02*
X009190Y006439D01*
X009091Y006341D02*
X009031Y006341D01*
X008048Y007326D02*
X007590Y007326D01*
D32*
X006175Y007332D02*
X006121Y007278D01*
X005825Y007278D01*
X005725Y007178D01*
X005725Y006728D01*
X004975Y006028D02*
X004778Y006224D01*
X005175Y005778D02*
X005172Y005774D01*
X005172Y005178D02*
X005222Y005128D01*
X005435Y005128D01*
X005525Y005038D01*
X005735Y005038D01*
X005421Y004578D02*
X005172Y004826D01*
X005172Y005178D01*
X004625Y003978D02*
X004521Y003873D01*
X004125Y003873D01*
X003475Y003873D02*
X002825Y003873D01*
X003629Y006032D02*
X004175Y006578D01*
X003887Y007054D02*
X003401Y007054D01*
X003375Y007078D01*
D33*
X002863Y007054D02*
X002863Y006550D01*
X002840Y006528D01*
X002825Y006493D01*
X002825Y006032D01*
X003475Y006032D01*
X002825Y006032D02*
X002029Y006032D01*
X001775Y005778D01*
X001775Y005173D01*
X001729Y005128D01*
X001729Y004123D01*
X001975Y003878D01*
X002871Y003878D01*
X002825Y003873D01*
X005625Y002444D02*
X005625Y002278D01*
X005725Y002178D01*
X009125Y002178D01*
X009275Y002328D01*
X009275Y004428D01*
X009321Y004473D01*
X009675Y004473D01*
X009275Y004428D02*
X009275Y005188D01*
X009275Y006228D01*
X009425Y006378D01*
X009425Y006878D01*
X008280Y005673D02*
X008175Y005778D01*
X007175Y005778D01*
X007075Y005678D01*
X007075Y005212D01*
X007075Y004503D02*
X007625Y004503D01*
X008280Y005288D02*
X008280Y005673D01*
X008870Y005288D02*
X008875Y005232D01*
X008870Y005288D02*
X009175Y005288D01*
X009275Y005188D01*
X007325Y006728D02*
X007325Y007528D01*
X007325Y006728D02*
X006125Y005528D01*
X006125Y005328D01*
X006125Y004582D01*
X006129Y004078D02*
X006738Y004078D01*
X007531Y003284D01*
X006525Y003378D02*
X005966Y003378D01*
X005999Y003311D01*
X002863Y007054D02*
X001049Y007054D01*
X000975Y007128D01*
X002175Y008523D02*
X002421Y008523D01*
X002979Y009082D01*
X002975Y009978D01*
X003975Y009978D02*
X004475Y009978D01*
X004621Y009832D01*
X004621Y008728D01*
X005329Y008028D02*
X005625Y008028D01*
X005775Y008178D01*
X005775Y009678D01*
X005475Y009978D01*
X006275Y009278D02*
X007325Y009278D01*
X007475Y009428D01*
X007475Y009978D01*
X006275Y009278D02*
X006075Y009078D01*
X006075Y007928D01*
X005675Y007528D01*
X005329Y007528D01*
M02*
