G75*
%MOIN*%
%OFA0B0*%
%FSLAX24Y24*%
%IPPOS*%
%LPD*%
%AMOC8*
5,1,8,0,0,1.08239X$1,22.5*
%
%ADD10C,0.0040*%
%ADD11C,0.0100*%
%ADD12C,0.0020*%
%ADD13C,0.0220*%
%ADD14C,0.0030*%
%ADD15C,0.0080*%
%ADD16C,0.0050*%
%ADD17R,0.0300X0.0180*%
%ADD18R,0.0180X0.0300*%
%ADD19C,0.0060*%
%ADD20R,0.0337X0.0000*%
%ADD21R,0.0337X0.0000*%
%ADD22R,0.0344X0.0001*%
%ADD23R,0.0348X0.0000*%
%ADD24R,0.0347X0.0000*%
%ADD25R,0.0350X0.0000*%
%ADD26R,0.0350X0.0000*%
%ADD27R,0.0352X0.0001*%
%ADD28R,0.0355X0.0000*%
%ADD29R,0.0354X0.0000*%
%ADD30R,0.0356X0.0001*%
%ADD31R,0.0359X0.0000*%
%ADD32R,0.0360X0.0000*%
%ADD33R,0.0361X0.0001*%
%ADD34R,0.0363X0.0000*%
%ADD35R,0.0362X0.0000*%
%ADD36R,0.0365X0.0001*%
%ADD37R,0.0364X0.0001*%
%ADD38R,0.0365X0.0000*%
%ADD39R,0.0366X0.0000*%
%ADD40R,0.0366X0.0000*%
%ADD41R,0.0367X0.0001*%
%ADD42R,0.0369X0.0000*%
%ADD43R,0.0370X0.0001*%
%ADD44R,0.0369X0.0001*%
%ADD45R,0.0370X0.0000*%
%ADD46R,0.0371X0.0000*%
%ADD47R,0.0371X0.0000*%
%ADD48R,0.0372X0.0001*%
%ADD49R,0.0372X0.0001*%
%ADD50R,0.0373X0.0000*%
%ADD51R,0.0373X0.0000*%
%ADD52R,0.0374X0.0001*%
%ADD53R,0.0374X0.0001*%
%ADD54R,0.0375X0.0000*%
%ADD55R,0.0374X0.0000*%
%ADD56R,0.0375X0.0000*%
%ADD57R,0.0375X0.0000*%
%ADD58R,0.0375X0.0001*%
%ADD59R,0.0376X0.0001*%
%ADD60R,0.0376X0.0000*%
%ADD61R,0.0377X0.0001*%
%ADD62R,0.0376X0.0001*%
%ADD63R,0.0377X0.0000*%
%ADD64R,0.0378X0.0000*%
%ADD65R,0.0378X0.0000*%
%ADD66R,0.0379X0.0001*%
%ADD67R,0.0379X0.0000*%
%ADD68R,0.0379X0.0000*%
%ADD69R,0.0380X0.0001*%
%ADD70R,0.0379X0.0001*%
%ADD71R,0.0380X0.0000*%
%ADD72R,0.0379X0.0000*%
%ADD73R,0.0380X0.0000*%
%ADD74R,0.0380X0.0000*%
%ADD75R,0.0380X0.0001*%
%ADD76R,0.0381X0.0001*%
%ADD77R,0.0381X0.0000*%
%ADD78R,0.0381X0.0001*%
%ADD79R,0.0381X0.0001*%
%ADD80R,0.0381X0.0000*%
%ADD81R,0.0382X0.0001*%
%ADD82R,0.0381X0.0001*%
%ADD83R,0.0382X0.0000*%
%ADD84R,0.0382X0.0000*%
%ADD85R,0.0382X0.0001*%
%ADD86R,0.0382X0.0000*%
%ADD87R,0.0383X0.0000*%
%ADD88R,0.0383X0.0001*%
%ADD89R,0.0383X0.0001*%
%ADD90R,0.0383X0.0000*%
%ADD91R,0.0382X0.0001*%
%ADD92R,0.0379X0.0001*%
%ADD93R,0.0381X0.0000*%
%ADD94R,0.0378X0.0001*%
%ADD95R,0.0377X0.0000*%
%ADD96R,0.0376X0.0000*%
%ADD97R,0.0374X0.0000*%
%ADD98R,0.0377X0.0001*%
%ADD99R,0.0372X0.0000*%
%ADD100R,0.0371X0.0001*%
%ADD101R,0.0376X0.0001*%
%ADD102R,0.0371X0.0000*%
%ADD103R,0.0376X0.0000*%
%ADD104R,0.0370X0.0000*%
%ADD105R,0.0369X0.0001*%
%ADD106R,0.0374X0.0001*%
%ADD107R,0.0368X0.0000*%
%ADD108R,0.0374X0.0000*%
%ADD109R,0.0367X0.0001*%
%ADD110R,0.0373X0.0001*%
%ADD111R,0.0366X0.0000*%
%ADD112R,0.0372X0.0000*%
%ADD113R,0.0365X0.0000*%
%ADD114R,0.0371X0.0000*%
%ADD115R,0.0364X0.0001*%
%ADD116R,0.0371X0.0001*%
%ADD117R,0.0362X0.0000*%
%ADD118R,0.0369X0.0000*%
%ADD119R,0.0360X0.0001*%
%ADD120R,0.0369X0.0001*%
%ADD121R,0.0359X0.0000*%
%ADD122R,0.0367X0.0000*%
%ADD123R,0.0357X0.0000*%
%ADD124R,0.0355X0.0001*%
%ADD125R,0.0365X0.0001*%
%ADD126R,0.0354X0.0000*%
%ADD127R,0.0364X0.0000*%
%ADD128R,0.0351X0.0001*%
%ADD129R,0.0363X0.0001*%
%ADD130R,0.0348X0.0000*%
%ADD131R,0.0361X0.0000*%
%ADD132R,0.0345X0.0000*%
%ADD133R,0.0340X0.0001*%
%ADD134R,0.0359X0.0001*%
%ADD135R,0.0258X0.0000*%
%ADD136R,0.0356X0.0000*%
%ADD137R,0.0257X0.0001*%
%ADD138R,0.0354X0.0001*%
%ADD139R,0.0257X0.0000*%
%ADD140R,0.0352X0.0000*%
%ADD141R,0.0347X0.0001*%
%ADD142R,0.0257X0.0000*%
%ADD143R,0.0344X0.0000*%
%ADD144R,0.0257X0.0001*%
%ADD145R,0.0338X0.0001*%
%ADD146R,0.0239X0.0000*%
%ADD147R,0.0256X0.0000*%
%ADD148R,0.0256X0.0001*%
%ADD149R,0.0239X0.0001*%
%ADD150R,0.0239X0.0001*%
%ADD151R,0.0256X0.0000*%
%ADD152R,0.0239X0.0000*%
%ADD153R,0.0256X0.0001*%
%ADD154R,0.0255X0.0000*%
%ADD155R,0.0238X0.0000*%
%ADD156R,0.0255X0.0001*%
%ADD157R,0.0238X0.0001*%
%ADD158R,0.0255X0.0000*%
%ADD159R,0.0255X0.0001*%
%ADD160R,0.0238X0.0001*%
%ADD161R,0.0238X0.0000*%
%ADD162R,0.0255X0.0000*%
%ADD163R,0.0238X0.0000*%
%ADD164R,0.0255X0.0001*%
%ADD165R,0.0238X0.0001*%
%ADD166R,0.0254X0.0000*%
%ADD167R,0.0254X0.0001*%
%ADD168R,0.0237X0.0000*%
%ADD169R,0.0254X0.0001*%
%ADD170R,0.0237X0.0001*%
%ADD171R,0.0254X0.0000*%
%ADD172R,0.0253X0.0000*%
%ADD173R,0.0236X0.0000*%
%ADD174R,0.0253X0.0001*%
%ADD175R,0.0236X0.0001*%
%ADD176R,0.0253X0.0000*%
%ADD177R,0.0253X0.0001*%
%ADD178R,0.0236X0.0001*%
%ADD179R,0.0236X0.0000*%
%ADD180R,0.0252X0.0001*%
%ADD181R,0.0252X0.0000*%
%ADD182R,0.0235X0.0000*%
%ADD183R,0.0235X0.0001*%
%ADD184R,0.0251X0.0000*%
%ADD185R,0.0251X0.0001*%
%ADD186R,0.0235X0.0001*%
%ADD187R,0.0235X0.0000*%
%ADD188R,0.0251X0.0001*%
%ADD189R,0.0251X0.0000*%
%ADD190R,0.0234X0.0000*%
%ADD191R,0.0250X0.0001*%
%ADD192R,0.0234X0.0001*%
%ADD193R,0.0250X0.0000*%
%ADD194R,0.0250X0.0000*%
%ADD195R,0.0234X0.0000*%
%ADD196R,0.0250X0.0001*%
%ADD197R,0.0234X0.0001*%
%ADD198R,0.0250X0.0001*%
%ADD199R,0.0250X0.0000*%
%ADD200R,0.0233X0.0000*%
%ADD201R,0.0249X0.0001*%
%ADD202R,0.0233X0.0001*%
%ADD203R,0.0249X0.0000*%
%ADD204R,0.0233X0.0001*%
%ADD205R,0.0233X0.0000*%
%ADD206R,0.0249X0.0000*%
%ADD207R,0.0249X0.0001*%
%ADD208R,0.0232X0.0000*%
%ADD209R,0.0248X0.0001*%
%ADD210R,0.0232X0.0001*%
%ADD211R,0.0248X0.0000*%
%ADD212R,0.0248X0.0001*%
%ADD213R,0.0232X0.0001*%
%ADD214R,0.0248X0.0000*%
%ADD215R,0.0232X0.0000*%
%ADD216R,0.0247X0.0000*%
%ADD217R,0.0231X0.0000*%
%ADD218R,0.0247X0.0001*%
%ADD219R,0.0231X0.0001*%
%ADD220R,0.0246X0.0001*%
%ADD221R,0.0246X0.0000*%
%ADD222R,0.0231X0.0000*%
%ADD223R,0.0231X0.0001*%
%ADD224R,0.0246X0.0000*%
%ADD225R,0.0246X0.0001*%
%ADD226R,0.0230X0.0000*%
%ADD227R,0.0245X0.0000*%
%ADD228R,0.0245X0.0001*%
%ADD229R,0.0230X0.0001*%
%ADD230R,0.0245X0.0001*%
%ADD231R,0.0230X0.0001*%
%ADD232R,0.0245X0.0000*%
%ADD233R,0.0230X0.0000*%
%ADD234R,0.0245X0.0000*%
%ADD235R,0.0229X0.0000*%
%ADD236R,0.0245X0.0001*%
%ADD237R,0.0229X0.0001*%
%ADD238R,0.0244X0.0000*%
%ADD239R,0.0244X0.0001*%
%ADD240R,0.0229X0.0001*%
%ADD241R,0.0229X0.0000*%
%ADD242R,0.0244X0.0000*%
%ADD243R,0.0228X0.0000*%
%ADD244R,0.0244X0.0001*%
%ADD245R,0.0228X0.0001*%
%ADD246R,0.0243X0.0000*%
%ADD247R,0.0243X0.0001*%
%ADD248R,0.0243X0.0000*%
%ADD249R,0.0228X0.0000*%
%ADD250R,0.0243X0.0001*%
%ADD251R,0.0228X0.0001*%
%ADD252R,0.0242X0.0000*%
%ADD253R,0.0227X0.0000*%
%ADD254R,0.0242X0.0001*%
%ADD255R,0.0227X0.0001*%
%ADD256R,0.0241X0.0000*%
%ADD257R,0.0241X0.0001*%
%ADD258R,0.0227X0.0001*%
%ADD259R,0.0227X0.0000*%
%ADD260R,0.0241X0.0001*%
%ADD261R,0.0241X0.0000*%
%ADD262R,0.0226X0.0000*%
%ADD263R,0.0226X0.0001*%
%ADD264R,0.0240X0.0000*%
%ADD265R,0.0240X0.0001*%
%ADD266R,0.0226X0.0001*%
%ADD267R,0.0240X0.0000*%
%ADD268R,0.0226X0.0000*%
%ADD269R,0.0240X0.0001*%
%ADD270R,0.0225X0.0000*%
%ADD271R,0.0240X0.0001*%
%ADD272R,0.0225X0.0001*%
%ADD273R,0.0240X0.0000*%
%ADD274R,0.0225X0.0000*%
%ADD275R,0.0225X0.0001*%
%ADD276R,0.0239X0.0001*%
%ADD277R,0.0239X0.0000*%
%ADD278R,0.0224X0.0000*%
%ADD279R,0.0224X0.0001*%
%ADD280R,0.0224X0.0001*%
%ADD281R,0.0224X0.0000*%
%ADD282R,0.0223X0.0000*%
%ADD283R,0.0237X0.0001*%
%ADD284R,0.0223X0.0001*%
%ADD285R,0.0237X0.0000*%
%ADD286R,0.0223X0.0001*%
%ADD287R,0.0223X0.0000*%
%ADD288R,0.0236X0.0000*%
%ADD289R,0.0222X0.0000*%
%ADD290R,0.0236X0.0001*%
%ADD291R,0.0222X0.0001*%
%ADD292R,0.0222X0.0000*%
%ADD293R,0.0222X0.0001*%
%ADD294R,0.0221X0.0000*%
%ADD295R,0.0235X0.0000*%
%ADD296R,0.0235X0.0001*%
%ADD297R,0.0221X0.0001*%
%ADD298R,0.0221X0.0001*%
%ADD299R,0.0221X0.0000*%
%ADD300R,0.0234X0.0000*%
%ADD301R,0.0220X0.0000*%
%ADD302R,0.0234X0.0001*%
%ADD303R,0.0220X0.0001*%
%ADD304R,0.0220X0.0001*%
%ADD305R,0.0220X0.0000*%
%ADD306R,0.0219X0.0000*%
%ADD307R,0.0219X0.0001*%
%ADD308R,0.0232X0.0000*%
%ADD309R,0.0232X0.0001*%
%ADD310R,0.0219X0.0000*%
%ADD311R,0.0219X0.0001*%
%ADD312R,0.0231X0.0000*%
%ADD313R,0.0218X0.0000*%
%ADD314R,0.0231X0.0001*%
%ADD315R,0.0218X0.0001*%
%ADD316R,0.0218X0.0001*%
%ADD317R,0.0218X0.0000*%
%ADD318R,0.0217X0.0000*%
%ADD319R,0.0217X0.0001*%
%ADD320R,0.0230X0.0000*%
%ADD321R,0.0230X0.0001*%
%ADD322R,0.0217X0.0001*%
%ADD323R,0.0217X0.0000*%
%ADD324R,0.0216X0.0000*%
%ADD325R,0.0229X0.0001*%
%ADD326R,0.0216X0.0001*%
%ADD327R,0.0229X0.0000*%
%ADD328R,0.0216X0.0000*%
%ADD329R,0.0216X0.0001*%
%ADD330R,0.0215X0.0000*%
%ADD331R,0.0227X0.0001*%
%ADD332R,0.0215X0.0001*%
%ADD333R,0.0227X0.0000*%
%ADD334R,0.0215X0.0001*%
%ADD335R,0.0215X0.0000*%
%ADD336R,0.0214X0.0000*%
%ADD337R,0.0226X0.0001*%
%ADD338R,0.0214X0.0001*%
%ADD339R,0.0226X0.0000*%
%ADD340R,0.0214X0.0001*%
%ADD341R,0.0214X0.0000*%
%ADD342R,0.0213X0.0000*%
%ADD343R,0.0213X0.0001*%
%ADD344R,0.0225X0.0001*%
%ADD345R,0.0225X0.0000*%
%ADD346R,0.0213X0.0000*%
%ADD347R,0.0213X0.0001*%
%ADD348R,0.0213X0.0000*%
%ADD349R,0.0224X0.0000*%
%ADD350R,0.0224X0.0001*%
%ADD351R,0.0213X0.0001*%
%ADD352R,0.0212X0.0001*%
%ADD353R,0.0212X0.0000*%
%ADD354R,0.0211X0.0000*%
%ADD355R,0.0211X0.0001*%
%ADD356R,0.0222X0.0000*%
%ADD357R,0.0222X0.0001*%
%ADD358R,0.0211X0.0001*%
%ADD359R,0.0211X0.0000*%
%ADD360R,0.0210X0.0000*%
%ADD361R,0.0210X0.0001*%
%ADD362R,0.0221X0.0000*%
%ADD363R,0.0221X0.0001*%
%ADD364R,0.0210X0.0000*%
%ADD365R,0.0210X0.0001*%
%ADD366R,0.0209X0.0000*%
%ADD367R,0.0209X0.0001*%
%ADD368R,0.0220X0.0000*%
%ADD369R,0.0220X0.0001*%
%ADD370R,0.0209X0.0001*%
%ADD371R,0.0209X0.0000*%
%ADD372R,0.0208X0.0000*%
%ADD373R,0.0208X0.0001*%
%ADD374R,0.0219X0.0000*%
%ADD375R,0.0219X0.0001*%
%ADD376R,0.0208X0.0001*%
%ADD377R,0.0208X0.0000*%
%ADD378R,0.0208X0.0000*%
%ADD379R,0.0208X0.0001*%
%ADD380R,0.0217X0.0000*%
%ADD381R,0.0207X0.0000*%
%ADD382R,0.0217X0.0001*%
%ADD383R,0.0207X0.0001*%
%ADD384R,0.0206X0.0000*%
%ADD385R,0.0216X0.0001*%
%ADD386R,0.0206X0.0001*%
%ADD387R,0.0216X0.0000*%
%ADD388R,0.0206X0.0001*%
%ADD389R,0.0206X0.0000*%
%ADD390R,0.0205X0.0000*%
%ADD391R,0.0205X0.0001*%
%ADD392R,0.0215X0.0001*%
%ADD393R,0.0205X0.0001*%
%ADD394R,0.0215X0.0000*%
%ADD395R,0.0205X0.0000*%
%ADD396R,0.0204X0.0000*%
%ADD397R,0.0204X0.0001*%
%ADD398R,0.0214X0.0001*%
%ADD399R,0.0214X0.0000*%
%ADD400R,0.0204X0.0000*%
%ADD401R,0.0204X0.0001*%
%ADD402R,0.0203X0.0000*%
%ADD403R,0.0203X0.0001*%
%ADD404R,0.0212X0.0001*%
%ADD405R,0.0203X0.0001*%
%ADD406R,0.0212X0.0000*%
%ADD407R,0.0203X0.0000*%
%ADD408R,0.0203X0.0000*%
%ADD409R,0.0203X0.0001*%
%ADD410R,0.0211X0.0000*%
%ADD411R,0.0211X0.0001*%
%ADD412R,0.0202X0.0001*%
%ADD413R,0.0202X0.0000*%
%ADD414R,0.0201X0.0000*%
%ADD415R,0.0201X0.0001*%
%ADD416R,0.0210X0.0000*%
%ADD417R,0.0201X0.0000*%
%ADD418R,0.0210X0.0001*%
%ADD419R,0.0201X0.0001*%
%ADD420R,0.0200X0.0000*%
%ADD421R,0.0200X0.0001*%
%ADD422R,0.0209X0.0000*%
%ADD423R,0.0209X0.0001*%
%ADD424R,0.0200X0.0001*%
%ADD425R,0.0200X0.0000*%
%ADD426R,0.0199X0.0000*%
%ADD427R,0.0199X0.0001*%
%ADD428R,0.0199X0.0001*%
%ADD429R,0.0207X0.0000*%
%ADD430R,0.0199X0.0000*%
%ADD431R,0.0207X0.0001*%
%ADD432R,0.0198X0.0000*%
%ADD433R,0.0198X0.0001*%
%ADD434R,0.0206X0.0000*%
%ADD435R,0.0198X0.0000*%
%ADD436R,0.0206X0.0001*%
%ADD437R,0.0198X0.0001*%
%ADD438R,0.0198X0.0000*%
%ADD439R,0.0198X0.0001*%
%ADD440R,0.0197X0.0001*%
%ADD441R,0.0205X0.0000*%
%ADD442R,0.0197X0.0000*%
%ADD443R,0.0205X0.0001*%
%ADD444R,0.0196X0.0000*%
%ADD445R,0.0196X0.0001*%
%ADD446R,0.0204X0.0001*%
%ADD447R,0.0196X0.0001*%
%ADD448R,0.0204X0.0000*%
%ADD449R,0.0196X0.0000*%
%ADD450R,0.0195X0.0000*%
%ADD451R,0.0195X0.0001*%
%ADD452R,0.0195X0.0000*%
%ADD453R,0.0202X0.0001*%
%ADD454R,0.0195X0.0001*%
%ADD455R,0.0202X0.0000*%
%ADD456R,0.0194X0.0000*%
%ADD457R,0.0194X0.0001*%
%ADD458R,0.0201X0.0001*%
%ADD459R,0.0194X0.0001*%
%ADD460R,0.0201X0.0000*%
%ADD461R,0.0194X0.0000*%
%ADD462R,0.0193X0.0000*%
%ADD463R,0.0193X0.0001*%
%ADD464R,0.0193X0.0001*%
%ADD465R,0.0193X0.0000*%
%ADD466R,0.0200X0.0001*%
%ADD467R,0.0200X0.0000*%
%ADD468R,0.0192X0.0000*%
%ADD469R,0.0192X0.0001*%
%ADD470R,0.0199X0.0000*%
%ADD471R,0.0192X0.0000*%
%ADD472R,0.0199X0.0001*%
%ADD473R,0.0192X0.0001*%
%ADD474R,0.0191X0.0000*%
%ADD475R,0.0191X0.0001*%
%ADD476R,0.0191X0.0001*%
%ADD477R,0.0191X0.0000*%
%ADD478R,0.0197X0.0000*%
%ADD479R,0.0197X0.0001*%
%ADD480R,0.0190X0.0000*%
%ADD481R,0.0190X0.0001*%
%ADD482R,0.0190X0.0001*%
%ADD483R,0.0196X0.0000*%
%ADD484R,0.0190X0.0000*%
%ADD485R,0.0196X0.0001*%
%ADD486R,0.0189X0.0000*%
%ADD487R,0.0189X0.0001*%
%ADD488R,0.0189X0.0000*%
%ADD489R,0.0189X0.0001*%
%ADD490R,0.0195X0.0000*%
%ADD491R,0.0195X0.0001*%
%ADD492R,0.0188X0.0000*%
%ADD493R,0.0188X0.0001*%
%ADD494R,0.0188X0.0001*%
%ADD495R,0.0194X0.0000*%
%ADD496R,0.0188X0.0000*%
%ADD497R,0.0194X0.0001*%
%ADD498R,0.0187X0.0000*%
%ADD499R,0.0187X0.0001*%
%ADD500R,0.0187X0.0001*%
%ADD501R,0.0187X0.0000*%
%ADD502R,0.0192X0.0000*%
%ADD503R,0.0186X0.0000*%
%ADD504R,0.0192X0.0001*%
%ADD505R,0.0186X0.0001*%
%ADD506R,0.0186X0.0000*%
%ADD507R,0.0191X0.0001*%
%ADD508R,0.0186X0.0001*%
%ADD509R,0.0191X0.0000*%
%ADD510R,0.0185X0.0000*%
%ADD511R,0.0185X0.0001*%
%ADD512R,0.0185X0.0001*%
%ADD513R,0.0185X0.0000*%
%ADD514R,0.0190X0.0001*%
%ADD515R,0.0190X0.0000*%
%ADD516R,0.0184X0.0000*%
%ADD517R,0.0184X0.0001*%
%ADD518R,0.0184X0.0001*%
%ADD519R,0.0184X0.0000*%
%ADD520R,0.0189X0.0001*%
%ADD521R,0.0189X0.0000*%
%ADD522R,0.0183X0.0000*%
%ADD523R,0.0183X0.0001*%
%ADD524R,0.0183X0.0000*%
%ADD525R,0.0183X0.0001*%
%ADD526R,0.0187X0.0001*%
%ADD527R,0.0187X0.0000*%
%ADD528R,0.0182X0.0000*%
%ADD529R,0.0182X0.0001*%
%ADD530R,0.0182X0.0001*%
%ADD531R,0.0182X0.0000*%
%ADD532R,0.0186X0.0000*%
%ADD533R,0.0186X0.0001*%
%ADD534R,0.0181X0.0000*%
%ADD535R,0.0181X0.0001*%
%ADD536R,0.0181X0.0001*%
%ADD537R,0.0181X0.0000*%
%ADD538R,0.0185X0.0000*%
%ADD539R,0.0180X0.0000*%
%ADD540R,0.0185X0.0001*%
%ADD541R,0.0180X0.0001*%
%ADD542R,0.0180X0.0000*%
%ADD543R,0.0180X0.0001*%
%ADD544R,0.0184X0.0000*%
%ADD545R,0.0184X0.0001*%
%ADD546R,0.0179X0.0000*%
%ADD547R,0.0179X0.0001*%
%ADD548R,0.0179X0.0001*%
%ADD549R,0.0179X0.0000*%
%ADD550R,0.0182X0.0000*%
%ADD551R,0.0178X0.0000*%
%ADD552R,0.0182X0.0001*%
%ADD553R,0.0178X0.0001*%
%ADD554R,0.0178X0.0001*%
%ADD555R,0.0178X0.0000*%
%ADD556R,0.0181X0.0000*%
%ADD557R,0.0177X0.0000*%
%ADD558R,0.0181X0.0001*%
%ADD559R,0.0177X0.0001*%
%ADD560R,0.0177X0.0000*%
%ADD561R,0.0177X0.0001*%
%ADD562R,0.0180X0.0000*%
%ADD563R,0.0176X0.0000*%
%ADD564R,0.0180X0.0001*%
%ADD565R,0.0176X0.0001*%
%ADD566R,0.0176X0.0001*%
%ADD567R,0.0176X0.0000*%
%ADD568R,0.0179X0.0001*%
%ADD569R,0.0179X0.0000*%
%ADD570R,0.0175X0.0000*%
%ADD571R,0.0175X0.0001*%
%ADD572R,0.0175X0.0001*%
%ADD573R,0.0175X0.0000*%
%ADD574R,0.0174X0.0000*%
%ADD575R,0.0177X0.0001*%
%ADD576R,0.0174X0.0001*%
%ADD577R,0.0177X0.0000*%
%ADD578R,0.0174X0.0000*%
%ADD579R,0.0174X0.0001*%
%ADD580R,0.0176X0.0001*%
%ADD581R,0.0176X0.0000*%
%ADD582R,0.0173X0.0000*%
%ADD583R,0.0173X0.0001*%
%ADD584R,0.0173X0.0001*%
%ADD585R,0.0173X0.0000*%
%ADD586R,0.0173X0.0000*%
%ADD587R,0.0175X0.0001*%
%ADD588R,0.0173X0.0001*%
%ADD589R,0.0175X0.0000*%
%ADD590R,0.0172X0.0001*%
%ADD591R,0.0172X0.0000*%
%ADD592R,0.0174X0.0000*%
%ADD593R,0.0171X0.0000*%
%ADD594R,0.0174X0.0001*%
%ADD595R,0.0171X0.0001*%
%ADD596R,0.0171X0.0000*%
%ADD597R,0.0171X0.0001*%
%ADD598R,0.0170X0.0000*%
%ADD599R,0.0172X0.0000*%
%ADD600R,0.0172X0.0001*%
%ADD601R,0.0170X0.0001*%
%ADD602R,0.0170X0.0001*%
%ADD603R,0.0170X0.0000*%
%ADD604R,0.0171X0.0000*%
%ADD605R,0.0169X0.0000*%
%ADD606R,0.0171X0.0001*%
%ADD607R,0.0169X0.0001*%
%ADD608R,0.0169X0.0001*%
%ADD609R,0.0169X0.0000*%
%ADD610R,0.0168X0.0000*%
%ADD611R,0.0168X0.0001*%
%ADD612R,0.0170X0.0000*%
%ADD613R,0.0170X0.0001*%
%ADD614R,0.0168X0.0000*%
%ADD615R,0.0168X0.0001*%
%ADD616R,0.0169X0.0000*%
%ADD617R,0.0168X0.0000*%
%ADD618R,0.0169X0.0001*%
%ADD619R,0.0168X0.0001*%
%ADD620R,0.0167X0.0001*%
%ADD621R,0.0167X0.0000*%
%ADD622R,0.0166X0.0000*%
%ADD623R,0.0166X0.0001*%
%ADD624R,0.0167X0.0000*%
%ADD625R,0.0167X0.0001*%
%ADD626R,0.0166X0.0001*%
%ADD627R,0.0166X0.0000*%
%ADD628R,0.0165X0.0000*%
%ADD629R,0.0166X0.0001*%
%ADD630R,0.0165X0.0001*%
%ADD631R,0.0166X0.0000*%
%ADD632R,0.0165X0.0000*%
%ADD633R,0.0165X0.0001*%
%ADD634R,0.0164X0.0000*%
%ADD635R,0.0165X0.0001*%
%ADD636R,0.0164X0.0001*%
%ADD637R,0.0165X0.0000*%
%ADD638R,0.0164X0.0001*%
%ADD639R,0.0164X0.0000*%
%ADD640R,0.0163X0.0000*%
%ADD641R,0.0164X0.0001*%
%ADD642R,0.0163X0.0001*%
%ADD643R,0.0164X0.0000*%
%ADD644R,0.0163X0.0001*%
%ADD645R,0.0163X0.0000*%
%ADD646R,0.0163X0.0000*%
%ADD647R,0.0163X0.0001*%
%ADD648R,0.0162X0.0001*%
%ADD649R,0.0162X0.0000*%
%ADD650R,0.0162X0.0000*%
%ADD651R,0.0161X0.0001*%
%ADD652R,0.0162X0.0001*%
%ADD653R,0.0161X0.0000*%
%ADD654R,0.0161X0.0000*%
%ADD655R,0.0161X0.0001*%
%ADD656R,0.0160X0.0001*%
%ADD657R,0.0161X0.0001*%
%ADD658R,0.0160X0.0000*%
%ADD659R,0.0161X0.0000*%
%ADD660R,0.0160X0.0000*%
%ADD661R,0.0160X0.0001*%
%ADD662R,0.0160X0.0000*%
%ADD663R,0.0160X0.0001*%
%ADD664R,0.0159X0.0001*%
%ADD665R,0.0159X0.0000*%
%ADD666R,0.0159X0.0000*%
%ADD667R,0.0159X0.0001*%
%ADD668R,0.0159X0.0000*%
%ADD669R,0.0159X0.0001*%
%ADD670R,0.0158X0.0000*%
%ADD671R,0.0158X0.0001*%
%ADD672R,0.0158X0.0000*%
%ADD673R,0.0158X0.0000*%
%ADD674R,0.0158X0.0001*%
%ADD675R,0.0158X0.0001*%
%ADD676R,0.0157X0.0000*%
%ADD677R,0.0157X0.0001*%
%ADD678R,0.0156X0.0000*%
%ADD679R,0.0156X0.0001*%
%ADD680R,0.0156X0.0000*%
%ADD681R,0.0156X0.0001*%
%ADD682R,0.0157X0.0001*%
%ADD683R,0.0155X0.0000*%
%ADD684R,0.0157X0.0000*%
%ADD685R,0.0155X0.0001*%
%ADD686R,0.0155X0.0001*%
%ADD687R,0.0155X0.0000*%
%ADD688R,0.0155X0.0000*%
%ADD689R,0.0156X0.0000*%
%ADD690R,0.0155X0.0001*%
%ADD691R,0.0156X0.0001*%
%ADD692R,0.0154X0.0000*%
%ADD693R,0.0154X0.0001*%
%ADD694R,0.0154X0.0001*%
%ADD695R,0.0154X0.0000*%
%ADD696R,0.0153X0.0000*%
%ADD697R,0.0153X0.0001*%
%ADD698R,0.0154X0.0000*%
%ADD699R,0.0152X0.0001*%
%ADD700R,0.0154X0.0001*%
%ADD701R,0.0152X0.0000*%
%ADD702R,0.0152X0.0001*%
%ADD703R,0.0152X0.0000*%
%ADD704R,0.0151X0.0000*%
%ADD705R,0.0153X0.0000*%
%ADD706R,0.0151X0.0001*%
%ADD707R,0.0153X0.0001*%
%ADD708R,0.0151X0.0001*%
%ADD709R,0.0151X0.0000*%
%ADD710R,0.0150X0.0001*%
%ADD711R,0.0150X0.0000*%
%ADD712R,0.0150X0.0000*%
%ADD713R,0.0150X0.0001*%
%ADD714R,0.0150X0.0001*%
%ADD715R,0.0152X0.0001*%
%ADD716R,0.0150X0.0000*%
%ADD717R,0.0152X0.0000*%
%ADD718R,0.0149X0.0000*%
%ADD719R,0.0149X0.0001*%
%ADD720R,0.0149X0.0000*%
%ADD721R,0.0149X0.0001*%
%ADD722R,0.0151X0.0001*%
%ADD723R,0.0151X0.0000*%
%ADD724R,0.0148X0.0001*%
%ADD725R,0.0148X0.0000*%
%ADD726R,0.0260X0.0000*%
%ADD727R,0.0259X0.0000*%
%ADD728R,0.0260X0.0001*%
%ADD729R,0.0259X0.0001*%
%ADD730R,0.0868X0.0000*%
%ADD731R,0.0868X0.0001*%
%ADD732R,0.0321X0.0000*%
%ADD733R,0.0305X0.0000*%
%ADD734R,0.0321X0.0001*%
%ADD735R,0.0305X0.0001*%
%ADD736R,0.0867X0.0000*%
%ADD737R,0.0867X0.0001*%
%ADD738R,0.0867X0.0000*%
%ADD739R,0.0867X0.0001*%
%ADD740R,0.0866X0.0000*%
%ADD741R,0.0866X0.0000*%
%ADD742R,0.0866X0.0001*%
%ADD743R,0.0866X0.0000*%
%ADD744R,0.0866X0.0001*%
%ADD745R,0.0865X0.0000*%
%ADD746R,0.0865X0.0001*%
%ADD747R,0.0864X0.0001*%
%ADD748R,0.0864X0.0000*%
%ADD749R,0.0864X0.0001*%
%ADD750R,0.0864X0.0000*%
%ADD751R,0.0864X0.0001*%
%ADD752R,0.0864X0.0000*%
%ADD753R,0.0863X0.0001*%
%ADD754R,0.0863X0.0000*%
%ADD755R,0.0862X0.0001*%
%ADD756R,0.0862X0.0000*%
%ADD757R,0.0862X0.0001*%
%ADD758R,0.0862X0.0000*%
%ADD759R,0.0861X0.0001*%
%ADD760R,0.0861X0.0000*%
%ADD761R,0.0861X0.0001*%
%ADD762R,0.0860X0.0001*%
%ADD763R,0.0860X0.0000*%
%ADD764R,0.0859X0.0000*%
%ADD765R,0.0859X0.0001*%
%ADD766R,0.0858X0.0000*%
%ADD767R,0.0858X0.0001*%
%ADD768R,0.0857X0.0001*%
%ADD769R,0.0857X0.0000*%
%ADD770R,0.0856X0.0000*%
%ADD771R,0.0856X0.0001*%
%ADD772R,0.0855X0.0000*%
%ADD773R,0.0855X0.0001*%
%ADD774R,0.0855X0.0000*%
%ADD775R,0.0855X0.0001*%
%ADD776R,0.0854X0.0000*%
%ADD777R,0.0854X0.0001*%
%ADD778R,0.0853X0.0000*%
%ADD779R,0.0853X0.0001*%
%ADD780R,0.0853X0.0000*%
%ADD781R,0.0853X0.0000*%
%ADD782R,0.0852X0.0001*%
%ADD783R,0.0852X0.0000*%
%ADD784R,0.0852X0.0001*%
%ADD785R,0.0851X0.0000*%
%ADD786R,0.0850X0.0001*%
%ADD787R,0.0850X0.0000*%
%ADD788R,0.0850X0.0001*%
%ADD789R,0.0849X0.0000*%
%ADD790R,0.0848X0.0001*%
%ADD791R,0.0848X0.0000*%
%ADD792R,0.0848X0.0001*%
%ADD793R,0.0848X0.0000*%
%ADD794R,0.0847X0.0000*%
%ADD795R,0.0847X0.0001*%
%ADD796R,0.0846X0.0000*%
%ADD797R,0.0846X0.0001*%
%ADD798R,0.0845X0.0000*%
%ADD799R,0.0845X0.0000*%
%ADD800R,0.0845X0.0001*%
%ADD801R,0.0843X0.0000*%
%ADD802R,0.0843X0.0001*%
%ADD803R,0.0841X0.0000*%
%ADD804R,0.0840X0.0000*%
%ADD805R,0.0839X0.0001*%
%ADD806R,0.0838X0.0000*%
%ADD807R,0.0837X0.0001*%
%ADD808R,0.0836X0.0000*%
%ADD809R,0.0835X0.0000*%
%ADD810R,0.0834X0.0001*%
%ADD811R,0.0833X0.0000*%
%ADD812R,0.0832X0.0001*%
%ADD813R,0.0831X0.0000*%
%ADD814R,0.0830X0.0000*%
%ADD815R,0.0829X0.0001*%
%ADD816R,0.0828X0.0000*%
%ADD817R,0.0827X0.0001*%
%ADD818R,0.0826X0.0000*%
%ADD819R,0.0825X0.0000*%
%ADD820R,0.0824X0.0001*%
%ADD821R,0.0823X0.0000*%
%ADD822R,0.0822X0.0001*%
%ADD823R,0.0821X0.0000*%
%ADD824R,0.0820X0.0000*%
%ADD825R,0.0819X0.0001*%
%ADD826R,0.0818X0.0000*%
%ADD827R,0.0817X0.0001*%
%ADD828R,0.0816X0.0000*%
%ADD829R,0.0815X0.0000*%
%ADD830R,0.0814X0.0001*%
%ADD831R,0.0813X0.0000*%
%ADD832R,0.0812X0.0001*%
%ADD833R,0.0811X0.0000*%
%ADD834R,0.0810X0.0000*%
%ADD835R,0.0808X0.0001*%
%ADD836R,0.0808X0.0000*%
%ADD837R,0.0807X0.0001*%
%ADD838R,0.0805X0.0000*%
%ADD839R,0.0805X0.0000*%
%ADD840R,0.0803X0.0001*%
%ADD841R,0.0803X0.0000*%
%ADD842R,0.0802X0.0001*%
%ADD843R,0.0800X0.0000*%
%ADD844R,0.0800X0.0000*%
%ADD845R,0.0798X0.0001*%
%ADD846R,0.0798X0.0000*%
%ADD847R,0.0797X0.0001*%
%ADD848R,0.0795X0.0000*%
%ADD849R,0.0795X0.0000*%
%ADD850R,0.0793X0.0001*%
%ADD851R,0.0793X0.0000*%
%ADD852R,0.0791X0.0001*%
%ADD853R,0.0790X0.0000*%
%ADD854R,0.0789X0.0000*%
%ADD855R,0.0788X0.0001*%
%ADD856R,0.0787X0.0000*%
%ADD857R,0.0786X0.0001*%
%ADD858R,0.0785X0.0000*%
%ADD859R,0.0784X0.0000*%
%ADD860R,0.0783X0.0001*%
%ADD861R,0.0782X0.0000*%
%ADD862R,0.0781X0.0001*%
%ADD863R,0.0780X0.0000*%
%ADD864R,0.0779X0.0000*%
%ADD865R,0.0778X0.0001*%
%ADD866R,0.0777X0.0000*%
%ADD867R,0.0776X0.0001*%
%ADD868R,0.0775X0.0000*%
%ADD869R,0.0774X0.0000*%
%ADD870R,0.0773X0.0001*%
%ADD871R,0.0772X0.0000*%
%ADD872R,0.0771X0.0001*%
%ADD873R,0.0770X0.0000*%
%ADD874R,0.0769X0.0000*%
%ADD875R,0.0768X0.0001*%
%ADD876R,0.0767X0.0000*%
%ADD877R,0.0766X0.0001*%
%ADD878R,0.0765X0.0000*%
%ADD879R,0.0764X0.0000*%
%ADD880R,0.0763X0.0001*%
%ADD881R,0.0762X0.0000*%
%ADD882R,0.0761X0.0001*%
%ADD883R,0.0760X0.0000*%
%ADD884R,0.0758X0.0000*%
%ADD885R,0.0757X0.0001*%
%ADD886R,0.0757X0.0000*%
%ADD887R,0.0755X0.0001*%
%ADD888R,0.0755X0.0000*%
%ADD889R,0.0753X0.0000*%
%ADD890R,0.0752X0.0001*%
%ADD891R,0.0752X0.0000*%
%ADD892R,0.0750X0.0001*%
%ADD893R,0.0750X0.0000*%
%ADD894R,0.0748X0.0000*%
%ADD895R,0.0747X0.0001*%
%ADD896R,0.0747X0.0000*%
%ADD897R,0.0745X0.0001*%
%ADD898R,0.0745X0.0000*%
%ADD899R,0.0743X0.0000*%
%ADD900R,0.0742X0.0001*%
%ADD901R,0.0741X0.0000*%
%ADD902R,0.0740X0.0001*%
%ADD903R,0.0739X0.0000*%
%ADD904R,0.0738X0.0000*%
%ADD905R,0.0737X0.0001*%
%ADD906R,0.0736X0.0000*%
%ADD907R,0.0735X0.0001*%
%ADD908R,0.0734X0.0000*%
%ADD909R,0.0733X0.0000*%
%ADD910R,0.0732X0.0001*%
%ADD911R,0.0731X0.0000*%
%ADD912R,0.0730X0.0001*%
%ADD913R,0.0729X0.0000*%
%ADD914R,0.0728X0.0000*%
%ADD915R,0.0727X0.0001*%
%ADD916R,0.0726X0.0000*%
%ADD917R,0.0725X0.0001*%
%ADD918R,0.0724X0.0000*%
%ADD919R,0.0723X0.0000*%
%ADD920R,0.0722X0.0001*%
%ADD921R,0.0721X0.0000*%
%ADD922R,0.0720X0.0001*%
%ADD923R,0.0719X0.0000*%
%ADD924R,0.0718X0.0000*%
%ADD925R,0.0717X0.0001*%
%ADD926R,0.0716X0.0000*%
%ADD927R,0.0715X0.0001*%
%ADD928R,0.0714X0.0000*%
%ADD929R,0.0713X0.0000*%
%ADD930R,0.0712X0.0001*%
%ADD931R,0.0711X0.0000*%
%ADD932R,0.0710X0.0001*%
%ADD933R,0.0709X0.0000*%
%ADD934R,0.0707X0.0000*%
%ADD935R,0.0707X0.0001*%
%ADD936R,0.0705X0.0000*%
%ADD937R,0.0705X0.0001*%
%ADD938R,0.0703X0.0000*%
%ADD939R,0.0703X0.0000*%
%ADD940R,0.0702X0.0001*%
%ADD941R,0.0700X0.0000*%
%ADD942R,0.0700X0.0001*%
%ADD943R,0.0698X0.0000*%
%ADD944R,0.0698X0.0000*%
%ADD945R,0.0697X0.0001*%
%ADD946R,0.0695X0.0000*%
%ADD947R,0.0695X0.0001*%
%ADD948R,0.0693X0.0000*%
%ADD949R,0.0692X0.0000*%
%ADD950R,0.0691X0.0001*%
%ADD951R,0.0690X0.0000*%
%ADD952R,0.0689X0.0001*%
%ADD953R,0.0688X0.0000*%
%ADD954R,0.0687X0.0000*%
%ADD955R,0.0686X0.0001*%
%ADD956R,0.0685X0.0000*%
%ADD957R,0.0684X0.0001*%
%ADD958R,0.0683X0.0000*%
%ADD959R,0.0682X0.0000*%
%ADD960R,0.0681X0.0001*%
%ADD961R,0.0680X0.0000*%
%ADD962R,0.0679X0.0001*%
%ADD963R,0.0678X0.0000*%
%ADD964R,0.0677X0.0000*%
%ADD965R,0.0676X0.0001*%
%ADD966R,0.0675X0.0000*%
%ADD967R,0.0674X0.0001*%
%ADD968R,0.0673X0.0000*%
%ADD969R,0.0672X0.0000*%
%ADD970R,0.0671X0.0001*%
%ADD971R,0.0670X0.0000*%
%ADD972R,0.0669X0.0001*%
%ADD973R,0.0668X0.0000*%
%ADD974R,0.0667X0.0000*%
%ADD975R,0.0666X0.0001*%
%ADD976R,0.0665X0.0000*%
%ADD977R,0.0664X0.0001*%
%ADD978R,0.0663X0.0000*%
%ADD979R,0.0662X0.0000*%
%ADD980R,0.0661X0.0001*%
%ADD981R,0.0660X0.0000*%
%ADD982R,0.0659X0.0001*%
%ADD983R,0.0658X0.0000*%
%ADD984R,0.0657X0.0000*%
%ADD985R,0.0655X0.0001*%
%ADD986R,0.0655X0.0000*%
%ADD987R,0.0653X0.0001*%
%ADD988R,0.0653X0.0000*%
%ADD989R,0.0652X0.0000*%
%ADD990R,0.0650X0.0001*%
%ADD991R,0.0650X0.0000*%
%ADD992R,0.0648X0.0001*%
%ADD993R,0.0648X0.0000*%
%ADD994R,0.0647X0.0000*%
%ADD995R,0.0645X0.0001*%
%ADD996R,0.0645X0.0000*%
%ADD997R,0.0643X0.0001*%
%ADD998R,0.0642X0.0000*%
%ADD999R,0.0641X0.0000*%
%ADD1000R,0.0640X0.0001*%
%ADD1001R,0.0639X0.0000*%
%ADD1002R,0.0638X0.0001*%
%ADD1003R,0.0637X0.0000*%
%ADD1004R,0.0636X0.0000*%
%ADD1005R,0.0635X0.0001*%
%ADD1006R,0.0634X0.0000*%
%ADD1007R,0.0633X0.0001*%
%ADD1008R,0.0632X0.0000*%
%ADD1009R,0.0631X0.0000*%
%ADD1010R,0.0630X0.0001*%
%ADD1011R,0.0629X0.0000*%
%ADD1012R,0.0628X0.0001*%
%ADD1013R,0.0627X0.0000*%
%ADD1014R,0.0626X0.0000*%
%ADD1015R,0.0625X0.0001*%
%ADD1016R,0.0624X0.0000*%
%ADD1017R,0.0623X0.0001*%
%ADD1018R,0.0622X0.0000*%
%ADD1019R,0.0621X0.0000*%
%ADD1020R,0.0620X0.0001*%
%ADD1021R,0.0619X0.0000*%
%ADD1022R,0.0618X0.0001*%
%ADD1023R,0.0617X0.0000*%
%ADD1024R,0.0616X0.0000*%
%ADD1025R,0.0615X0.0001*%
%ADD1026R,0.0614X0.0000*%
%ADD1027R,0.0613X0.0001*%
%ADD1028R,0.0612X0.0000*%
%ADD1029R,0.0611X0.0000*%
%ADD1030R,0.0610X0.0001*%
%ADD1031R,0.0609X0.0000*%
%ADD1032R,0.0607X0.0001*%
%ADD1033R,0.0607X0.0000*%
%ADD1034R,0.0605X0.0000*%
%ADD1035R,0.0605X0.0001*%
%ADD1036R,0.0603X0.0000*%
%ADD1037R,0.0602X0.0001*%
%ADD1038R,0.0602X0.0000*%
%ADD1039R,0.0600X0.0000*%
%ADD1040R,0.0600X0.0001*%
%ADD1041R,0.0598X0.0000*%
%ADD1042R,0.0597X0.0001*%
%ADD1043R,0.0597X0.0000*%
%ADD1044R,0.0595X0.0000*%
%ADD1045R,0.0595X0.0001*%
%ADD1046R,0.0593X0.0000*%
%ADD1047R,0.0592X0.0001*%
%ADD1048R,0.0591X0.0000*%
%ADD1049R,0.0590X0.0000*%
%ADD1050R,0.0589X0.0001*%
%ADD1051R,0.0588X0.0000*%
%ADD1052R,0.0587X0.0001*%
%ADD1053R,0.0586X0.0000*%
%ADD1054R,0.0585X0.0000*%
%ADD1055R,0.0584X0.0001*%
%ADD1056R,0.0583X0.0000*%
%ADD1057R,0.0582X0.0001*%
%ADD1058R,0.0581X0.0000*%
%ADD1059R,0.0580X0.0000*%
%ADD1060R,0.0579X0.0001*%
%ADD1061R,0.0578X0.0000*%
%ADD1062R,0.0577X0.0001*%
%ADD1063R,0.0576X0.0000*%
%ADD1064R,0.0575X0.0000*%
%ADD1065R,0.0574X0.0001*%
%ADD1066R,0.0573X0.0000*%
%ADD1067R,0.0571X0.0001*%
%ADD1068R,0.0568X0.0000*%
%ADD1069R,0.0565X0.0000*%
%ADD1070R,0.0563X0.0001*%
%ADD1071R,0.0560X0.0000*%
%ADD1072R,0.0557X0.0001*%
%ADD1073R,0.0554X0.0000*%
%ADD1074R,0.0551X0.0000*%
%ADD1075R,0.0548X0.0001*%
%ADD1076R,0.0545X0.0000*%
%ADD1077R,0.0542X0.0001*%
%ADD1078R,0.0537X0.0000*%
%ADD1079R,0.0533X0.0000*%
%ADD1080R,0.0530X0.0001*%
%ADD1081R,0.0526X0.0000*%
%ADD1082R,0.0522X0.0001*%
%ADD1083R,0.0518X0.0000*%
%ADD1084R,0.0513X0.0000*%
%ADD1085R,0.0508X0.0001*%
%ADD1086R,0.0503X0.0000*%
%ADD1087R,0.0496X0.0001*%
%ADD1088R,0.0489X0.0000*%
%ADD1089R,0.0477X0.0000*%
%ADD1090C,0.0000*%
D10*
X001595Y002948D02*
X001595Y003128D01*
X001655Y003188D01*
X001895Y003188D01*
X001955Y003128D01*
X001955Y002948D01*
X001595Y002948D01*
X001775Y003316D02*
X001775Y003556D01*
X001595Y003898D02*
X001955Y003898D01*
X001955Y004078D01*
X001895Y004138D01*
X001655Y004138D01*
X001595Y004078D01*
X001595Y003898D01*
X001775Y004266D02*
X001775Y004506D01*
X001655Y004386D02*
X001895Y004386D01*
X001852Y005498D02*
X001638Y005498D01*
X001585Y005551D01*
X001585Y005658D01*
X001638Y005711D01*
X001745Y005711D02*
X001745Y005604D01*
X001745Y005711D02*
X001852Y005711D01*
X001905Y005658D01*
X001905Y005551D01*
X001852Y005498D01*
X001905Y005829D02*
X001585Y005829D01*
X001905Y006043D01*
X001585Y006043D01*
X001585Y006161D02*
X001585Y006321D01*
X001638Y006374D01*
X001852Y006374D01*
X001905Y006321D01*
X001905Y006161D01*
X001585Y006161D01*
X001585Y006548D02*
X001798Y006548D01*
X001905Y006654D01*
X001798Y006761D01*
X001585Y006761D01*
X001585Y006879D02*
X001585Y007039D01*
X001638Y007093D01*
X001691Y007093D01*
X001745Y007039D01*
X001745Y006879D01*
X001905Y006879D02*
X001585Y006879D01*
X001745Y007039D02*
X001798Y007093D01*
X001852Y007093D01*
X001905Y007039D01*
X001905Y006879D01*
X001905Y007211D02*
X001691Y007211D01*
X001585Y007317D01*
X001691Y007424D01*
X001905Y007424D01*
X001745Y007424D02*
X001745Y007211D01*
X001585Y007542D02*
X001585Y007756D01*
X001585Y007649D02*
X001905Y007649D01*
X001798Y007898D02*
X001585Y007898D01*
X001585Y008111D02*
X001798Y008111D01*
X001905Y008004D01*
X001798Y007898D01*
X001852Y008229D02*
X001638Y008229D01*
X001585Y008282D01*
X001585Y008389D01*
X001638Y008443D01*
X001852Y008443D01*
X001905Y008389D01*
X001905Y008282D01*
X001852Y008229D01*
X001852Y008561D02*
X001585Y008561D01*
X001585Y008774D02*
X001852Y008774D01*
X001905Y008721D01*
X001905Y008614D01*
X001852Y008561D01*
X001585Y008892D02*
X001585Y009106D01*
X001585Y008999D02*
X001905Y008999D01*
X002495Y008998D02*
X002709Y008998D01*
X002602Y008998D02*
X002602Y009318D01*
X002495Y009211D01*
X002826Y009264D02*
X002826Y009051D01*
X003040Y009264D01*
X003040Y009051D01*
X002987Y008998D01*
X002880Y008998D01*
X002826Y009051D01*
X002826Y009264D02*
X002880Y009318D01*
X002987Y009318D01*
X003040Y009264D01*
X003158Y009264D02*
X003211Y009318D01*
X003318Y009318D01*
X003371Y009264D01*
X003158Y009051D01*
X003211Y008998D01*
X003318Y008998D01*
X003371Y009051D01*
X003371Y009264D01*
X003158Y009264D02*
X003158Y009051D01*
X003489Y008998D02*
X003703Y009318D01*
X003821Y009318D02*
X003821Y009158D01*
X003928Y009211D01*
X003981Y009211D01*
X004034Y009158D01*
X004034Y009051D01*
X003981Y008998D01*
X003874Y008998D01*
X003821Y009051D01*
X003821Y009318D02*
X004034Y009318D01*
X004152Y009264D02*
X004206Y009318D01*
X004313Y009318D01*
X004366Y009264D01*
X004152Y009051D01*
X004206Y008998D01*
X004313Y008998D01*
X004366Y009051D01*
X004366Y009264D01*
X004484Y009264D02*
X004537Y009318D01*
X004644Y009318D01*
X004697Y009264D01*
X004484Y009051D01*
X004537Y008998D01*
X004644Y008998D01*
X004697Y009051D01*
X004697Y009264D01*
X004484Y009264D02*
X004484Y009051D01*
X004152Y009051D02*
X004152Y009264D01*
X005445Y009208D02*
X005552Y009261D01*
X005605Y009261D01*
X005659Y009208D01*
X005659Y009101D01*
X005605Y009048D01*
X005498Y009048D01*
X005445Y009101D01*
X005445Y009208D02*
X005445Y009368D01*
X005659Y009368D01*
X005776Y009368D02*
X005776Y009154D01*
X005883Y009048D01*
X005990Y009154D01*
X005990Y009368D01*
X006745Y009314D02*
X006798Y009368D01*
X006905Y009368D01*
X006959Y009314D01*
X006959Y009261D01*
X006905Y009208D01*
X006959Y009154D01*
X006959Y009101D01*
X006905Y009048D01*
X006798Y009048D01*
X006745Y009101D01*
X006852Y009208D02*
X006905Y009208D01*
X007076Y009154D02*
X007183Y009048D01*
X007290Y009154D01*
X007290Y009368D01*
X007408Y009314D02*
X007461Y009368D01*
X007568Y009368D01*
X007621Y009314D01*
X007621Y009261D01*
X007568Y009208D01*
X007621Y009154D01*
X007621Y009101D01*
X007568Y009048D01*
X007461Y009048D01*
X007408Y009101D01*
X007515Y009208D02*
X007568Y009208D01*
X007076Y009154D02*
X007076Y009368D01*
X006955Y008358D02*
X006955Y008118D01*
X006935Y006998D02*
X006935Y006758D01*
X006815Y006878D02*
X007055Y006878D01*
D11*
X006625Y009128D02*
X006475Y009128D01*
X006475Y009328D01*
X006275Y009328D02*
X006275Y009128D01*
X006125Y009128D01*
X005275Y009128D02*
X005125Y009128D01*
X005125Y009328D01*
X007725Y009128D02*
X007875Y009128D01*
X007875Y009328D01*
D12*
X001198Y002358D02*
X001234Y002321D01*
X001087Y002174D01*
X001124Y002138D01*
X001198Y002138D01*
X001234Y002174D01*
X001234Y002321D01*
X001198Y002358D02*
X001124Y002358D01*
X001087Y002321D01*
X001087Y002174D01*
X001014Y002174D02*
X001014Y002138D01*
X000977Y002138D01*
X000977Y002174D01*
X001014Y002174D01*
X000903Y002138D02*
X000756Y002138D01*
X000829Y002138D02*
X000829Y002358D01*
X000756Y002284D01*
X000682Y002284D02*
X000608Y002138D01*
X000535Y002284D01*
D13*
X001375Y005116D02*
X001375Y005140D01*
X002813Y005678D02*
X002837Y005678D01*
X003463Y005678D02*
X003487Y005678D01*
X006163Y006978D02*
X006187Y006978D01*
X003725Y008716D02*
X003725Y008740D01*
X009663Y004828D02*
X009687Y004828D01*
D14*
X009187Y004733D02*
X008994Y004733D01*
X008994Y005023D01*
X009187Y005023D01*
X009091Y004878D02*
X008994Y004878D01*
X008893Y004733D02*
X008893Y005023D01*
X008699Y005023D02*
X008699Y004733D01*
X008598Y004781D02*
X008598Y004974D01*
X008550Y005023D01*
X008453Y005023D01*
X008405Y004974D01*
X008405Y004781D01*
X008453Y004733D01*
X008550Y004733D01*
X008598Y004781D01*
X008699Y005023D02*
X008893Y004733D01*
X008303Y004781D02*
X008303Y004974D01*
X008255Y005023D01*
X008110Y005023D01*
X008110Y004733D01*
X008255Y004733D01*
X008303Y004781D01*
X007760Y005473D02*
X007470Y005473D01*
X007470Y005618D01*
X007518Y005666D01*
X007615Y005666D01*
X007663Y005618D01*
X007663Y005473D01*
X007663Y005569D02*
X007760Y005666D01*
X007760Y005767D02*
X007567Y005961D01*
X007518Y005961D01*
X007470Y005912D01*
X007470Y005816D01*
X007518Y005767D01*
X007760Y005767D02*
X007760Y005961D01*
X008190Y005794D02*
X008190Y005601D01*
X008238Y005553D01*
X008335Y005553D01*
X008383Y005601D01*
X008485Y005553D02*
X008485Y005843D01*
X008383Y005794D02*
X008335Y005843D01*
X008238Y005843D01*
X008190Y005794D01*
X008485Y005698D02*
X008678Y005698D01*
X008779Y005794D02*
X008779Y005601D01*
X008828Y005553D01*
X008924Y005553D01*
X008973Y005601D01*
X008973Y005698D01*
X008876Y005698D01*
X008779Y005794D02*
X008828Y005843D01*
X008924Y005843D01*
X008973Y005794D01*
X008678Y005843D02*
X008678Y005553D01*
X009810Y004231D02*
X009810Y004037D01*
X009810Y004134D02*
X009520Y004134D01*
X009617Y004037D01*
X009568Y003936D02*
X009520Y003888D01*
X009520Y003791D01*
X009568Y003743D01*
X009762Y003743D01*
X009810Y003791D01*
X009810Y003888D01*
X009762Y003936D01*
X007210Y005473D02*
X006920Y005473D01*
X006920Y005618D01*
X006968Y005666D01*
X007065Y005666D01*
X007113Y005618D01*
X007113Y005473D01*
X007113Y005569D02*
X007210Y005666D01*
X007210Y005767D02*
X007210Y005961D01*
X007210Y005864D02*
X006920Y005864D01*
X007017Y005767D01*
X006726Y005133D02*
X006726Y004843D01*
X006629Y004843D02*
X006823Y004843D01*
X006629Y005036D02*
X006726Y005133D01*
X006528Y004843D02*
X006335Y004843D01*
X006431Y004843D02*
X006431Y005133D01*
X006335Y005036D01*
X006233Y005084D02*
X006233Y004988D01*
X006185Y004939D01*
X006040Y004939D01*
X006040Y004843D02*
X006040Y005133D01*
X006185Y005133D01*
X006233Y005084D01*
X006137Y004939D02*
X006233Y004843D01*
X006440Y004233D02*
X006585Y004233D01*
X006633Y004184D01*
X006633Y004088D01*
X006585Y004039D01*
X006440Y004039D01*
X006440Y003943D02*
X006440Y004233D01*
X006537Y004039D02*
X006633Y003943D01*
X006735Y003991D02*
X006783Y003943D01*
X006880Y003943D01*
X006928Y003991D01*
X006928Y004039D01*
X006880Y004088D01*
X006735Y004088D01*
X006735Y003991D01*
X006735Y004088D02*
X006831Y004184D01*
X006928Y004233D01*
X005337Y004873D02*
X005144Y004873D01*
X005337Y005066D01*
X005337Y005114D01*
X005289Y005163D01*
X005192Y005163D01*
X005144Y005114D01*
X005043Y005163D02*
X005043Y004921D01*
X004994Y004873D01*
X004897Y004873D01*
X004849Y004921D01*
X004849Y005163D01*
X004030Y005502D02*
X003982Y005453D01*
X003788Y005453D01*
X003740Y005502D01*
X003740Y005598D01*
X003788Y005647D01*
X003788Y005748D02*
X003740Y005796D01*
X003740Y005893D01*
X003788Y005941D01*
X003837Y005941D01*
X003885Y005893D01*
X003933Y005941D01*
X003982Y005941D01*
X004030Y005893D01*
X004030Y005796D01*
X003982Y005748D01*
X003982Y005647D02*
X004030Y005598D01*
X004030Y005502D01*
X003885Y005845D02*
X003885Y005893D01*
X002580Y005843D02*
X002290Y005843D01*
X002435Y005698D01*
X002435Y005891D01*
X002532Y005597D02*
X002580Y005548D01*
X002580Y005452D01*
X002532Y005403D01*
X002338Y005403D01*
X002290Y005452D01*
X002290Y005548D01*
X002338Y005597D01*
X002344Y005263D02*
X002295Y005214D01*
X002344Y005263D02*
X002440Y005263D01*
X002489Y005214D01*
X002489Y005166D01*
X002295Y004973D01*
X002489Y004973D01*
X002194Y005021D02*
X002146Y004973D01*
X002049Y004973D01*
X002001Y005021D01*
X002001Y005214D01*
X002049Y005263D01*
X002146Y005263D01*
X002194Y005214D01*
X002244Y006373D02*
X002051Y006373D01*
X002051Y006663D01*
X002345Y006566D02*
X002442Y006663D01*
X002442Y006373D01*
X002345Y006373D02*
X002539Y006373D01*
X002482Y006953D02*
X002240Y006953D01*
X002240Y007147D02*
X002482Y007147D01*
X002530Y007098D01*
X002530Y007002D01*
X002482Y006953D01*
X002482Y007248D02*
X002530Y007296D01*
X002530Y007393D01*
X002482Y007441D01*
X002433Y007441D01*
X002385Y007393D01*
X002385Y007345D01*
X002385Y007393D02*
X002337Y007441D01*
X002288Y007441D01*
X002240Y007393D01*
X002240Y007296D01*
X002288Y007248D01*
X002420Y008293D02*
X002420Y008438D01*
X002468Y008486D01*
X002565Y008486D01*
X002613Y008438D01*
X002613Y008293D01*
X002613Y008389D02*
X002710Y008486D01*
X002565Y008587D02*
X002565Y008781D01*
X002710Y008732D02*
X002420Y008732D01*
X002565Y008587D01*
X002710Y008293D02*
X002420Y008293D01*
X003490Y008241D02*
X003538Y008193D01*
X003635Y008193D01*
X003683Y008241D01*
X003785Y008241D02*
X003833Y008193D01*
X003930Y008193D01*
X003978Y008241D01*
X003978Y008289D01*
X003930Y008338D01*
X003785Y008338D01*
X003785Y008241D01*
X003785Y008338D02*
X003881Y008434D01*
X003978Y008483D01*
X003683Y008434D02*
X003635Y008483D01*
X003538Y008483D01*
X003490Y008434D01*
X003490Y008241D01*
X003851Y007613D02*
X003996Y007613D01*
X004044Y007564D01*
X004044Y007468D01*
X003996Y007419D01*
X003851Y007419D01*
X003947Y007419D02*
X004044Y007323D01*
X004145Y007371D02*
X004194Y007323D01*
X004290Y007323D01*
X004339Y007371D01*
X004339Y007564D01*
X004290Y007613D01*
X004194Y007613D01*
X004145Y007564D01*
X004145Y007516D01*
X004194Y007468D01*
X004339Y007468D01*
X003851Y007323D02*
X003851Y007613D01*
X005606Y007873D02*
X005606Y008163D01*
X005751Y008163D01*
X005800Y008114D01*
X005800Y008018D01*
X005751Y007969D01*
X005606Y007969D01*
X005703Y007969D02*
X005800Y007873D01*
X005901Y007873D02*
X006094Y007873D01*
X005997Y007873D02*
X005997Y008163D01*
X005901Y008066D01*
X006195Y008114D02*
X006195Y007921D01*
X006389Y008114D01*
X006389Y007921D01*
X006340Y007873D01*
X006244Y007873D01*
X006195Y007921D01*
X006195Y008114D02*
X006244Y008163D01*
X006340Y008163D01*
X006389Y008114D01*
X006080Y008593D02*
X005983Y008593D01*
X005935Y008641D01*
X005833Y008593D02*
X005737Y008689D01*
X005785Y008689D02*
X005640Y008689D01*
X005640Y008593D02*
X005640Y008883D01*
X005785Y008883D01*
X005833Y008834D01*
X005833Y008738D01*
X005785Y008689D01*
X005935Y008834D02*
X005983Y008883D01*
X006080Y008883D01*
X006128Y008834D01*
X006128Y008786D01*
X006080Y008738D01*
X006128Y008689D01*
X006128Y008641D01*
X006080Y008593D01*
X006080Y008738D02*
X006031Y008738D01*
X006440Y007191D02*
X006440Y006998D01*
X006585Y006998D01*
X006537Y007095D01*
X006537Y007143D01*
X006585Y007191D01*
X006682Y007191D01*
X006730Y007143D01*
X006730Y007046D01*
X006682Y006998D01*
X006682Y006897D02*
X006730Y006848D01*
X006730Y006752D01*
X006682Y006703D01*
X006488Y006703D01*
X006440Y006752D01*
X006440Y006848D01*
X006488Y006897D01*
X004212Y003581D02*
X004163Y003581D01*
X004115Y003532D01*
X004115Y003436D01*
X004067Y003387D01*
X004018Y003387D01*
X003970Y003436D01*
X003970Y003532D01*
X004018Y003581D01*
X004067Y003581D01*
X004115Y003532D01*
X004115Y003436D02*
X004163Y003387D01*
X004212Y003387D01*
X004260Y003436D01*
X004260Y003532D01*
X004212Y003581D01*
X004260Y003286D02*
X004163Y003189D01*
X004163Y003238D02*
X004163Y003093D01*
X004260Y003093D02*
X003970Y003093D01*
X003970Y003238D01*
X004018Y003286D01*
X004115Y003286D01*
X004163Y003238D01*
X003680Y003297D02*
X003583Y003200D01*
X003583Y003248D02*
X003583Y003103D01*
X003680Y003103D02*
X003390Y003103D01*
X003390Y003248D01*
X003438Y003297D01*
X003535Y003297D01*
X003583Y003248D01*
X003632Y003398D02*
X003680Y003398D01*
X003632Y003398D02*
X003438Y003591D01*
X003390Y003591D01*
X003390Y003398D01*
X002980Y003446D02*
X002932Y003398D01*
X002980Y003446D02*
X002980Y003543D01*
X002932Y003591D01*
X002835Y003591D01*
X002787Y003543D01*
X002787Y003495D01*
X002835Y003398D01*
X002690Y003398D01*
X002690Y003591D01*
X002738Y003297D02*
X002835Y003297D01*
X002883Y003248D01*
X002883Y003103D01*
X002883Y003200D02*
X002980Y003297D01*
X002980Y003103D02*
X002690Y003103D01*
X002690Y003248D01*
X002738Y003297D01*
X005651Y002013D02*
X005651Y001723D01*
X005796Y001723D01*
X005844Y001771D01*
X005844Y001964D01*
X005796Y002013D01*
X005651Y002013D01*
X005945Y001916D02*
X006042Y002013D01*
X006042Y001723D01*
X005945Y001723D02*
X006139Y001723D01*
D15*
X006350Y002221D02*
X006350Y003599D01*
X006665Y003599D01*
X006665Y002615D01*
X007138Y002615D01*
X006975Y002868D02*
X006975Y003148D01*
X006835Y003008D02*
X007115Y003008D01*
X008565Y003078D02*
X008845Y003078D01*
X009185Y002615D02*
X009185Y003599D01*
X009500Y003599D01*
X009500Y002221D01*
X009185Y002615D02*
X008712Y002615D01*
X008642Y004296D02*
X008642Y004478D01*
X008520Y004386D01*
X008642Y004478D02*
X008642Y004659D01*
X008520Y004564D02*
X008636Y004488D01*
X008508Y005106D02*
X008508Y005288D01*
X008630Y005380D01*
X008508Y005469D02*
X008508Y005288D01*
X008514Y005278D02*
X008630Y005202D01*
X009407Y006031D02*
X009407Y008984D01*
X007186Y008984D01*
X007186Y006031D01*
X009407Y006031D01*
X009942Y006031D01*
X009942Y008984D01*
X009407Y008984D01*
X007975Y009478D02*
X007975Y010478D01*
X004975Y010478D01*
X004975Y009478D01*
X007975Y009478D01*
X004475Y009478D02*
X004475Y010478D01*
X002475Y010478D01*
X002475Y009478D01*
X004475Y009478D01*
X003544Y007988D02*
X003206Y007988D01*
X003694Y007533D02*
X003694Y007322D01*
X003544Y006868D02*
X003206Y006868D01*
X004325Y006608D02*
X004325Y006348D01*
X004325Y005698D02*
X004325Y005438D01*
X005625Y005438D02*
X005625Y005698D01*
X005464Y001850D02*
X002786Y001850D01*
X002786Y001720D01*
X002786Y000657D02*
X005464Y000657D01*
X005464Y001720D02*
X005464Y001850D01*
X007138Y000646D02*
X008712Y000646D01*
X001475Y002628D02*
X001475Y004628D01*
X000475Y004628D01*
X000475Y002628D01*
X001475Y002628D01*
X001475Y005628D02*
X000475Y005628D01*
X000475Y008628D01*
X001475Y008628D01*
X001475Y005628D01*
D16*
X005315Y006839D02*
X005435Y006839D01*
D17*
X007075Y004858D03*
X007625Y004858D03*
X004125Y004228D03*
X003475Y004228D03*
X002825Y004228D03*
X002175Y008878D03*
D18*
X004975Y008728D03*
X004975Y008028D03*
X004975Y007528D03*
X005775Y004578D03*
X005775Y004078D03*
D19*
X006185Y002938D02*
X006185Y002618D01*
X005965Y002618D01*
X005285Y002618D02*
X005065Y002618D01*
X005065Y002938D01*
D20*
X001891Y001803D03*
D21*
X002508Y001803D03*
D22*
X002508Y001803D03*
X001891Y001803D03*
D23*
X001891Y001804D03*
D24*
X002508Y001804D03*
D25*
X001891Y001804D03*
D26*
X002508Y001804D03*
X002508Y002054D03*
D27*
X002508Y001805D03*
X001891Y001805D03*
D28*
X001891Y001805D03*
D29*
X002508Y001805D03*
D30*
X002508Y001806D03*
X001891Y001806D03*
D31*
X001891Y001806D03*
X002508Y001806D03*
D32*
X002508Y001807D03*
X002508Y002052D03*
X001891Y001807D03*
D33*
X001891Y001807D03*
X002508Y001807D03*
D34*
X001891Y001808D03*
D35*
X002508Y001808D03*
D36*
X001891Y001808D03*
D37*
X002508Y001808D03*
D38*
X001891Y001809D03*
D39*
X002508Y001809D03*
D40*
X002508Y001809D03*
X002508Y002049D03*
X001891Y001809D03*
D41*
X001891Y001810D03*
X002508Y001810D03*
D42*
X002508Y001810D03*
X001891Y001810D03*
D43*
X001891Y001811D03*
D44*
X002508Y001811D03*
D45*
X001891Y001811D03*
D46*
X002508Y001811D03*
D47*
X002508Y001812D03*
X001891Y001812D03*
D48*
X001891Y001812D03*
D49*
X002508Y001812D03*
D50*
X001891Y001813D03*
D51*
X002508Y001813D03*
D52*
X001891Y001813D03*
D53*
X001891Y002042D03*
X002508Y001813D03*
D54*
X001891Y001814D03*
X001891Y002041D03*
D55*
X002508Y001814D03*
D56*
X001891Y001814D03*
D57*
X002508Y001814D03*
X002508Y002044D03*
D58*
X001891Y002041D03*
X001891Y001815D03*
D59*
X002508Y001815D03*
D60*
X002508Y001815D03*
X002508Y002043D03*
X001891Y001815D03*
D61*
X001891Y001816D03*
D62*
X001891Y002040D03*
X002508Y001816D03*
D63*
X002508Y001816D03*
X001891Y001816D03*
X001891Y002039D03*
D64*
X001891Y001817D03*
D65*
X002508Y001817D03*
X002508Y002042D03*
D66*
X002508Y002041D03*
X002508Y001817D03*
X001891Y001817D03*
D67*
X001891Y001818D03*
D68*
X001891Y002038D03*
X002508Y002041D03*
X002508Y001818D03*
D69*
X001891Y001818D03*
D70*
X002508Y001818D03*
X002508Y002040D03*
D71*
X001891Y002037D03*
X001891Y001819D03*
D72*
X002508Y001819D03*
X002508Y002040D03*
D73*
X001891Y002035D03*
X001891Y001820D03*
X001891Y001819D03*
D74*
X001891Y002036D03*
X002508Y002039D03*
X002508Y001819D03*
D75*
X001891Y001820D03*
X001891Y002036D03*
D76*
X002508Y002038D03*
X002508Y001820D03*
D77*
X002508Y001820D03*
X002508Y002039D03*
D78*
X001891Y002035D03*
X001891Y001821D03*
D79*
X002508Y001821D03*
D80*
X002508Y001821D03*
X002508Y001822D03*
X002508Y002036D03*
X002508Y002037D03*
X001891Y002034D03*
X001891Y002034D03*
X001891Y001822D03*
X001891Y001821D03*
D81*
X001891Y001822D03*
D82*
X001891Y002033D03*
X002508Y002037D03*
X002508Y001822D03*
D83*
X001891Y001823D03*
X001891Y002033D03*
D84*
X002508Y001823D03*
D85*
X002508Y001823D03*
X002508Y001825D03*
X002508Y002033D03*
X002508Y002035D03*
X001891Y002032D03*
X001891Y002031D03*
X001891Y001825D03*
X001891Y001823D03*
D86*
X001891Y001824D03*
X001891Y001824D03*
X001891Y002030D03*
X001891Y002031D03*
X001891Y002032D03*
X002508Y002034D03*
X002508Y002034D03*
X002508Y002035D03*
X002508Y001825D03*
X002508Y001824D03*
X002508Y001824D03*
D87*
X001891Y001825D03*
X001891Y001826D03*
X001891Y001827D03*
X001891Y001828D03*
X001891Y001829D03*
X001891Y001829D03*
X001891Y001830D03*
X001891Y001831D03*
X001891Y001832D03*
X001891Y001833D03*
X001891Y001834D03*
X001891Y001834D03*
X001891Y001835D03*
X001891Y001836D03*
X001891Y001837D03*
X001891Y001838D03*
X001891Y001839D03*
X001891Y001839D03*
X001891Y001840D03*
X001891Y001841D03*
X001891Y001842D03*
X001891Y001843D03*
X001891Y001844D03*
X001891Y001844D03*
X001891Y001845D03*
X001891Y001846D03*
X001891Y001847D03*
X001891Y001848D03*
X001891Y001849D03*
X001891Y001849D03*
X001891Y001850D03*
X001891Y001851D03*
X001891Y001852D03*
X001891Y001853D03*
X001891Y001854D03*
X001891Y001854D03*
X001891Y001855D03*
X001891Y001856D03*
X001891Y001857D03*
X001891Y001858D03*
X001891Y001859D03*
X001891Y001859D03*
X001891Y001860D03*
X001891Y001861D03*
X001891Y001862D03*
X001891Y001863D03*
X001891Y001864D03*
X001891Y001864D03*
X001891Y001865D03*
X001891Y001866D03*
X001891Y001867D03*
X001891Y001868D03*
X001891Y001869D03*
X001891Y001869D03*
X001891Y001870D03*
X001891Y001871D03*
X001891Y001872D03*
X001891Y001873D03*
X001891Y001874D03*
X001891Y001874D03*
X001891Y001875D03*
X001891Y001876D03*
X001891Y001877D03*
X001891Y001878D03*
X001891Y001879D03*
X001891Y001879D03*
X001891Y001880D03*
X001891Y001881D03*
X001891Y001882D03*
X001891Y001883D03*
X001891Y001884D03*
X001891Y001884D03*
X001891Y001885D03*
X001891Y001886D03*
X001891Y001887D03*
X001891Y001888D03*
X001891Y001889D03*
X001891Y001889D03*
X001891Y001890D03*
X001891Y001891D03*
X001891Y001892D03*
X001891Y001893D03*
X001891Y001894D03*
X001891Y001894D03*
X001891Y001895D03*
X001891Y001896D03*
X001891Y001897D03*
X001891Y001898D03*
X001891Y001899D03*
X001891Y001899D03*
X001891Y001900D03*
X001891Y001901D03*
X001891Y001902D03*
X001891Y001903D03*
X001891Y001904D03*
X001891Y001904D03*
X001891Y001905D03*
X001891Y001906D03*
X001891Y001907D03*
X001891Y001908D03*
X001891Y001909D03*
X001891Y001909D03*
X001891Y001910D03*
X001891Y001911D03*
X001891Y001912D03*
X001891Y001913D03*
X001891Y001914D03*
X001891Y001914D03*
X001891Y001915D03*
X001891Y001916D03*
X001891Y001917D03*
X001891Y001918D03*
X001891Y001919D03*
X001891Y001919D03*
X001891Y001920D03*
X001891Y001921D03*
X001891Y001922D03*
X001891Y001923D03*
X001891Y001924D03*
X001891Y001924D03*
X001891Y001925D03*
X001891Y001926D03*
X001891Y001927D03*
X001891Y001928D03*
X001891Y001929D03*
X001891Y001929D03*
X001891Y001930D03*
X001891Y001931D03*
X001891Y001932D03*
X001891Y001933D03*
X001891Y001934D03*
X001891Y001934D03*
X001891Y001935D03*
X001891Y001936D03*
X001891Y001937D03*
X001891Y001938D03*
X001891Y001939D03*
X001891Y001939D03*
X001891Y001940D03*
X001891Y001941D03*
X001891Y001942D03*
X001891Y001943D03*
X001891Y001944D03*
X001891Y001944D03*
X001891Y001945D03*
X001891Y001946D03*
X001891Y001947D03*
X001891Y001948D03*
X001891Y001949D03*
X001891Y001949D03*
X001891Y001950D03*
X001891Y001951D03*
X001891Y001952D03*
X001891Y001953D03*
X001891Y001954D03*
X001891Y001954D03*
X001891Y001955D03*
X001891Y001956D03*
X001891Y001957D03*
X001891Y001958D03*
X001891Y001959D03*
X001891Y001959D03*
X001891Y001960D03*
X001891Y001961D03*
X001891Y001962D03*
X001891Y001963D03*
X001891Y001964D03*
X001891Y001964D03*
X001891Y001965D03*
X001891Y001966D03*
X001891Y001967D03*
X001891Y001968D03*
X001891Y001969D03*
X001891Y001969D03*
X001891Y001970D03*
X001891Y001971D03*
X001891Y001972D03*
X001891Y001973D03*
X001891Y001974D03*
X001891Y001974D03*
X001891Y001975D03*
X001891Y001976D03*
X001891Y001977D03*
X001891Y001978D03*
X001891Y001979D03*
X001891Y001979D03*
X001891Y001980D03*
X001891Y001981D03*
X001891Y001982D03*
X001891Y001983D03*
X001891Y001984D03*
X001891Y001984D03*
X001891Y001985D03*
X001891Y001986D03*
X001891Y001987D03*
X001891Y001988D03*
X001891Y001989D03*
X001891Y001989D03*
X001891Y001990D03*
X001891Y001991D03*
X001891Y001992D03*
X001891Y001993D03*
X001891Y001994D03*
X001891Y001994D03*
X001891Y001995D03*
X001891Y001996D03*
X001891Y001997D03*
X001891Y001998D03*
X001891Y001999D03*
X001891Y001999D03*
X001891Y002000D03*
X001891Y002001D03*
X001891Y002002D03*
X001891Y002003D03*
X001891Y002004D03*
X001891Y002004D03*
X001891Y002005D03*
X001891Y002006D03*
X001891Y002007D03*
X001891Y002008D03*
X001891Y002009D03*
X001891Y002009D03*
X001891Y002010D03*
X001891Y002011D03*
X001891Y002012D03*
X001891Y002013D03*
X001891Y002014D03*
X001891Y002014D03*
X001891Y002015D03*
X001891Y002016D03*
X001891Y002017D03*
X001891Y002018D03*
X001891Y002019D03*
X001891Y002019D03*
X001891Y002020D03*
X001891Y002021D03*
X001891Y002022D03*
X001891Y002023D03*
X001891Y002024D03*
X001891Y002024D03*
X001891Y002025D03*
X001891Y002026D03*
X001891Y002027D03*
X001891Y002028D03*
X001891Y002029D03*
X001891Y002029D03*
D88*
X001891Y002030D03*
X001891Y002028D03*
X001891Y002027D03*
X001891Y002026D03*
X001891Y002025D03*
X001891Y002023D03*
X001891Y002022D03*
X001891Y002021D03*
X001891Y002020D03*
X001891Y002018D03*
X001891Y002017D03*
X001891Y002016D03*
X001891Y002015D03*
X001891Y002013D03*
X001891Y002012D03*
X001891Y002011D03*
X001891Y002010D03*
X001891Y002008D03*
X001891Y002007D03*
X001891Y002006D03*
X001891Y002005D03*
X001891Y002003D03*
X001891Y002002D03*
X001891Y002001D03*
X001891Y002000D03*
X001891Y001998D03*
X001891Y001997D03*
X001891Y001996D03*
X001891Y001995D03*
X001891Y001993D03*
X001891Y001992D03*
X001891Y001991D03*
X001891Y001990D03*
X001891Y001988D03*
X001891Y001987D03*
X001891Y001986D03*
X001891Y001985D03*
X001891Y001983D03*
X001891Y001982D03*
X001891Y001981D03*
X001891Y001980D03*
X001891Y001978D03*
X001891Y001977D03*
X001891Y001976D03*
X001891Y001975D03*
X001891Y001973D03*
X001891Y001972D03*
X001891Y001971D03*
X001891Y001970D03*
X001891Y001968D03*
X001891Y001967D03*
X001891Y001966D03*
X001891Y001965D03*
X001891Y001963D03*
X001891Y001962D03*
X001891Y001961D03*
X001891Y001960D03*
X001891Y001958D03*
X001891Y001957D03*
X001891Y001956D03*
X001891Y001955D03*
X001891Y001953D03*
X001891Y001952D03*
X001891Y001951D03*
X001891Y001950D03*
X001891Y001948D03*
X001891Y001947D03*
X001891Y001946D03*
X001891Y001945D03*
X001891Y001943D03*
X001891Y001942D03*
X001891Y001941D03*
X001891Y001940D03*
X001891Y001938D03*
X001891Y001937D03*
X001891Y001936D03*
X001891Y001935D03*
X001891Y001933D03*
X001891Y001932D03*
X001891Y001931D03*
X001891Y001930D03*
X001891Y001928D03*
X001891Y001927D03*
X001891Y001926D03*
X001891Y001925D03*
X001891Y001923D03*
X001891Y001922D03*
X001891Y001921D03*
X001891Y001920D03*
X001891Y001918D03*
X001891Y001917D03*
X001891Y001916D03*
X001891Y001915D03*
X001891Y001913D03*
X001891Y001912D03*
X001891Y001911D03*
X001891Y001910D03*
X001891Y001908D03*
X001891Y001907D03*
X001891Y001906D03*
X001891Y001905D03*
X001891Y001903D03*
X001891Y001902D03*
X001891Y001901D03*
X001891Y001900D03*
X001891Y001898D03*
X001891Y001897D03*
X001891Y001896D03*
X001891Y001895D03*
X001891Y001893D03*
X001891Y001892D03*
X001891Y001891D03*
X001891Y001890D03*
X001891Y001888D03*
X001891Y001887D03*
X001891Y001886D03*
X001891Y001885D03*
X001891Y001883D03*
X001891Y001882D03*
X001891Y001881D03*
X001891Y001880D03*
X001891Y001878D03*
X001891Y001877D03*
X001891Y001876D03*
X001891Y001875D03*
X001891Y001873D03*
X001891Y001872D03*
X001891Y001871D03*
X001891Y001870D03*
X001891Y001868D03*
X001891Y001867D03*
X001891Y001866D03*
X001891Y001865D03*
X001891Y001863D03*
X001891Y001862D03*
X001891Y001861D03*
X001891Y001860D03*
X001891Y001858D03*
X001891Y001857D03*
X001891Y001856D03*
X001891Y001855D03*
X001891Y001853D03*
X001891Y001852D03*
X001891Y001851D03*
X001891Y001850D03*
X001891Y001848D03*
X001891Y001847D03*
X001891Y001846D03*
X001891Y001845D03*
X001891Y001843D03*
X001891Y001842D03*
X001891Y001841D03*
X001891Y001840D03*
X001891Y001838D03*
X001891Y001837D03*
X001891Y001836D03*
X001891Y001835D03*
X001891Y001833D03*
X001891Y001832D03*
X001891Y001831D03*
X001891Y001830D03*
X001891Y001828D03*
X001891Y001827D03*
X001891Y001826D03*
D89*
X002508Y001827D03*
X002508Y001828D03*
X002508Y001830D03*
X002508Y001831D03*
X002508Y001832D03*
X002508Y001833D03*
X002508Y001835D03*
X002508Y001836D03*
X002508Y001837D03*
X002508Y001838D03*
X002508Y001840D03*
X002508Y001841D03*
X002508Y001842D03*
X002508Y001843D03*
X002508Y001845D03*
X002508Y001846D03*
X002508Y001847D03*
X002508Y001848D03*
X002508Y001850D03*
X002508Y001851D03*
X002508Y001852D03*
X002508Y001853D03*
X002508Y001855D03*
X002508Y001856D03*
X002508Y001857D03*
X002508Y001858D03*
X002508Y001860D03*
X002508Y001861D03*
X002508Y001862D03*
X002508Y001863D03*
X002508Y001865D03*
X002508Y001866D03*
X002508Y001867D03*
X002508Y001868D03*
X002508Y001870D03*
X002508Y001871D03*
X002508Y001872D03*
X002508Y001873D03*
X002508Y001875D03*
X002508Y001876D03*
X002508Y001877D03*
X002508Y001878D03*
X002508Y001880D03*
X002508Y001881D03*
X002508Y001882D03*
X002508Y001883D03*
X002508Y001885D03*
X002508Y001886D03*
X002508Y001887D03*
X002508Y001888D03*
X002508Y001890D03*
X002508Y001891D03*
X002508Y001892D03*
X002508Y001893D03*
X002508Y001895D03*
X002508Y001896D03*
X002508Y001897D03*
X002508Y001898D03*
X002508Y001900D03*
X002508Y001901D03*
X002508Y001902D03*
X002508Y001903D03*
X002508Y001905D03*
X002508Y001906D03*
X002508Y001907D03*
X002508Y001908D03*
X002508Y001910D03*
X002508Y001911D03*
X002508Y001912D03*
X002508Y001913D03*
X002508Y001915D03*
X002508Y001916D03*
X002508Y001917D03*
X002508Y001918D03*
X002508Y001920D03*
X002508Y001921D03*
X002508Y001922D03*
X002508Y001923D03*
X002508Y001925D03*
X002508Y001926D03*
X002508Y001927D03*
X002508Y001928D03*
X002508Y001930D03*
X002508Y001931D03*
X002508Y001932D03*
X002508Y001933D03*
X002508Y001935D03*
X002508Y001936D03*
X002508Y001937D03*
X002508Y001938D03*
X002508Y001940D03*
X002508Y001941D03*
X002508Y001942D03*
X002508Y001943D03*
X002508Y001945D03*
X002508Y001946D03*
X002508Y001947D03*
X002508Y001948D03*
X002508Y001950D03*
X002508Y001951D03*
X002508Y001952D03*
X002508Y001953D03*
X002508Y001955D03*
X002508Y001956D03*
X002508Y001957D03*
X002508Y001958D03*
X002508Y001960D03*
X002508Y001961D03*
X002508Y001962D03*
X002508Y001963D03*
X002508Y001965D03*
X002508Y001966D03*
X002508Y001967D03*
X002508Y001968D03*
X002508Y001970D03*
X002508Y001971D03*
X002508Y001972D03*
X002508Y001973D03*
X002508Y001975D03*
X002508Y001976D03*
X002508Y001977D03*
X002508Y001978D03*
X002508Y001980D03*
X002508Y001981D03*
X002508Y001982D03*
X002508Y001983D03*
X002508Y001985D03*
X002508Y001986D03*
X002508Y001987D03*
X002508Y001988D03*
X002508Y001990D03*
X002508Y001991D03*
X002508Y001992D03*
X002508Y001993D03*
X002508Y001995D03*
X002508Y001996D03*
X002508Y001997D03*
X002508Y001998D03*
X002508Y002000D03*
X002508Y002001D03*
X002508Y002002D03*
X002508Y002003D03*
X002508Y002005D03*
X002508Y002006D03*
X002508Y002007D03*
X002508Y002008D03*
X002508Y002010D03*
X002508Y002011D03*
X002508Y002012D03*
X002508Y002013D03*
X002508Y002015D03*
X002508Y002016D03*
X002508Y002017D03*
X002508Y002018D03*
X002508Y002020D03*
X002508Y002021D03*
X002508Y002022D03*
X002508Y002023D03*
X002508Y002025D03*
X002508Y002026D03*
X002508Y002027D03*
X002508Y002028D03*
X002508Y002030D03*
X002508Y002031D03*
X002508Y002032D03*
X002508Y001826D03*
D90*
X002508Y001826D03*
X002508Y001827D03*
X002508Y001828D03*
X002508Y001829D03*
X002508Y001829D03*
X002508Y001830D03*
X002508Y001831D03*
X002508Y001832D03*
X002508Y001833D03*
X002508Y001834D03*
X002508Y001834D03*
X002508Y001835D03*
X002508Y001836D03*
X002508Y001837D03*
X002508Y001838D03*
X002508Y001839D03*
X002508Y001839D03*
X002508Y001840D03*
X002508Y001841D03*
X002508Y001842D03*
X002508Y001843D03*
X002508Y001844D03*
X002508Y001844D03*
X002508Y001845D03*
X002508Y001846D03*
X002508Y001847D03*
X002508Y001848D03*
X002508Y001849D03*
X002508Y001849D03*
X002508Y001850D03*
X002508Y001851D03*
X002508Y001852D03*
X002508Y001853D03*
X002508Y001854D03*
X002508Y001854D03*
X002508Y001855D03*
X002508Y001856D03*
X002508Y001857D03*
X002508Y001858D03*
X002508Y001859D03*
X002508Y001859D03*
X002508Y001860D03*
X002508Y001861D03*
X002508Y001862D03*
X002508Y001863D03*
X002508Y001864D03*
X002508Y001864D03*
X002508Y001865D03*
X002508Y001866D03*
X002508Y001867D03*
X002508Y001868D03*
X002508Y001869D03*
X002508Y001869D03*
X002508Y001870D03*
X002508Y001871D03*
X002508Y001872D03*
X002508Y001873D03*
X002508Y001874D03*
X002508Y001874D03*
X002508Y001875D03*
X002508Y001876D03*
X002508Y001877D03*
X002508Y001878D03*
X002508Y001879D03*
X002508Y001879D03*
X002508Y001880D03*
X002508Y001881D03*
X002508Y001882D03*
X002508Y001883D03*
X002508Y001884D03*
X002508Y001884D03*
X002508Y001885D03*
X002508Y001886D03*
X002508Y001887D03*
X002508Y001888D03*
X002508Y001889D03*
X002508Y001889D03*
X002508Y001890D03*
X002508Y001891D03*
X002508Y001892D03*
X002508Y001893D03*
X002508Y001894D03*
X002508Y001894D03*
X002508Y001895D03*
X002508Y001896D03*
X002508Y001897D03*
X002508Y001898D03*
X002508Y001899D03*
X002508Y001899D03*
X002508Y001900D03*
X002508Y001901D03*
X002508Y001902D03*
X002508Y001903D03*
X002508Y001904D03*
X002508Y001904D03*
X002508Y001905D03*
X002508Y001906D03*
X002508Y001907D03*
X002508Y001908D03*
X002508Y001909D03*
X002508Y001909D03*
X002508Y001910D03*
X002508Y001911D03*
X002508Y001912D03*
X002508Y001913D03*
X002508Y001914D03*
X002508Y001914D03*
X002508Y001915D03*
X002508Y001916D03*
X002508Y001917D03*
X002508Y001918D03*
X002508Y001919D03*
X002508Y001919D03*
X002508Y001920D03*
X002508Y001921D03*
X002508Y001922D03*
X002508Y001923D03*
X002508Y001924D03*
X002508Y001924D03*
X002508Y001925D03*
X002508Y001926D03*
X002508Y001927D03*
X002508Y001928D03*
X002508Y001929D03*
X002508Y001929D03*
X002508Y001930D03*
X002508Y001931D03*
X002508Y001932D03*
X002508Y001933D03*
X002508Y001934D03*
X002508Y001934D03*
X002508Y001935D03*
X002508Y001936D03*
X002508Y001937D03*
X002508Y001938D03*
X002508Y001939D03*
X002508Y001939D03*
X002508Y001940D03*
X002508Y001941D03*
X002508Y001942D03*
X002508Y001943D03*
X002508Y001944D03*
X002508Y001944D03*
X002508Y001945D03*
X002508Y001946D03*
X002508Y001947D03*
X002508Y001948D03*
X002508Y001949D03*
X002508Y001949D03*
X002508Y001950D03*
X002508Y001951D03*
X002508Y001952D03*
X002508Y001953D03*
X002508Y001954D03*
X002508Y001954D03*
X002508Y001955D03*
X002508Y001956D03*
X002508Y001957D03*
X002508Y001958D03*
X002508Y001959D03*
X002508Y001959D03*
X002508Y001960D03*
X002508Y001961D03*
X002508Y001962D03*
X002508Y001963D03*
X002508Y001964D03*
X002508Y001964D03*
X002508Y001965D03*
X002508Y001966D03*
X002508Y001967D03*
X002508Y001968D03*
X002508Y001969D03*
X002508Y001969D03*
X002508Y001970D03*
X002508Y001971D03*
X002508Y001972D03*
X002508Y001973D03*
X002508Y001974D03*
X002508Y001974D03*
X002508Y001975D03*
X002508Y001976D03*
X002508Y001977D03*
X002508Y001978D03*
X002508Y001979D03*
X002508Y001979D03*
X002508Y001980D03*
X002508Y001981D03*
X002508Y001982D03*
X002508Y001983D03*
X002508Y001984D03*
X002508Y001984D03*
X002508Y001985D03*
X002508Y001986D03*
X002508Y001987D03*
X002508Y001988D03*
X002508Y001989D03*
X002508Y001989D03*
X002508Y001990D03*
X002508Y001991D03*
X002508Y001992D03*
X002508Y001993D03*
X002508Y001994D03*
X002508Y001994D03*
X002508Y001995D03*
X002508Y001996D03*
X002508Y001997D03*
X002508Y001998D03*
X002508Y001999D03*
X002508Y001999D03*
X002508Y002000D03*
X002508Y002001D03*
X002508Y002002D03*
X002508Y002003D03*
X002508Y002004D03*
X002508Y002004D03*
X002508Y002005D03*
X002508Y002006D03*
X002508Y002007D03*
X002508Y002008D03*
X002508Y002009D03*
X002508Y002009D03*
X002508Y002010D03*
X002508Y002011D03*
X002508Y002012D03*
X002508Y002013D03*
X002508Y002014D03*
X002508Y002014D03*
X002508Y002015D03*
X002508Y002016D03*
X002508Y002017D03*
X002508Y002018D03*
X002508Y002019D03*
X002508Y002019D03*
X002508Y002020D03*
X002508Y002021D03*
X002508Y002022D03*
X002508Y002023D03*
X002508Y002024D03*
X002508Y002024D03*
X002508Y002025D03*
X002508Y002026D03*
X002508Y002027D03*
X002508Y002028D03*
X002508Y002029D03*
X002508Y002029D03*
X002508Y002030D03*
X002508Y002031D03*
X002508Y002032D03*
X002508Y002033D03*
D91*
X002508Y002036D03*
D92*
X001891Y002037D03*
D93*
X002508Y002038D03*
D94*
X001891Y002038D03*
D95*
X001891Y002039D03*
D96*
X001891Y002040D03*
D97*
X001891Y002042D03*
D98*
X002508Y002042D03*
D99*
X001891Y002043D03*
D100*
X001891Y002043D03*
D101*
X002508Y002043D03*
D102*
X001891Y002044D03*
D103*
X002508Y002044D03*
D104*
X001891Y002044D03*
D105*
X001891Y002045D03*
D106*
X002508Y002045D03*
D107*
X001891Y002045D03*
D108*
X002508Y002045D03*
D109*
X001891Y002046D03*
D110*
X002508Y002046D03*
D111*
X001891Y002046D03*
D112*
X002508Y002046D03*
D113*
X001891Y002047D03*
D114*
X002508Y002047D03*
D115*
X001891Y002047D03*
D116*
X002508Y002047D03*
D117*
X001891Y002048D03*
D118*
X002508Y002048D03*
D119*
X001891Y002048D03*
D120*
X002508Y002048D03*
D121*
X001891Y002049D03*
D122*
X002508Y002049D03*
D123*
X001891Y002049D03*
D124*
X001891Y002050D03*
D125*
X002508Y002050D03*
D126*
X001891Y002050D03*
D127*
X002508Y002050D03*
D128*
X001891Y002051D03*
D129*
X002508Y002051D03*
D130*
X001891Y002051D03*
D131*
X002508Y002051D03*
D132*
X001891Y002052D03*
D133*
X001891Y002052D03*
D134*
X002508Y002052D03*
D135*
X001893Y002053D03*
D136*
X002508Y002053D03*
D137*
X001893Y002053D03*
X001893Y002055D03*
D138*
X002508Y002053D03*
D139*
X001893Y002054D03*
X001893Y002054D03*
D140*
X002508Y002054D03*
D141*
X002508Y002055D03*
D142*
X001892Y002056D03*
X001892Y002055D03*
D143*
X002508Y002055D03*
D144*
X001892Y002056D03*
D145*
X002508Y002056D03*
D146*
X002512Y002056D03*
X002512Y002057D03*
X002512Y002058D03*
D147*
X001892Y002058D03*
X001892Y002057D03*
D148*
X001892Y002057D03*
X001892Y002058D03*
D149*
X002512Y002057D03*
D150*
X002512Y002058D03*
X002512Y002060D03*
X001883Y002117D03*
D151*
X001892Y002059D03*
X001892Y002059D03*
D152*
X001883Y002116D03*
X001883Y002117D03*
X001883Y002118D03*
X002512Y002059D03*
X002512Y002059D03*
D153*
X001892Y002060D03*
D154*
X001891Y002060D03*
X001891Y002061D03*
D155*
X002513Y002062D03*
X002513Y002061D03*
X002513Y002060D03*
D156*
X001891Y002061D03*
D157*
X002513Y002061D03*
D158*
X001891Y002062D03*
X001891Y002063D03*
D159*
X001891Y002063D03*
X001891Y002062D03*
D160*
X001883Y002120D03*
X001883Y002121D03*
X002513Y002063D03*
X002513Y002062D03*
D161*
X002513Y002063D03*
X002513Y002064D03*
X001883Y002120D03*
D162*
X001891Y002064D03*
X001891Y002064D03*
D163*
X001883Y002121D03*
X001883Y002122D03*
X001883Y002123D03*
X002513Y002066D03*
X002513Y002065D03*
X002513Y002064D03*
D164*
X001891Y002065D03*
D165*
X001883Y002122D03*
X002513Y002066D03*
X002513Y002065D03*
D166*
X001891Y002066D03*
X001891Y002067D03*
X001891Y002065D03*
D167*
X001891Y002066D03*
D168*
X002513Y002067D03*
X002513Y002068D03*
D169*
X001890Y002068D03*
X001890Y002067D03*
D170*
X002513Y002068D03*
X002513Y002067D03*
D171*
X001890Y002068D03*
D172*
X001890Y002069D03*
X001890Y002069D03*
D173*
X001882Y002125D03*
X001882Y002126D03*
X002513Y002070D03*
X002513Y002069D03*
X002513Y002069D03*
D174*
X001890Y002070D03*
D175*
X001882Y002125D03*
X001882Y002126D03*
X002513Y002070D03*
D176*
X001890Y002071D03*
X001890Y002072D03*
X001890Y002070D03*
D177*
X001890Y002071D03*
D178*
X002514Y002072D03*
X002514Y002071D03*
D179*
X002514Y002071D03*
X002514Y002072D03*
D180*
X001890Y002073D03*
X001890Y002072D03*
D181*
X001890Y002073D03*
D182*
X001881Y002129D03*
X001881Y002129D03*
X002514Y002074D03*
X002514Y002074D03*
X002514Y002073D03*
D183*
X002514Y002073D03*
X001881Y002128D03*
D184*
X001889Y002075D03*
X001889Y002074D03*
X001889Y002074D03*
D185*
X001889Y002075D03*
D186*
X001881Y002130D03*
X001881Y002131D03*
X002514Y002076D03*
X002514Y002075D03*
D187*
X002514Y002075D03*
X002514Y002076D03*
X001881Y002130D03*
X001881Y002131D03*
D188*
X001889Y002076D03*
D189*
X001889Y002076D03*
X001889Y002077D03*
D190*
X002514Y002078D03*
X002514Y002079D03*
X002514Y002077D03*
D191*
X001889Y002078D03*
X001889Y002077D03*
D192*
X002514Y002078D03*
X002514Y002077D03*
D193*
X001889Y002078D03*
D194*
X001889Y002079D03*
X001889Y002079D03*
X001889Y002080D03*
D195*
X001881Y002134D03*
X001881Y002134D03*
X002515Y002080D03*
X002515Y002079D03*
D196*
X001889Y002080D03*
D197*
X001881Y002133D03*
X001881Y002135D03*
X002515Y002081D03*
X002515Y002080D03*
D198*
X001889Y002081D03*
D199*
X001889Y002081D03*
X001889Y002082D03*
D200*
X002515Y002083D03*
X002515Y002082D03*
X002515Y002081D03*
D201*
X001888Y002082D03*
X001888Y002083D03*
D202*
X002515Y002082D03*
D203*
X001888Y002083D03*
X001888Y002084D03*
D204*
X001880Y002137D03*
X002515Y002085D03*
X002515Y002083D03*
D205*
X002515Y002084D03*
X002515Y002084D03*
X001880Y002137D03*
X001880Y002138D03*
D206*
X001888Y002085D03*
X001888Y002084D03*
D207*
X001888Y002085D03*
D208*
X001880Y002139D03*
X001880Y002139D03*
X002515Y002087D03*
X002515Y002086D03*
X002515Y002085D03*
D209*
X001888Y002086D03*
D210*
X001880Y002138D03*
X001880Y002140D03*
X002515Y002086D03*
D211*
X001888Y002087D03*
X001888Y002086D03*
D212*
X001888Y002087D03*
X001888Y002088D03*
D213*
X002516Y002088D03*
X002516Y002087D03*
D214*
X001888Y002088D03*
X001888Y002089D03*
D215*
X002516Y002089D03*
X002516Y002088D03*
D216*
X001887Y002089D03*
X001887Y002090D03*
D217*
X001879Y002142D03*
X001879Y002143D03*
X002516Y002091D03*
X002516Y002090D03*
X002516Y002089D03*
D218*
X001887Y002090D03*
D219*
X001879Y002142D03*
X001879Y002143D03*
X002516Y002091D03*
X002516Y002090D03*
D220*
X001887Y002091D03*
X001887Y002092D03*
D221*
X001887Y002092D03*
X001887Y002091D03*
D222*
X002516Y002092D03*
X002516Y002093D03*
D223*
X002516Y002093D03*
X002516Y002092D03*
D224*
X001887Y002093D03*
X001887Y002094D03*
D225*
X001887Y002093D03*
D226*
X001879Y002145D03*
X001879Y002146D03*
X002516Y002095D03*
X002516Y002094D03*
X002516Y002094D03*
D227*
X001886Y002095D03*
X001886Y002094D03*
D228*
X001886Y002095D03*
D229*
X001879Y002146D03*
X002516Y002095D03*
D230*
X001886Y002096D03*
X001886Y002097D03*
D231*
X001879Y002147D03*
X001879Y002148D03*
X002517Y002097D03*
X002517Y002096D03*
D232*
X001886Y002097D03*
X001886Y002096D03*
D233*
X001879Y002147D03*
X001879Y002148D03*
X002517Y002097D03*
X002517Y002096D03*
D234*
X001886Y002098D03*
X001886Y002099D03*
D235*
X002517Y002099D03*
X002517Y002099D03*
X002517Y002098D03*
D236*
X001886Y002098D03*
D237*
X002517Y002098D03*
D238*
X001886Y002099D03*
X001886Y002100D03*
D239*
X001886Y002100D03*
X001886Y002101D03*
D240*
X001878Y002151D03*
X002517Y002101D03*
X002517Y002100D03*
D241*
X002517Y002100D03*
X002517Y002101D03*
X001878Y002150D03*
X001878Y002151D03*
X001878Y002152D03*
D242*
X001885Y002102D03*
X001885Y002101D03*
D243*
X002518Y002102D03*
X002518Y002103D03*
X002518Y002104D03*
D244*
X001885Y002102D03*
D245*
X002518Y002103D03*
X002518Y002102D03*
D246*
X001885Y002103D03*
X001885Y002104D03*
D247*
X001885Y002103D03*
D248*
X001885Y002104D03*
X001885Y002105D03*
D249*
X001878Y002154D03*
X001878Y002154D03*
X002518Y002105D03*
X002518Y002104D03*
D250*
X001885Y002105D03*
X001885Y002106D03*
D251*
X001878Y002155D03*
X002518Y002106D03*
X002518Y002105D03*
D252*
X001885Y002106D03*
X001885Y002107D03*
D253*
X001878Y002155D03*
X001878Y002156D03*
X001878Y002157D03*
X002518Y002108D03*
X002518Y002107D03*
X002518Y002106D03*
D254*
X001885Y002107D03*
D255*
X001878Y002156D03*
X002518Y002107D03*
D256*
X001884Y002108D03*
X001884Y002109D03*
X001884Y002109D03*
D257*
X001884Y002108D03*
D258*
X002518Y002108D03*
X002518Y002110D03*
D259*
X002518Y002109D03*
X002518Y002109D03*
D260*
X001884Y002110D03*
X001884Y002111D03*
D261*
X001884Y002110D03*
D262*
X001877Y002159D03*
X001877Y002159D03*
X001877Y002160D03*
X002518Y002112D03*
X002518Y002111D03*
X002518Y002110D03*
D263*
X002518Y002111D03*
X001877Y002160D03*
D264*
X001884Y002112D03*
X001884Y002111D03*
D265*
X001884Y002112D03*
D266*
X002519Y002113D03*
X002519Y002112D03*
D267*
X001884Y002113D03*
X001884Y002114D03*
X001884Y002114D03*
D268*
X002519Y002114D03*
X002519Y002113D03*
D269*
X001884Y002113D03*
D270*
X001876Y002163D03*
X001876Y002164D03*
X002519Y002116D03*
X002519Y002115D03*
X002519Y002114D03*
D271*
X001884Y002115D03*
X001884Y002116D03*
D272*
X001876Y002162D03*
X001876Y002163D03*
X002519Y002116D03*
X002519Y002115D03*
D273*
X001884Y002115D03*
D274*
X001876Y002164D03*
X001876Y002165D03*
X002519Y002118D03*
X002519Y002117D03*
D275*
X002519Y002117D03*
X002519Y002118D03*
X001876Y002165D03*
D276*
X001883Y002118D03*
D277*
X001883Y002119D03*
X001883Y002119D03*
D278*
X002519Y002120D03*
X002519Y002119D03*
X002519Y002119D03*
D279*
X002519Y002120D03*
D280*
X002520Y002121D03*
X002520Y002122D03*
X001876Y002167D03*
X001876Y002168D03*
D281*
X001876Y002168D03*
X001876Y002169D03*
X002520Y002122D03*
X002520Y002121D03*
D282*
X002520Y002123D03*
X002520Y002124D03*
X002520Y002124D03*
D283*
X001882Y002123D03*
D284*
X002520Y002123D03*
D285*
X001882Y002124D03*
X001882Y002124D03*
D286*
X001875Y002171D03*
X001875Y002172D03*
X002520Y002126D03*
X002520Y002125D03*
D287*
X002520Y002125D03*
X002520Y002126D03*
X001875Y002171D03*
X001875Y002172D03*
D288*
X001882Y002128D03*
X001882Y002127D03*
D289*
X001875Y002173D03*
X001875Y002174D03*
X002520Y002129D03*
X002520Y002128D03*
X002520Y002127D03*
D290*
X001882Y002127D03*
D291*
X001875Y002173D03*
X002520Y002128D03*
X002520Y002127D03*
D292*
X002521Y002129D03*
X002521Y002130D03*
D293*
X002521Y002130D03*
X002521Y002131D03*
D294*
X002521Y002131D03*
X002521Y002132D03*
X002521Y002133D03*
X001874Y002176D03*
X001874Y002177D03*
D295*
X001881Y002133D03*
X001881Y002132D03*
D296*
X001881Y002132D03*
D297*
X001874Y002176D03*
X001874Y002177D03*
X002521Y002132D03*
D298*
X002521Y002133D03*
X002521Y002135D03*
D299*
X002521Y002134D03*
X002521Y002134D03*
D300*
X001880Y002135D03*
X001880Y002136D03*
D301*
X001874Y002179D03*
X001874Y002180D03*
X002521Y002137D03*
X002521Y002136D03*
X002521Y002135D03*
D302*
X001880Y002136D03*
D303*
X001874Y002180D03*
X001874Y002181D03*
X002521Y002136D03*
D304*
X002522Y002137D03*
X002522Y002138D03*
X001874Y002182D03*
D305*
X001874Y002182D03*
X001874Y002181D03*
X002522Y002139D03*
X002522Y002138D03*
D306*
X002522Y002139D03*
X002522Y002140D03*
X002522Y002141D03*
D307*
X002522Y002141D03*
X002522Y002140D03*
D308*
X001880Y002141D03*
X001880Y002140D03*
D309*
X001880Y002141D03*
D310*
X001873Y002184D03*
X001873Y002185D03*
X002522Y002143D03*
X002522Y002142D03*
D311*
X002522Y002142D03*
X002522Y002143D03*
X001873Y002185D03*
X001873Y002186D03*
D312*
X001879Y002144D03*
X001879Y002144D03*
D313*
X002523Y002145D03*
X002523Y002144D03*
X002523Y002144D03*
D314*
X001879Y002145D03*
D315*
X002523Y002145D03*
D316*
X002523Y002146D03*
X002523Y002147D03*
X001873Y002188D03*
D317*
X001873Y002188D03*
X001873Y002189D03*
X001873Y002189D03*
X002523Y002147D03*
X002523Y002146D03*
D318*
X002523Y002148D03*
X002523Y002149D03*
X002523Y002149D03*
X001873Y002190D03*
D319*
X001873Y002190D03*
X001873Y002191D03*
X002523Y002148D03*
D320*
X001879Y002149D03*
X001879Y002149D03*
D321*
X001879Y002150D03*
D322*
X002523Y002151D03*
X002523Y002150D03*
D323*
X002523Y002150D03*
X002523Y002151D03*
D324*
X002523Y002152D03*
X002523Y002153D03*
X002523Y002154D03*
X001872Y002193D03*
X001872Y002194D03*
X001872Y002194D03*
D325*
X001878Y002153D03*
X001878Y002152D03*
D326*
X001872Y002193D03*
X002523Y002153D03*
X002523Y002152D03*
D327*
X001878Y002153D03*
D328*
X002524Y002154D03*
X002524Y002155D03*
D329*
X002524Y002155D03*
X002524Y002156D03*
D330*
X002524Y002156D03*
X002524Y002157D03*
X002524Y002158D03*
X001871Y002196D03*
X001871Y002197D03*
X001871Y002198D03*
D331*
X001877Y002158D03*
X001877Y002157D03*
D332*
X001871Y002197D03*
X002524Y002157D03*
D333*
X001877Y002158D03*
D334*
X001871Y002198D03*
X002524Y002160D03*
X002524Y002158D03*
D335*
X002524Y002159D03*
X002524Y002159D03*
X001871Y002199D03*
X001871Y002199D03*
D336*
X002524Y002162D03*
X002524Y002161D03*
X002524Y002160D03*
D337*
X001877Y002161D03*
D338*
X002524Y002161D03*
D339*
X001877Y002162D03*
X001877Y002161D03*
D340*
X001871Y002202D03*
X002525Y002163D03*
X002525Y002162D03*
D341*
X002525Y002163D03*
X002525Y002164D03*
X001871Y002201D03*
X001871Y002202D03*
X001871Y002203D03*
D342*
X002525Y002166D03*
X002525Y002165D03*
X002525Y002164D03*
D343*
X002525Y002165D03*
X002525Y002166D03*
D344*
X001876Y002166D03*
D345*
X001876Y002166D03*
X001876Y002167D03*
D346*
X001870Y002205D03*
X001870Y002206D03*
X002525Y002168D03*
X002525Y002167D03*
D347*
X002525Y002167D03*
X002525Y002168D03*
X001870Y002205D03*
X001870Y002206D03*
D348*
X001870Y002207D03*
X001870Y002208D03*
X002525Y002170D03*
X002525Y002169D03*
X002525Y002169D03*
D349*
X001875Y002170D03*
X001875Y002169D03*
D350*
X001875Y002170D03*
D351*
X001870Y002207D03*
X002525Y002170D03*
D352*
X002526Y002171D03*
X002526Y002172D03*
D353*
X002526Y002172D03*
X002526Y002171D03*
D354*
X002526Y002173D03*
X002526Y002174D03*
X002526Y002174D03*
X001869Y002210D03*
X001869Y002211D03*
D355*
X001869Y002211D03*
X001869Y002210D03*
X002526Y002173D03*
D356*
X001875Y002174D03*
X001875Y002175D03*
D357*
X001875Y002175D03*
D358*
X002526Y002176D03*
X002526Y002175D03*
D359*
X002526Y002175D03*
X002526Y002176D03*
D360*
X002526Y002177D03*
X002526Y002178D03*
X002526Y002179D03*
X001869Y002214D03*
X001869Y002214D03*
D361*
X001869Y002215D03*
X001869Y002213D03*
X002526Y002178D03*
X002526Y002177D03*
D362*
X001874Y002178D03*
X001874Y002179D03*
D363*
X001874Y002178D03*
D364*
X001869Y002215D03*
X001869Y002216D03*
X002527Y002180D03*
X002527Y002179D03*
D365*
X002527Y002180D03*
X002527Y002181D03*
X001869Y002216D03*
D366*
X002527Y002183D03*
X002527Y002182D03*
X002527Y002181D03*
D367*
X002527Y002182D03*
D368*
X001874Y002183D03*
X001874Y002184D03*
D369*
X001874Y002183D03*
D370*
X001868Y002218D03*
X001868Y002220D03*
X002527Y002185D03*
X002527Y002183D03*
D371*
X002527Y002184D03*
X002527Y002184D03*
X001868Y002219D03*
X001868Y002219D03*
D372*
X002528Y002187D03*
X002528Y002186D03*
X002528Y002185D03*
D373*
X002528Y002186D03*
D374*
X001873Y002187D03*
X001873Y002186D03*
D375*
X001873Y002187D03*
D376*
X001868Y002222D03*
X001868Y002223D03*
X002528Y002188D03*
X002528Y002187D03*
D377*
X002528Y002188D03*
X002528Y002189D03*
X001868Y002222D03*
X001868Y002223D03*
D378*
X001868Y002224D03*
X001868Y002224D03*
X002528Y002191D03*
X002528Y002190D03*
X002528Y002189D03*
D379*
X002528Y002190D03*
X002528Y002191D03*
X001868Y002225D03*
D380*
X001872Y002192D03*
X001872Y002191D03*
D381*
X002528Y002192D03*
X002528Y002193D03*
D382*
X001872Y002192D03*
D383*
X002528Y002193D03*
X002528Y002192D03*
D384*
X002528Y002194D03*
X002528Y002194D03*
X002528Y002195D03*
X001867Y002227D03*
X001867Y002228D03*
D385*
X001872Y002196D03*
X001872Y002195D03*
D386*
X001867Y002227D03*
X001867Y002228D03*
X002528Y002195D03*
D387*
X001872Y002195D03*
D388*
X002529Y002196D03*
X002529Y002197D03*
D389*
X002529Y002197D03*
X002529Y002196D03*
D390*
X002529Y002198D03*
X002529Y002199D03*
X002529Y002199D03*
X001866Y002230D03*
X001866Y002231D03*
X001866Y002232D03*
D391*
X001866Y002231D03*
X002529Y002198D03*
D392*
X001871Y002200D03*
X001871Y002201D03*
D393*
X001866Y002232D03*
X001866Y002233D03*
X002529Y002201D03*
X002529Y002200D03*
D394*
X001871Y002200D03*
D395*
X001866Y002233D03*
X002529Y002201D03*
X002529Y002200D03*
D396*
X002529Y002202D03*
X002529Y002203D03*
X002529Y002204D03*
D397*
X002529Y002203D03*
X002529Y002202D03*
D398*
X001870Y002203D03*
D399*
X001870Y002204D03*
X001870Y002204D03*
D400*
X001866Y002235D03*
X001866Y002236D03*
X001866Y002237D03*
X002530Y002205D03*
X002530Y002204D03*
D401*
X002530Y002205D03*
X002530Y002206D03*
X001866Y002236D03*
D402*
X002530Y002208D03*
X002530Y002207D03*
X002530Y002206D03*
D403*
X002530Y002207D03*
D404*
X001870Y002208D03*
D405*
X001865Y002240D03*
X002530Y002210D03*
X002530Y002208D03*
D406*
X001870Y002209D03*
X001870Y002209D03*
D407*
X001865Y002239D03*
X001865Y002239D03*
X001865Y002240D03*
X002530Y002209D03*
X002530Y002209D03*
D408*
X002530Y002210D03*
X002530Y002211D03*
X002530Y002212D03*
X001865Y002241D03*
X001865Y002242D03*
D409*
X001865Y002241D03*
X002530Y002211D03*
D410*
X001869Y002212D03*
X001869Y002213D03*
D411*
X001869Y002212D03*
D412*
X002531Y002213D03*
X002531Y002212D03*
D413*
X002531Y002213D03*
X002531Y002214D03*
D414*
X002531Y002214D03*
X002531Y002215D03*
X002531Y002216D03*
X001864Y002244D03*
X001864Y002244D03*
X001864Y002245D03*
D415*
X001864Y002245D03*
X002531Y002216D03*
X002531Y002215D03*
D416*
X001869Y002217D03*
X001869Y002218D03*
D417*
X002531Y002218D03*
X002531Y002217D03*
D418*
X001869Y002217D03*
D419*
X002531Y002218D03*
X002531Y002217D03*
D420*
X002531Y002219D03*
X002531Y002219D03*
X002531Y002220D03*
X001864Y002248D03*
X001864Y002249D03*
D421*
X001864Y002248D03*
X001864Y002247D03*
X002531Y002220D03*
D422*
X001868Y002221D03*
X001868Y002220D03*
D423*
X001868Y002221D03*
D424*
X001864Y002250D03*
X002532Y002222D03*
X002532Y002221D03*
D425*
X002532Y002221D03*
X002532Y002222D03*
X001864Y002249D03*
X001864Y002250D03*
D426*
X002532Y002224D03*
X002532Y002224D03*
X002532Y002223D03*
D427*
X002532Y002223D03*
D428*
X002532Y002225D03*
X002532Y002226D03*
X001863Y002252D03*
X001863Y002253D03*
D429*
X001867Y002226D03*
X001867Y002225D03*
D430*
X001863Y002253D03*
X001863Y002254D03*
X002532Y002226D03*
X002532Y002225D03*
D431*
X001867Y002226D03*
D432*
X002533Y002227D03*
X002533Y002228D03*
X002533Y002229D03*
D433*
X002533Y002228D03*
X002533Y002227D03*
D434*
X001867Y002229D03*
X001867Y002229D03*
D435*
X001863Y002256D03*
X001863Y002257D03*
X002533Y002230D03*
X002533Y002229D03*
D436*
X001867Y002230D03*
D437*
X001863Y002256D03*
X001863Y002257D03*
X002533Y002231D03*
X002533Y002230D03*
D438*
X002533Y002231D03*
X002533Y002232D03*
X002533Y002233D03*
X001863Y002258D03*
X001863Y002259D03*
D439*
X001863Y002258D03*
X002533Y002232D03*
D440*
X002533Y002233D03*
X002533Y002235D03*
D441*
X001866Y002234D03*
X001866Y002234D03*
D442*
X002533Y002234D03*
X002533Y002234D03*
D443*
X001866Y002235D03*
D444*
X001862Y002261D03*
X001862Y002262D03*
X002533Y002237D03*
X002533Y002236D03*
X002533Y002235D03*
D445*
X002533Y002236D03*
X001862Y002261D03*
X001862Y002262D03*
D446*
X001865Y002238D03*
X001865Y002237D03*
D447*
X002534Y002238D03*
X002534Y002237D03*
D448*
X001865Y002238D03*
D449*
X002534Y002239D03*
X002534Y002238D03*
D450*
X002534Y002239D03*
X002534Y002240D03*
X002534Y002241D03*
X001861Y002264D03*
X001861Y002265D03*
D451*
X001861Y002265D03*
X001861Y002266D03*
X002534Y002241D03*
X002534Y002240D03*
D452*
X002534Y002242D03*
X002534Y002243D03*
X001861Y002266D03*
X001861Y002267D03*
D453*
X001865Y002243D03*
X001865Y002242D03*
D454*
X001861Y002267D03*
X002534Y002243D03*
X002534Y002242D03*
D455*
X001865Y002243D03*
D456*
X002534Y002244D03*
X002534Y002244D03*
X002534Y002245D03*
D457*
X002534Y002245D03*
D458*
X001864Y002246D03*
D459*
X001861Y002270D03*
X001861Y002271D03*
X002535Y002247D03*
X002535Y002246D03*
D460*
X001864Y002247D03*
X001864Y002246D03*
D461*
X001861Y002269D03*
X001861Y002270D03*
X002535Y002247D03*
X002535Y002246D03*
D462*
X002535Y002248D03*
X002535Y002249D03*
X002535Y002249D03*
D463*
X002535Y002248D03*
D464*
X002535Y002250D03*
X002535Y002251D03*
X001860Y002273D03*
D465*
X001860Y002273D03*
X001860Y002274D03*
X001860Y002274D03*
X002535Y002251D03*
X002535Y002250D03*
D466*
X001864Y002251D03*
D467*
X001864Y002251D03*
X001864Y002252D03*
D468*
X001860Y002275D03*
X002535Y002254D03*
X002535Y002253D03*
X002535Y002252D03*
D469*
X002535Y002252D03*
X002535Y002253D03*
X001860Y002275D03*
X001860Y002276D03*
D470*
X001863Y002255D03*
X001863Y002254D03*
D471*
X002536Y002255D03*
X002536Y002254D03*
D472*
X001863Y002255D03*
D473*
X002536Y002256D03*
X002536Y002255D03*
D474*
X002536Y002256D03*
X002536Y002257D03*
X002536Y002258D03*
X001859Y002278D03*
X001859Y002279D03*
X001859Y002279D03*
D475*
X001859Y002278D03*
X002536Y002257D03*
D476*
X002536Y002258D03*
X002536Y002260D03*
D477*
X002536Y002259D03*
X002536Y002259D03*
D478*
X001862Y002260D03*
X001862Y002259D03*
D479*
X001862Y002260D03*
D480*
X001859Y002281D03*
X001859Y002282D03*
X001859Y002283D03*
X002536Y002262D03*
X002536Y002261D03*
X002536Y002260D03*
D481*
X002536Y002261D03*
X001859Y002282D03*
D482*
X001859Y002283D03*
X002537Y002263D03*
X002537Y002262D03*
D483*
X001862Y002263D03*
X001862Y002264D03*
D484*
X001859Y002284D03*
X001859Y002284D03*
X002537Y002264D03*
X002537Y002263D03*
D485*
X001862Y002263D03*
D486*
X002537Y002264D03*
X002537Y002265D03*
X002537Y002266D03*
D487*
X002537Y002266D03*
X002537Y002265D03*
D488*
X002537Y002267D03*
X002537Y002268D03*
X001858Y002286D03*
X001858Y002287D03*
X001858Y002288D03*
D489*
X001858Y002287D03*
X002537Y002268D03*
X002537Y002267D03*
D490*
X001861Y002268D03*
X001861Y002269D03*
D491*
X001861Y002268D03*
D492*
X002538Y002269D03*
X002538Y002269D03*
X002538Y002270D03*
D493*
X002538Y002270D03*
D494*
X002538Y002271D03*
X002538Y002272D03*
X001858Y002290D03*
X001858Y002291D03*
D495*
X001860Y002272D03*
X001860Y002271D03*
D496*
X001858Y002290D03*
X001858Y002291D03*
X002538Y002272D03*
X002538Y002271D03*
D497*
X001860Y002272D03*
D498*
X001858Y002292D03*
X001858Y002293D03*
X002538Y002274D03*
X002538Y002274D03*
X002538Y002273D03*
D499*
X002538Y002273D03*
X001858Y002292D03*
D500*
X002538Y002276D03*
X002538Y002275D03*
D501*
X002538Y002275D03*
X002538Y002276D03*
D502*
X001860Y002277D03*
X001860Y002276D03*
D503*
X001857Y002295D03*
X001857Y002296D03*
X002538Y002279D03*
X002538Y002278D03*
X002538Y002277D03*
D504*
X001860Y002277D03*
D505*
X001857Y002295D03*
X001857Y002296D03*
X002538Y002278D03*
X002538Y002277D03*
D506*
X002539Y002279D03*
X002539Y002280D03*
D507*
X001859Y002281D03*
X001859Y002280D03*
D508*
X002539Y002281D03*
X002539Y002280D03*
D509*
X001859Y002280D03*
D510*
X001856Y002299D03*
X001856Y002299D03*
X002539Y002283D03*
X002539Y002282D03*
X002539Y002281D03*
D511*
X002539Y002282D03*
X001856Y002298D03*
X001856Y002300D03*
D512*
X001856Y002301D03*
X002539Y002285D03*
X002539Y002283D03*
D513*
X002539Y002284D03*
X002539Y002284D03*
X001856Y002300D03*
X001856Y002301D03*
D514*
X001859Y002286D03*
X001859Y002285D03*
D515*
X001859Y002285D03*
D516*
X002539Y002286D03*
X002539Y002287D03*
X002539Y002285D03*
D517*
X002539Y002286D03*
D518*
X002540Y002287D03*
X002540Y002288D03*
X001856Y002303D03*
X001856Y002305D03*
D519*
X001856Y002304D03*
X001856Y002304D03*
X002540Y002289D03*
X002540Y002288D03*
D520*
X001858Y002288D03*
D521*
X001858Y002289D03*
X001858Y002289D03*
D522*
X002540Y002290D03*
X002540Y002289D03*
X002540Y002291D03*
D523*
X002540Y002291D03*
X002540Y002290D03*
D524*
X002540Y002292D03*
X002540Y002293D03*
X001855Y002307D03*
X001855Y002308D03*
D525*
X001855Y002308D03*
X001855Y002307D03*
X002540Y002293D03*
X002540Y002292D03*
D526*
X001857Y002293D03*
D527*
X001857Y002294D03*
X001857Y002294D03*
D528*
X001855Y002309D03*
X001855Y002309D03*
X002540Y002295D03*
X002540Y002294D03*
X002540Y002294D03*
D529*
X002540Y002295D03*
X001855Y002310D03*
D530*
X002541Y002297D03*
X002541Y002296D03*
D531*
X002541Y002296D03*
X002541Y002297D03*
D532*
X001857Y002298D03*
X001857Y002297D03*
D533*
X001857Y002297D03*
D534*
X001854Y002312D03*
X001854Y002313D03*
X002541Y002299D03*
X002541Y002299D03*
X002541Y002298D03*
D535*
X002541Y002298D03*
X001854Y002312D03*
X001854Y002313D03*
D536*
X002541Y002301D03*
X002541Y002300D03*
D537*
X002541Y002300D03*
X002541Y002301D03*
D538*
X001856Y002302D03*
X001856Y002303D03*
D539*
X001854Y002315D03*
X001854Y002316D03*
X001854Y002317D03*
X002541Y002304D03*
X002541Y002303D03*
X002541Y002302D03*
D540*
X001856Y002302D03*
D541*
X001854Y002316D03*
X002541Y002303D03*
X002541Y002302D03*
D542*
X002542Y002304D03*
X002542Y002305D03*
X001854Y002318D03*
D543*
X001854Y002318D03*
X001854Y002317D03*
X002542Y002306D03*
X002542Y002305D03*
D544*
X001855Y002306D03*
X001855Y002305D03*
D545*
X001855Y002306D03*
D546*
X002542Y002307D03*
X002542Y002308D03*
X002542Y002306D03*
D547*
X002542Y002307D03*
D548*
X002542Y002308D03*
X002542Y002310D03*
X001853Y002321D03*
D549*
X001853Y002321D03*
X001853Y002322D03*
X001853Y002320D03*
X002542Y002309D03*
X002542Y002309D03*
D550*
X001855Y002310D03*
X001855Y002311D03*
D551*
X002543Y002312D03*
X002543Y002311D03*
X002543Y002310D03*
D552*
X001855Y002311D03*
D553*
X002543Y002311D03*
D554*
X002543Y002312D03*
X002543Y002313D03*
X001853Y002325D03*
D555*
X001853Y002325D03*
X001853Y002324D03*
X001853Y002324D03*
X002543Y002314D03*
X002543Y002313D03*
D556*
X001854Y002314D03*
X001854Y002314D03*
D557*
X001853Y002326D03*
X001853Y002327D03*
X002543Y002316D03*
X002543Y002315D03*
X002543Y002314D03*
D558*
X001854Y002315D03*
D559*
X001853Y002326D03*
X002543Y002316D03*
X002543Y002315D03*
D560*
X002543Y002317D03*
X002543Y002318D03*
D561*
X002543Y002318D03*
X002543Y002317D03*
D562*
X001854Y002319D03*
X001854Y002319D03*
D563*
X001852Y002329D03*
X001852Y002329D03*
X001852Y002330D03*
X002543Y002320D03*
X002543Y002319D03*
X002543Y002319D03*
D564*
X001854Y002320D03*
D565*
X001852Y002330D03*
X002543Y002320D03*
D566*
X002544Y002321D03*
X002544Y002322D03*
D567*
X002544Y002322D03*
X002544Y002321D03*
D568*
X001853Y002322D03*
X001853Y002323D03*
D569*
X001853Y002323D03*
D570*
X001851Y002333D03*
X001851Y002334D03*
X002544Y002324D03*
X002544Y002324D03*
X002544Y002323D03*
D571*
X002544Y002323D03*
X001851Y002332D03*
X001851Y002333D03*
D572*
X001851Y002335D03*
X002544Y002326D03*
X002544Y002325D03*
D573*
X002544Y002325D03*
X002544Y002326D03*
X001851Y002334D03*
X001851Y002335D03*
D574*
X002544Y002329D03*
X002544Y002328D03*
X002544Y002327D03*
D575*
X001852Y002328D03*
X001852Y002327D03*
D576*
X002544Y002328D03*
X002544Y002327D03*
D577*
X001852Y002328D03*
D578*
X001851Y002338D03*
X001851Y002339D03*
X002545Y002330D03*
X002545Y002329D03*
D579*
X002545Y002330D03*
X002545Y002331D03*
X001851Y002337D03*
X001851Y002338D03*
D580*
X001852Y002331D03*
D581*
X001852Y002331D03*
X001852Y002332D03*
D582*
X002545Y002333D03*
X002545Y002332D03*
X002545Y002331D03*
D583*
X002545Y002332D03*
D584*
X002545Y002333D03*
X002545Y002335D03*
X001850Y002341D03*
X001850Y002342D03*
D585*
X001850Y002342D03*
X001850Y002341D03*
X002545Y002334D03*
X002545Y002334D03*
D586*
X002545Y002335D03*
X002545Y002336D03*
X002545Y002337D03*
X001850Y002343D03*
X001850Y002344D03*
D587*
X001851Y002336D03*
D588*
X001850Y002343D03*
X002545Y002336D03*
D589*
X001851Y002337D03*
X001851Y002336D03*
D590*
X002546Y002337D03*
X002546Y002338D03*
D591*
X002546Y002338D03*
X002546Y002339D03*
D592*
X001850Y002340D03*
X001850Y002339D03*
D593*
X001849Y002346D03*
X001849Y002347D03*
X002546Y002341D03*
X002546Y002340D03*
X002546Y002339D03*
D594*
X001850Y002340D03*
D595*
X001849Y002346D03*
X001849Y002347D03*
X002546Y002341D03*
X002546Y002340D03*
D596*
X002546Y002342D03*
X002546Y002343D03*
D597*
X002546Y002343D03*
X002546Y002342D03*
D598*
X002546Y002344D03*
X002546Y002344D03*
X002546Y002345D03*
X001849Y002349D03*
X001849Y002350D03*
D599*
X001850Y002345D03*
X001850Y002344D03*
D600*
X001850Y002345D03*
D601*
X001849Y002350D03*
X001849Y002351D03*
X002546Y002345D03*
D602*
X002547Y002346D03*
X002547Y002347D03*
X001849Y002352D03*
D603*
X001849Y002352D03*
X001849Y002351D03*
X002547Y002347D03*
X002547Y002346D03*
D604*
X001849Y002348D03*
X001849Y002349D03*
D605*
X002547Y002349D03*
X002547Y002349D03*
X002547Y002348D03*
D606*
X001849Y002348D03*
D607*
X002547Y002348D03*
D608*
X002547Y002350D03*
X002547Y002351D03*
X001848Y002355D03*
X001848Y002356D03*
D609*
X001848Y002355D03*
X001848Y002354D03*
X002547Y002351D03*
X002547Y002350D03*
D610*
X002548Y002352D03*
X002548Y002353D03*
X002548Y002354D03*
D611*
X002548Y002353D03*
X002548Y002352D03*
D612*
X001849Y002353D03*
X001849Y002354D03*
D613*
X001849Y002353D03*
D614*
X001848Y002358D03*
X001848Y002359D03*
X001848Y002359D03*
X002548Y002355D03*
X002548Y002354D03*
D615*
X002548Y002355D03*
X002548Y002356D03*
X001848Y002358D03*
D616*
X001848Y002357D03*
X001848Y002356D03*
D617*
X001848Y002360D03*
X002548Y002358D03*
X002548Y002357D03*
X002548Y002356D03*
D618*
X001848Y002357D03*
D619*
X001848Y002360D03*
X001848Y002361D03*
X002548Y002357D03*
D620*
X002548Y002358D03*
X002548Y002360D03*
D621*
X002548Y002359D03*
X002548Y002359D03*
D622*
X002548Y002360D03*
X002548Y002361D03*
X002548Y002362D03*
X001847Y002363D03*
X001847Y002364D03*
X001847Y002364D03*
D623*
X001847Y002363D03*
X002548Y002361D03*
D624*
X001847Y002362D03*
X001847Y002361D03*
D625*
X001847Y002362D03*
D626*
X002549Y002363D03*
X002549Y002362D03*
D627*
X002549Y002363D03*
X002549Y002364D03*
D628*
X002549Y002364D03*
X002549Y002365D03*
X002549Y002366D03*
X001846Y002367D03*
X001846Y002368D03*
X001846Y002366D03*
D629*
X001847Y002366D03*
X001847Y002365D03*
D630*
X001846Y002367D03*
X002549Y002366D03*
X002549Y002365D03*
D631*
X001847Y002365D03*
D632*
X001846Y002369D03*
X001846Y002369D03*
X002549Y002368D03*
X002549Y002367D03*
D633*
X002549Y002367D03*
X002549Y002368D03*
X001846Y002368D03*
D634*
X002549Y002369D03*
X002549Y002369D03*
X002549Y002370D03*
D635*
X001846Y002371D03*
X001846Y002370D03*
D636*
X002549Y002370D03*
D637*
X001846Y002370D03*
D638*
X001846Y002372D03*
X002550Y002372D03*
X002550Y002371D03*
D639*
X002550Y002371D03*
X002550Y002372D03*
X001846Y002373D03*
X001846Y002372D03*
X001846Y002371D03*
D640*
X002550Y002373D03*
X002550Y002374D03*
X002550Y002374D03*
D641*
X001845Y002373D03*
D642*
X002550Y002373D03*
D643*
X001845Y002374D03*
X001845Y002374D03*
D644*
X001845Y002375D03*
X001845Y002376D03*
X002550Y002376D03*
X002550Y002375D03*
D645*
X002550Y002375D03*
X002550Y002376D03*
X001845Y002376D03*
X001845Y002375D03*
D646*
X001845Y002377D03*
X001845Y002378D03*
X002550Y002379D03*
X002550Y002378D03*
X002550Y002377D03*
D647*
X002550Y002377D03*
X002550Y002378D03*
X001845Y002377D03*
D648*
X001845Y002378D03*
D649*
X001845Y002379D03*
X001845Y002379D03*
D650*
X002551Y002380D03*
X002551Y002379D03*
D651*
X002551Y002382D03*
X001844Y002381D03*
X001844Y002380D03*
D652*
X002551Y002381D03*
X002551Y002380D03*
D653*
X002551Y002381D03*
X002551Y002382D03*
X002551Y002383D03*
X001844Y002381D03*
X001844Y002380D03*
D654*
X001844Y002382D03*
X001844Y002383D03*
D655*
X001844Y002382D03*
D656*
X001844Y002383D03*
X001844Y002385D03*
X002551Y002386D03*
D657*
X002551Y002385D03*
X002551Y002383D03*
D658*
X002551Y002385D03*
X002551Y002386D03*
X002551Y002387D03*
X001844Y002384D03*
X001844Y002384D03*
D659*
X002551Y002384D03*
X002551Y002384D03*
D660*
X002552Y002388D03*
X002552Y002389D03*
X001844Y002386D03*
X001844Y002385D03*
D661*
X001844Y002386D03*
X002552Y002387D03*
X002552Y002388D03*
D662*
X001844Y002388D03*
X001844Y002387D03*
D663*
X001844Y002387D03*
D664*
X001843Y002388D03*
X001843Y002390D03*
X002552Y002392D03*
X002552Y002393D03*
D665*
X002552Y002393D03*
X002552Y002392D03*
X001843Y002389D03*
X001843Y002389D03*
D666*
X002552Y002390D03*
X002552Y002389D03*
X002552Y002391D03*
D667*
X002552Y002391D03*
X002552Y002390D03*
D668*
X001843Y002391D03*
X001843Y002390D03*
D669*
X001843Y002391D03*
D670*
X001843Y002392D03*
X001843Y002393D03*
X002553Y002396D03*
X002553Y002397D03*
D671*
X002553Y002397D03*
X002553Y002396D03*
X001843Y002393D03*
X001843Y002392D03*
D672*
X001843Y002394D03*
X001843Y002394D03*
X002553Y002398D03*
X002553Y002399D03*
X002553Y002399D03*
D673*
X002553Y002395D03*
X002553Y002394D03*
X002553Y002394D03*
D674*
X002553Y002398D03*
X001843Y002395D03*
D675*
X002553Y002395D03*
D676*
X001842Y002396D03*
X001842Y002395D03*
D677*
X001842Y002396D03*
D678*
X001842Y002397D03*
X001842Y002398D03*
X002553Y002402D03*
X002553Y002403D03*
X002553Y002404D03*
D679*
X002553Y002403D03*
X002553Y002402D03*
X001842Y002398D03*
X001842Y002397D03*
D680*
X001842Y002399D03*
X001842Y002399D03*
D681*
X001842Y002400D03*
D682*
X002553Y002401D03*
X002553Y002400D03*
D683*
X002554Y002406D03*
X002554Y002407D03*
X002554Y002408D03*
X001841Y002402D03*
X001841Y002401D03*
X001841Y002400D03*
D684*
X002553Y002401D03*
X002553Y002400D03*
D685*
X002554Y002407D03*
X001841Y002401D03*
D686*
X001841Y002402D03*
X001841Y002403D03*
X002554Y002408D03*
X002554Y002410D03*
D687*
X002554Y002409D03*
X002554Y002409D03*
X001841Y002403D03*
D688*
X001841Y002404D03*
X001841Y002404D03*
D689*
X002554Y002405D03*
X002554Y002404D03*
D690*
X001841Y002405D03*
D691*
X002554Y002406D03*
X002554Y002405D03*
D692*
X002555Y002413D03*
X002555Y002414D03*
X001841Y002407D03*
X001841Y002406D03*
X001841Y002405D03*
D693*
X001841Y002406D03*
X002555Y002412D03*
X002555Y002413D03*
D694*
X001840Y002408D03*
X001840Y002407D03*
D695*
X001840Y002408D03*
D696*
X001840Y002409D03*
X001840Y002409D03*
X001840Y002410D03*
X002555Y002417D03*
X002555Y002418D03*
D697*
X002555Y002418D03*
X002555Y002417D03*
X001840Y002410D03*
D698*
X002554Y002411D03*
X002554Y002412D03*
X002554Y002410D03*
D699*
X002555Y002420D03*
X001840Y002411D03*
D700*
X002554Y002411D03*
D701*
X002555Y002419D03*
X002555Y002419D03*
X002555Y002420D03*
X001840Y002412D03*
X001840Y002411D03*
D702*
X001840Y002412D03*
X001840Y002413D03*
D703*
X001840Y002413D03*
D704*
X001839Y002414D03*
X001839Y002414D03*
X001839Y002415D03*
X002556Y002423D03*
X002556Y002424D03*
X002556Y002424D03*
D705*
X002555Y002416D03*
X002555Y002415D03*
X002555Y002414D03*
D706*
X002556Y002423D03*
X001839Y002415D03*
D707*
X002555Y002416D03*
X002555Y002415D03*
D708*
X001839Y002416D03*
D709*
X001839Y002416D03*
X001839Y002417D03*
D710*
X001839Y002417D03*
X001839Y002418D03*
X002556Y002427D03*
D711*
X002556Y002427D03*
X001839Y002419D03*
X001839Y002418D03*
D712*
X001839Y002419D03*
X001839Y002420D03*
D713*
X001839Y002420D03*
D714*
X001839Y002421D03*
X001839Y002422D03*
D715*
X002556Y002422D03*
X002556Y002421D03*
D716*
X001839Y002422D03*
X001839Y002421D03*
D717*
X002556Y002422D03*
X002556Y002421D03*
D718*
X001838Y002423D03*
X001838Y002424D03*
D719*
X001838Y002423D03*
D720*
X001838Y002424D03*
X001838Y002425D03*
D721*
X001838Y002425D03*
D722*
X002556Y002426D03*
X002556Y002425D03*
D723*
X002556Y002425D03*
X002556Y002426D03*
D724*
X001838Y002427D03*
X001838Y002426D03*
D725*
X001838Y002426D03*
X001838Y002427D03*
D726*
X001894Y002428D03*
X001894Y002429D03*
X001894Y002429D03*
X001894Y002430D03*
X001894Y002431D03*
X001894Y002432D03*
X001894Y002433D03*
X001894Y002434D03*
X001894Y002434D03*
X001894Y002435D03*
X001894Y002436D03*
X001894Y002437D03*
X001894Y002438D03*
X001894Y002439D03*
X001894Y002439D03*
X001894Y002440D03*
X001894Y002441D03*
X001894Y002442D03*
X001894Y002443D03*
X001894Y002444D03*
X001894Y002444D03*
X001894Y002445D03*
X001894Y002446D03*
X001894Y002447D03*
X001894Y002448D03*
X001894Y002449D03*
X001894Y002449D03*
X001894Y002450D03*
X001894Y002451D03*
X001894Y002452D03*
X001894Y002453D03*
D727*
X002502Y002453D03*
X002502Y002452D03*
X002502Y002451D03*
X002502Y002450D03*
X002502Y002449D03*
X002502Y002449D03*
X002502Y002448D03*
X002502Y002447D03*
X002502Y002446D03*
X002502Y002445D03*
X002502Y002444D03*
X002502Y002444D03*
X002502Y002443D03*
X002502Y002442D03*
X002502Y002441D03*
X002502Y002440D03*
X002502Y002439D03*
X002502Y002439D03*
X002502Y002438D03*
X002502Y002437D03*
X002502Y002436D03*
X002502Y002435D03*
X002502Y002434D03*
X002502Y002434D03*
X002502Y002433D03*
X002502Y002432D03*
X002502Y002431D03*
X002502Y002430D03*
X002502Y002429D03*
X002502Y002429D03*
X002502Y002428D03*
D728*
X001894Y002428D03*
X001894Y002430D03*
X001894Y002431D03*
X001894Y002432D03*
X001894Y002433D03*
X001894Y002435D03*
X001894Y002436D03*
X001894Y002437D03*
X001894Y002438D03*
X001894Y002440D03*
X001894Y002441D03*
X001894Y002442D03*
X001894Y002443D03*
X001894Y002445D03*
X001894Y002446D03*
X001894Y002447D03*
X001894Y002448D03*
X001894Y002450D03*
X001894Y002451D03*
X001894Y002452D03*
X001894Y002453D03*
D729*
X002502Y002453D03*
X002502Y002452D03*
X002502Y002451D03*
X002502Y002450D03*
X002502Y002448D03*
X002502Y002447D03*
X002502Y002446D03*
X002502Y002445D03*
X002502Y002443D03*
X002502Y002442D03*
X002502Y002441D03*
X002502Y002440D03*
X002502Y002438D03*
X002502Y002437D03*
X002502Y002436D03*
X002502Y002435D03*
X002502Y002433D03*
X002502Y002432D03*
X002502Y002431D03*
X002502Y002430D03*
X002502Y002428D03*
D730*
X002198Y002454D03*
X002198Y002454D03*
X002198Y002455D03*
X002198Y002456D03*
X002198Y002457D03*
X002198Y002458D03*
X002198Y002459D03*
X002198Y002459D03*
X002198Y002460D03*
X002198Y002461D03*
X002198Y002462D03*
X002198Y002463D03*
X002198Y002464D03*
X002198Y002464D03*
X002198Y002465D03*
X002198Y002466D03*
X002198Y002467D03*
X002198Y002468D03*
X002198Y002469D03*
X002198Y002469D03*
X002198Y002470D03*
X002198Y002471D03*
X002198Y002472D03*
X002198Y002473D03*
X002198Y002474D03*
X002198Y002603D03*
X002198Y002604D03*
X002198Y002604D03*
X002198Y002605D03*
X002198Y002606D03*
X002198Y002607D03*
X002198Y002608D03*
X002198Y002609D03*
X002198Y002609D03*
X002198Y002610D03*
X002198Y002611D03*
X002198Y002612D03*
X002198Y002613D03*
X002198Y002614D03*
X002198Y002614D03*
X002198Y002615D03*
X002198Y002616D03*
X002198Y002617D03*
X002198Y002618D03*
X002198Y002619D03*
X002198Y002619D03*
X002198Y002620D03*
X002198Y002621D03*
X002198Y002622D03*
X002198Y002623D03*
X002198Y002624D03*
X002198Y002624D03*
X002198Y002625D03*
X002198Y002626D03*
X002198Y002627D03*
X002198Y002628D03*
X002198Y002629D03*
X002198Y002629D03*
X002198Y002630D03*
X002198Y002631D03*
X002198Y002632D03*
X002198Y002633D03*
X002198Y002634D03*
X002198Y002634D03*
X002198Y002635D03*
X002198Y002636D03*
X002198Y002637D03*
X002198Y002638D03*
X002198Y002639D03*
D731*
X002198Y002638D03*
X002198Y002637D03*
X002198Y002636D03*
X002198Y002635D03*
X002198Y002633D03*
X002198Y002632D03*
X002198Y002631D03*
X002198Y002630D03*
X002198Y002628D03*
X002198Y002627D03*
X002198Y002626D03*
X002198Y002625D03*
X002198Y002623D03*
X002198Y002622D03*
X002198Y002621D03*
X002198Y002620D03*
X002198Y002618D03*
X002198Y002617D03*
X002198Y002616D03*
X002198Y002615D03*
X002198Y002613D03*
X002198Y002612D03*
X002198Y002611D03*
X002198Y002610D03*
X002198Y002608D03*
X002198Y002607D03*
X002198Y002606D03*
X002198Y002605D03*
X002198Y002603D03*
X002198Y002473D03*
X002198Y002472D03*
X002198Y002471D03*
X002198Y002470D03*
X002198Y002468D03*
X002198Y002467D03*
X002198Y002466D03*
X002198Y002465D03*
X002198Y002463D03*
X002198Y002462D03*
X002198Y002461D03*
X002198Y002460D03*
X002198Y002458D03*
X002198Y002457D03*
X002198Y002456D03*
X002198Y002455D03*
D732*
X001924Y002474D03*
X001924Y002475D03*
X001924Y002476D03*
X001924Y002477D03*
X001924Y002478D03*
X001924Y002479D03*
X001924Y002479D03*
X001924Y002480D03*
X001924Y002481D03*
X001924Y002482D03*
X001924Y002483D03*
X001924Y002484D03*
X001924Y002484D03*
X001924Y002485D03*
X001924Y002486D03*
X001924Y002487D03*
X001924Y002488D03*
X001924Y002489D03*
X001924Y002489D03*
X001924Y002490D03*
X001924Y002491D03*
X001924Y002492D03*
X001924Y002493D03*
X001924Y002494D03*
X001924Y002494D03*
X001924Y002495D03*
X001924Y002496D03*
X001924Y002497D03*
X001924Y002498D03*
X001924Y002499D03*
X001924Y002499D03*
X001924Y002500D03*
X001924Y002501D03*
X001924Y002502D03*
X001924Y002503D03*
X001924Y002504D03*
X001924Y002504D03*
X001924Y002505D03*
X001924Y002506D03*
X001924Y002507D03*
X001924Y002508D03*
X001924Y002509D03*
X001924Y002509D03*
X001924Y002510D03*
X001924Y002511D03*
X001924Y002512D03*
X001924Y002513D03*
X001924Y002514D03*
X001924Y002514D03*
X001924Y002515D03*
X001924Y002516D03*
X001924Y002517D03*
X001924Y002518D03*
X001924Y002519D03*
X001924Y002519D03*
X001924Y002520D03*
X001924Y002521D03*
X001924Y002522D03*
X001924Y002523D03*
X001924Y002524D03*
X001924Y002524D03*
X001924Y002525D03*
X001924Y002526D03*
X001924Y002527D03*
X001924Y002528D03*
X001924Y002529D03*
X001924Y002529D03*
X001924Y002530D03*
X001924Y002531D03*
X001924Y002532D03*
X001924Y002533D03*
X001924Y002534D03*
X001924Y002534D03*
X001924Y002535D03*
X001924Y002536D03*
X001924Y002537D03*
X001924Y002538D03*
X001924Y002539D03*
X001924Y002539D03*
X001924Y002540D03*
X001924Y002541D03*
X001924Y002542D03*
X001924Y002543D03*
X001924Y002544D03*
X001924Y002544D03*
X001924Y002545D03*
X001924Y002546D03*
X001924Y002547D03*
X001924Y002548D03*
X001924Y002549D03*
X001924Y002549D03*
X001924Y002550D03*
X001924Y002551D03*
X001924Y002552D03*
X001924Y002553D03*
X001924Y002554D03*
X001924Y002554D03*
X001924Y002555D03*
X001924Y002556D03*
X001924Y002557D03*
X001924Y002558D03*
X001924Y002559D03*
X001924Y002559D03*
X001924Y002560D03*
X001924Y002561D03*
X001924Y002562D03*
X001924Y002563D03*
X001924Y002564D03*
X001924Y002564D03*
X001924Y002565D03*
X001924Y002566D03*
X001924Y002567D03*
X001924Y002568D03*
X001924Y002569D03*
X001924Y002569D03*
X001924Y002570D03*
X001924Y002571D03*
X001924Y002572D03*
X001924Y002573D03*
X001924Y002574D03*
X001924Y002574D03*
X001924Y002575D03*
X001924Y002576D03*
X001924Y002577D03*
X001924Y002578D03*
X001924Y002579D03*
X001924Y002579D03*
X001924Y002580D03*
X001924Y002581D03*
X001924Y002582D03*
X001924Y002583D03*
X001924Y002584D03*
X001924Y002584D03*
X001924Y002585D03*
X001924Y002586D03*
X001924Y002587D03*
X001924Y002588D03*
X001924Y002589D03*
X001924Y002589D03*
X001924Y002590D03*
X001924Y002591D03*
X001924Y002592D03*
X001924Y002593D03*
X001924Y002594D03*
X001924Y002594D03*
X001924Y002595D03*
X001924Y002596D03*
X001924Y002597D03*
X001924Y002598D03*
X001924Y002599D03*
X001924Y002599D03*
X001924Y002600D03*
X001924Y002601D03*
X001924Y002602D03*
D733*
X002479Y002602D03*
X002479Y002601D03*
X002479Y002600D03*
X002479Y002599D03*
X002479Y002599D03*
X002479Y002598D03*
X002479Y002597D03*
X002479Y002596D03*
X002479Y002595D03*
X002479Y002594D03*
X002479Y002594D03*
X002479Y002593D03*
X002479Y002592D03*
X002479Y002591D03*
X002479Y002590D03*
X002479Y002589D03*
X002479Y002589D03*
X002479Y002588D03*
X002479Y002587D03*
X002479Y002586D03*
X002479Y002585D03*
X002479Y002584D03*
X002479Y002584D03*
X002479Y002583D03*
X002479Y002582D03*
X002479Y002581D03*
X002479Y002580D03*
X002479Y002579D03*
X002479Y002579D03*
X002479Y002578D03*
X002479Y002577D03*
X002479Y002576D03*
X002479Y002575D03*
X002479Y002574D03*
X002479Y002574D03*
X002479Y002573D03*
X002479Y002572D03*
X002479Y002571D03*
X002479Y002570D03*
X002479Y002569D03*
X002479Y002569D03*
X002479Y002568D03*
X002479Y002567D03*
X002479Y002566D03*
X002479Y002565D03*
X002479Y002564D03*
X002479Y002564D03*
X002479Y002563D03*
X002479Y002562D03*
X002479Y002561D03*
X002479Y002560D03*
X002479Y002559D03*
X002479Y002559D03*
X002479Y002558D03*
X002479Y002557D03*
X002479Y002556D03*
X002479Y002555D03*
X002479Y002554D03*
X002479Y002554D03*
X002479Y002553D03*
X002479Y002552D03*
X002479Y002551D03*
X002479Y002550D03*
X002479Y002549D03*
X002479Y002549D03*
X002479Y002548D03*
X002479Y002547D03*
X002479Y002546D03*
X002479Y002545D03*
X002479Y002544D03*
X002479Y002544D03*
X002479Y002543D03*
X002479Y002542D03*
X002479Y002541D03*
X002479Y002540D03*
X002479Y002539D03*
X002479Y002539D03*
X002479Y002538D03*
X002479Y002537D03*
X002479Y002536D03*
X002479Y002535D03*
X002479Y002534D03*
X002479Y002534D03*
X002479Y002533D03*
X002479Y002532D03*
X002479Y002531D03*
X002479Y002530D03*
X002479Y002529D03*
X002479Y002529D03*
X002479Y002528D03*
X002479Y002527D03*
X002479Y002526D03*
X002479Y002525D03*
X002479Y002524D03*
X002479Y002524D03*
X002479Y002523D03*
X002479Y002522D03*
X002479Y002521D03*
X002479Y002520D03*
X002479Y002519D03*
X002479Y002519D03*
X002479Y002518D03*
X002479Y002517D03*
X002479Y002516D03*
X002479Y002515D03*
X002479Y002514D03*
X002479Y002514D03*
X002479Y002513D03*
X002479Y002512D03*
X002479Y002511D03*
X002479Y002510D03*
X002479Y002509D03*
X002479Y002509D03*
X002479Y002508D03*
X002479Y002507D03*
X002479Y002506D03*
X002479Y002505D03*
X002479Y002504D03*
X002479Y002504D03*
X002479Y002503D03*
X002479Y002502D03*
X002479Y002501D03*
X002479Y002500D03*
X002479Y002499D03*
X002479Y002499D03*
X002479Y002498D03*
X002479Y002497D03*
X002479Y002496D03*
X002479Y002495D03*
X002479Y002494D03*
X002479Y002494D03*
X002479Y002493D03*
X002479Y002492D03*
X002479Y002491D03*
X002479Y002490D03*
X002479Y002489D03*
X002479Y002489D03*
X002479Y002488D03*
X002479Y002487D03*
X002479Y002486D03*
X002479Y002485D03*
X002479Y002484D03*
X002479Y002484D03*
X002479Y002483D03*
X002479Y002482D03*
X002479Y002481D03*
X002479Y002480D03*
X002479Y002479D03*
X002479Y002479D03*
X002479Y002478D03*
X002479Y002477D03*
X002479Y002476D03*
X002479Y002475D03*
X002479Y002474D03*
D734*
X001924Y002475D03*
X001924Y002476D03*
X001924Y002477D03*
X001924Y002478D03*
X001924Y002480D03*
X001924Y002481D03*
X001924Y002482D03*
X001924Y002483D03*
X001924Y002485D03*
X001924Y002486D03*
X001924Y002487D03*
X001924Y002488D03*
X001924Y002490D03*
X001924Y002491D03*
X001924Y002492D03*
X001924Y002493D03*
X001924Y002495D03*
X001924Y002496D03*
X001924Y002497D03*
X001924Y002498D03*
X001924Y002500D03*
X001924Y002501D03*
X001924Y002502D03*
X001924Y002503D03*
X001924Y002505D03*
X001924Y002506D03*
X001924Y002507D03*
X001924Y002508D03*
X001924Y002510D03*
X001924Y002511D03*
X001924Y002512D03*
X001924Y002513D03*
X001924Y002515D03*
X001924Y002516D03*
X001924Y002517D03*
X001924Y002518D03*
X001924Y002520D03*
X001924Y002521D03*
X001924Y002522D03*
X001924Y002523D03*
X001924Y002525D03*
X001924Y002526D03*
X001924Y002527D03*
X001924Y002528D03*
X001924Y002530D03*
X001924Y002531D03*
X001924Y002532D03*
X001924Y002533D03*
X001924Y002535D03*
X001924Y002536D03*
X001924Y002537D03*
X001924Y002538D03*
X001924Y002540D03*
X001924Y002541D03*
X001924Y002542D03*
X001924Y002543D03*
X001924Y002545D03*
X001924Y002546D03*
X001924Y002547D03*
X001924Y002548D03*
X001924Y002550D03*
X001924Y002551D03*
X001924Y002552D03*
X001924Y002553D03*
X001924Y002555D03*
X001924Y002556D03*
X001924Y002557D03*
X001924Y002558D03*
X001924Y002560D03*
X001924Y002561D03*
X001924Y002562D03*
X001924Y002563D03*
X001924Y002565D03*
X001924Y002566D03*
X001924Y002567D03*
X001924Y002568D03*
X001924Y002570D03*
X001924Y002571D03*
X001924Y002572D03*
X001924Y002573D03*
X001924Y002575D03*
X001924Y002576D03*
X001924Y002577D03*
X001924Y002578D03*
X001924Y002580D03*
X001924Y002581D03*
X001924Y002582D03*
X001924Y002583D03*
X001924Y002585D03*
X001924Y002586D03*
X001924Y002587D03*
X001924Y002588D03*
X001924Y002590D03*
X001924Y002591D03*
X001924Y002592D03*
X001924Y002593D03*
X001924Y002595D03*
X001924Y002596D03*
X001924Y002597D03*
X001924Y002598D03*
X001924Y002600D03*
X001924Y002601D03*
X001924Y002602D03*
D735*
X002479Y002602D03*
X002479Y002601D03*
X002479Y002600D03*
X002479Y002598D03*
X002479Y002597D03*
X002479Y002596D03*
X002479Y002595D03*
X002479Y002593D03*
X002479Y002592D03*
X002479Y002591D03*
X002479Y002590D03*
X002479Y002588D03*
X002479Y002587D03*
X002479Y002586D03*
X002479Y002585D03*
X002479Y002583D03*
X002479Y002582D03*
X002479Y002581D03*
X002479Y002580D03*
X002479Y002578D03*
X002479Y002577D03*
X002479Y002576D03*
X002479Y002575D03*
X002479Y002573D03*
X002479Y002572D03*
X002479Y002571D03*
X002479Y002570D03*
X002479Y002568D03*
X002479Y002567D03*
X002479Y002566D03*
X002479Y002565D03*
X002479Y002563D03*
X002479Y002562D03*
X002479Y002561D03*
X002479Y002560D03*
X002479Y002558D03*
X002479Y002557D03*
X002479Y002556D03*
X002479Y002555D03*
X002479Y002553D03*
X002479Y002552D03*
X002479Y002551D03*
X002479Y002550D03*
X002479Y002548D03*
X002479Y002547D03*
X002479Y002546D03*
X002479Y002545D03*
X002479Y002543D03*
X002479Y002542D03*
X002479Y002541D03*
X002479Y002540D03*
X002479Y002538D03*
X002479Y002537D03*
X002479Y002536D03*
X002479Y002535D03*
X002479Y002533D03*
X002479Y002532D03*
X002479Y002531D03*
X002479Y002530D03*
X002479Y002528D03*
X002479Y002527D03*
X002479Y002526D03*
X002479Y002525D03*
X002479Y002523D03*
X002479Y002522D03*
X002479Y002521D03*
X002479Y002520D03*
X002479Y002518D03*
X002479Y002517D03*
X002479Y002516D03*
X002479Y002515D03*
X002479Y002513D03*
X002479Y002512D03*
X002479Y002511D03*
X002479Y002510D03*
X002479Y002508D03*
X002479Y002507D03*
X002479Y002506D03*
X002479Y002505D03*
X002479Y002503D03*
X002479Y002502D03*
X002479Y002501D03*
X002479Y002500D03*
X002479Y002498D03*
X002479Y002497D03*
X002479Y002496D03*
X002479Y002495D03*
X002479Y002493D03*
X002479Y002492D03*
X002479Y002491D03*
X002479Y002490D03*
X002479Y002488D03*
X002479Y002487D03*
X002479Y002486D03*
X002479Y002485D03*
X002479Y002483D03*
X002479Y002482D03*
X002479Y002481D03*
X002479Y002480D03*
X002479Y002478D03*
X002479Y002477D03*
X002479Y002476D03*
X002479Y002475D03*
D736*
X002198Y002639D03*
D737*
X002198Y002640D03*
D738*
X002198Y002640D03*
X002198Y002641D03*
X002198Y002642D03*
X002198Y002643D03*
D739*
X002198Y002643D03*
X002198Y002642D03*
X002198Y002641D03*
D740*
X002198Y002644D03*
D741*
X002198Y002644D03*
X002198Y002645D03*
X002198Y002646D03*
D742*
X002198Y002646D03*
X002198Y002645D03*
D743*
X002198Y002647D03*
D744*
X002198Y002647D03*
D745*
X002198Y002648D03*
X002198Y002649D03*
X002198Y002649D03*
D746*
X002198Y002648D03*
D747*
X002198Y002650D03*
D748*
X002198Y002650D03*
D749*
X002198Y002651D03*
D750*
X002198Y002651D03*
X002198Y002652D03*
D751*
X002198Y002652D03*
D752*
X002198Y002653D03*
D753*
X002198Y002653D03*
D754*
X002198Y002654D03*
X002198Y002654D03*
D755*
X002198Y002655D03*
D756*
X002198Y002655D03*
D757*
X002198Y002656D03*
D758*
X002198Y002656D03*
X002198Y002657D03*
D759*
X002198Y002657D03*
D760*
X002198Y002658D03*
X002198Y002659D03*
X002198Y002659D03*
D761*
X002198Y002658D03*
D762*
X002198Y002660D03*
X002198Y002661D03*
D763*
X002198Y002661D03*
X002198Y002660D03*
D764*
X002198Y002662D03*
X002198Y002663D03*
D765*
X002198Y002663D03*
X002198Y002662D03*
D766*
X002198Y002664D03*
X002198Y002664D03*
X002198Y002665D03*
D767*
X002198Y002665D03*
D768*
X002198Y002666D03*
X002198Y002667D03*
D769*
X002198Y002667D03*
X002198Y002666D03*
D770*
X002198Y002668D03*
X002198Y002669D03*
D771*
X002198Y002668D03*
D772*
X002198Y002669D03*
D773*
X002198Y002670D03*
D774*
X002198Y002670D03*
D775*
X002198Y002671D03*
D776*
X002198Y002671D03*
X002198Y002672D03*
D777*
X002198Y002672D03*
D778*
X002198Y002673D03*
D779*
X002198Y002673D03*
D780*
X002198Y002674D03*
D781*
X002198Y002674D03*
D782*
X002198Y002675D03*
D783*
X002198Y002675D03*
D784*
X002198Y002676D03*
D785*
X002198Y002676D03*
X002198Y002677D03*
D786*
X002198Y002677D03*
D787*
X002198Y002678D03*
D788*
X002198Y002678D03*
D789*
X002198Y002679D03*
X002198Y002679D03*
D790*
X002198Y002680D03*
D791*
X002198Y002680D03*
D792*
X002198Y002681D03*
D793*
X002198Y002681D03*
D794*
X002198Y002682D03*
D795*
X002198Y002682D03*
D796*
X002198Y002683D03*
D797*
X002198Y002683D03*
D798*
X002198Y002684D03*
D799*
X002198Y002684D03*
D800*
X002198Y002685D03*
D801*
X002198Y002685D03*
D802*
X002198Y002686D03*
D803*
X002198Y002686D03*
D804*
X002198Y002687D03*
D805*
X002198Y002687D03*
D806*
X002198Y002688D03*
D807*
X002198Y002688D03*
D808*
X002198Y002689D03*
D809*
X002198Y002689D03*
D810*
X002198Y002690D03*
D811*
X002198Y002690D03*
D812*
X002198Y002691D03*
D813*
X002198Y002691D03*
D814*
X002198Y002692D03*
D815*
X002198Y002692D03*
D816*
X002198Y002693D03*
D817*
X002198Y002693D03*
D818*
X002198Y002694D03*
D819*
X002198Y002694D03*
D820*
X002198Y002695D03*
D821*
X002198Y002695D03*
D822*
X002198Y002696D03*
D823*
X002198Y002696D03*
D824*
X002198Y002697D03*
D825*
X002198Y002697D03*
D826*
X002198Y002698D03*
D827*
X002198Y002698D03*
D828*
X002198Y002699D03*
D829*
X002198Y002699D03*
D830*
X002198Y002700D03*
D831*
X002198Y002700D03*
D832*
X002198Y002701D03*
D833*
X002198Y002701D03*
D834*
X002198Y002702D03*
D835*
X002198Y002702D03*
D836*
X002198Y002703D03*
D837*
X002198Y002703D03*
D838*
X002198Y002704D03*
D839*
X002198Y002704D03*
D840*
X002198Y002705D03*
D841*
X002198Y002705D03*
D842*
X002198Y002706D03*
D843*
X002198Y002706D03*
D844*
X002198Y002707D03*
D845*
X002198Y002707D03*
D846*
X002198Y002708D03*
D847*
X002198Y002708D03*
D848*
X002198Y002709D03*
D849*
X002198Y002709D03*
D850*
X002198Y002710D03*
D851*
X002198Y002710D03*
D852*
X002198Y002711D03*
D853*
X002198Y002711D03*
D854*
X002198Y002712D03*
D855*
X002198Y002712D03*
D856*
X002198Y002713D03*
D857*
X002198Y002713D03*
D858*
X002198Y002714D03*
D859*
X002198Y002714D03*
D860*
X002198Y002715D03*
D861*
X002198Y002715D03*
D862*
X002198Y002716D03*
D863*
X002198Y002716D03*
D864*
X002198Y002717D03*
D865*
X002198Y002717D03*
D866*
X002198Y002718D03*
D867*
X002198Y002718D03*
D868*
X002198Y002719D03*
D869*
X002198Y002719D03*
D870*
X002198Y002720D03*
D871*
X002198Y002720D03*
D872*
X002198Y002721D03*
D873*
X002198Y002721D03*
D874*
X002198Y002722D03*
D875*
X002198Y002722D03*
D876*
X002198Y002723D03*
D877*
X002198Y002723D03*
D878*
X002198Y002724D03*
D879*
X002198Y002724D03*
D880*
X002198Y002725D03*
D881*
X002198Y002725D03*
D882*
X002198Y002726D03*
D883*
X002198Y002726D03*
D884*
X002198Y002727D03*
D885*
X002198Y002727D03*
D886*
X002198Y002728D03*
D887*
X002198Y002728D03*
D888*
X002198Y002729D03*
D889*
X002198Y002729D03*
D890*
X002198Y002730D03*
D891*
X002198Y002730D03*
D892*
X002198Y002731D03*
D893*
X002198Y002731D03*
D894*
X002198Y002732D03*
D895*
X002198Y002732D03*
D896*
X002198Y002733D03*
D897*
X002198Y002733D03*
D898*
X002198Y002734D03*
D899*
X002198Y002734D03*
D900*
X002198Y002735D03*
D901*
X002198Y002735D03*
D902*
X002198Y002736D03*
D903*
X002198Y002736D03*
D904*
X002198Y002737D03*
D905*
X002198Y002737D03*
D906*
X002198Y002738D03*
D907*
X002198Y002738D03*
D908*
X002198Y002739D03*
D909*
X002198Y002739D03*
D910*
X002198Y002740D03*
D911*
X002198Y002740D03*
D912*
X002198Y002741D03*
D913*
X002198Y002741D03*
D914*
X002198Y002742D03*
D915*
X002198Y002742D03*
D916*
X002198Y002743D03*
D917*
X002198Y002743D03*
D918*
X002198Y002744D03*
D919*
X002198Y002744D03*
D920*
X002198Y002745D03*
D921*
X002198Y002745D03*
D922*
X002198Y002746D03*
D923*
X002198Y002746D03*
D924*
X002198Y002747D03*
D925*
X002198Y002747D03*
D926*
X002198Y002748D03*
D927*
X002198Y002748D03*
D928*
X002198Y002749D03*
D929*
X002198Y002749D03*
D930*
X002198Y002750D03*
D931*
X002198Y002750D03*
D932*
X002198Y002751D03*
D933*
X002198Y002751D03*
D934*
X002198Y002752D03*
D935*
X002198Y002752D03*
D936*
X002198Y002753D03*
D937*
X002198Y002753D03*
D938*
X002198Y002754D03*
D939*
X002198Y002754D03*
D940*
X002198Y002755D03*
D941*
X002198Y002755D03*
D942*
X002198Y002756D03*
D943*
X002198Y002756D03*
D944*
X002198Y002757D03*
D945*
X002198Y002757D03*
D946*
X002198Y002758D03*
D947*
X002198Y002758D03*
D948*
X002198Y002759D03*
D949*
X002198Y002759D03*
D950*
X002198Y002760D03*
D951*
X002198Y002760D03*
D952*
X002198Y002761D03*
D953*
X002198Y002761D03*
D954*
X002198Y002762D03*
D955*
X002198Y002762D03*
D956*
X002198Y002763D03*
D957*
X002198Y002763D03*
D958*
X002198Y002764D03*
D959*
X002198Y002764D03*
D960*
X002198Y002765D03*
D961*
X002198Y002765D03*
D962*
X002198Y002766D03*
D963*
X002198Y002766D03*
D964*
X002198Y002767D03*
D965*
X002198Y002767D03*
D966*
X002198Y002768D03*
D967*
X002198Y002768D03*
D968*
X002198Y002769D03*
D969*
X002198Y002769D03*
D970*
X002198Y002770D03*
D971*
X002198Y002770D03*
D972*
X002198Y002771D03*
D973*
X002198Y002771D03*
D974*
X002198Y002772D03*
D975*
X002198Y002772D03*
D976*
X002198Y002773D03*
D977*
X002198Y002773D03*
D978*
X002198Y002774D03*
D979*
X002198Y002774D03*
D980*
X002198Y002775D03*
D981*
X002198Y002775D03*
D982*
X002198Y002776D03*
D983*
X002198Y002776D03*
D984*
X002198Y002777D03*
D985*
X002198Y002777D03*
D986*
X002198Y002778D03*
D987*
X002198Y002778D03*
D988*
X002198Y002779D03*
D989*
X002198Y002779D03*
D990*
X002198Y002780D03*
D991*
X002198Y002780D03*
D992*
X002198Y002781D03*
D993*
X002198Y002781D03*
D994*
X002198Y002782D03*
D995*
X002198Y002782D03*
D996*
X002198Y002783D03*
D997*
X002198Y002783D03*
D998*
X002198Y002784D03*
D999*
X002198Y002784D03*
D1000*
X002198Y002785D03*
D1001*
X002198Y002785D03*
D1002*
X002198Y002786D03*
D1003*
X002198Y002786D03*
D1004*
X002198Y002787D03*
D1005*
X002198Y002787D03*
D1006*
X002198Y002788D03*
D1007*
X002198Y002788D03*
D1008*
X002198Y002789D03*
D1009*
X002198Y002789D03*
D1010*
X002198Y002790D03*
D1011*
X002198Y002790D03*
D1012*
X002198Y002791D03*
D1013*
X002198Y002791D03*
D1014*
X002198Y002792D03*
D1015*
X002198Y002792D03*
D1016*
X002198Y002793D03*
D1017*
X002198Y002793D03*
D1018*
X002198Y002794D03*
D1019*
X002198Y002794D03*
D1020*
X002198Y002795D03*
D1021*
X002198Y002795D03*
D1022*
X002198Y002796D03*
D1023*
X002198Y002796D03*
D1024*
X002198Y002797D03*
D1025*
X002198Y002797D03*
D1026*
X002198Y002798D03*
D1027*
X002198Y002798D03*
D1028*
X002198Y002799D03*
D1029*
X002198Y002799D03*
D1030*
X002198Y002800D03*
D1031*
X002198Y002800D03*
D1032*
X002198Y002801D03*
D1033*
X002198Y002801D03*
D1034*
X002198Y002802D03*
D1035*
X002198Y002802D03*
D1036*
X002198Y002803D03*
D1037*
X002198Y002803D03*
D1038*
X002198Y002804D03*
D1039*
X002198Y002804D03*
D1040*
X002198Y002805D03*
D1041*
X002198Y002805D03*
D1042*
X002198Y002806D03*
D1043*
X002198Y002806D03*
D1044*
X002198Y002807D03*
D1045*
X002198Y002807D03*
D1046*
X002198Y002808D03*
D1047*
X002198Y002808D03*
D1048*
X002198Y002809D03*
D1049*
X002198Y002809D03*
D1050*
X002198Y002810D03*
D1051*
X002198Y002810D03*
D1052*
X002198Y002811D03*
D1053*
X002198Y002811D03*
D1054*
X002198Y002812D03*
D1055*
X002198Y002812D03*
D1056*
X002198Y002813D03*
D1057*
X002198Y002813D03*
D1058*
X002198Y002814D03*
D1059*
X002198Y002814D03*
D1060*
X002198Y002815D03*
D1061*
X002198Y002815D03*
D1062*
X002198Y002816D03*
D1063*
X002198Y002816D03*
D1064*
X002198Y002817D03*
D1065*
X002198Y002817D03*
D1066*
X002198Y002818D03*
D1067*
X002198Y002818D03*
D1068*
X002198Y002819D03*
D1069*
X002198Y002819D03*
D1070*
X002198Y002820D03*
D1071*
X002198Y002820D03*
D1072*
X002198Y002821D03*
D1073*
X002198Y002821D03*
D1074*
X002198Y002822D03*
D1075*
X002198Y002822D03*
D1076*
X002198Y002823D03*
D1077*
X002198Y002823D03*
D1078*
X002198Y002824D03*
D1079*
X002198Y002824D03*
D1080*
X002197Y002825D03*
D1081*
X002197Y002825D03*
D1082*
X002197Y002826D03*
D1083*
X002197Y002826D03*
D1084*
X002197Y002827D03*
D1085*
X002197Y002827D03*
D1086*
X002197Y002828D03*
D1087*
X002197Y002828D03*
D1088*
X002197Y002829D03*
D1089*
X002197Y002829D03*
D1090*
X001676Y001776D02*
X001675Y001775D01*
X001676Y001776D02*
X001676Y001775D01*
X001676Y001776D02*
X001676Y001776D01*
X001676Y001776D01*
X001677Y001776D01*
X001677Y001776D01*
X001677Y001776D01*
X001678Y001776D01*
X001678Y001776D01*
X001678Y001776D01*
X001678Y001775D01*
X001678Y001776D01*
X001678Y001776D01*
X001678Y001776D01*
X001678Y001775D01*
X001678Y001776D01*
X001679Y001776D02*
X001679Y001776D01*
X001679Y001776D01*
X001679Y001776D01*
X001679Y001775D01*
X001679Y001775D01*
X001679Y001775D01*
X001679Y001775D01*
X001679Y001776D01*
X001680Y001775D02*
X001680Y001776D01*
X001681Y001776D02*
X001681Y001775D01*
X001682Y001775D01*
X001683Y001775D01*
X001684Y001775D01*
X001684Y001775D01*
X001684Y001775D01*
X001684Y001776D01*
X001684Y001776D01*
X001684Y001776D01*
X001683Y001776D01*
X001683Y001776D01*
X001682Y001776D01*
X001682Y001776D01*
X001682Y001776D01*
X001682Y001775D01*
X001682Y001776D01*
X001681Y001776D01*
X001681Y001775D01*
X001682Y001775D02*
X001683Y001775D01*
X001683Y001775D01*
X001683Y001776D01*
X001683Y001775D02*
X001683Y001775D01*
X001683Y001775D01*
X001684Y001775D02*
X001685Y001775D01*
X001685Y001776D01*
X001684Y001776D01*
X001685Y001775D02*
X001685Y001776D01*
X001686Y001776D02*
X001686Y001776D01*
X001686Y001776D01*
X001686Y001775D01*
X001686Y001775D01*
X001686Y001775D01*
X001686Y001775D01*
X001686Y001775D01*
X001687Y001775D02*
X001687Y001775D01*
X001687Y001776D01*
X001687Y001776D01*
X001687Y001776D01*
X001687Y001775D02*
X001688Y001775D01*
X001689Y001775D01*
X001689Y001775D01*
X001689Y001775D01*
X001689Y001776D01*
X001689Y001776D01*
X001689Y001776D01*
X001689Y001776D01*
X001688Y001776D02*
X001688Y001775D01*
X001688Y001776D02*
X001688Y001776D01*
X001689Y001775D02*
X001689Y001776D01*
X001690Y001776D02*
X001690Y001775D01*
X001690Y001775D01*
X001690Y001775D01*
X001690Y001775D01*
X001690Y001775D01*
X001690Y001776D01*
X001690Y001776D01*
X001690Y001776D01*
X001691Y001776D02*
X001691Y001775D01*
X001691Y001775D01*
X001691Y001775D01*
X001691Y001775D01*
X001691Y001776D01*
X001691Y001776D01*
X001691Y001776D01*
X001691Y001776D01*
X001692Y001775D02*
X001692Y001775D01*
X001693Y001775D01*
X001693Y001776D01*
X001693Y001776D01*
X001693Y001776D01*
X001694Y001776D01*
X001694Y001776D01*
X001694Y001775D01*
X001694Y001775D01*
X001695Y001775D01*
X001695Y001776D01*
X001694Y001776D01*
X001694Y001775D01*
X001693Y001776D02*
X001693Y001775D01*
X001693Y001776D01*
X001693Y001776D01*
X001693Y001776D01*
X001692Y001776D01*
X001692Y001775D01*
X001692Y001775D01*
X001692Y001775D01*
X001692Y001775D01*
X001693Y001775D02*
X001693Y001775D01*
X001689Y001775D02*
X001689Y001775D01*
X001678Y001775D02*
X001677Y001775D01*
X001677Y001775D01*
X001677Y001775D01*
X001677Y001776D01*
X001677Y001775D01*
M02*
