G75*
%MOIN*%
%OFA0B0*%
%FSLAX24Y24*%
%IPPOS*%
%LPD*%
%AMOC8*
5,1,8,0,0,1.08239X$1,22.5*
%
%ADD10R,0.0513X0.0474*%
%ADD11R,0.0197X0.0415*%
%ADD12R,0.1025X0.0730*%
%ADD13R,0.0356X0.0190*%
%ADD14R,0.0474X0.0513*%
%ADD15R,0.0395X0.0395*%
%ADD16R,0.0552X0.0297*%
%ADD17R,0.0237X0.0631*%
%ADD18R,0.0789X0.0789*%
%ADD19C,0.0552*%
%ADD20C,0.0867*%
%ADD21R,0.0474X0.0631*%
%ADD22C,0.0880*%
%ADD23R,0.0880X0.0880*%
%ADD24C,0.0820*%
%ADD25R,0.0474X0.1891*%
%ADD26R,0.0710X0.1340*%
%ADD27C,0.1380*%
D10*
X001021Y005128D03*
X001729Y005128D03*
X002840Y006528D03*
X003510Y006528D03*
X004621Y007528D03*
X004621Y008028D03*
X004621Y008728D03*
X004079Y008728D03*
X003371Y008728D03*
X005329Y008728D03*
X005329Y008028D03*
X005329Y007528D03*
X005421Y004578D03*
X005421Y004078D03*
X006129Y004078D03*
X006129Y004578D03*
D11*
X005369Y005447D03*
X005172Y005447D03*
X004975Y005447D03*
X004778Y005447D03*
X004581Y005447D03*
X004581Y006608D03*
X004778Y006608D03*
X004975Y006608D03*
X005172Y006608D03*
X005369Y006608D03*
D12*
X004975Y006028D03*
D13*
X004384Y006126D03*
X004384Y005929D03*
X005566Y005929D03*
X005566Y006126D03*
D14*
X006175Y006623D03*
X006175Y007332D03*
X007075Y005212D03*
X007625Y005212D03*
X007625Y004503D03*
X007075Y004503D03*
X009675Y004473D03*
X009675Y005182D03*
X004125Y004582D03*
X003475Y004582D03*
X002825Y004582D03*
X002825Y003873D03*
X003475Y003873D03*
X004125Y003873D03*
X003475Y005323D03*
X002825Y005323D03*
X002825Y006032D03*
X003475Y006032D03*
X002175Y008523D03*
X002175Y009232D03*
D15*
X008280Y005288D03*
X008870Y005288D03*
X008870Y004478D03*
X008280Y004478D03*
D16*
X003887Y007054D03*
X003887Y007802D03*
X002863Y007802D03*
X002863Y007428D03*
X002863Y007054D03*
D17*
X003613Y002271D03*
X003869Y002271D03*
X004125Y002271D03*
X004381Y002271D03*
X004637Y002271D03*
D18*
X004578Y001228D03*
X003672Y001228D03*
D19*
X003170Y002330D03*
X005080Y002330D03*
D20*
X005546Y001228D03*
X002704Y001228D03*
D21*
X005251Y003311D03*
X005999Y003311D03*
X005625Y002444D03*
D22*
X008525Y008197D03*
D23*
X008525Y006819D03*
D24*
X007475Y009978D03*
X006475Y009978D03*
X005475Y009978D03*
X003975Y009978D03*
X002975Y009978D03*
X000975Y008128D03*
X000975Y007128D03*
X000975Y006128D03*
X000975Y004128D03*
X000975Y003128D03*
D25*
X007531Y003284D03*
X008319Y003284D03*
D26*
X009264Y001237D03*
X006586Y001237D03*
D27*
X001225Y001378D03*
X001225Y009728D03*
X009225Y009728D03*
M02*
