G75*
%MOIN*%
%OFA0B0*%
%FSLAX24Y24*%
%IPPOS*%
%LPD*%
%AMOC8*
5,1,8,0,0,1.08239X$1,22.5*
%
%ADD10C,0.0030*%
%ADD11R,0.0337X0.0000*%
%ADD12R,0.0337X0.0000*%
%ADD13R,0.0344X0.0001*%
%ADD14R,0.0348X0.0000*%
%ADD15R,0.0347X0.0000*%
%ADD16R,0.0350X0.0000*%
%ADD17R,0.0350X0.0000*%
%ADD18R,0.0352X0.0001*%
%ADD19R,0.0355X0.0000*%
%ADD20R,0.0354X0.0000*%
%ADD21R,0.0356X0.0001*%
%ADD22R,0.0359X0.0000*%
%ADD23R,0.0360X0.0000*%
%ADD24R,0.0361X0.0001*%
%ADD25R,0.0363X0.0000*%
%ADD26R,0.0362X0.0000*%
%ADD27R,0.0365X0.0001*%
%ADD28R,0.0364X0.0001*%
%ADD29R,0.0365X0.0000*%
%ADD30R,0.0366X0.0000*%
%ADD31R,0.0366X0.0000*%
%ADD32R,0.0367X0.0001*%
%ADD33R,0.0369X0.0000*%
%ADD34R,0.0370X0.0001*%
%ADD35R,0.0369X0.0001*%
%ADD36R,0.0370X0.0000*%
%ADD37R,0.0371X0.0000*%
%ADD38R,0.0371X0.0000*%
%ADD39R,0.0372X0.0001*%
%ADD40R,0.0372X0.0001*%
%ADD41R,0.0373X0.0000*%
%ADD42R,0.0373X0.0000*%
%ADD43R,0.0374X0.0001*%
%ADD44R,0.0374X0.0001*%
%ADD45R,0.0375X0.0000*%
%ADD46R,0.0374X0.0000*%
%ADD47R,0.0375X0.0000*%
%ADD48R,0.0375X0.0000*%
%ADD49R,0.0375X0.0001*%
%ADD50R,0.0376X0.0001*%
%ADD51R,0.0376X0.0000*%
%ADD52R,0.0377X0.0001*%
%ADD53R,0.0376X0.0001*%
%ADD54R,0.0377X0.0000*%
%ADD55R,0.0378X0.0000*%
%ADD56R,0.0378X0.0000*%
%ADD57R,0.0379X0.0001*%
%ADD58R,0.0379X0.0000*%
%ADD59R,0.0379X0.0000*%
%ADD60R,0.0380X0.0001*%
%ADD61R,0.0379X0.0001*%
%ADD62R,0.0380X0.0000*%
%ADD63R,0.0379X0.0000*%
%ADD64R,0.0380X0.0000*%
%ADD65R,0.0380X0.0000*%
%ADD66R,0.0380X0.0001*%
%ADD67R,0.0381X0.0001*%
%ADD68R,0.0381X0.0000*%
%ADD69R,0.0381X0.0001*%
%ADD70R,0.0381X0.0001*%
%ADD71R,0.0381X0.0000*%
%ADD72R,0.0382X0.0001*%
%ADD73R,0.0381X0.0001*%
%ADD74R,0.0382X0.0000*%
%ADD75R,0.0382X0.0000*%
%ADD76R,0.0382X0.0001*%
%ADD77R,0.0382X0.0000*%
%ADD78R,0.0383X0.0000*%
%ADD79R,0.0383X0.0001*%
%ADD80R,0.0383X0.0001*%
%ADD81R,0.0383X0.0000*%
%ADD82R,0.0382X0.0001*%
%ADD83R,0.0379X0.0001*%
%ADD84R,0.0381X0.0000*%
%ADD85R,0.0378X0.0001*%
%ADD86R,0.0377X0.0000*%
%ADD87R,0.0376X0.0000*%
%ADD88R,0.0374X0.0000*%
%ADD89R,0.0377X0.0001*%
%ADD90R,0.0372X0.0000*%
%ADD91R,0.0371X0.0001*%
%ADD92R,0.0376X0.0001*%
%ADD93R,0.0371X0.0000*%
%ADD94R,0.0376X0.0000*%
%ADD95R,0.0370X0.0000*%
%ADD96R,0.0369X0.0001*%
%ADD97R,0.0374X0.0001*%
%ADD98R,0.0368X0.0000*%
%ADD99R,0.0374X0.0000*%
%ADD100R,0.0367X0.0001*%
%ADD101R,0.0373X0.0001*%
%ADD102R,0.0366X0.0000*%
%ADD103R,0.0372X0.0000*%
%ADD104R,0.0365X0.0000*%
%ADD105R,0.0371X0.0000*%
%ADD106R,0.0364X0.0001*%
%ADD107R,0.0371X0.0001*%
%ADD108R,0.0362X0.0000*%
%ADD109R,0.0369X0.0000*%
%ADD110R,0.0360X0.0001*%
%ADD111R,0.0369X0.0001*%
%ADD112R,0.0359X0.0000*%
%ADD113R,0.0367X0.0000*%
%ADD114R,0.0357X0.0000*%
%ADD115R,0.0355X0.0001*%
%ADD116R,0.0365X0.0001*%
%ADD117R,0.0354X0.0000*%
%ADD118R,0.0364X0.0000*%
%ADD119R,0.0351X0.0001*%
%ADD120R,0.0363X0.0001*%
%ADD121R,0.0348X0.0000*%
%ADD122R,0.0361X0.0000*%
%ADD123R,0.0345X0.0000*%
%ADD124R,0.0340X0.0001*%
%ADD125R,0.0359X0.0001*%
%ADD126R,0.0258X0.0000*%
%ADD127R,0.0356X0.0000*%
%ADD128R,0.0257X0.0001*%
%ADD129R,0.0354X0.0001*%
%ADD130R,0.0257X0.0000*%
%ADD131R,0.0352X0.0000*%
%ADD132R,0.0347X0.0001*%
%ADD133R,0.0257X0.0000*%
%ADD134R,0.0344X0.0000*%
%ADD135R,0.0257X0.0001*%
%ADD136R,0.0338X0.0001*%
%ADD137R,0.0239X0.0000*%
%ADD138R,0.0256X0.0000*%
%ADD139R,0.0256X0.0001*%
%ADD140R,0.0239X0.0001*%
%ADD141R,0.0239X0.0001*%
%ADD142R,0.0256X0.0000*%
%ADD143R,0.0239X0.0000*%
%ADD144R,0.0256X0.0001*%
%ADD145R,0.0255X0.0000*%
%ADD146R,0.0238X0.0000*%
%ADD147R,0.0255X0.0001*%
%ADD148R,0.0238X0.0001*%
%ADD149R,0.0255X0.0000*%
%ADD150R,0.0255X0.0001*%
%ADD151R,0.0238X0.0001*%
%ADD152R,0.0238X0.0000*%
%ADD153R,0.0255X0.0000*%
%ADD154R,0.0238X0.0000*%
%ADD155R,0.0255X0.0001*%
%ADD156R,0.0238X0.0001*%
%ADD157R,0.0254X0.0000*%
%ADD158R,0.0254X0.0001*%
%ADD159R,0.0237X0.0000*%
%ADD160R,0.0254X0.0001*%
%ADD161R,0.0237X0.0001*%
%ADD162R,0.0254X0.0000*%
%ADD163R,0.0253X0.0000*%
%ADD164R,0.0236X0.0000*%
%ADD165R,0.0253X0.0001*%
%ADD166R,0.0236X0.0001*%
%ADD167R,0.0253X0.0000*%
%ADD168R,0.0253X0.0001*%
%ADD169R,0.0236X0.0001*%
%ADD170R,0.0236X0.0000*%
%ADD171R,0.0252X0.0001*%
%ADD172R,0.0252X0.0000*%
%ADD173R,0.0235X0.0000*%
%ADD174R,0.0235X0.0001*%
%ADD175R,0.0251X0.0000*%
%ADD176R,0.0251X0.0001*%
%ADD177R,0.0235X0.0001*%
%ADD178R,0.0235X0.0000*%
%ADD179R,0.0251X0.0001*%
%ADD180R,0.0251X0.0000*%
%ADD181R,0.0234X0.0000*%
%ADD182R,0.0250X0.0001*%
%ADD183R,0.0234X0.0001*%
%ADD184R,0.0250X0.0000*%
%ADD185R,0.0250X0.0000*%
%ADD186R,0.0234X0.0000*%
%ADD187R,0.0250X0.0001*%
%ADD188R,0.0234X0.0001*%
%ADD189R,0.0250X0.0001*%
%ADD190R,0.0250X0.0000*%
%ADD191R,0.0233X0.0000*%
%ADD192R,0.0249X0.0001*%
%ADD193R,0.0233X0.0001*%
%ADD194R,0.0249X0.0000*%
%ADD195R,0.0233X0.0001*%
%ADD196R,0.0233X0.0000*%
%ADD197R,0.0249X0.0000*%
%ADD198R,0.0249X0.0001*%
%ADD199R,0.0232X0.0000*%
%ADD200R,0.0248X0.0001*%
%ADD201R,0.0232X0.0001*%
%ADD202R,0.0248X0.0000*%
%ADD203R,0.0248X0.0001*%
%ADD204R,0.0232X0.0001*%
%ADD205R,0.0248X0.0000*%
%ADD206R,0.0232X0.0000*%
%ADD207R,0.0247X0.0000*%
%ADD208R,0.0231X0.0000*%
%ADD209R,0.0247X0.0001*%
%ADD210R,0.0231X0.0001*%
%ADD211R,0.0246X0.0001*%
%ADD212R,0.0246X0.0000*%
%ADD213R,0.0231X0.0000*%
%ADD214R,0.0231X0.0001*%
%ADD215R,0.0246X0.0000*%
%ADD216R,0.0246X0.0001*%
%ADD217R,0.0230X0.0000*%
%ADD218R,0.0245X0.0000*%
%ADD219R,0.0245X0.0001*%
%ADD220R,0.0230X0.0001*%
%ADD221R,0.0245X0.0001*%
%ADD222R,0.0230X0.0001*%
%ADD223R,0.0245X0.0000*%
%ADD224R,0.0230X0.0000*%
%ADD225R,0.0245X0.0000*%
%ADD226R,0.0229X0.0000*%
%ADD227R,0.0245X0.0001*%
%ADD228R,0.0229X0.0001*%
%ADD229R,0.0244X0.0000*%
%ADD230R,0.0244X0.0001*%
%ADD231R,0.0229X0.0001*%
%ADD232R,0.0229X0.0000*%
%ADD233R,0.0244X0.0000*%
%ADD234R,0.0228X0.0000*%
%ADD235R,0.0244X0.0001*%
%ADD236R,0.0228X0.0001*%
%ADD237R,0.0243X0.0000*%
%ADD238R,0.0243X0.0001*%
%ADD239R,0.0243X0.0000*%
%ADD240R,0.0228X0.0000*%
%ADD241R,0.0243X0.0001*%
%ADD242R,0.0228X0.0001*%
%ADD243R,0.0242X0.0000*%
%ADD244R,0.0227X0.0000*%
%ADD245R,0.0242X0.0001*%
%ADD246R,0.0227X0.0001*%
%ADD247R,0.0241X0.0000*%
%ADD248R,0.0241X0.0001*%
%ADD249R,0.0227X0.0001*%
%ADD250R,0.0227X0.0000*%
%ADD251R,0.0241X0.0001*%
%ADD252R,0.0241X0.0000*%
%ADD253R,0.0226X0.0000*%
%ADD254R,0.0226X0.0001*%
%ADD255R,0.0240X0.0000*%
%ADD256R,0.0240X0.0001*%
%ADD257R,0.0226X0.0001*%
%ADD258R,0.0240X0.0000*%
%ADD259R,0.0226X0.0000*%
%ADD260R,0.0240X0.0001*%
%ADD261R,0.0225X0.0000*%
%ADD262R,0.0240X0.0001*%
%ADD263R,0.0225X0.0001*%
%ADD264R,0.0240X0.0000*%
%ADD265R,0.0225X0.0000*%
%ADD266R,0.0225X0.0001*%
%ADD267R,0.0239X0.0001*%
%ADD268R,0.0239X0.0000*%
%ADD269R,0.0224X0.0000*%
%ADD270R,0.0224X0.0001*%
%ADD271R,0.0224X0.0001*%
%ADD272R,0.0224X0.0000*%
%ADD273R,0.0223X0.0000*%
%ADD274R,0.0237X0.0001*%
%ADD275R,0.0223X0.0001*%
%ADD276R,0.0237X0.0000*%
%ADD277R,0.0223X0.0001*%
%ADD278R,0.0223X0.0000*%
%ADD279R,0.0236X0.0000*%
%ADD280R,0.0222X0.0000*%
%ADD281R,0.0236X0.0001*%
%ADD282R,0.0222X0.0001*%
%ADD283R,0.0222X0.0000*%
%ADD284R,0.0222X0.0001*%
%ADD285R,0.0221X0.0000*%
%ADD286R,0.0235X0.0000*%
%ADD287R,0.0235X0.0001*%
%ADD288R,0.0221X0.0001*%
%ADD289R,0.0221X0.0001*%
%ADD290R,0.0221X0.0000*%
%ADD291R,0.0234X0.0000*%
%ADD292R,0.0220X0.0000*%
%ADD293R,0.0234X0.0001*%
%ADD294R,0.0220X0.0001*%
%ADD295R,0.0220X0.0001*%
%ADD296R,0.0220X0.0000*%
%ADD297R,0.0219X0.0000*%
%ADD298R,0.0219X0.0001*%
%ADD299R,0.0232X0.0000*%
%ADD300R,0.0232X0.0001*%
%ADD301R,0.0219X0.0000*%
%ADD302R,0.0219X0.0001*%
%ADD303R,0.0231X0.0000*%
%ADD304R,0.0218X0.0000*%
%ADD305R,0.0231X0.0001*%
%ADD306R,0.0218X0.0001*%
%ADD307R,0.0218X0.0001*%
%ADD308R,0.0218X0.0000*%
%ADD309R,0.0217X0.0000*%
%ADD310R,0.0217X0.0001*%
%ADD311R,0.0230X0.0000*%
%ADD312R,0.0230X0.0001*%
%ADD313R,0.0217X0.0001*%
%ADD314R,0.0217X0.0000*%
%ADD315R,0.0216X0.0000*%
%ADD316R,0.0229X0.0001*%
%ADD317R,0.0216X0.0001*%
%ADD318R,0.0229X0.0000*%
%ADD319R,0.0216X0.0000*%
%ADD320R,0.0216X0.0001*%
%ADD321R,0.0215X0.0000*%
%ADD322R,0.0227X0.0001*%
%ADD323R,0.0215X0.0001*%
%ADD324R,0.0227X0.0000*%
%ADD325R,0.0215X0.0001*%
%ADD326R,0.0215X0.0000*%
%ADD327R,0.0214X0.0000*%
%ADD328R,0.0226X0.0001*%
%ADD329R,0.0214X0.0001*%
%ADD330R,0.0226X0.0000*%
%ADD331R,0.0214X0.0001*%
%ADD332R,0.0214X0.0000*%
%ADD333R,0.0213X0.0000*%
%ADD334R,0.0213X0.0001*%
%ADD335R,0.0225X0.0001*%
%ADD336R,0.0225X0.0000*%
%ADD337R,0.0213X0.0000*%
%ADD338R,0.0213X0.0001*%
%ADD339R,0.0213X0.0000*%
%ADD340R,0.0224X0.0000*%
%ADD341R,0.0224X0.0001*%
%ADD342R,0.0213X0.0001*%
%ADD343R,0.0212X0.0001*%
%ADD344R,0.0212X0.0000*%
%ADD345R,0.0211X0.0000*%
%ADD346R,0.0211X0.0001*%
%ADD347R,0.0222X0.0000*%
%ADD348R,0.0222X0.0001*%
%ADD349R,0.0211X0.0001*%
%ADD350R,0.0211X0.0000*%
%ADD351R,0.0210X0.0000*%
%ADD352R,0.0210X0.0001*%
%ADD353R,0.0221X0.0000*%
%ADD354R,0.0221X0.0001*%
%ADD355R,0.0210X0.0000*%
%ADD356R,0.0210X0.0001*%
%ADD357R,0.0209X0.0000*%
%ADD358R,0.0209X0.0001*%
%ADD359R,0.0220X0.0000*%
%ADD360R,0.0220X0.0001*%
%ADD361R,0.0209X0.0001*%
%ADD362R,0.0209X0.0000*%
%ADD363R,0.0208X0.0000*%
%ADD364R,0.0208X0.0001*%
%ADD365R,0.0219X0.0000*%
%ADD366R,0.0219X0.0001*%
%ADD367R,0.0208X0.0001*%
%ADD368R,0.0208X0.0000*%
%ADD369R,0.0208X0.0000*%
%ADD370R,0.0208X0.0001*%
%ADD371R,0.0217X0.0000*%
%ADD372R,0.0207X0.0000*%
%ADD373R,0.0217X0.0001*%
%ADD374R,0.0207X0.0001*%
%ADD375R,0.0206X0.0000*%
%ADD376R,0.0216X0.0001*%
%ADD377R,0.0206X0.0001*%
%ADD378R,0.0216X0.0000*%
%ADD379R,0.0206X0.0001*%
%ADD380R,0.0206X0.0000*%
%ADD381R,0.0205X0.0000*%
%ADD382R,0.0205X0.0001*%
%ADD383R,0.0215X0.0001*%
%ADD384R,0.0205X0.0001*%
%ADD385R,0.0215X0.0000*%
%ADD386R,0.0205X0.0000*%
%ADD387R,0.0204X0.0000*%
%ADD388R,0.0204X0.0001*%
%ADD389R,0.0214X0.0001*%
%ADD390R,0.0214X0.0000*%
%ADD391R,0.0204X0.0000*%
%ADD392R,0.0204X0.0001*%
%ADD393R,0.0203X0.0000*%
%ADD394R,0.0203X0.0001*%
%ADD395R,0.0212X0.0001*%
%ADD396R,0.0203X0.0001*%
%ADD397R,0.0212X0.0000*%
%ADD398R,0.0203X0.0000*%
%ADD399R,0.0203X0.0000*%
%ADD400R,0.0203X0.0001*%
%ADD401R,0.0211X0.0000*%
%ADD402R,0.0211X0.0001*%
%ADD403R,0.0202X0.0001*%
%ADD404R,0.0202X0.0000*%
%ADD405R,0.0201X0.0000*%
%ADD406R,0.0201X0.0001*%
%ADD407R,0.0210X0.0000*%
%ADD408R,0.0201X0.0000*%
%ADD409R,0.0210X0.0001*%
%ADD410R,0.0201X0.0001*%
%ADD411R,0.0200X0.0000*%
%ADD412R,0.0200X0.0001*%
%ADD413R,0.0209X0.0000*%
%ADD414R,0.0209X0.0001*%
%ADD415R,0.0200X0.0001*%
%ADD416R,0.0200X0.0000*%
%ADD417R,0.0199X0.0000*%
%ADD418R,0.0199X0.0001*%
%ADD419R,0.0199X0.0001*%
%ADD420R,0.0207X0.0000*%
%ADD421R,0.0199X0.0000*%
%ADD422R,0.0207X0.0001*%
%ADD423R,0.0198X0.0000*%
%ADD424R,0.0198X0.0001*%
%ADD425R,0.0206X0.0000*%
%ADD426R,0.0198X0.0000*%
%ADD427R,0.0206X0.0001*%
%ADD428R,0.0198X0.0001*%
%ADD429R,0.0198X0.0000*%
%ADD430R,0.0198X0.0001*%
%ADD431R,0.0197X0.0001*%
%ADD432R,0.0205X0.0000*%
%ADD433R,0.0197X0.0000*%
%ADD434R,0.0205X0.0001*%
%ADD435R,0.0196X0.0000*%
%ADD436R,0.0196X0.0001*%
%ADD437R,0.0204X0.0001*%
%ADD438R,0.0196X0.0001*%
%ADD439R,0.0204X0.0000*%
%ADD440R,0.0196X0.0000*%
%ADD441R,0.0195X0.0000*%
%ADD442R,0.0195X0.0001*%
%ADD443R,0.0195X0.0000*%
%ADD444R,0.0202X0.0001*%
%ADD445R,0.0195X0.0001*%
%ADD446R,0.0202X0.0000*%
%ADD447R,0.0194X0.0000*%
%ADD448R,0.0194X0.0001*%
%ADD449R,0.0201X0.0001*%
%ADD450R,0.0194X0.0001*%
%ADD451R,0.0201X0.0000*%
%ADD452R,0.0194X0.0000*%
%ADD453R,0.0193X0.0000*%
%ADD454R,0.0193X0.0001*%
%ADD455R,0.0193X0.0001*%
%ADD456R,0.0193X0.0000*%
%ADD457R,0.0200X0.0001*%
%ADD458R,0.0200X0.0000*%
%ADD459R,0.0192X0.0000*%
%ADD460R,0.0192X0.0001*%
%ADD461R,0.0199X0.0000*%
%ADD462R,0.0192X0.0000*%
%ADD463R,0.0199X0.0001*%
%ADD464R,0.0192X0.0001*%
%ADD465R,0.0191X0.0000*%
%ADD466R,0.0191X0.0001*%
%ADD467R,0.0191X0.0001*%
%ADD468R,0.0191X0.0000*%
%ADD469R,0.0197X0.0000*%
%ADD470R,0.0197X0.0001*%
%ADD471R,0.0190X0.0000*%
%ADD472R,0.0190X0.0001*%
%ADD473R,0.0190X0.0001*%
%ADD474R,0.0196X0.0000*%
%ADD475R,0.0190X0.0000*%
%ADD476R,0.0196X0.0001*%
%ADD477R,0.0189X0.0000*%
%ADD478R,0.0189X0.0001*%
%ADD479R,0.0189X0.0000*%
%ADD480R,0.0189X0.0001*%
%ADD481R,0.0195X0.0000*%
%ADD482R,0.0195X0.0001*%
%ADD483R,0.0188X0.0000*%
%ADD484R,0.0188X0.0001*%
%ADD485R,0.0188X0.0001*%
%ADD486R,0.0194X0.0000*%
%ADD487R,0.0188X0.0000*%
%ADD488R,0.0194X0.0001*%
%ADD489R,0.0187X0.0000*%
%ADD490R,0.0187X0.0001*%
%ADD491R,0.0187X0.0001*%
%ADD492R,0.0187X0.0000*%
%ADD493R,0.0192X0.0000*%
%ADD494R,0.0186X0.0000*%
%ADD495R,0.0192X0.0001*%
%ADD496R,0.0186X0.0001*%
%ADD497R,0.0186X0.0000*%
%ADD498R,0.0191X0.0001*%
%ADD499R,0.0186X0.0001*%
%ADD500R,0.0191X0.0000*%
%ADD501R,0.0185X0.0000*%
%ADD502R,0.0185X0.0001*%
%ADD503R,0.0185X0.0001*%
%ADD504R,0.0185X0.0000*%
%ADD505R,0.0190X0.0001*%
%ADD506R,0.0190X0.0000*%
%ADD507R,0.0184X0.0000*%
%ADD508R,0.0184X0.0001*%
%ADD509R,0.0184X0.0001*%
%ADD510R,0.0184X0.0000*%
%ADD511R,0.0189X0.0001*%
%ADD512R,0.0189X0.0000*%
%ADD513R,0.0183X0.0000*%
%ADD514R,0.0183X0.0001*%
%ADD515R,0.0183X0.0000*%
%ADD516R,0.0183X0.0001*%
%ADD517R,0.0187X0.0001*%
%ADD518R,0.0187X0.0000*%
%ADD519R,0.0182X0.0000*%
%ADD520R,0.0182X0.0001*%
%ADD521R,0.0182X0.0001*%
%ADD522R,0.0182X0.0000*%
%ADD523R,0.0186X0.0000*%
%ADD524R,0.0186X0.0001*%
%ADD525R,0.0181X0.0000*%
%ADD526R,0.0181X0.0001*%
%ADD527R,0.0181X0.0001*%
%ADD528R,0.0181X0.0000*%
%ADD529R,0.0185X0.0000*%
%ADD530R,0.0180X0.0000*%
%ADD531R,0.0185X0.0001*%
%ADD532R,0.0180X0.0001*%
%ADD533R,0.0180X0.0000*%
%ADD534R,0.0180X0.0001*%
%ADD535R,0.0184X0.0000*%
%ADD536R,0.0184X0.0001*%
%ADD537R,0.0179X0.0000*%
%ADD538R,0.0179X0.0001*%
%ADD539R,0.0179X0.0001*%
%ADD540R,0.0179X0.0000*%
%ADD541R,0.0182X0.0000*%
%ADD542R,0.0178X0.0000*%
%ADD543R,0.0182X0.0001*%
%ADD544R,0.0178X0.0001*%
%ADD545R,0.0178X0.0001*%
%ADD546R,0.0178X0.0000*%
%ADD547R,0.0181X0.0000*%
%ADD548R,0.0177X0.0000*%
%ADD549R,0.0181X0.0001*%
%ADD550R,0.0177X0.0001*%
%ADD551R,0.0177X0.0000*%
%ADD552R,0.0177X0.0001*%
%ADD553R,0.0180X0.0000*%
%ADD554R,0.0176X0.0000*%
%ADD555R,0.0180X0.0001*%
%ADD556R,0.0176X0.0001*%
%ADD557R,0.0176X0.0001*%
%ADD558R,0.0176X0.0000*%
%ADD559R,0.0179X0.0001*%
%ADD560R,0.0179X0.0000*%
%ADD561R,0.0175X0.0000*%
%ADD562R,0.0175X0.0001*%
%ADD563R,0.0175X0.0001*%
%ADD564R,0.0175X0.0000*%
%ADD565R,0.0174X0.0000*%
%ADD566R,0.0177X0.0001*%
%ADD567R,0.0174X0.0001*%
%ADD568R,0.0177X0.0000*%
%ADD569R,0.0174X0.0000*%
%ADD570R,0.0174X0.0001*%
%ADD571R,0.0176X0.0001*%
%ADD572R,0.0176X0.0000*%
%ADD573R,0.0173X0.0000*%
%ADD574R,0.0173X0.0001*%
%ADD575R,0.0173X0.0001*%
%ADD576R,0.0173X0.0000*%
%ADD577R,0.0173X0.0000*%
%ADD578R,0.0175X0.0001*%
%ADD579R,0.0173X0.0001*%
%ADD580R,0.0175X0.0000*%
%ADD581R,0.0172X0.0001*%
%ADD582R,0.0172X0.0000*%
%ADD583R,0.0174X0.0000*%
%ADD584R,0.0171X0.0000*%
%ADD585R,0.0174X0.0001*%
%ADD586R,0.0171X0.0001*%
%ADD587R,0.0171X0.0000*%
%ADD588R,0.0171X0.0001*%
%ADD589R,0.0170X0.0000*%
%ADD590R,0.0172X0.0000*%
%ADD591R,0.0172X0.0001*%
%ADD592R,0.0170X0.0001*%
%ADD593R,0.0170X0.0001*%
%ADD594R,0.0170X0.0000*%
%ADD595R,0.0171X0.0000*%
%ADD596R,0.0169X0.0000*%
%ADD597R,0.0171X0.0001*%
%ADD598R,0.0169X0.0001*%
%ADD599R,0.0169X0.0001*%
%ADD600R,0.0169X0.0000*%
%ADD601R,0.0168X0.0000*%
%ADD602R,0.0168X0.0001*%
%ADD603R,0.0170X0.0000*%
%ADD604R,0.0170X0.0001*%
%ADD605R,0.0168X0.0000*%
%ADD606R,0.0168X0.0001*%
%ADD607R,0.0169X0.0000*%
%ADD608R,0.0168X0.0000*%
%ADD609R,0.0169X0.0001*%
%ADD610R,0.0168X0.0001*%
%ADD611R,0.0167X0.0001*%
%ADD612R,0.0167X0.0000*%
%ADD613R,0.0166X0.0000*%
%ADD614R,0.0166X0.0001*%
%ADD615R,0.0167X0.0000*%
%ADD616R,0.0167X0.0001*%
%ADD617R,0.0166X0.0001*%
%ADD618R,0.0166X0.0000*%
%ADD619R,0.0165X0.0000*%
%ADD620R,0.0166X0.0001*%
%ADD621R,0.0165X0.0001*%
%ADD622R,0.0166X0.0000*%
%ADD623R,0.0165X0.0000*%
%ADD624R,0.0165X0.0001*%
%ADD625R,0.0164X0.0000*%
%ADD626R,0.0165X0.0001*%
%ADD627R,0.0164X0.0001*%
%ADD628R,0.0165X0.0000*%
%ADD629R,0.0164X0.0001*%
%ADD630R,0.0164X0.0000*%
%ADD631R,0.0163X0.0000*%
%ADD632R,0.0164X0.0001*%
%ADD633R,0.0163X0.0001*%
%ADD634R,0.0164X0.0000*%
%ADD635R,0.0163X0.0001*%
%ADD636R,0.0163X0.0000*%
%ADD637R,0.0163X0.0000*%
%ADD638R,0.0163X0.0001*%
%ADD639R,0.0162X0.0001*%
%ADD640R,0.0162X0.0000*%
%ADD641R,0.0162X0.0000*%
%ADD642R,0.0161X0.0001*%
%ADD643R,0.0162X0.0001*%
%ADD644R,0.0161X0.0000*%
%ADD645R,0.0161X0.0000*%
%ADD646R,0.0161X0.0001*%
%ADD647R,0.0160X0.0001*%
%ADD648R,0.0161X0.0001*%
%ADD649R,0.0160X0.0000*%
%ADD650R,0.0161X0.0000*%
%ADD651R,0.0160X0.0000*%
%ADD652R,0.0160X0.0001*%
%ADD653R,0.0160X0.0000*%
%ADD654R,0.0160X0.0001*%
%ADD655R,0.0159X0.0001*%
%ADD656R,0.0159X0.0000*%
%ADD657R,0.0159X0.0000*%
%ADD658R,0.0159X0.0001*%
%ADD659R,0.0159X0.0000*%
%ADD660R,0.0159X0.0001*%
%ADD661R,0.0158X0.0000*%
%ADD662R,0.0158X0.0001*%
%ADD663R,0.0158X0.0000*%
%ADD664R,0.0158X0.0000*%
%ADD665R,0.0158X0.0001*%
%ADD666R,0.0158X0.0001*%
%ADD667R,0.0157X0.0000*%
%ADD668R,0.0157X0.0001*%
%ADD669R,0.0156X0.0000*%
%ADD670R,0.0156X0.0001*%
%ADD671R,0.0156X0.0000*%
%ADD672R,0.0156X0.0001*%
%ADD673R,0.0157X0.0001*%
%ADD674R,0.0155X0.0000*%
%ADD675R,0.0157X0.0000*%
%ADD676R,0.0155X0.0001*%
%ADD677R,0.0155X0.0001*%
%ADD678R,0.0155X0.0000*%
%ADD679R,0.0155X0.0000*%
%ADD680R,0.0156X0.0000*%
%ADD681R,0.0155X0.0001*%
%ADD682R,0.0156X0.0001*%
%ADD683R,0.0154X0.0000*%
%ADD684R,0.0154X0.0001*%
%ADD685R,0.0154X0.0001*%
%ADD686R,0.0154X0.0000*%
%ADD687R,0.0153X0.0000*%
%ADD688R,0.0153X0.0001*%
%ADD689R,0.0154X0.0000*%
%ADD690R,0.0152X0.0001*%
%ADD691R,0.0154X0.0001*%
%ADD692R,0.0152X0.0000*%
%ADD693R,0.0152X0.0001*%
%ADD694R,0.0152X0.0000*%
%ADD695R,0.0151X0.0000*%
%ADD696R,0.0153X0.0000*%
%ADD697R,0.0151X0.0001*%
%ADD698R,0.0153X0.0001*%
%ADD699R,0.0151X0.0001*%
%ADD700R,0.0151X0.0000*%
%ADD701R,0.0150X0.0001*%
%ADD702R,0.0150X0.0000*%
%ADD703R,0.0150X0.0000*%
%ADD704R,0.0150X0.0001*%
%ADD705R,0.0150X0.0001*%
%ADD706R,0.0152X0.0001*%
%ADD707R,0.0150X0.0000*%
%ADD708R,0.0152X0.0000*%
%ADD709R,0.0149X0.0000*%
%ADD710R,0.0149X0.0001*%
%ADD711R,0.0149X0.0000*%
%ADD712R,0.0149X0.0001*%
%ADD713R,0.0151X0.0001*%
%ADD714R,0.0151X0.0000*%
%ADD715R,0.0148X0.0001*%
%ADD716R,0.0148X0.0000*%
%ADD717R,0.0260X0.0000*%
%ADD718R,0.0259X0.0000*%
%ADD719R,0.0260X0.0001*%
%ADD720R,0.0259X0.0001*%
%ADD721R,0.0868X0.0000*%
%ADD722R,0.0868X0.0001*%
%ADD723R,0.0321X0.0000*%
%ADD724R,0.0305X0.0000*%
%ADD725R,0.0321X0.0001*%
%ADD726R,0.0305X0.0001*%
%ADD727R,0.0867X0.0000*%
%ADD728R,0.0867X0.0001*%
%ADD729R,0.0867X0.0000*%
%ADD730R,0.0867X0.0001*%
%ADD731R,0.0866X0.0000*%
%ADD732R,0.0866X0.0000*%
%ADD733R,0.0866X0.0001*%
%ADD734R,0.0866X0.0000*%
%ADD735R,0.0866X0.0001*%
%ADD736R,0.0865X0.0000*%
%ADD737R,0.0865X0.0001*%
%ADD738R,0.0864X0.0001*%
%ADD739R,0.0864X0.0000*%
%ADD740R,0.0864X0.0001*%
%ADD741R,0.0864X0.0000*%
%ADD742R,0.0864X0.0001*%
%ADD743R,0.0864X0.0000*%
%ADD744R,0.0863X0.0001*%
%ADD745R,0.0863X0.0000*%
%ADD746R,0.0862X0.0001*%
%ADD747R,0.0862X0.0000*%
%ADD748R,0.0862X0.0001*%
%ADD749R,0.0862X0.0000*%
%ADD750R,0.0861X0.0001*%
%ADD751R,0.0861X0.0000*%
%ADD752R,0.0861X0.0001*%
%ADD753R,0.0860X0.0001*%
%ADD754R,0.0860X0.0000*%
%ADD755R,0.0859X0.0000*%
%ADD756R,0.0859X0.0001*%
%ADD757R,0.0858X0.0000*%
%ADD758R,0.0858X0.0001*%
%ADD759R,0.0857X0.0001*%
%ADD760R,0.0857X0.0000*%
%ADD761R,0.0856X0.0000*%
%ADD762R,0.0856X0.0001*%
%ADD763R,0.0855X0.0000*%
%ADD764R,0.0855X0.0001*%
%ADD765R,0.0855X0.0000*%
%ADD766R,0.0855X0.0001*%
%ADD767R,0.0854X0.0000*%
%ADD768R,0.0854X0.0001*%
%ADD769R,0.0853X0.0000*%
%ADD770R,0.0853X0.0001*%
%ADD771R,0.0853X0.0000*%
%ADD772R,0.0853X0.0000*%
%ADD773R,0.0852X0.0001*%
%ADD774R,0.0852X0.0000*%
%ADD775R,0.0852X0.0001*%
%ADD776R,0.0851X0.0000*%
%ADD777R,0.0850X0.0001*%
%ADD778R,0.0850X0.0000*%
%ADD779R,0.0850X0.0001*%
%ADD780R,0.0849X0.0000*%
%ADD781R,0.0848X0.0001*%
%ADD782R,0.0848X0.0000*%
%ADD783R,0.0848X0.0001*%
%ADD784R,0.0848X0.0000*%
%ADD785R,0.0847X0.0000*%
%ADD786R,0.0847X0.0001*%
%ADD787R,0.0846X0.0000*%
%ADD788R,0.0846X0.0001*%
%ADD789R,0.0845X0.0000*%
%ADD790R,0.0845X0.0000*%
%ADD791R,0.0845X0.0001*%
%ADD792R,0.0843X0.0000*%
%ADD793R,0.0843X0.0001*%
%ADD794R,0.0841X0.0000*%
%ADD795R,0.0840X0.0000*%
%ADD796R,0.0839X0.0001*%
%ADD797R,0.0838X0.0000*%
%ADD798R,0.0837X0.0001*%
%ADD799R,0.0836X0.0000*%
%ADD800R,0.0835X0.0000*%
%ADD801R,0.0834X0.0001*%
%ADD802R,0.0833X0.0000*%
%ADD803R,0.0832X0.0001*%
%ADD804R,0.0831X0.0000*%
%ADD805R,0.0830X0.0000*%
%ADD806R,0.0829X0.0001*%
%ADD807R,0.0828X0.0000*%
%ADD808R,0.0827X0.0001*%
%ADD809R,0.0826X0.0000*%
%ADD810R,0.0825X0.0000*%
%ADD811R,0.0824X0.0001*%
%ADD812R,0.0823X0.0000*%
%ADD813R,0.0822X0.0001*%
%ADD814R,0.0821X0.0000*%
%ADD815R,0.0820X0.0000*%
%ADD816R,0.0819X0.0001*%
%ADD817R,0.0818X0.0000*%
%ADD818R,0.0817X0.0001*%
%ADD819R,0.0816X0.0000*%
%ADD820R,0.0815X0.0000*%
%ADD821R,0.0814X0.0001*%
%ADD822R,0.0813X0.0000*%
%ADD823R,0.0812X0.0001*%
%ADD824R,0.0811X0.0000*%
%ADD825R,0.0810X0.0000*%
%ADD826R,0.0808X0.0001*%
%ADD827R,0.0808X0.0000*%
%ADD828R,0.0807X0.0001*%
%ADD829R,0.0805X0.0000*%
%ADD830R,0.0805X0.0000*%
%ADD831R,0.0803X0.0001*%
%ADD832R,0.0803X0.0000*%
%ADD833R,0.0802X0.0001*%
%ADD834R,0.0800X0.0000*%
%ADD835R,0.0800X0.0000*%
%ADD836R,0.0798X0.0001*%
%ADD837R,0.0798X0.0000*%
%ADD838R,0.0797X0.0001*%
%ADD839R,0.0795X0.0000*%
%ADD840R,0.0795X0.0000*%
%ADD841R,0.0793X0.0001*%
%ADD842R,0.0793X0.0000*%
%ADD843R,0.0791X0.0001*%
%ADD844R,0.0790X0.0000*%
%ADD845R,0.0789X0.0000*%
%ADD846R,0.0788X0.0001*%
%ADD847R,0.0787X0.0000*%
%ADD848R,0.0786X0.0001*%
%ADD849R,0.0785X0.0000*%
%ADD850R,0.0784X0.0000*%
%ADD851R,0.0783X0.0001*%
%ADD852R,0.0782X0.0000*%
%ADD853R,0.0781X0.0001*%
%ADD854R,0.0780X0.0000*%
%ADD855R,0.0779X0.0000*%
%ADD856R,0.0778X0.0001*%
%ADD857R,0.0777X0.0000*%
%ADD858R,0.0776X0.0001*%
%ADD859R,0.0775X0.0000*%
%ADD860R,0.0774X0.0000*%
%ADD861R,0.0773X0.0001*%
%ADD862R,0.0772X0.0000*%
%ADD863R,0.0771X0.0001*%
%ADD864R,0.0770X0.0000*%
%ADD865R,0.0769X0.0000*%
%ADD866R,0.0768X0.0001*%
%ADD867R,0.0767X0.0000*%
%ADD868R,0.0766X0.0001*%
%ADD869R,0.0765X0.0000*%
%ADD870R,0.0764X0.0000*%
%ADD871R,0.0763X0.0001*%
%ADD872R,0.0762X0.0000*%
%ADD873R,0.0761X0.0001*%
%ADD874R,0.0760X0.0000*%
%ADD875R,0.0758X0.0000*%
%ADD876R,0.0757X0.0001*%
%ADD877R,0.0757X0.0000*%
%ADD878R,0.0755X0.0001*%
%ADD879R,0.0755X0.0000*%
%ADD880R,0.0753X0.0000*%
%ADD881R,0.0752X0.0001*%
%ADD882R,0.0752X0.0000*%
%ADD883R,0.0750X0.0001*%
%ADD884R,0.0750X0.0000*%
%ADD885R,0.0748X0.0000*%
%ADD886R,0.0747X0.0001*%
%ADD887R,0.0747X0.0000*%
%ADD888R,0.0745X0.0001*%
%ADD889R,0.0745X0.0000*%
%ADD890R,0.0743X0.0000*%
%ADD891R,0.0742X0.0001*%
%ADD892R,0.0741X0.0000*%
%ADD893R,0.0740X0.0001*%
%ADD894R,0.0739X0.0000*%
%ADD895R,0.0738X0.0000*%
%ADD896R,0.0737X0.0001*%
%ADD897R,0.0736X0.0000*%
%ADD898R,0.0735X0.0001*%
%ADD899R,0.0734X0.0000*%
%ADD900R,0.0733X0.0000*%
%ADD901R,0.0732X0.0001*%
%ADD902R,0.0731X0.0000*%
%ADD903R,0.0730X0.0001*%
%ADD904R,0.0729X0.0000*%
%ADD905R,0.0728X0.0000*%
%ADD906R,0.0727X0.0001*%
%ADD907R,0.0726X0.0000*%
%ADD908R,0.0725X0.0001*%
%ADD909R,0.0724X0.0000*%
%ADD910R,0.0723X0.0000*%
%ADD911R,0.0722X0.0001*%
%ADD912R,0.0721X0.0000*%
%ADD913R,0.0720X0.0001*%
%ADD914R,0.0719X0.0000*%
%ADD915R,0.0718X0.0000*%
%ADD916R,0.0717X0.0001*%
%ADD917R,0.0716X0.0000*%
%ADD918R,0.0715X0.0001*%
%ADD919R,0.0714X0.0000*%
%ADD920R,0.0713X0.0000*%
%ADD921R,0.0712X0.0001*%
%ADD922R,0.0711X0.0000*%
%ADD923R,0.0710X0.0001*%
%ADD924R,0.0709X0.0000*%
%ADD925R,0.0707X0.0000*%
%ADD926R,0.0707X0.0001*%
%ADD927R,0.0705X0.0000*%
%ADD928R,0.0705X0.0001*%
%ADD929R,0.0703X0.0000*%
%ADD930R,0.0703X0.0000*%
%ADD931R,0.0702X0.0001*%
%ADD932R,0.0700X0.0000*%
%ADD933R,0.0700X0.0001*%
%ADD934R,0.0698X0.0000*%
%ADD935R,0.0698X0.0000*%
%ADD936R,0.0697X0.0001*%
%ADD937R,0.0695X0.0000*%
%ADD938R,0.0695X0.0001*%
%ADD939R,0.0693X0.0000*%
%ADD940R,0.0692X0.0000*%
%ADD941R,0.0691X0.0001*%
%ADD942R,0.0690X0.0000*%
%ADD943R,0.0689X0.0001*%
%ADD944R,0.0688X0.0000*%
%ADD945R,0.0687X0.0000*%
%ADD946R,0.0686X0.0001*%
%ADD947R,0.0685X0.0000*%
%ADD948R,0.0684X0.0001*%
%ADD949R,0.0683X0.0000*%
%ADD950R,0.0682X0.0000*%
%ADD951R,0.0681X0.0001*%
%ADD952R,0.0680X0.0000*%
%ADD953R,0.0679X0.0001*%
%ADD954R,0.0678X0.0000*%
%ADD955R,0.0677X0.0000*%
%ADD956R,0.0676X0.0001*%
%ADD957R,0.0675X0.0000*%
%ADD958R,0.0674X0.0001*%
%ADD959R,0.0673X0.0000*%
%ADD960R,0.0672X0.0000*%
%ADD961R,0.0671X0.0001*%
%ADD962R,0.0670X0.0000*%
%ADD963R,0.0669X0.0001*%
%ADD964R,0.0668X0.0000*%
%ADD965R,0.0667X0.0000*%
%ADD966R,0.0666X0.0001*%
%ADD967R,0.0665X0.0000*%
%ADD968R,0.0664X0.0001*%
%ADD969R,0.0663X0.0000*%
%ADD970R,0.0662X0.0000*%
%ADD971R,0.0661X0.0001*%
%ADD972R,0.0660X0.0000*%
%ADD973R,0.0659X0.0001*%
%ADD974R,0.0658X0.0000*%
%ADD975R,0.0657X0.0000*%
%ADD976R,0.0655X0.0001*%
%ADD977R,0.0655X0.0000*%
%ADD978R,0.0653X0.0001*%
%ADD979R,0.0653X0.0000*%
%ADD980R,0.0652X0.0000*%
%ADD981R,0.0650X0.0001*%
%ADD982R,0.0650X0.0000*%
%ADD983R,0.0648X0.0001*%
%ADD984R,0.0648X0.0000*%
%ADD985R,0.0647X0.0000*%
%ADD986R,0.0645X0.0001*%
%ADD987R,0.0645X0.0000*%
%ADD988R,0.0643X0.0001*%
%ADD989R,0.0642X0.0000*%
%ADD990R,0.0641X0.0000*%
%ADD991R,0.0640X0.0001*%
%ADD992R,0.0639X0.0000*%
%ADD993R,0.0638X0.0001*%
%ADD994R,0.0637X0.0000*%
%ADD995R,0.0636X0.0000*%
%ADD996R,0.0635X0.0001*%
%ADD997R,0.0634X0.0000*%
%ADD998R,0.0633X0.0001*%
%ADD999R,0.0632X0.0000*%
%ADD1000R,0.0631X0.0000*%
%ADD1001R,0.0630X0.0001*%
%ADD1002R,0.0629X0.0000*%
%ADD1003R,0.0628X0.0001*%
%ADD1004R,0.0627X0.0000*%
%ADD1005R,0.0626X0.0000*%
%ADD1006R,0.0625X0.0001*%
%ADD1007R,0.0624X0.0000*%
%ADD1008R,0.0623X0.0001*%
%ADD1009R,0.0622X0.0000*%
%ADD1010R,0.0621X0.0000*%
%ADD1011R,0.0620X0.0001*%
%ADD1012R,0.0619X0.0000*%
%ADD1013R,0.0618X0.0001*%
%ADD1014R,0.0617X0.0000*%
%ADD1015R,0.0616X0.0000*%
%ADD1016R,0.0615X0.0001*%
%ADD1017R,0.0614X0.0000*%
%ADD1018R,0.0613X0.0001*%
%ADD1019R,0.0612X0.0000*%
%ADD1020R,0.0611X0.0000*%
%ADD1021R,0.0610X0.0001*%
%ADD1022R,0.0609X0.0000*%
%ADD1023R,0.0607X0.0001*%
%ADD1024R,0.0607X0.0000*%
%ADD1025R,0.0605X0.0000*%
%ADD1026R,0.0605X0.0001*%
%ADD1027R,0.0603X0.0000*%
%ADD1028R,0.0602X0.0001*%
%ADD1029R,0.0602X0.0000*%
%ADD1030R,0.0600X0.0000*%
%ADD1031R,0.0600X0.0001*%
%ADD1032R,0.0598X0.0000*%
%ADD1033R,0.0597X0.0001*%
%ADD1034R,0.0597X0.0000*%
%ADD1035R,0.0595X0.0000*%
%ADD1036R,0.0595X0.0001*%
%ADD1037R,0.0593X0.0000*%
%ADD1038R,0.0592X0.0001*%
%ADD1039R,0.0591X0.0000*%
%ADD1040R,0.0590X0.0000*%
%ADD1041R,0.0589X0.0001*%
%ADD1042R,0.0588X0.0000*%
%ADD1043R,0.0587X0.0001*%
%ADD1044R,0.0586X0.0000*%
%ADD1045R,0.0585X0.0000*%
%ADD1046R,0.0584X0.0001*%
%ADD1047R,0.0583X0.0000*%
%ADD1048R,0.0582X0.0001*%
%ADD1049R,0.0581X0.0000*%
%ADD1050R,0.0580X0.0000*%
%ADD1051R,0.0579X0.0001*%
%ADD1052R,0.0578X0.0000*%
%ADD1053R,0.0577X0.0001*%
%ADD1054R,0.0576X0.0000*%
%ADD1055R,0.0575X0.0000*%
%ADD1056R,0.0574X0.0001*%
%ADD1057R,0.0573X0.0000*%
%ADD1058R,0.0571X0.0001*%
%ADD1059R,0.0568X0.0000*%
%ADD1060R,0.0565X0.0000*%
%ADD1061R,0.0563X0.0001*%
%ADD1062R,0.0560X0.0000*%
%ADD1063R,0.0557X0.0001*%
%ADD1064R,0.0554X0.0000*%
%ADD1065R,0.0551X0.0000*%
%ADD1066R,0.0548X0.0001*%
%ADD1067R,0.0545X0.0000*%
%ADD1068R,0.0542X0.0001*%
%ADD1069R,0.0537X0.0000*%
%ADD1070R,0.0533X0.0000*%
%ADD1071R,0.0530X0.0001*%
%ADD1072R,0.0526X0.0000*%
%ADD1073R,0.0522X0.0001*%
%ADD1074R,0.0518X0.0000*%
%ADD1075R,0.0513X0.0000*%
%ADD1076R,0.0508X0.0001*%
%ADD1077R,0.0503X0.0000*%
%ADD1078R,0.0496X0.0001*%
%ADD1079R,0.0489X0.0000*%
%ADD1080R,0.0477X0.0000*%
%ADD1081C,0.0000*%
D10*
X006031Y000893D02*
X006031Y001038D01*
X006079Y001086D01*
X006176Y001086D01*
X006224Y001038D01*
X006325Y001038D02*
X006519Y001038D01*
X006519Y001086D02*
X006422Y001183D01*
X006325Y001086D01*
X006325Y000893D01*
X006224Y000893D02*
X006224Y001183D01*
X006519Y001086D02*
X006519Y000893D01*
X006620Y000893D02*
X006620Y001038D01*
X006668Y001086D01*
X006717Y001038D01*
X006717Y000893D01*
X006813Y000893D02*
X006813Y001086D01*
X006765Y001086D01*
X006717Y001038D01*
X006915Y001134D02*
X006915Y000941D01*
X006963Y000893D01*
X007060Y000893D01*
X007108Y000941D01*
X006915Y001134D01*
X006963Y001183D01*
X007060Y001183D01*
X007108Y001134D01*
X007108Y000941D01*
X007209Y000941D02*
X007258Y000893D01*
X007354Y000893D01*
X007403Y000941D01*
X007209Y001134D01*
X007209Y000941D01*
X007209Y001134D02*
X007258Y001183D01*
X007354Y001183D01*
X007403Y001134D01*
X007403Y000941D01*
X007504Y000941D02*
X007504Y001038D01*
X007552Y001086D01*
X007601Y001086D01*
X007697Y001038D01*
X007697Y001183D01*
X007504Y001183D01*
X007552Y001373D02*
X007504Y001421D01*
X007504Y001614D01*
X007697Y001421D01*
X007649Y001373D01*
X007552Y001373D01*
X007697Y001421D02*
X007697Y001614D01*
X007649Y001663D01*
X007552Y001663D01*
X007504Y001614D01*
X007403Y001566D02*
X007354Y001566D01*
X007306Y001518D01*
X007258Y001566D01*
X007209Y001518D01*
X007209Y001373D01*
X007306Y001373D02*
X007306Y001518D01*
X007403Y001566D02*
X007403Y001373D01*
X007108Y001373D02*
X007108Y001566D01*
X007011Y001663D01*
X006915Y001566D01*
X006915Y001373D01*
X006813Y001373D02*
X006813Y001663D01*
X006765Y001566D02*
X006668Y001566D01*
X006620Y001518D01*
X006620Y001373D01*
X006813Y001518D02*
X006765Y001566D01*
X006915Y001518D02*
X007108Y001518D01*
X007061Y001853D02*
X007013Y001901D01*
X007013Y001998D01*
X007110Y001998D01*
X007206Y002094D02*
X007206Y001901D01*
X007158Y001853D01*
X007061Y001853D01*
X006912Y001853D02*
X006718Y001853D01*
X006617Y001853D02*
X006520Y001853D01*
X006520Y002143D01*
X006617Y002143D01*
X006718Y002143D02*
X006912Y002143D01*
X006912Y001853D01*
X006912Y001998D02*
X006815Y001998D01*
X007013Y002094D02*
X007061Y002143D01*
X007158Y002143D01*
X007206Y002094D01*
X007308Y002094D02*
X007308Y001998D01*
X007356Y001949D01*
X007501Y001949D01*
X007501Y001853D02*
X007501Y002143D01*
X007356Y002143D01*
X007308Y002094D01*
X007404Y001949D02*
X007308Y001853D01*
X007602Y001853D02*
X007602Y002046D01*
X007699Y002143D01*
X007796Y002046D01*
X007796Y001853D01*
X007897Y001853D02*
X007897Y002143D01*
X007897Y001998D02*
X008090Y001998D01*
X008191Y002094D02*
X008240Y002143D01*
X008337Y002143D01*
X008385Y002094D01*
X008385Y001901D01*
X008337Y001853D01*
X008240Y001853D01*
X008191Y001901D01*
X008090Y001853D02*
X008090Y002143D01*
X008042Y002333D02*
X008090Y002381D01*
X008042Y002333D02*
X007945Y002333D01*
X007897Y002381D01*
X007897Y002478D01*
X007945Y002526D01*
X007994Y002526D01*
X008090Y002478D01*
X008090Y002623D01*
X007897Y002623D01*
X007796Y002623D02*
X007796Y002429D01*
X007699Y002333D01*
X007602Y002429D01*
X007602Y002623D01*
X007649Y002813D02*
X007552Y002813D01*
X007504Y002861D01*
X007504Y002909D01*
X007552Y002958D01*
X007601Y002958D01*
X007552Y002958D02*
X007504Y003006D01*
X007504Y003054D01*
X007552Y003103D01*
X007649Y003103D01*
X007697Y003054D01*
X007799Y003103D02*
X007799Y002909D01*
X007895Y002813D01*
X007992Y002909D01*
X007992Y003103D01*
X008093Y003054D02*
X008093Y003006D01*
X008142Y002958D01*
X008093Y002909D01*
X008093Y002861D01*
X008142Y002813D01*
X008238Y002813D01*
X008287Y002861D01*
X008190Y002958D02*
X008142Y002958D01*
X008093Y003054D02*
X008142Y003103D01*
X008238Y003103D01*
X008287Y003054D01*
X008288Y003293D02*
X008191Y003389D01*
X008191Y003583D01*
X008090Y003534D02*
X008090Y003341D01*
X008042Y003293D01*
X007945Y003293D01*
X007897Y003341D01*
X007897Y003534D01*
X007945Y003583D01*
X008042Y003583D01*
X008090Y003534D01*
X008288Y003293D02*
X008385Y003389D01*
X008385Y003583D01*
X008485Y003583D02*
X008581Y003583D01*
X008581Y003293D01*
X008485Y003293D01*
X008683Y003103D02*
X008876Y003103D01*
X008779Y003103D02*
X008779Y002813D01*
X008781Y002623D02*
X008781Y002333D01*
X008781Y002478D02*
X008974Y002478D01*
X009075Y002478D02*
X009075Y002381D01*
X009124Y002333D01*
X009221Y002333D01*
X009269Y002381D01*
X009269Y002574D01*
X009221Y002623D01*
X009124Y002623D01*
X009075Y002574D01*
X009075Y002478D02*
X009172Y002478D01*
X009369Y002623D02*
X009465Y002623D01*
X009417Y002623D02*
X009417Y002333D01*
X009465Y002333D02*
X009369Y002333D01*
X009320Y002143D02*
X009272Y002094D01*
X009272Y001998D01*
X009320Y001949D01*
X009465Y001949D01*
X009465Y001853D02*
X009465Y002143D01*
X009320Y002143D01*
X009171Y002046D02*
X009074Y002143D01*
X009074Y001853D01*
X009171Y001853D02*
X008977Y001853D01*
X008977Y001663D02*
X009171Y001663D01*
X009171Y001373D01*
X008977Y001373D01*
X008876Y001373D02*
X008876Y001663D01*
X008683Y001373D01*
X008683Y001663D01*
X008581Y001853D02*
X008581Y002143D01*
X008485Y002143D01*
X008583Y002333D02*
X008583Y002623D01*
X008680Y002623D02*
X008486Y002623D01*
X008974Y002623D02*
X008974Y002333D01*
X009171Y002813D02*
X009171Y003103D01*
X008977Y003103D01*
X009074Y002958D02*
X009171Y002958D01*
X009272Y003103D02*
X009465Y003103D01*
X009465Y002813D01*
X009272Y002813D01*
X009369Y002958D02*
X009465Y002958D01*
X009567Y002813D02*
X009760Y002813D01*
X009760Y003103D01*
X009712Y003293D02*
X009663Y003293D01*
X009615Y003341D01*
X009615Y003583D01*
X009663Y003583D02*
X009567Y003583D01*
X009465Y003583D02*
X009320Y003583D01*
X009272Y003534D01*
X009272Y003438D01*
X009320Y003389D01*
X009465Y003389D01*
X009465Y003293D02*
X009465Y003583D01*
X009712Y003293D02*
X009760Y003341D01*
X009171Y003293D02*
X008977Y003486D01*
X008977Y003534D01*
X009026Y003583D01*
X009122Y003583D01*
X009171Y003534D01*
X009171Y003293D02*
X008977Y003293D01*
X009615Y002623D02*
X009567Y002574D01*
X009567Y002478D01*
X009615Y002429D01*
X009760Y002429D01*
X009760Y002333D02*
X009760Y002623D01*
X009615Y002623D01*
X009663Y002429D02*
X009567Y002333D01*
X009567Y002143D02*
X009663Y002143D01*
X009615Y002143D02*
X009615Y001901D01*
X009663Y001853D01*
X009712Y001853D01*
X009760Y001901D01*
X009712Y001663D02*
X009760Y001614D01*
X009760Y001421D01*
X009712Y001373D01*
X009615Y001373D01*
X009567Y001421D01*
X009567Y001614D01*
X009615Y001663D01*
X009712Y001663D01*
X009465Y001663D02*
X009320Y001663D01*
X009272Y001614D01*
X009272Y001518D01*
X009320Y001469D01*
X009465Y001469D01*
X009465Y001373D02*
X009465Y001663D01*
X009171Y001518D02*
X009074Y001518D01*
X009026Y001183D02*
X009122Y001183D01*
X009171Y001134D01*
X009171Y000941D01*
X009122Y000893D01*
X009026Y000893D01*
X008977Y000941D01*
X008977Y001134D01*
X009026Y001183D01*
X008876Y001134D02*
X008876Y001086D01*
X008828Y001038D01*
X008731Y001038D01*
X008683Y000989D01*
X008683Y000941D01*
X008731Y000893D01*
X008828Y000893D01*
X008876Y000941D01*
X008876Y001134D02*
X008828Y001183D01*
X008731Y001183D01*
X008683Y001134D01*
X008581Y001183D02*
X008581Y000893D01*
X008388Y000893D01*
X008287Y000893D02*
X008142Y000893D01*
X008093Y000941D01*
X008093Y001134D01*
X008142Y001183D01*
X008287Y001183D01*
X008287Y000893D01*
X008485Y001038D02*
X008581Y001038D01*
X008581Y001183D02*
X008388Y001183D01*
X008287Y001373D02*
X008093Y001373D01*
X008190Y001373D02*
X008190Y001663D01*
X008287Y001566D01*
X008485Y001853D02*
X008581Y001853D01*
X007992Y001614D02*
X007992Y001421D01*
X007799Y001614D01*
X007799Y001421D01*
X007847Y001373D01*
X007944Y001373D01*
X007992Y001421D01*
X007992Y001614D02*
X007944Y001663D01*
X007847Y001663D01*
X007799Y001614D01*
X007796Y001998D02*
X007602Y001998D01*
X007649Y002813D02*
X007697Y002861D01*
X007651Y003293D02*
X007602Y003341D01*
X007602Y003583D01*
X007501Y003583D02*
X007308Y003583D01*
X007404Y003583D02*
X007404Y003293D01*
X007206Y003293D02*
X007110Y003293D01*
X007110Y003583D01*
X007206Y003583D01*
X007010Y003486D02*
X007010Y003438D01*
X006962Y003438D01*
X006962Y003486D01*
X007010Y003486D01*
X007010Y003341D02*
X006962Y003341D01*
X006962Y003293D01*
X007010Y003293D01*
X007010Y003341D01*
X007651Y003293D02*
X007747Y003293D01*
X007796Y003341D01*
X007796Y003583D01*
X006421Y002046D02*
X006372Y002046D01*
X006372Y001998D01*
X006421Y001998D01*
X006421Y002046D01*
X006421Y001901D02*
X006372Y001901D01*
X006372Y001853D01*
X006421Y001853D01*
X006421Y001901D01*
X007504Y000941D02*
X007552Y000893D01*
X007649Y000893D01*
X007697Y000941D01*
X009272Y000893D02*
X009465Y000893D01*
X009465Y001183D01*
X009567Y001134D02*
X009615Y001183D01*
X009712Y001183D01*
X009760Y001134D01*
X009760Y000941D01*
X009712Y000893D01*
X009615Y000893D01*
X009567Y000941D01*
X006960Y006343D02*
X006960Y006633D01*
X006815Y006633D01*
X006767Y006584D01*
X006767Y006488D01*
X006815Y006439D01*
X006960Y006439D01*
X006665Y006391D02*
X006617Y006343D01*
X006472Y006343D01*
X006472Y006488D01*
X006520Y006536D01*
X006617Y006536D01*
X006617Y006439D02*
X006472Y006439D01*
X006371Y006488D02*
X006322Y006536D01*
X006177Y006536D01*
X006226Y006439D02*
X006322Y006439D01*
X006371Y006488D01*
X006226Y006439D02*
X006177Y006391D01*
X006226Y006343D01*
X006371Y006343D01*
X006076Y006391D02*
X006028Y006439D01*
X005883Y006439D01*
X005883Y006488D02*
X005883Y006343D01*
X006028Y006343D01*
X006076Y006391D01*
X006028Y006536D02*
X005931Y006536D01*
X005883Y006488D01*
X005781Y006488D02*
X005781Y006391D01*
X005733Y006343D01*
X005588Y006343D01*
X005588Y006633D01*
X005588Y006536D02*
X005733Y006536D01*
X005781Y006488D01*
X005487Y006488D02*
X005487Y006391D01*
X005438Y006343D01*
X005342Y006343D01*
X005293Y006439D02*
X005487Y006439D01*
X005487Y006488D02*
X005438Y006536D01*
X005342Y006536D01*
X005293Y006488D01*
X005293Y006439D01*
X005192Y006343D02*
X005192Y006536D01*
X005047Y006536D01*
X004999Y006488D01*
X004999Y006343D01*
X004897Y006391D02*
X004849Y006439D01*
X004704Y006439D01*
X004704Y006488D02*
X004704Y006343D01*
X004849Y006343D01*
X004897Y006391D01*
X004849Y006536D02*
X004752Y006536D01*
X004704Y006488D01*
X004554Y006391D02*
X004554Y006343D01*
X004506Y006343D01*
X004506Y006391D01*
X004554Y006391D01*
X004506Y006343D02*
X004603Y006246D01*
X004112Y006391D02*
X004063Y006343D01*
X003967Y006343D01*
X003918Y006391D01*
X003817Y006343D02*
X003817Y006536D01*
X003720Y006633D01*
X003624Y006536D01*
X003624Y006343D01*
X003624Y006488D02*
X003817Y006488D01*
X003918Y006584D02*
X003967Y006633D01*
X004063Y006633D01*
X004112Y006584D01*
X004112Y006391D01*
X004162Y007943D02*
X003968Y007943D01*
X003867Y007943D02*
X003867Y008233D01*
X003722Y008233D01*
X003674Y008184D01*
X003674Y008088D01*
X003722Y008039D01*
X003867Y008039D01*
X003770Y008039D02*
X003674Y007943D01*
X003968Y008233D02*
X004162Y008233D01*
X004162Y007943D01*
X004263Y007991D02*
X004263Y008088D01*
X004360Y008088D01*
X004456Y008184D02*
X004456Y007991D01*
X004408Y007943D01*
X004311Y007943D01*
X004263Y007991D01*
X004162Y008088D02*
X004065Y008088D01*
X004263Y008184D02*
X004311Y008233D01*
X004408Y008233D01*
X004456Y008184D01*
X004558Y008184D02*
X004558Y008088D01*
X004606Y008039D01*
X004751Y008039D01*
X004751Y007943D02*
X004751Y008233D01*
X004606Y008233D01*
X004558Y008184D01*
X004654Y008039D02*
X004558Y007943D01*
X004852Y007943D02*
X004852Y008136D01*
X004949Y008233D01*
X005046Y008136D01*
X005046Y007943D01*
X005147Y007943D02*
X005147Y008233D01*
X005147Y008088D02*
X005340Y008088D01*
X005441Y008184D02*
X005490Y008233D01*
X005587Y008233D01*
X005635Y008184D01*
X005635Y007991D01*
X005587Y007943D01*
X005490Y007943D01*
X005441Y007991D01*
X005340Y007943D02*
X005340Y008233D01*
X005046Y008088D02*
X004852Y008088D01*
X006031Y007991D02*
X006031Y008184D01*
X006079Y008233D01*
X006176Y008233D01*
X006224Y008184D01*
X006224Y007991D01*
X006176Y007943D01*
X006079Y007943D01*
X006031Y007991D01*
X006325Y008088D02*
X006374Y008039D01*
X006519Y008039D01*
X006519Y007943D02*
X006519Y008233D01*
X006374Y008233D01*
X006325Y008184D01*
X006325Y008088D01*
X006619Y008233D02*
X006715Y008233D01*
X006667Y008233D02*
X006667Y007943D01*
X006715Y007943D02*
X006619Y007943D01*
X006817Y007943D02*
X007010Y007943D01*
X007010Y008233D01*
X006617Y006439D02*
X006665Y006391D01*
D11*
X005459Y006703D03*
D12*
X004842Y006703D03*
D13*
X004842Y006703D03*
X005459Y006703D03*
D14*
X005459Y006704D03*
D15*
X004842Y006704D03*
D16*
X005459Y006704D03*
D17*
X004842Y006704D03*
X004842Y006954D03*
D18*
X004842Y006705D03*
X005459Y006705D03*
D19*
X005459Y006705D03*
D20*
X004842Y006705D03*
D21*
X004842Y006706D03*
X005459Y006706D03*
D22*
X005459Y006706D03*
X004842Y006706D03*
D23*
X004842Y006707D03*
X004842Y006952D03*
X005459Y006707D03*
D24*
X005459Y006707D03*
X004842Y006707D03*
D25*
X005459Y006708D03*
D26*
X004842Y006708D03*
D27*
X005459Y006708D03*
D28*
X004842Y006708D03*
D29*
X005459Y006709D03*
D30*
X004842Y006709D03*
D31*
X004842Y006709D03*
X004842Y006949D03*
X005459Y006709D03*
D32*
X005459Y006710D03*
X004842Y006710D03*
D33*
X004842Y006710D03*
X005459Y006710D03*
D34*
X005459Y006711D03*
D35*
X004842Y006711D03*
D36*
X005459Y006711D03*
D37*
X004842Y006711D03*
D38*
X004842Y006712D03*
X005459Y006712D03*
D39*
X005459Y006712D03*
D40*
X004842Y006712D03*
D41*
X005459Y006713D03*
D42*
X004842Y006713D03*
D43*
X005459Y006713D03*
D44*
X005459Y006942D03*
X004842Y006713D03*
D45*
X005459Y006714D03*
X005459Y006941D03*
D46*
X004842Y006714D03*
D47*
X005459Y006714D03*
D48*
X004842Y006714D03*
X004842Y006944D03*
D49*
X005459Y006941D03*
X005459Y006715D03*
D50*
X004842Y006715D03*
D51*
X004842Y006715D03*
X004842Y006943D03*
X005459Y006715D03*
D52*
X005459Y006716D03*
D53*
X005459Y006940D03*
X004842Y006716D03*
D54*
X004842Y006716D03*
X005459Y006716D03*
X005459Y006939D03*
D55*
X005459Y006717D03*
D56*
X004842Y006717D03*
X004842Y006942D03*
D57*
X004842Y006941D03*
X004842Y006717D03*
X005459Y006717D03*
D58*
X005459Y006718D03*
D59*
X005459Y006938D03*
X004842Y006941D03*
X004842Y006718D03*
D60*
X005459Y006718D03*
D61*
X004842Y006718D03*
X004842Y006940D03*
D62*
X005459Y006937D03*
X005459Y006719D03*
D63*
X004842Y006719D03*
X004842Y006940D03*
D64*
X005459Y006935D03*
X005459Y006720D03*
X005459Y006719D03*
D65*
X005459Y006936D03*
X004842Y006939D03*
X004842Y006719D03*
D66*
X005459Y006720D03*
X005459Y006936D03*
D67*
X004842Y006938D03*
X004842Y006720D03*
D68*
X004842Y006720D03*
X004842Y006939D03*
D69*
X005459Y006935D03*
X005459Y006721D03*
D70*
X004842Y006721D03*
D71*
X004842Y006721D03*
X004842Y006722D03*
X004842Y006936D03*
X004842Y006937D03*
X005459Y006934D03*
X005459Y006934D03*
X005459Y006722D03*
X005459Y006721D03*
D72*
X005459Y006722D03*
D73*
X005459Y006933D03*
X004842Y006937D03*
X004842Y006722D03*
D74*
X005459Y006723D03*
X005459Y006933D03*
D75*
X004842Y006723D03*
D76*
X004842Y006723D03*
X004842Y006725D03*
X004842Y006933D03*
X004842Y006935D03*
X005459Y006932D03*
X005459Y006931D03*
X005459Y006725D03*
X005459Y006723D03*
D77*
X005459Y006724D03*
X005459Y006724D03*
X005459Y006930D03*
X005459Y006931D03*
X005459Y006932D03*
X004842Y006934D03*
X004842Y006934D03*
X004842Y006935D03*
X004842Y006725D03*
X004842Y006724D03*
X004842Y006724D03*
D78*
X005459Y006725D03*
X005459Y006726D03*
X005459Y006727D03*
X005459Y006728D03*
X005459Y006729D03*
X005459Y006729D03*
X005459Y006730D03*
X005459Y006731D03*
X005459Y006732D03*
X005459Y006733D03*
X005459Y006734D03*
X005459Y006734D03*
X005459Y006735D03*
X005459Y006736D03*
X005459Y006737D03*
X005459Y006738D03*
X005459Y006739D03*
X005459Y006739D03*
X005459Y006740D03*
X005459Y006741D03*
X005459Y006742D03*
X005459Y006743D03*
X005459Y006744D03*
X005459Y006744D03*
X005459Y006745D03*
X005459Y006746D03*
X005459Y006747D03*
X005459Y006748D03*
X005459Y006749D03*
X005459Y006749D03*
X005459Y006750D03*
X005459Y006751D03*
X005459Y006752D03*
X005459Y006753D03*
X005459Y006754D03*
X005459Y006754D03*
X005459Y006755D03*
X005459Y006756D03*
X005459Y006757D03*
X005459Y006758D03*
X005459Y006759D03*
X005459Y006759D03*
X005459Y006760D03*
X005459Y006761D03*
X005459Y006762D03*
X005459Y006763D03*
X005459Y006764D03*
X005459Y006764D03*
X005459Y006765D03*
X005459Y006766D03*
X005459Y006767D03*
X005459Y006768D03*
X005459Y006769D03*
X005459Y006769D03*
X005459Y006770D03*
X005459Y006771D03*
X005459Y006772D03*
X005459Y006773D03*
X005459Y006774D03*
X005459Y006774D03*
X005459Y006775D03*
X005459Y006776D03*
X005459Y006777D03*
X005459Y006778D03*
X005459Y006779D03*
X005459Y006779D03*
X005459Y006780D03*
X005459Y006781D03*
X005459Y006782D03*
X005459Y006783D03*
X005459Y006784D03*
X005459Y006784D03*
X005459Y006785D03*
X005459Y006786D03*
X005459Y006787D03*
X005459Y006788D03*
X005459Y006789D03*
X005459Y006789D03*
X005459Y006790D03*
X005459Y006791D03*
X005459Y006792D03*
X005459Y006793D03*
X005459Y006794D03*
X005459Y006794D03*
X005459Y006795D03*
X005459Y006796D03*
X005459Y006797D03*
X005459Y006798D03*
X005459Y006799D03*
X005459Y006799D03*
X005459Y006800D03*
X005459Y006801D03*
X005459Y006802D03*
X005459Y006803D03*
X005459Y006804D03*
X005459Y006804D03*
X005459Y006805D03*
X005459Y006806D03*
X005459Y006807D03*
X005459Y006808D03*
X005459Y006809D03*
X005459Y006809D03*
X005459Y006810D03*
X005459Y006811D03*
X005459Y006812D03*
X005459Y006813D03*
X005459Y006814D03*
X005459Y006814D03*
X005459Y006815D03*
X005459Y006816D03*
X005459Y006817D03*
X005459Y006818D03*
X005459Y006819D03*
X005459Y006819D03*
X005459Y006820D03*
X005459Y006821D03*
X005459Y006822D03*
X005459Y006823D03*
X005459Y006824D03*
X005459Y006824D03*
X005459Y006825D03*
X005459Y006826D03*
X005459Y006827D03*
X005459Y006828D03*
X005459Y006829D03*
X005459Y006829D03*
X005459Y006830D03*
X005459Y006831D03*
X005459Y006832D03*
X005459Y006833D03*
X005459Y006834D03*
X005459Y006834D03*
X005459Y006835D03*
X005459Y006836D03*
X005459Y006837D03*
X005459Y006838D03*
X005459Y006839D03*
X005459Y006839D03*
X005459Y006840D03*
X005459Y006841D03*
X005459Y006842D03*
X005459Y006843D03*
X005459Y006844D03*
X005459Y006844D03*
X005459Y006845D03*
X005459Y006846D03*
X005459Y006847D03*
X005459Y006848D03*
X005459Y006849D03*
X005459Y006849D03*
X005459Y006850D03*
X005459Y006851D03*
X005459Y006852D03*
X005459Y006853D03*
X005459Y006854D03*
X005459Y006854D03*
X005459Y006855D03*
X005459Y006856D03*
X005459Y006857D03*
X005459Y006858D03*
X005459Y006859D03*
X005459Y006859D03*
X005459Y006860D03*
X005459Y006861D03*
X005459Y006862D03*
X005459Y006863D03*
X005459Y006864D03*
X005459Y006864D03*
X005459Y006865D03*
X005459Y006866D03*
X005459Y006867D03*
X005459Y006868D03*
X005459Y006869D03*
X005459Y006869D03*
X005459Y006870D03*
X005459Y006871D03*
X005459Y006872D03*
X005459Y006873D03*
X005459Y006874D03*
X005459Y006874D03*
X005459Y006875D03*
X005459Y006876D03*
X005459Y006877D03*
X005459Y006878D03*
X005459Y006879D03*
X005459Y006879D03*
X005459Y006880D03*
X005459Y006881D03*
X005459Y006882D03*
X005459Y006883D03*
X005459Y006884D03*
X005459Y006884D03*
X005459Y006885D03*
X005459Y006886D03*
X005459Y006887D03*
X005459Y006888D03*
X005459Y006889D03*
X005459Y006889D03*
X005459Y006890D03*
X005459Y006891D03*
X005459Y006892D03*
X005459Y006893D03*
X005459Y006894D03*
X005459Y006894D03*
X005459Y006895D03*
X005459Y006896D03*
X005459Y006897D03*
X005459Y006898D03*
X005459Y006899D03*
X005459Y006899D03*
X005459Y006900D03*
X005459Y006901D03*
X005459Y006902D03*
X005459Y006903D03*
X005459Y006904D03*
X005459Y006904D03*
X005459Y006905D03*
X005459Y006906D03*
X005459Y006907D03*
X005459Y006908D03*
X005459Y006909D03*
X005459Y006909D03*
X005459Y006910D03*
X005459Y006911D03*
X005459Y006912D03*
X005459Y006913D03*
X005459Y006914D03*
X005459Y006914D03*
X005459Y006915D03*
X005459Y006916D03*
X005459Y006917D03*
X005459Y006918D03*
X005459Y006919D03*
X005459Y006919D03*
X005459Y006920D03*
X005459Y006921D03*
X005459Y006922D03*
X005459Y006923D03*
X005459Y006924D03*
X005459Y006924D03*
X005459Y006925D03*
X005459Y006926D03*
X005459Y006927D03*
X005459Y006928D03*
X005459Y006929D03*
X005459Y006929D03*
D79*
X005459Y006930D03*
X005459Y006928D03*
X005459Y006927D03*
X005459Y006926D03*
X005459Y006925D03*
X005459Y006923D03*
X005459Y006922D03*
X005459Y006921D03*
X005459Y006920D03*
X005459Y006918D03*
X005459Y006917D03*
X005459Y006916D03*
X005459Y006915D03*
X005459Y006913D03*
X005459Y006912D03*
X005459Y006911D03*
X005459Y006910D03*
X005459Y006908D03*
X005459Y006907D03*
X005459Y006906D03*
X005459Y006905D03*
X005459Y006903D03*
X005459Y006902D03*
X005459Y006901D03*
X005459Y006900D03*
X005459Y006898D03*
X005459Y006897D03*
X005459Y006896D03*
X005459Y006895D03*
X005459Y006893D03*
X005459Y006892D03*
X005459Y006891D03*
X005459Y006890D03*
X005459Y006888D03*
X005459Y006887D03*
X005459Y006886D03*
X005459Y006885D03*
X005459Y006883D03*
X005459Y006882D03*
X005459Y006881D03*
X005459Y006880D03*
X005459Y006878D03*
X005459Y006877D03*
X005459Y006876D03*
X005459Y006875D03*
X005459Y006873D03*
X005459Y006872D03*
X005459Y006871D03*
X005459Y006870D03*
X005459Y006868D03*
X005459Y006867D03*
X005459Y006866D03*
X005459Y006865D03*
X005459Y006863D03*
X005459Y006862D03*
X005459Y006861D03*
X005459Y006860D03*
X005459Y006858D03*
X005459Y006857D03*
X005459Y006856D03*
X005459Y006855D03*
X005459Y006853D03*
X005459Y006852D03*
X005459Y006851D03*
X005459Y006850D03*
X005459Y006848D03*
X005459Y006847D03*
X005459Y006846D03*
X005459Y006845D03*
X005459Y006843D03*
X005459Y006842D03*
X005459Y006841D03*
X005459Y006840D03*
X005459Y006838D03*
X005459Y006837D03*
X005459Y006836D03*
X005459Y006835D03*
X005459Y006833D03*
X005459Y006832D03*
X005459Y006831D03*
X005459Y006830D03*
X005459Y006828D03*
X005459Y006827D03*
X005459Y006826D03*
X005459Y006825D03*
X005459Y006823D03*
X005459Y006822D03*
X005459Y006821D03*
X005459Y006820D03*
X005459Y006818D03*
X005459Y006817D03*
X005459Y006816D03*
X005459Y006815D03*
X005459Y006813D03*
X005459Y006812D03*
X005459Y006811D03*
X005459Y006810D03*
X005459Y006808D03*
X005459Y006807D03*
X005459Y006806D03*
X005459Y006805D03*
X005459Y006803D03*
X005459Y006802D03*
X005459Y006801D03*
X005459Y006800D03*
X005459Y006798D03*
X005459Y006797D03*
X005459Y006796D03*
X005459Y006795D03*
X005459Y006793D03*
X005459Y006792D03*
X005459Y006791D03*
X005459Y006790D03*
X005459Y006788D03*
X005459Y006787D03*
X005459Y006786D03*
X005459Y006785D03*
X005459Y006783D03*
X005459Y006782D03*
X005459Y006781D03*
X005459Y006780D03*
X005459Y006778D03*
X005459Y006777D03*
X005459Y006776D03*
X005459Y006775D03*
X005459Y006773D03*
X005459Y006772D03*
X005459Y006771D03*
X005459Y006770D03*
X005459Y006768D03*
X005459Y006767D03*
X005459Y006766D03*
X005459Y006765D03*
X005459Y006763D03*
X005459Y006762D03*
X005459Y006761D03*
X005459Y006760D03*
X005459Y006758D03*
X005459Y006757D03*
X005459Y006756D03*
X005459Y006755D03*
X005459Y006753D03*
X005459Y006752D03*
X005459Y006751D03*
X005459Y006750D03*
X005459Y006748D03*
X005459Y006747D03*
X005459Y006746D03*
X005459Y006745D03*
X005459Y006743D03*
X005459Y006742D03*
X005459Y006741D03*
X005459Y006740D03*
X005459Y006738D03*
X005459Y006737D03*
X005459Y006736D03*
X005459Y006735D03*
X005459Y006733D03*
X005459Y006732D03*
X005459Y006731D03*
X005459Y006730D03*
X005459Y006728D03*
X005459Y006727D03*
X005459Y006726D03*
D80*
X004842Y006727D03*
X004842Y006728D03*
X004842Y006730D03*
X004842Y006731D03*
X004842Y006732D03*
X004842Y006733D03*
X004842Y006735D03*
X004842Y006736D03*
X004842Y006737D03*
X004842Y006738D03*
X004842Y006740D03*
X004842Y006741D03*
X004842Y006742D03*
X004842Y006743D03*
X004842Y006745D03*
X004842Y006746D03*
X004842Y006747D03*
X004842Y006748D03*
X004842Y006750D03*
X004842Y006751D03*
X004842Y006752D03*
X004842Y006753D03*
X004842Y006755D03*
X004842Y006756D03*
X004842Y006757D03*
X004842Y006758D03*
X004842Y006760D03*
X004842Y006761D03*
X004842Y006762D03*
X004842Y006763D03*
X004842Y006765D03*
X004842Y006766D03*
X004842Y006767D03*
X004842Y006768D03*
X004842Y006770D03*
X004842Y006771D03*
X004842Y006772D03*
X004842Y006773D03*
X004842Y006775D03*
X004842Y006776D03*
X004842Y006777D03*
X004842Y006778D03*
X004842Y006780D03*
X004842Y006781D03*
X004842Y006782D03*
X004842Y006783D03*
X004842Y006785D03*
X004842Y006786D03*
X004842Y006787D03*
X004842Y006788D03*
X004842Y006790D03*
X004842Y006791D03*
X004842Y006792D03*
X004842Y006793D03*
X004842Y006795D03*
X004842Y006796D03*
X004842Y006797D03*
X004842Y006798D03*
X004842Y006800D03*
X004842Y006801D03*
X004842Y006802D03*
X004842Y006803D03*
X004842Y006805D03*
X004842Y006806D03*
X004842Y006807D03*
X004842Y006808D03*
X004842Y006810D03*
X004842Y006811D03*
X004842Y006812D03*
X004842Y006813D03*
X004842Y006815D03*
X004842Y006816D03*
X004842Y006817D03*
X004842Y006818D03*
X004842Y006820D03*
X004842Y006821D03*
X004842Y006822D03*
X004842Y006823D03*
X004842Y006825D03*
X004842Y006826D03*
X004842Y006827D03*
X004842Y006828D03*
X004842Y006830D03*
X004842Y006831D03*
X004842Y006832D03*
X004842Y006833D03*
X004842Y006835D03*
X004842Y006836D03*
X004842Y006837D03*
X004842Y006838D03*
X004842Y006840D03*
X004842Y006841D03*
X004842Y006842D03*
X004842Y006843D03*
X004842Y006845D03*
X004842Y006846D03*
X004842Y006847D03*
X004842Y006848D03*
X004842Y006850D03*
X004842Y006851D03*
X004842Y006852D03*
X004842Y006853D03*
X004842Y006855D03*
X004842Y006856D03*
X004842Y006857D03*
X004842Y006858D03*
X004842Y006860D03*
X004842Y006861D03*
X004842Y006862D03*
X004842Y006863D03*
X004842Y006865D03*
X004842Y006866D03*
X004842Y006867D03*
X004842Y006868D03*
X004842Y006870D03*
X004842Y006871D03*
X004842Y006872D03*
X004842Y006873D03*
X004842Y006875D03*
X004842Y006876D03*
X004842Y006877D03*
X004842Y006878D03*
X004842Y006880D03*
X004842Y006881D03*
X004842Y006882D03*
X004842Y006883D03*
X004842Y006885D03*
X004842Y006886D03*
X004842Y006887D03*
X004842Y006888D03*
X004842Y006890D03*
X004842Y006891D03*
X004842Y006892D03*
X004842Y006893D03*
X004842Y006895D03*
X004842Y006896D03*
X004842Y006897D03*
X004842Y006898D03*
X004842Y006900D03*
X004842Y006901D03*
X004842Y006902D03*
X004842Y006903D03*
X004842Y006905D03*
X004842Y006906D03*
X004842Y006907D03*
X004842Y006908D03*
X004842Y006910D03*
X004842Y006911D03*
X004842Y006912D03*
X004842Y006913D03*
X004842Y006915D03*
X004842Y006916D03*
X004842Y006917D03*
X004842Y006918D03*
X004842Y006920D03*
X004842Y006921D03*
X004842Y006922D03*
X004842Y006923D03*
X004842Y006925D03*
X004842Y006926D03*
X004842Y006927D03*
X004842Y006928D03*
X004842Y006930D03*
X004842Y006931D03*
X004842Y006932D03*
X004842Y006726D03*
D81*
X004842Y006726D03*
X004842Y006727D03*
X004842Y006728D03*
X004842Y006729D03*
X004842Y006729D03*
X004842Y006730D03*
X004842Y006731D03*
X004842Y006732D03*
X004842Y006733D03*
X004842Y006734D03*
X004842Y006734D03*
X004842Y006735D03*
X004842Y006736D03*
X004842Y006737D03*
X004842Y006738D03*
X004842Y006739D03*
X004842Y006739D03*
X004842Y006740D03*
X004842Y006741D03*
X004842Y006742D03*
X004842Y006743D03*
X004842Y006744D03*
X004842Y006744D03*
X004842Y006745D03*
X004842Y006746D03*
X004842Y006747D03*
X004842Y006748D03*
X004842Y006749D03*
X004842Y006749D03*
X004842Y006750D03*
X004842Y006751D03*
X004842Y006752D03*
X004842Y006753D03*
X004842Y006754D03*
X004842Y006754D03*
X004842Y006755D03*
X004842Y006756D03*
X004842Y006757D03*
X004842Y006758D03*
X004842Y006759D03*
X004842Y006759D03*
X004842Y006760D03*
X004842Y006761D03*
X004842Y006762D03*
X004842Y006763D03*
X004842Y006764D03*
X004842Y006764D03*
X004842Y006765D03*
X004842Y006766D03*
X004842Y006767D03*
X004842Y006768D03*
X004842Y006769D03*
X004842Y006769D03*
X004842Y006770D03*
X004842Y006771D03*
X004842Y006772D03*
X004842Y006773D03*
X004842Y006774D03*
X004842Y006774D03*
X004842Y006775D03*
X004842Y006776D03*
X004842Y006777D03*
X004842Y006778D03*
X004842Y006779D03*
X004842Y006779D03*
X004842Y006780D03*
X004842Y006781D03*
X004842Y006782D03*
X004842Y006783D03*
X004842Y006784D03*
X004842Y006784D03*
X004842Y006785D03*
X004842Y006786D03*
X004842Y006787D03*
X004842Y006788D03*
X004842Y006789D03*
X004842Y006789D03*
X004842Y006790D03*
X004842Y006791D03*
X004842Y006792D03*
X004842Y006793D03*
X004842Y006794D03*
X004842Y006794D03*
X004842Y006795D03*
X004842Y006796D03*
X004842Y006797D03*
X004842Y006798D03*
X004842Y006799D03*
X004842Y006799D03*
X004842Y006800D03*
X004842Y006801D03*
X004842Y006802D03*
X004842Y006803D03*
X004842Y006804D03*
X004842Y006804D03*
X004842Y006805D03*
X004842Y006806D03*
X004842Y006807D03*
X004842Y006808D03*
X004842Y006809D03*
X004842Y006809D03*
X004842Y006810D03*
X004842Y006811D03*
X004842Y006812D03*
X004842Y006813D03*
X004842Y006814D03*
X004842Y006814D03*
X004842Y006815D03*
X004842Y006816D03*
X004842Y006817D03*
X004842Y006818D03*
X004842Y006819D03*
X004842Y006819D03*
X004842Y006820D03*
X004842Y006821D03*
X004842Y006822D03*
X004842Y006823D03*
X004842Y006824D03*
X004842Y006824D03*
X004842Y006825D03*
X004842Y006826D03*
X004842Y006827D03*
X004842Y006828D03*
X004842Y006829D03*
X004842Y006829D03*
X004842Y006830D03*
X004842Y006831D03*
X004842Y006832D03*
X004842Y006833D03*
X004842Y006834D03*
X004842Y006834D03*
X004842Y006835D03*
X004842Y006836D03*
X004842Y006837D03*
X004842Y006838D03*
X004842Y006839D03*
X004842Y006839D03*
X004842Y006840D03*
X004842Y006841D03*
X004842Y006842D03*
X004842Y006843D03*
X004842Y006844D03*
X004842Y006844D03*
X004842Y006845D03*
X004842Y006846D03*
X004842Y006847D03*
X004842Y006848D03*
X004842Y006849D03*
X004842Y006849D03*
X004842Y006850D03*
X004842Y006851D03*
X004842Y006852D03*
X004842Y006853D03*
X004842Y006854D03*
X004842Y006854D03*
X004842Y006855D03*
X004842Y006856D03*
X004842Y006857D03*
X004842Y006858D03*
X004842Y006859D03*
X004842Y006859D03*
X004842Y006860D03*
X004842Y006861D03*
X004842Y006862D03*
X004842Y006863D03*
X004842Y006864D03*
X004842Y006864D03*
X004842Y006865D03*
X004842Y006866D03*
X004842Y006867D03*
X004842Y006868D03*
X004842Y006869D03*
X004842Y006869D03*
X004842Y006870D03*
X004842Y006871D03*
X004842Y006872D03*
X004842Y006873D03*
X004842Y006874D03*
X004842Y006874D03*
X004842Y006875D03*
X004842Y006876D03*
X004842Y006877D03*
X004842Y006878D03*
X004842Y006879D03*
X004842Y006879D03*
X004842Y006880D03*
X004842Y006881D03*
X004842Y006882D03*
X004842Y006883D03*
X004842Y006884D03*
X004842Y006884D03*
X004842Y006885D03*
X004842Y006886D03*
X004842Y006887D03*
X004842Y006888D03*
X004842Y006889D03*
X004842Y006889D03*
X004842Y006890D03*
X004842Y006891D03*
X004842Y006892D03*
X004842Y006893D03*
X004842Y006894D03*
X004842Y006894D03*
X004842Y006895D03*
X004842Y006896D03*
X004842Y006897D03*
X004842Y006898D03*
X004842Y006899D03*
X004842Y006899D03*
X004842Y006900D03*
X004842Y006901D03*
X004842Y006902D03*
X004842Y006903D03*
X004842Y006904D03*
X004842Y006904D03*
X004842Y006905D03*
X004842Y006906D03*
X004842Y006907D03*
X004842Y006908D03*
X004842Y006909D03*
X004842Y006909D03*
X004842Y006910D03*
X004842Y006911D03*
X004842Y006912D03*
X004842Y006913D03*
X004842Y006914D03*
X004842Y006914D03*
X004842Y006915D03*
X004842Y006916D03*
X004842Y006917D03*
X004842Y006918D03*
X004842Y006919D03*
X004842Y006919D03*
X004842Y006920D03*
X004842Y006921D03*
X004842Y006922D03*
X004842Y006923D03*
X004842Y006924D03*
X004842Y006924D03*
X004842Y006925D03*
X004842Y006926D03*
X004842Y006927D03*
X004842Y006928D03*
X004842Y006929D03*
X004842Y006929D03*
X004842Y006930D03*
X004842Y006931D03*
X004842Y006932D03*
X004842Y006933D03*
D82*
X004842Y006936D03*
D83*
X005459Y006937D03*
D84*
X004842Y006938D03*
D85*
X005459Y006938D03*
D86*
X005459Y006939D03*
D87*
X005459Y006940D03*
D88*
X005459Y006942D03*
D89*
X004842Y006942D03*
D90*
X005459Y006943D03*
D91*
X005459Y006943D03*
D92*
X004842Y006943D03*
D93*
X005459Y006944D03*
D94*
X004842Y006944D03*
D95*
X005459Y006944D03*
D96*
X005459Y006945D03*
D97*
X004842Y006945D03*
D98*
X005459Y006945D03*
D99*
X004842Y006945D03*
D100*
X005459Y006946D03*
D101*
X004842Y006946D03*
D102*
X005459Y006946D03*
D103*
X004842Y006946D03*
D104*
X005459Y006947D03*
D105*
X004842Y006947D03*
D106*
X005459Y006947D03*
D107*
X004842Y006947D03*
D108*
X005459Y006948D03*
D109*
X004842Y006948D03*
D110*
X005459Y006948D03*
D111*
X004842Y006948D03*
D112*
X005459Y006949D03*
D113*
X004842Y006949D03*
D114*
X005459Y006949D03*
D115*
X005459Y006950D03*
D116*
X004842Y006950D03*
D117*
X005459Y006950D03*
D118*
X004842Y006950D03*
D119*
X005459Y006951D03*
D120*
X004842Y006951D03*
D121*
X005459Y006951D03*
D122*
X004842Y006951D03*
D123*
X005459Y006952D03*
D124*
X005459Y006952D03*
D125*
X004842Y006952D03*
D126*
X005457Y006953D03*
D127*
X004842Y006953D03*
D128*
X005458Y006953D03*
X005458Y006955D03*
D129*
X004842Y006953D03*
D130*
X005458Y006954D03*
X005458Y006954D03*
D131*
X004842Y006954D03*
D132*
X004842Y006955D03*
D133*
X005458Y006956D03*
X005458Y006955D03*
D134*
X004842Y006955D03*
D135*
X005458Y006956D03*
D136*
X004842Y006956D03*
D137*
X004838Y006956D03*
X004838Y006957D03*
X004838Y006958D03*
D138*
X005458Y006958D03*
X005458Y006957D03*
D139*
X005458Y006957D03*
X005458Y006958D03*
D140*
X004838Y006957D03*
D141*
X004838Y006958D03*
X004838Y006960D03*
X005467Y007017D03*
D142*
X005458Y006959D03*
X005458Y006959D03*
D143*
X005467Y007016D03*
X005467Y007017D03*
X005467Y007018D03*
X004838Y006959D03*
X004838Y006959D03*
D144*
X005458Y006960D03*
D145*
X005459Y006960D03*
X005459Y006961D03*
D146*
X004838Y006962D03*
X004838Y006961D03*
X004838Y006960D03*
D147*
X005459Y006961D03*
D148*
X004838Y006961D03*
D149*
X005459Y006962D03*
X005459Y006963D03*
D150*
X005459Y006963D03*
X005459Y006962D03*
D151*
X005467Y007020D03*
X005467Y007021D03*
X004837Y006963D03*
X004837Y006962D03*
D152*
X004837Y006963D03*
X004837Y006964D03*
X005467Y007020D03*
D153*
X005459Y006964D03*
X005459Y006964D03*
D154*
X005468Y007021D03*
X005468Y007022D03*
X005468Y007023D03*
X004837Y006966D03*
X004837Y006965D03*
X004837Y006964D03*
D155*
X005459Y006965D03*
D156*
X005468Y007022D03*
X004837Y006966D03*
X004837Y006965D03*
D157*
X005459Y006966D03*
X005459Y006967D03*
X005459Y006965D03*
D158*
X005459Y006966D03*
D159*
X004837Y006967D03*
X004837Y006968D03*
D160*
X005460Y006968D03*
X005460Y006967D03*
D161*
X004837Y006968D03*
X004837Y006967D03*
D162*
X005460Y006968D03*
D163*
X005460Y006969D03*
X005460Y006969D03*
D164*
X005468Y007025D03*
X005468Y007026D03*
X004837Y006970D03*
X004837Y006969D03*
X004837Y006969D03*
D165*
X005460Y006970D03*
D166*
X005468Y007025D03*
X005468Y007026D03*
X004837Y006970D03*
D167*
X005460Y006971D03*
X005460Y006972D03*
X005460Y006970D03*
D168*
X005460Y006971D03*
D169*
X004836Y006972D03*
X004836Y006971D03*
D170*
X004836Y006971D03*
X004836Y006972D03*
D171*
X005460Y006973D03*
X005460Y006972D03*
D172*
X005460Y006973D03*
D173*
X005469Y007029D03*
X005469Y007029D03*
X004836Y006974D03*
X004836Y006974D03*
X004836Y006973D03*
D174*
X004836Y006973D03*
X005469Y007028D03*
D175*
X005461Y006975D03*
X005461Y006974D03*
X005461Y006974D03*
D176*
X005461Y006975D03*
D177*
X005469Y007030D03*
X005469Y007031D03*
X004836Y006976D03*
X004836Y006975D03*
D178*
X004836Y006975D03*
X004836Y006976D03*
X005469Y007030D03*
X005469Y007031D03*
D179*
X005461Y006976D03*
D180*
X005461Y006976D03*
X005461Y006977D03*
D181*
X004836Y006978D03*
X004836Y006979D03*
X004836Y006977D03*
D182*
X005461Y006978D03*
X005461Y006977D03*
D183*
X004836Y006978D03*
X004836Y006977D03*
D184*
X005461Y006978D03*
D185*
X005461Y006979D03*
X005461Y006979D03*
X005461Y006980D03*
D186*
X005469Y007034D03*
X005469Y007034D03*
X004835Y006980D03*
X004835Y006979D03*
D187*
X005461Y006980D03*
D188*
X005469Y007033D03*
X005469Y007035D03*
X004835Y006981D03*
X004835Y006980D03*
D189*
X005461Y006981D03*
D190*
X005461Y006981D03*
X005461Y006982D03*
D191*
X004835Y006983D03*
X004835Y006982D03*
X004835Y006981D03*
D192*
X005462Y006982D03*
X005462Y006983D03*
D193*
X004835Y006982D03*
D194*
X005462Y006983D03*
X005462Y006984D03*
D195*
X005470Y007037D03*
X004835Y006985D03*
X004835Y006983D03*
D196*
X004835Y006984D03*
X004835Y006984D03*
X005470Y007037D03*
X005470Y007038D03*
D197*
X005462Y006985D03*
X005462Y006984D03*
D198*
X005462Y006985D03*
D199*
X005470Y007039D03*
X005470Y007039D03*
X004835Y006987D03*
X004835Y006986D03*
X004835Y006985D03*
D200*
X005462Y006986D03*
D201*
X005470Y007038D03*
X005470Y007040D03*
X004835Y006986D03*
D202*
X005462Y006987D03*
X005462Y006986D03*
D203*
X005463Y006987D03*
X005463Y006988D03*
D204*
X004834Y006988D03*
X004834Y006987D03*
D205*
X005463Y006988D03*
X005463Y006989D03*
D206*
X004834Y006989D03*
X004834Y006988D03*
D207*
X005463Y006989D03*
X005463Y006990D03*
D208*
X005471Y007042D03*
X005471Y007043D03*
X004834Y006991D03*
X004834Y006990D03*
X004834Y006989D03*
D209*
X005463Y006990D03*
D210*
X005471Y007042D03*
X005471Y007043D03*
X004834Y006991D03*
X004834Y006990D03*
D211*
X005463Y006991D03*
X005463Y006992D03*
D212*
X005463Y006992D03*
X005463Y006991D03*
D213*
X004834Y006992D03*
X004834Y006993D03*
D214*
X004834Y006993D03*
X004834Y006992D03*
D215*
X005463Y006993D03*
X005463Y006994D03*
D216*
X005463Y006993D03*
D217*
X005471Y007045D03*
X005471Y007046D03*
X004834Y006995D03*
X004834Y006994D03*
X004834Y006994D03*
D218*
X005464Y006995D03*
X005464Y006994D03*
D219*
X005464Y006995D03*
D220*
X005471Y007046D03*
X004834Y006995D03*
D221*
X005464Y006996D03*
X005464Y006997D03*
D222*
X005471Y007047D03*
X005471Y007048D03*
X004833Y006997D03*
X004833Y006996D03*
D223*
X005464Y006997D03*
X005464Y006996D03*
D224*
X005471Y007047D03*
X005471Y007048D03*
X004833Y006997D03*
X004833Y006996D03*
D225*
X005464Y006998D03*
X005464Y006999D03*
D226*
X004833Y006999D03*
X004833Y006999D03*
X004833Y006998D03*
D227*
X005464Y006998D03*
D228*
X004833Y006998D03*
D229*
X005464Y006999D03*
X005464Y007000D03*
D230*
X005464Y007000D03*
X005464Y007001D03*
D231*
X005472Y007051D03*
X004833Y007001D03*
X004833Y007000D03*
D232*
X004833Y007000D03*
X004833Y007001D03*
X005472Y007050D03*
X005472Y007051D03*
X005472Y007052D03*
D233*
X005465Y007002D03*
X005465Y007001D03*
D234*
X004833Y007002D03*
X004833Y007003D03*
X004833Y007004D03*
D235*
X005465Y007002D03*
D236*
X004833Y007003D03*
X004833Y007002D03*
D237*
X005465Y007003D03*
X005465Y007004D03*
D238*
X005465Y007003D03*
D239*
X005465Y007004D03*
X005465Y007005D03*
D240*
X005472Y007054D03*
X005472Y007054D03*
X004832Y007005D03*
X004832Y007004D03*
D241*
X005465Y007005D03*
X005465Y007006D03*
D242*
X005472Y007055D03*
X004832Y007006D03*
X004832Y007005D03*
D243*
X005465Y007006D03*
X005465Y007007D03*
D244*
X005473Y007055D03*
X005473Y007056D03*
X005473Y007057D03*
X004832Y007008D03*
X004832Y007007D03*
X004832Y007006D03*
D245*
X005465Y007007D03*
D246*
X005473Y007056D03*
X004832Y007007D03*
D247*
X005466Y007008D03*
X005466Y007009D03*
X005466Y007009D03*
D248*
X005466Y007008D03*
D249*
X004832Y007008D03*
X004832Y007010D03*
D250*
X004832Y007009D03*
X004832Y007009D03*
D251*
X005466Y007010D03*
X005466Y007011D03*
D252*
X005466Y007010D03*
D253*
X005473Y007059D03*
X005473Y007059D03*
X005473Y007060D03*
X004832Y007012D03*
X004832Y007011D03*
X004832Y007010D03*
D254*
X004832Y007011D03*
X005473Y007060D03*
D255*
X005466Y007012D03*
X005466Y007011D03*
D256*
X005466Y007012D03*
D257*
X004831Y007013D03*
X004831Y007012D03*
D258*
X005466Y007013D03*
X005466Y007014D03*
X005466Y007014D03*
D259*
X004831Y007014D03*
X004831Y007013D03*
D260*
X005466Y007013D03*
D261*
X005474Y007063D03*
X005474Y007064D03*
X004831Y007016D03*
X004831Y007015D03*
X004831Y007014D03*
D262*
X005466Y007015D03*
X005466Y007016D03*
D263*
X005474Y007062D03*
X005474Y007063D03*
X004831Y007016D03*
X004831Y007015D03*
D264*
X005466Y007015D03*
D265*
X005474Y007064D03*
X005474Y007065D03*
X004831Y007018D03*
X004831Y007017D03*
D266*
X004831Y007017D03*
X004831Y007018D03*
X005474Y007065D03*
D267*
X005467Y007018D03*
D268*
X005467Y007019D03*
X005467Y007019D03*
D269*
X004831Y007020D03*
X004831Y007019D03*
X004831Y007019D03*
D270*
X004831Y007020D03*
D271*
X004830Y007021D03*
X004830Y007022D03*
X005474Y007067D03*
X005474Y007068D03*
D272*
X005474Y007068D03*
X005474Y007069D03*
X004830Y007022D03*
X004830Y007021D03*
D273*
X004830Y007023D03*
X004830Y007024D03*
X004830Y007024D03*
D274*
X005468Y007023D03*
D275*
X004830Y007023D03*
D276*
X005468Y007024D03*
X005468Y007024D03*
D277*
X005475Y007071D03*
X005475Y007072D03*
X004830Y007026D03*
X004830Y007025D03*
D278*
X004830Y007025D03*
X004830Y007026D03*
X005475Y007071D03*
X005475Y007072D03*
D279*
X005468Y007028D03*
X005468Y007027D03*
D280*
X005475Y007073D03*
X005475Y007074D03*
X004830Y007029D03*
X004830Y007028D03*
X004830Y007027D03*
D281*
X005468Y007027D03*
D282*
X005475Y007073D03*
X004830Y007028D03*
X004830Y007027D03*
D283*
X004829Y007029D03*
X004829Y007030D03*
D284*
X004829Y007030D03*
X004829Y007031D03*
D285*
X004829Y007031D03*
X004829Y007032D03*
X004829Y007033D03*
X005476Y007076D03*
X005476Y007077D03*
D286*
X005469Y007033D03*
X005469Y007032D03*
D287*
X005469Y007032D03*
D288*
X005476Y007076D03*
X005476Y007077D03*
X004829Y007032D03*
D289*
X004829Y007033D03*
X004829Y007035D03*
D290*
X004829Y007034D03*
X004829Y007034D03*
D291*
X005470Y007035D03*
X005470Y007036D03*
D292*
X005476Y007079D03*
X005476Y007080D03*
X004829Y007037D03*
X004829Y007036D03*
X004829Y007035D03*
D293*
X005470Y007036D03*
D294*
X005476Y007080D03*
X005476Y007081D03*
X004829Y007036D03*
D295*
X004828Y007037D03*
X004828Y007038D03*
X005476Y007082D03*
D296*
X005476Y007082D03*
X005476Y007081D03*
X004828Y007039D03*
X004828Y007038D03*
D297*
X004828Y007039D03*
X004828Y007040D03*
X004828Y007041D03*
D298*
X004828Y007041D03*
X004828Y007040D03*
D299*
X005470Y007041D03*
X005470Y007040D03*
D300*
X005470Y007041D03*
D301*
X005477Y007084D03*
X005477Y007085D03*
X004828Y007043D03*
X004828Y007042D03*
D302*
X004828Y007042D03*
X004828Y007043D03*
X005477Y007085D03*
X005477Y007086D03*
D303*
X005471Y007044D03*
X005471Y007044D03*
D304*
X004828Y007045D03*
X004828Y007044D03*
X004828Y007044D03*
D305*
X005471Y007045D03*
D306*
X004828Y007045D03*
D307*
X004827Y007046D03*
X004827Y007047D03*
X005477Y007088D03*
D308*
X005477Y007088D03*
X005477Y007089D03*
X005477Y007089D03*
X004827Y007047D03*
X004827Y007046D03*
D309*
X004827Y007048D03*
X004827Y007049D03*
X004827Y007049D03*
X005478Y007090D03*
D310*
X005478Y007090D03*
X005478Y007091D03*
X004827Y007048D03*
D311*
X005471Y007049D03*
X005471Y007049D03*
D312*
X005471Y007050D03*
D313*
X004827Y007051D03*
X004827Y007050D03*
D314*
X004827Y007050D03*
X004827Y007051D03*
D315*
X004827Y007052D03*
X004827Y007053D03*
X004827Y007054D03*
X005478Y007093D03*
X005478Y007094D03*
X005478Y007094D03*
D316*
X005472Y007053D03*
X005472Y007052D03*
D317*
X005478Y007093D03*
X004827Y007053D03*
X004827Y007052D03*
D318*
X005472Y007053D03*
D319*
X004826Y007054D03*
X004826Y007055D03*
D320*
X004826Y007055D03*
X004826Y007056D03*
D321*
X004826Y007056D03*
X004826Y007057D03*
X004826Y007058D03*
X005479Y007096D03*
X005479Y007097D03*
X005479Y007098D03*
D322*
X005473Y007058D03*
X005473Y007057D03*
D323*
X005479Y007097D03*
X004826Y007057D03*
D324*
X005473Y007058D03*
D325*
X005479Y007098D03*
X004826Y007060D03*
X004826Y007058D03*
D326*
X004826Y007059D03*
X004826Y007059D03*
X005479Y007099D03*
X005479Y007099D03*
D327*
X004826Y007062D03*
X004826Y007061D03*
X004826Y007060D03*
D328*
X005473Y007061D03*
D329*
X004826Y007061D03*
D330*
X005473Y007062D03*
X005473Y007061D03*
D331*
X005479Y007102D03*
X004825Y007063D03*
X004825Y007062D03*
D332*
X004825Y007063D03*
X004825Y007064D03*
X005479Y007101D03*
X005479Y007102D03*
X005479Y007103D03*
D333*
X004825Y007066D03*
X004825Y007065D03*
X004825Y007064D03*
D334*
X004825Y007065D03*
X004825Y007066D03*
D335*
X005474Y007066D03*
D336*
X005474Y007066D03*
X005474Y007067D03*
D337*
X005480Y007105D03*
X005480Y007106D03*
X004825Y007068D03*
X004825Y007067D03*
D338*
X004825Y007067D03*
X004825Y007068D03*
X005480Y007105D03*
X005480Y007106D03*
D339*
X005480Y007107D03*
X005480Y007108D03*
X004825Y007070D03*
X004825Y007069D03*
X004825Y007069D03*
D340*
X005475Y007070D03*
X005475Y007069D03*
D341*
X005475Y007070D03*
D342*
X005480Y007107D03*
X004825Y007070D03*
D343*
X004824Y007071D03*
X004824Y007072D03*
D344*
X004824Y007072D03*
X004824Y007071D03*
D345*
X004824Y007073D03*
X004824Y007074D03*
X004824Y007074D03*
X005481Y007110D03*
X005481Y007111D03*
D346*
X005481Y007111D03*
X005481Y007110D03*
X004824Y007073D03*
D347*
X005475Y007074D03*
X005475Y007075D03*
D348*
X005475Y007075D03*
D349*
X004824Y007076D03*
X004824Y007075D03*
D350*
X004824Y007075D03*
X004824Y007076D03*
D351*
X004824Y007077D03*
X004824Y007078D03*
X004824Y007079D03*
X005481Y007114D03*
X005481Y007114D03*
D352*
X005481Y007115D03*
X005481Y007113D03*
X004824Y007078D03*
X004824Y007077D03*
D353*
X005476Y007078D03*
X005476Y007079D03*
D354*
X005476Y007078D03*
D355*
X005481Y007115D03*
X005481Y007116D03*
X004823Y007080D03*
X004823Y007079D03*
D356*
X004823Y007080D03*
X004823Y007081D03*
X005481Y007116D03*
D357*
X004823Y007083D03*
X004823Y007082D03*
X004823Y007081D03*
D358*
X004823Y007082D03*
D359*
X005476Y007083D03*
X005476Y007084D03*
D360*
X005476Y007083D03*
D361*
X005482Y007118D03*
X005482Y007120D03*
X004823Y007085D03*
X004823Y007083D03*
D362*
X004823Y007084D03*
X004823Y007084D03*
X005482Y007119D03*
X005482Y007119D03*
D363*
X004823Y007087D03*
X004823Y007086D03*
X004823Y007085D03*
D364*
X004823Y007086D03*
D365*
X005477Y007087D03*
X005477Y007086D03*
D366*
X005477Y007087D03*
D367*
X005482Y007122D03*
X005482Y007123D03*
X004822Y007088D03*
X004822Y007087D03*
D368*
X004822Y007088D03*
X004822Y007089D03*
X005482Y007122D03*
X005482Y007123D03*
D369*
X005483Y007124D03*
X005483Y007124D03*
X004822Y007091D03*
X004822Y007090D03*
X004822Y007089D03*
D370*
X004822Y007090D03*
X004822Y007091D03*
X005483Y007125D03*
D371*
X005478Y007092D03*
X005478Y007091D03*
D372*
X004822Y007092D03*
X004822Y007093D03*
D373*
X005478Y007092D03*
D374*
X004822Y007093D03*
X004822Y007092D03*
D375*
X004822Y007094D03*
X004822Y007094D03*
X004822Y007095D03*
X005483Y007127D03*
X005483Y007128D03*
D376*
X005478Y007096D03*
X005478Y007095D03*
D377*
X005483Y007127D03*
X005483Y007128D03*
X004822Y007095D03*
D378*
X005478Y007095D03*
D379*
X004821Y007096D03*
X004821Y007097D03*
D380*
X004821Y007097D03*
X004821Y007096D03*
D381*
X004821Y007098D03*
X004821Y007099D03*
X004821Y007099D03*
X005484Y007130D03*
X005484Y007131D03*
X005484Y007132D03*
D382*
X005484Y007131D03*
X004821Y007098D03*
D383*
X005479Y007100D03*
X005479Y007101D03*
D384*
X005484Y007132D03*
X005484Y007133D03*
X004821Y007101D03*
X004821Y007100D03*
D385*
X005479Y007100D03*
D386*
X005484Y007133D03*
X004821Y007101D03*
X004821Y007100D03*
D387*
X004821Y007102D03*
X004821Y007103D03*
X004821Y007104D03*
D388*
X004821Y007103D03*
X004821Y007102D03*
D389*
X005480Y007103D03*
D390*
X005480Y007104D03*
X005480Y007104D03*
D391*
X005484Y007135D03*
X005484Y007136D03*
X005484Y007137D03*
X004820Y007105D03*
X004820Y007104D03*
D392*
X004820Y007105D03*
X004820Y007106D03*
X005484Y007136D03*
D393*
X004820Y007108D03*
X004820Y007107D03*
X004820Y007106D03*
D394*
X004820Y007107D03*
D395*
X005480Y007108D03*
D396*
X005485Y007140D03*
X004820Y007110D03*
X004820Y007108D03*
D397*
X005480Y007109D03*
X005480Y007109D03*
D398*
X005485Y007139D03*
X005485Y007139D03*
X005485Y007140D03*
X004820Y007109D03*
X004820Y007109D03*
D399*
X004820Y007110D03*
X004820Y007111D03*
X004820Y007112D03*
X005485Y007141D03*
X005485Y007142D03*
D400*
X005485Y007141D03*
X004820Y007111D03*
D401*
X005481Y007112D03*
X005481Y007113D03*
D402*
X005481Y007112D03*
D403*
X004819Y007113D03*
X004819Y007112D03*
D404*
X004819Y007113D03*
X004819Y007114D03*
D405*
X004819Y007114D03*
X004819Y007115D03*
X004819Y007116D03*
X005486Y007144D03*
X005486Y007144D03*
X005486Y007145D03*
D406*
X005486Y007145D03*
X004819Y007116D03*
X004819Y007115D03*
D407*
X005481Y007117D03*
X005481Y007118D03*
D408*
X004819Y007118D03*
X004819Y007117D03*
D409*
X005481Y007117D03*
D410*
X004819Y007118D03*
X004819Y007117D03*
D411*
X004819Y007119D03*
X004819Y007119D03*
X004819Y007120D03*
X005486Y007148D03*
X005486Y007149D03*
D412*
X005486Y007148D03*
X005486Y007147D03*
X004819Y007120D03*
D413*
X005482Y007121D03*
X005482Y007120D03*
D414*
X005482Y007121D03*
D415*
X005486Y007150D03*
X004818Y007122D03*
X004818Y007121D03*
D416*
X004818Y007121D03*
X004818Y007122D03*
X005486Y007149D03*
X005486Y007150D03*
D417*
X004818Y007124D03*
X004818Y007124D03*
X004818Y007123D03*
D418*
X004818Y007123D03*
D419*
X004818Y007125D03*
X004818Y007126D03*
X005487Y007152D03*
X005487Y007153D03*
D420*
X005483Y007126D03*
X005483Y007125D03*
D421*
X005487Y007153D03*
X005487Y007154D03*
X004818Y007126D03*
X004818Y007125D03*
D422*
X005483Y007126D03*
D423*
X004818Y007127D03*
X004818Y007128D03*
X004818Y007129D03*
D424*
X004818Y007128D03*
X004818Y007127D03*
D425*
X005483Y007129D03*
X005483Y007129D03*
D426*
X005487Y007156D03*
X005487Y007157D03*
X004817Y007130D03*
X004817Y007129D03*
D427*
X005483Y007130D03*
D428*
X005487Y007156D03*
X005487Y007157D03*
X004817Y007131D03*
X004817Y007130D03*
D429*
X004817Y007131D03*
X004817Y007132D03*
X004817Y007133D03*
X005488Y007158D03*
X005488Y007159D03*
D430*
X005488Y007158D03*
X004817Y007132D03*
D431*
X004817Y007133D03*
X004817Y007135D03*
D432*
X005484Y007134D03*
X005484Y007134D03*
D433*
X004817Y007134D03*
X004817Y007134D03*
D434*
X005484Y007135D03*
D435*
X005488Y007161D03*
X005488Y007162D03*
X004817Y007137D03*
X004817Y007136D03*
X004817Y007135D03*
D436*
X004817Y007136D03*
X005488Y007161D03*
X005488Y007162D03*
D437*
X005485Y007138D03*
X005485Y007137D03*
D438*
X004816Y007138D03*
X004816Y007137D03*
D439*
X005485Y007138D03*
D440*
X004816Y007139D03*
X004816Y007138D03*
D441*
X004816Y007139D03*
X004816Y007140D03*
X004816Y007141D03*
X005489Y007164D03*
X005489Y007165D03*
D442*
X005489Y007165D03*
X005489Y007166D03*
X004816Y007141D03*
X004816Y007140D03*
D443*
X004816Y007142D03*
X004816Y007143D03*
X005489Y007166D03*
X005489Y007167D03*
D444*
X005485Y007143D03*
X005485Y007142D03*
D445*
X005489Y007167D03*
X004816Y007143D03*
X004816Y007142D03*
D446*
X005485Y007143D03*
D447*
X004816Y007144D03*
X004816Y007144D03*
X004816Y007145D03*
D448*
X004816Y007145D03*
D449*
X005486Y007146D03*
D450*
X005489Y007170D03*
X005489Y007171D03*
X004815Y007147D03*
X004815Y007146D03*
D451*
X005486Y007147D03*
X005486Y007146D03*
D452*
X005489Y007169D03*
X005489Y007170D03*
X004815Y007147D03*
X004815Y007146D03*
D453*
X004815Y007148D03*
X004815Y007149D03*
X004815Y007149D03*
D454*
X004815Y007148D03*
D455*
X004815Y007150D03*
X004815Y007151D03*
X005490Y007173D03*
D456*
X005490Y007173D03*
X005490Y007174D03*
X005490Y007174D03*
X004815Y007151D03*
X004815Y007150D03*
D457*
X005486Y007151D03*
D458*
X005486Y007151D03*
X005486Y007152D03*
D459*
X005490Y007175D03*
X004815Y007154D03*
X004815Y007153D03*
X004815Y007152D03*
D460*
X004815Y007152D03*
X004815Y007153D03*
X005490Y007175D03*
X005490Y007176D03*
D461*
X005487Y007155D03*
X005487Y007154D03*
D462*
X004814Y007155D03*
X004814Y007154D03*
D463*
X005487Y007155D03*
D464*
X004814Y007156D03*
X004814Y007155D03*
D465*
X004814Y007156D03*
X004814Y007157D03*
X004814Y007158D03*
X005491Y007178D03*
X005491Y007179D03*
X005491Y007179D03*
D466*
X005491Y007178D03*
X004814Y007157D03*
D467*
X004814Y007158D03*
X004814Y007160D03*
D468*
X004814Y007159D03*
X004814Y007159D03*
D469*
X005488Y007160D03*
X005488Y007159D03*
D470*
X005488Y007160D03*
D471*
X005491Y007181D03*
X005491Y007182D03*
X005491Y007183D03*
X004814Y007162D03*
X004814Y007161D03*
X004814Y007160D03*
D472*
X004814Y007161D03*
X005491Y007182D03*
D473*
X005491Y007183D03*
X004813Y007163D03*
X004813Y007162D03*
D474*
X005488Y007163D03*
X005488Y007164D03*
D475*
X005491Y007184D03*
X005491Y007184D03*
X004813Y007164D03*
X004813Y007163D03*
D476*
X005488Y007163D03*
D477*
X004813Y007164D03*
X004813Y007165D03*
X004813Y007166D03*
D478*
X004813Y007166D03*
X004813Y007165D03*
D479*
X004813Y007167D03*
X004813Y007168D03*
X005492Y007186D03*
X005492Y007187D03*
X005492Y007188D03*
D480*
X005492Y007187D03*
X004813Y007168D03*
X004813Y007167D03*
D481*
X005489Y007168D03*
X005489Y007169D03*
D482*
X005489Y007168D03*
D483*
X004813Y007169D03*
X004813Y007169D03*
X004813Y007170D03*
D484*
X004813Y007170D03*
D485*
X004812Y007171D03*
X004812Y007172D03*
X005492Y007190D03*
X005492Y007191D03*
D486*
X005490Y007172D03*
X005490Y007171D03*
D487*
X005492Y007190D03*
X005492Y007191D03*
X004812Y007172D03*
X004812Y007171D03*
D488*
X005490Y007172D03*
D489*
X005493Y007192D03*
X005493Y007193D03*
X004812Y007174D03*
X004812Y007174D03*
X004812Y007173D03*
D490*
X004812Y007173D03*
X005493Y007192D03*
D491*
X004812Y007176D03*
X004812Y007175D03*
D492*
X004812Y007175D03*
X004812Y007176D03*
D493*
X005490Y007177D03*
X005490Y007176D03*
D494*
X005493Y007195D03*
X005493Y007196D03*
X004812Y007179D03*
X004812Y007178D03*
X004812Y007177D03*
D495*
X005490Y007177D03*
D496*
X005493Y007195D03*
X005493Y007196D03*
X004812Y007178D03*
X004812Y007177D03*
D497*
X004811Y007179D03*
X004811Y007180D03*
D498*
X005491Y007181D03*
X005491Y007180D03*
D499*
X004811Y007181D03*
X004811Y007180D03*
D500*
X005491Y007180D03*
D501*
X005494Y007199D03*
X005494Y007199D03*
X004811Y007183D03*
X004811Y007182D03*
X004811Y007181D03*
D502*
X004811Y007182D03*
X005494Y007198D03*
X005494Y007200D03*
D503*
X005494Y007201D03*
X004811Y007185D03*
X004811Y007183D03*
D504*
X004811Y007184D03*
X004811Y007184D03*
X005494Y007200D03*
X005494Y007201D03*
D505*
X005491Y007186D03*
X005491Y007185D03*
D506*
X005491Y007185D03*
D507*
X004811Y007186D03*
X004811Y007187D03*
X004811Y007185D03*
D508*
X004811Y007186D03*
D509*
X004810Y007187D03*
X004810Y007188D03*
X005494Y007203D03*
X005494Y007205D03*
D510*
X005494Y007204D03*
X005494Y007204D03*
X004810Y007189D03*
X004810Y007188D03*
D511*
X005492Y007188D03*
D512*
X005492Y007189D03*
X005492Y007189D03*
D513*
X004810Y007190D03*
X004810Y007189D03*
X004810Y007191D03*
D514*
X004810Y007191D03*
X004810Y007190D03*
D515*
X004810Y007192D03*
X004810Y007193D03*
X005495Y007207D03*
X005495Y007208D03*
D516*
X005495Y007208D03*
X005495Y007207D03*
X004810Y007193D03*
X004810Y007192D03*
D517*
X005493Y007193D03*
D518*
X005493Y007194D03*
X005493Y007194D03*
D519*
X005495Y007209D03*
X005495Y007209D03*
X004810Y007195D03*
X004810Y007194D03*
X004810Y007194D03*
D520*
X004810Y007195D03*
X005495Y007210D03*
D521*
X004809Y007197D03*
X004809Y007196D03*
D522*
X004809Y007196D03*
X004809Y007197D03*
D523*
X005493Y007198D03*
X005493Y007197D03*
D524*
X005493Y007197D03*
D525*
X005496Y007212D03*
X005496Y007213D03*
X004809Y007199D03*
X004809Y007199D03*
X004809Y007198D03*
D526*
X004809Y007198D03*
X005496Y007212D03*
X005496Y007213D03*
D527*
X004809Y007201D03*
X004809Y007200D03*
D528*
X004809Y007200D03*
X004809Y007201D03*
D529*
X005494Y007202D03*
X005494Y007203D03*
D530*
X005496Y007215D03*
X005496Y007216D03*
X005496Y007217D03*
X004809Y007204D03*
X004809Y007203D03*
X004809Y007202D03*
D531*
X005494Y007202D03*
D532*
X005496Y007216D03*
X004809Y007203D03*
X004809Y007202D03*
D533*
X004808Y007204D03*
X004808Y007205D03*
X005496Y007218D03*
D534*
X005496Y007218D03*
X005496Y007217D03*
X004808Y007206D03*
X004808Y007205D03*
D535*
X005495Y007206D03*
X005495Y007205D03*
D536*
X005495Y007206D03*
D537*
X004808Y007207D03*
X004808Y007208D03*
X004808Y007206D03*
D538*
X004808Y007207D03*
D539*
X004808Y007208D03*
X004808Y007210D03*
X005497Y007221D03*
D540*
X005497Y007221D03*
X005497Y007222D03*
X005497Y007220D03*
X004808Y007209D03*
X004808Y007209D03*
D541*
X005495Y007210D03*
X005495Y007211D03*
D542*
X004808Y007212D03*
X004808Y007211D03*
X004808Y007210D03*
D543*
X005495Y007211D03*
D544*
X004808Y007211D03*
D545*
X004807Y007212D03*
X004807Y007213D03*
X005497Y007225D03*
D546*
X005497Y007225D03*
X005497Y007224D03*
X005497Y007224D03*
X004807Y007214D03*
X004807Y007213D03*
D547*
X005496Y007214D03*
X005496Y007214D03*
D548*
X005498Y007226D03*
X005498Y007227D03*
X004807Y007216D03*
X004807Y007215D03*
X004807Y007214D03*
D549*
X005496Y007215D03*
D550*
X005498Y007226D03*
X004807Y007216D03*
X004807Y007215D03*
D551*
X004807Y007217D03*
X004807Y007218D03*
D552*
X004807Y007218D03*
X004807Y007217D03*
D553*
X005496Y007219D03*
X005496Y007219D03*
D554*
X005498Y007229D03*
X005498Y007229D03*
X005498Y007230D03*
X004807Y007220D03*
X004807Y007219D03*
X004807Y007219D03*
D555*
X005496Y007220D03*
D556*
X005498Y007230D03*
X004807Y007220D03*
D557*
X004806Y007221D03*
X004806Y007222D03*
D558*
X004806Y007222D03*
X004806Y007221D03*
D559*
X005497Y007222D03*
X005497Y007223D03*
D560*
X005497Y007223D03*
D561*
X005499Y007233D03*
X005499Y007234D03*
X004806Y007224D03*
X004806Y007224D03*
X004806Y007223D03*
D562*
X004806Y007223D03*
X005499Y007232D03*
X005499Y007233D03*
D563*
X005499Y007235D03*
X004806Y007226D03*
X004806Y007225D03*
D564*
X004806Y007225D03*
X004806Y007226D03*
X005499Y007234D03*
X005499Y007235D03*
D565*
X004806Y007229D03*
X004806Y007228D03*
X004806Y007227D03*
D566*
X005498Y007228D03*
X005498Y007227D03*
D567*
X004806Y007228D03*
X004806Y007227D03*
D568*
X005498Y007228D03*
D569*
X005499Y007238D03*
X005499Y007239D03*
X004805Y007230D03*
X004805Y007229D03*
D570*
X004805Y007230D03*
X004805Y007231D03*
X005499Y007237D03*
X005499Y007238D03*
D571*
X005498Y007231D03*
D572*
X005498Y007231D03*
X005498Y007232D03*
D573*
X004805Y007233D03*
X004805Y007232D03*
X004805Y007231D03*
D574*
X004805Y007232D03*
D575*
X004805Y007233D03*
X004805Y007235D03*
X005500Y007241D03*
X005500Y007242D03*
D576*
X005500Y007242D03*
X005500Y007241D03*
X004805Y007234D03*
X004805Y007234D03*
D577*
X004805Y007235D03*
X004805Y007236D03*
X004805Y007237D03*
X005500Y007243D03*
X005500Y007244D03*
D578*
X005499Y007236D03*
D579*
X005500Y007243D03*
X004805Y007236D03*
D580*
X005499Y007237D03*
X005499Y007236D03*
D581*
X004804Y007237D03*
X004804Y007238D03*
D582*
X004804Y007238D03*
X004804Y007239D03*
D583*
X005500Y007240D03*
X005500Y007239D03*
D584*
X005501Y007246D03*
X005501Y007247D03*
X004804Y007241D03*
X004804Y007240D03*
X004804Y007239D03*
D585*
X005500Y007240D03*
D586*
X005501Y007246D03*
X005501Y007247D03*
X004804Y007241D03*
X004804Y007240D03*
D587*
X004804Y007242D03*
X004804Y007243D03*
D588*
X004804Y007243D03*
X004804Y007242D03*
D589*
X004804Y007244D03*
X004804Y007244D03*
X004804Y007245D03*
X005501Y007249D03*
X005501Y007250D03*
D590*
X005500Y007245D03*
X005500Y007244D03*
D591*
X005500Y007245D03*
D592*
X005501Y007250D03*
X005501Y007251D03*
X004804Y007245D03*
D593*
X004803Y007246D03*
X004803Y007247D03*
X005501Y007252D03*
D594*
X005501Y007252D03*
X005501Y007251D03*
X004803Y007247D03*
X004803Y007246D03*
D595*
X005501Y007248D03*
X005501Y007249D03*
D596*
X004803Y007249D03*
X004803Y007249D03*
X004803Y007248D03*
D597*
X005501Y007248D03*
D598*
X004803Y007248D03*
D599*
X004803Y007250D03*
X004803Y007251D03*
X005502Y007255D03*
X005502Y007256D03*
D600*
X005502Y007255D03*
X005502Y007254D03*
X004803Y007251D03*
X004803Y007250D03*
D601*
X004803Y007252D03*
X004803Y007253D03*
X004803Y007254D03*
D602*
X004803Y007253D03*
X004803Y007252D03*
D603*
X005501Y007253D03*
X005501Y007254D03*
D604*
X005501Y007253D03*
D605*
X005502Y007258D03*
X005502Y007259D03*
X005502Y007259D03*
X004802Y007255D03*
X004802Y007254D03*
D606*
X004802Y007255D03*
X004802Y007256D03*
X005502Y007258D03*
D607*
X005502Y007257D03*
X005502Y007256D03*
D608*
X005503Y007260D03*
X004802Y007258D03*
X004802Y007257D03*
X004802Y007256D03*
D609*
X005502Y007257D03*
D610*
X005503Y007260D03*
X005503Y007261D03*
X004802Y007257D03*
D611*
X004802Y007258D03*
X004802Y007260D03*
D612*
X004802Y007259D03*
X004802Y007259D03*
D613*
X004802Y007260D03*
X004802Y007261D03*
X004802Y007262D03*
X005503Y007263D03*
X005503Y007264D03*
X005503Y007264D03*
D614*
X005503Y007263D03*
X004802Y007261D03*
D615*
X005503Y007262D03*
X005503Y007261D03*
D616*
X005503Y007262D03*
D617*
X004801Y007263D03*
X004801Y007262D03*
D618*
X004801Y007263D03*
X004801Y007264D03*
D619*
X004801Y007264D03*
X004801Y007265D03*
X004801Y007266D03*
X005504Y007267D03*
X005504Y007268D03*
X005504Y007266D03*
D620*
X005503Y007266D03*
X005503Y007265D03*
D621*
X005504Y007267D03*
X004801Y007266D03*
X004801Y007265D03*
D622*
X005503Y007265D03*
D623*
X005504Y007269D03*
X005504Y007269D03*
X004801Y007268D03*
X004801Y007267D03*
D624*
X004801Y007267D03*
X004801Y007268D03*
X005504Y007268D03*
D625*
X004801Y007269D03*
X004801Y007269D03*
X004801Y007270D03*
D626*
X005504Y007271D03*
X005504Y007270D03*
D627*
X004801Y007270D03*
D628*
X005504Y007270D03*
D629*
X005504Y007272D03*
X004800Y007272D03*
X004800Y007271D03*
D630*
X004800Y007271D03*
X004800Y007272D03*
X005504Y007273D03*
X005504Y007272D03*
X005504Y007271D03*
D631*
X004800Y007273D03*
X004800Y007274D03*
X004800Y007274D03*
D632*
X005505Y007273D03*
D633*
X004800Y007273D03*
D634*
X005505Y007274D03*
X005505Y007274D03*
D635*
X005505Y007275D03*
X005505Y007276D03*
X004800Y007276D03*
X004800Y007275D03*
D636*
X004800Y007275D03*
X004800Y007276D03*
X005505Y007276D03*
X005505Y007275D03*
D637*
X005505Y007277D03*
X005505Y007278D03*
X004800Y007279D03*
X004800Y007278D03*
X004800Y007277D03*
D638*
X004800Y007277D03*
X004800Y007278D03*
X005505Y007277D03*
D639*
X005505Y007278D03*
D640*
X005505Y007279D03*
X005505Y007279D03*
D641*
X004799Y007280D03*
X004799Y007279D03*
D642*
X004799Y007282D03*
X005506Y007281D03*
X005506Y007280D03*
D643*
X004799Y007281D03*
X004799Y007280D03*
D644*
X004799Y007281D03*
X004799Y007282D03*
X004799Y007283D03*
X005506Y007281D03*
X005506Y007280D03*
D645*
X005506Y007282D03*
X005506Y007283D03*
D646*
X005506Y007282D03*
D647*
X005506Y007283D03*
X005506Y007285D03*
X004799Y007286D03*
D648*
X004799Y007285D03*
X004799Y007283D03*
D649*
X004799Y007285D03*
X004799Y007286D03*
X004799Y007287D03*
X005506Y007284D03*
X005506Y007284D03*
D650*
X004799Y007284D03*
X004799Y007284D03*
D651*
X004798Y007288D03*
X004798Y007289D03*
X005506Y007286D03*
X005506Y007285D03*
D652*
X005506Y007286D03*
X004798Y007287D03*
X004798Y007288D03*
D653*
X005506Y007288D03*
X005506Y007287D03*
D654*
X005506Y007287D03*
D655*
X005507Y007288D03*
X005507Y007290D03*
X004798Y007292D03*
X004798Y007293D03*
D656*
X004798Y007293D03*
X004798Y007292D03*
X005507Y007289D03*
X005507Y007289D03*
D657*
X004798Y007290D03*
X004798Y007289D03*
X004798Y007291D03*
D658*
X004798Y007291D03*
X004798Y007290D03*
D659*
X005507Y007291D03*
X005507Y007290D03*
D660*
X005507Y007291D03*
D661*
X005507Y007292D03*
X005507Y007293D03*
X004797Y007296D03*
X004797Y007297D03*
D662*
X004797Y007297D03*
X004797Y007296D03*
X005507Y007293D03*
X005507Y007292D03*
D663*
X005508Y007294D03*
X005508Y007294D03*
X004797Y007298D03*
X004797Y007299D03*
X004797Y007299D03*
D664*
X004798Y007295D03*
X004798Y007294D03*
X004798Y007294D03*
D665*
X004797Y007298D03*
X005508Y007295D03*
D666*
X004798Y007295D03*
D667*
X005508Y007296D03*
X005508Y007295D03*
D668*
X005508Y007296D03*
D669*
X005508Y007297D03*
X005508Y007298D03*
X004797Y007302D03*
X004797Y007303D03*
X004797Y007304D03*
D670*
X004797Y007303D03*
X004797Y007302D03*
X005508Y007298D03*
X005508Y007297D03*
D671*
X005508Y007299D03*
X005508Y007299D03*
D672*
X005508Y007300D03*
D673*
X004797Y007301D03*
X004797Y007300D03*
D674*
X004796Y007306D03*
X004796Y007307D03*
X004796Y007308D03*
X005509Y007302D03*
X005509Y007301D03*
X005509Y007300D03*
D675*
X004797Y007301D03*
X004797Y007300D03*
D676*
X004796Y007307D03*
X005509Y007301D03*
D677*
X005509Y007302D03*
X005509Y007303D03*
X004796Y007308D03*
X004796Y007310D03*
D678*
X004796Y007309D03*
X004796Y007309D03*
X005509Y007303D03*
D679*
X005509Y007304D03*
X005509Y007304D03*
D680*
X004796Y007305D03*
X004796Y007304D03*
D681*
X005509Y007305D03*
D682*
X004796Y007306D03*
X004796Y007305D03*
D683*
X004795Y007313D03*
X004795Y007314D03*
X005509Y007307D03*
X005509Y007306D03*
X005509Y007305D03*
D684*
X005509Y007306D03*
X004795Y007312D03*
X004795Y007313D03*
D685*
X005510Y007308D03*
X005510Y007307D03*
D686*
X005510Y007308D03*
D687*
X005510Y007309D03*
X005510Y007309D03*
X005510Y007310D03*
X004795Y007317D03*
X004795Y007318D03*
D688*
X004795Y007318D03*
X004795Y007317D03*
X005510Y007310D03*
D689*
X004796Y007311D03*
X004796Y007312D03*
X004796Y007310D03*
D690*
X004795Y007320D03*
X005510Y007311D03*
D691*
X004796Y007311D03*
D692*
X004795Y007319D03*
X004795Y007319D03*
X004795Y007320D03*
X005510Y007312D03*
X005510Y007311D03*
D693*
X005510Y007312D03*
X005510Y007313D03*
D694*
X005510Y007313D03*
D695*
X005511Y007314D03*
X005511Y007314D03*
X005511Y007315D03*
X004794Y007323D03*
X004794Y007324D03*
X004794Y007324D03*
D696*
X004795Y007316D03*
X004795Y007315D03*
X004795Y007314D03*
D697*
X004794Y007323D03*
X005511Y007315D03*
D698*
X004795Y007316D03*
X004795Y007315D03*
D699*
X005511Y007316D03*
D700*
X005511Y007316D03*
X005511Y007317D03*
D701*
X005511Y007317D03*
X005511Y007318D03*
X004794Y007327D03*
D702*
X004794Y007327D03*
X005511Y007319D03*
X005511Y007318D03*
D703*
X005511Y007319D03*
X005511Y007320D03*
D704*
X005511Y007320D03*
D705*
X005511Y007321D03*
X005511Y007322D03*
D706*
X004794Y007322D03*
X004794Y007321D03*
D707*
X005511Y007322D03*
X005511Y007321D03*
D708*
X004794Y007322D03*
X004794Y007321D03*
D709*
X005512Y007323D03*
X005512Y007324D03*
D710*
X005512Y007323D03*
D711*
X005512Y007324D03*
X005512Y007325D03*
D712*
X005512Y007325D03*
D713*
X004794Y007326D03*
X004794Y007325D03*
D714*
X004794Y007325D03*
X004794Y007326D03*
D715*
X005512Y007327D03*
X005512Y007326D03*
D716*
X005512Y007326D03*
X005512Y007327D03*
D717*
X005456Y007328D03*
X005456Y007329D03*
X005456Y007329D03*
X005456Y007330D03*
X005456Y007331D03*
X005456Y007332D03*
X005456Y007333D03*
X005456Y007334D03*
X005456Y007334D03*
X005456Y007335D03*
X005456Y007336D03*
X005456Y007337D03*
X005456Y007338D03*
X005456Y007339D03*
X005456Y007339D03*
X005456Y007340D03*
X005456Y007341D03*
X005456Y007342D03*
X005456Y007343D03*
X005456Y007344D03*
X005456Y007344D03*
X005456Y007345D03*
X005456Y007346D03*
X005456Y007347D03*
X005456Y007348D03*
X005456Y007349D03*
X005456Y007349D03*
X005456Y007350D03*
X005456Y007351D03*
X005456Y007352D03*
X005456Y007353D03*
D718*
X004848Y007353D03*
X004848Y007352D03*
X004848Y007351D03*
X004848Y007350D03*
X004848Y007349D03*
X004848Y007349D03*
X004848Y007348D03*
X004848Y007347D03*
X004848Y007346D03*
X004848Y007345D03*
X004848Y007344D03*
X004848Y007344D03*
X004848Y007343D03*
X004848Y007342D03*
X004848Y007341D03*
X004848Y007340D03*
X004848Y007339D03*
X004848Y007339D03*
X004848Y007338D03*
X004848Y007337D03*
X004848Y007336D03*
X004848Y007335D03*
X004848Y007334D03*
X004848Y007334D03*
X004848Y007333D03*
X004848Y007332D03*
X004848Y007331D03*
X004848Y007330D03*
X004848Y007329D03*
X004848Y007329D03*
X004848Y007328D03*
D719*
X005456Y007328D03*
X005456Y007330D03*
X005456Y007331D03*
X005456Y007332D03*
X005456Y007333D03*
X005456Y007335D03*
X005456Y007336D03*
X005456Y007337D03*
X005456Y007338D03*
X005456Y007340D03*
X005456Y007341D03*
X005456Y007342D03*
X005456Y007343D03*
X005456Y007345D03*
X005456Y007346D03*
X005456Y007347D03*
X005456Y007348D03*
X005456Y007350D03*
X005456Y007351D03*
X005456Y007352D03*
X005456Y007353D03*
D720*
X004848Y007353D03*
X004848Y007352D03*
X004848Y007351D03*
X004848Y007350D03*
X004848Y007348D03*
X004848Y007347D03*
X004848Y007346D03*
X004848Y007345D03*
X004848Y007343D03*
X004848Y007342D03*
X004848Y007341D03*
X004848Y007340D03*
X004848Y007338D03*
X004848Y007337D03*
X004848Y007336D03*
X004848Y007335D03*
X004848Y007333D03*
X004848Y007332D03*
X004848Y007331D03*
X004848Y007330D03*
X004848Y007328D03*
D721*
X005152Y007354D03*
X005152Y007354D03*
X005152Y007355D03*
X005152Y007356D03*
X005152Y007357D03*
X005152Y007358D03*
X005152Y007359D03*
X005152Y007359D03*
X005152Y007360D03*
X005152Y007361D03*
X005152Y007362D03*
X005152Y007363D03*
X005152Y007364D03*
X005152Y007364D03*
X005152Y007365D03*
X005152Y007366D03*
X005152Y007367D03*
X005152Y007368D03*
X005152Y007369D03*
X005152Y007369D03*
X005152Y007370D03*
X005152Y007371D03*
X005152Y007372D03*
X005152Y007373D03*
X005152Y007374D03*
X005152Y007503D03*
X005152Y007504D03*
X005152Y007504D03*
X005152Y007505D03*
X005152Y007506D03*
X005152Y007507D03*
X005152Y007508D03*
X005152Y007509D03*
X005152Y007509D03*
X005152Y007510D03*
X005152Y007511D03*
X005152Y007512D03*
X005152Y007513D03*
X005152Y007514D03*
X005152Y007514D03*
X005152Y007515D03*
X005152Y007516D03*
X005152Y007517D03*
X005152Y007518D03*
X005152Y007519D03*
X005152Y007519D03*
X005152Y007520D03*
X005152Y007521D03*
X005152Y007522D03*
X005152Y007523D03*
X005152Y007524D03*
X005152Y007524D03*
X005152Y007525D03*
X005152Y007526D03*
X005152Y007527D03*
X005152Y007528D03*
X005152Y007529D03*
X005152Y007529D03*
X005152Y007530D03*
X005152Y007531D03*
X005152Y007532D03*
X005152Y007533D03*
X005152Y007534D03*
X005152Y007534D03*
X005152Y007535D03*
X005152Y007536D03*
X005152Y007537D03*
X005152Y007538D03*
X005152Y007539D03*
D722*
X005152Y007538D03*
X005152Y007537D03*
X005152Y007536D03*
X005152Y007535D03*
X005152Y007533D03*
X005152Y007532D03*
X005152Y007531D03*
X005152Y007530D03*
X005152Y007528D03*
X005152Y007527D03*
X005152Y007526D03*
X005152Y007525D03*
X005152Y007523D03*
X005152Y007522D03*
X005152Y007521D03*
X005152Y007520D03*
X005152Y007518D03*
X005152Y007517D03*
X005152Y007516D03*
X005152Y007515D03*
X005152Y007513D03*
X005152Y007512D03*
X005152Y007511D03*
X005152Y007510D03*
X005152Y007508D03*
X005152Y007507D03*
X005152Y007506D03*
X005152Y007505D03*
X005152Y007503D03*
X005152Y007373D03*
X005152Y007372D03*
X005152Y007371D03*
X005152Y007370D03*
X005152Y007368D03*
X005152Y007367D03*
X005152Y007366D03*
X005152Y007365D03*
X005152Y007363D03*
X005152Y007362D03*
X005152Y007361D03*
X005152Y007360D03*
X005152Y007358D03*
X005152Y007357D03*
X005152Y007356D03*
X005152Y007355D03*
D723*
X005426Y007374D03*
X005426Y007375D03*
X005426Y007376D03*
X005426Y007377D03*
X005426Y007378D03*
X005426Y007379D03*
X005426Y007379D03*
X005426Y007380D03*
X005426Y007381D03*
X005426Y007382D03*
X005426Y007383D03*
X005426Y007384D03*
X005426Y007384D03*
X005426Y007385D03*
X005426Y007386D03*
X005426Y007387D03*
X005426Y007388D03*
X005426Y007389D03*
X005426Y007389D03*
X005426Y007390D03*
X005426Y007391D03*
X005426Y007392D03*
X005426Y007393D03*
X005426Y007394D03*
X005426Y007394D03*
X005426Y007395D03*
X005426Y007396D03*
X005426Y007397D03*
X005426Y007398D03*
X005426Y007399D03*
X005426Y007399D03*
X005426Y007400D03*
X005426Y007401D03*
X005426Y007402D03*
X005426Y007403D03*
X005426Y007404D03*
X005426Y007404D03*
X005426Y007405D03*
X005426Y007406D03*
X005426Y007407D03*
X005426Y007408D03*
X005426Y007409D03*
X005426Y007409D03*
X005426Y007410D03*
X005426Y007411D03*
X005426Y007412D03*
X005426Y007413D03*
X005426Y007414D03*
X005426Y007414D03*
X005426Y007415D03*
X005426Y007416D03*
X005426Y007417D03*
X005426Y007418D03*
X005426Y007419D03*
X005426Y007419D03*
X005426Y007420D03*
X005426Y007421D03*
X005426Y007422D03*
X005426Y007423D03*
X005426Y007424D03*
X005426Y007424D03*
X005426Y007425D03*
X005426Y007426D03*
X005426Y007427D03*
X005426Y007428D03*
X005426Y007429D03*
X005426Y007429D03*
X005426Y007430D03*
X005426Y007431D03*
X005426Y007432D03*
X005426Y007433D03*
X005426Y007434D03*
X005426Y007434D03*
X005426Y007435D03*
X005426Y007436D03*
X005426Y007437D03*
X005426Y007438D03*
X005426Y007439D03*
X005426Y007439D03*
X005426Y007440D03*
X005426Y007441D03*
X005426Y007442D03*
X005426Y007443D03*
X005426Y007444D03*
X005426Y007444D03*
X005426Y007445D03*
X005426Y007446D03*
X005426Y007447D03*
X005426Y007448D03*
X005426Y007449D03*
X005426Y007449D03*
X005426Y007450D03*
X005426Y007451D03*
X005426Y007452D03*
X005426Y007453D03*
X005426Y007454D03*
X005426Y007454D03*
X005426Y007455D03*
X005426Y007456D03*
X005426Y007457D03*
X005426Y007458D03*
X005426Y007459D03*
X005426Y007459D03*
X005426Y007460D03*
X005426Y007461D03*
X005426Y007462D03*
X005426Y007463D03*
X005426Y007464D03*
X005426Y007464D03*
X005426Y007465D03*
X005426Y007466D03*
X005426Y007467D03*
X005426Y007468D03*
X005426Y007469D03*
X005426Y007469D03*
X005426Y007470D03*
X005426Y007471D03*
X005426Y007472D03*
X005426Y007473D03*
X005426Y007474D03*
X005426Y007474D03*
X005426Y007475D03*
X005426Y007476D03*
X005426Y007477D03*
X005426Y007478D03*
X005426Y007479D03*
X005426Y007479D03*
X005426Y007480D03*
X005426Y007481D03*
X005426Y007482D03*
X005426Y007483D03*
X005426Y007484D03*
X005426Y007484D03*
X005426Y007485D03*
X005426Y007486D03*
X005426Y007487D03*
X005426Y007488D03*
X005426Y007489D03*
X005426Y007489D03*
X005426Y007490D03*
X005426Y007491D03*
X005426Y007492D03*
X005426Y007493D03*
X005426Y007494D03*
X005426Y007494D03*
X005426Y007495D03*
X005426Y007496D03*
X005426Y007497D03*
X005426Y007498D03*
X005426Y007499D03*
X005426Y007499D03*
X005426Y007500D03*
X005426Y007501D03*
X005426Y007502D03*
D724*
X004871Y007502D03*
X004871Y007501D03*
X004871Y007500D03*
X004871Y007499D03*
X004871Y007499D03*
X004871Y007498D03*
X004871Y007497D03*
X004871Y007496D03*
X004871Y007495D03*
X004871Y007494D03*
X004871Y007494D03*
X004871Y007493D03*
X004871Y007492D03*
X004871Y007491D03*
X004871Y007490D03*
X004871Y007489D03*
X004871Y007489D03*
X004871Y007488D03*
X004871Y007487D03*
X004871Y007486D03*
X004871Y007485D03*
X004871Y007484D03*
X004871Y007484D03*
X004871Y007483D03*
X004871Y007482D03*
X004871Y007481D03*
X004871Y007480D03*
X004871Y007479D03*
X004871Y007479D03*
X004871Y007478D03*
X004871Y007477D03*
X004871Y007476D03*
X004871Y007475D03*
X004871Y007474D03*
X004871Y007474D03*
X004871Y007473D03*
X004871Y007472D03*
X004871Y007471D03*
X004871Y007470D03*
X004871Y007469D03*
X004871Y007469D03*
X004871Y007468D03*
X004871Y007467D03*
X004871Y007466D03*
X004871Y007465D03*
X004871Y007464D03*
X004871Y007464D03*
X004871Y007463D03*
X004871Y007462D03*
X004871Y007461D03*
X004871Y007460D03*
X004871Y007459D03*
X004871Y007459D03*
X004871Y007458D03*
X004871Y007457D03*
X004871Y007456D03*
X004871Y007455D03*
X004871Y007454D03*
X004871Y007454D03*
X004871Y007453D03*
X004871Y007452D03*
X004871Y007451D03*
X004871Y007450D03*
X004871Y007449D03*
X004871Y007449D03*
X004871Y007448D03*
X004871Y007447D03*
X004871Y007446D03*
X004871Y007445D03*
X004871Y007444D03*
X004871Y007444D03*
X004871Y007443D03*
X004871Y007442D03*
X004871Y007441D03*
X004871Y007440D03*
X004871Y007439D03*
X004871Y007439D03*
X004871Y007438D03*
X004871Y007437D03*
X004871Y007436D03*
X004871Y007435D03*
X004871Y007434D03*
X004871Y007434D03*
X004871Y007433D03*
X004871Y007432D03*
X004871Y007431D03*
X004871Y007430D03*
X004871Y007429D03*
X004871Y007429D03*
X004871Y007428D03*
X004871Y007427D03*
X004871Y007426D03*
X004871Y007425D03*
X004871Y007424D03*
X004871Y007424D03*
X004871Y007423D03*
X004871Y007422D03*
X004871Y007421D03*
X004871Y007420D03*
X004871Y007419D03*
X004871Y007419D03*
X004871Y007418D03*
X004871Y007417D03*
X004871Y007416D03*
X004871Y007415D03*
X004871Y007414D03*
X004871Y007414D03*
X004871Y007413D03*
X004871Y007412D03*
X004871Y007411D03*
X004871Y007410D03*
X004871Y007409D03*
X004871Y007409D03*
X004871Y007408D03*
X004871Y007407D03*
X004871Y007406D03*
X004871Y007405D03*
X004871Y007404D03*
X004871Y007404D03*
X004871Y007403D03*
X004871Y007402D03*
X004871Y007401D03*
X004871Y007400D03*
X004871Y007399D03*
X004871Y007399D03*
X004871Y007398D03*
X004871Y007397D03*
X004871Y007396D03*
X004871Y007395D03*
X004871Y007394D03*
X004871Y007394D03*
X004871Y007393D03*
X004871Y007392D03*
X004871Y007391D03*
X004871Y007390D03*
X004871Y007389D03*
X004871Y007389D03*
X004871Y007388D03*
X004871Y007387D03*
X004871Y007386D03*
X004871Y007385D03*
X004871Y007384D03*
X004871Y007384D03*
X004871Y007383D03*
X004871Y007382D03*
X004871Y007381D03*
X004871Y007380D03*
X004871Y007379D03*
X004871Y007379D03*
X004871Y007378D03*
X004871Y007377D03*
X004871Y007376D03*
X004871Y007375D03*
X004871Y007374D03*
D725*
X005426Y007375D03*
X005426Y007376D03*
X005426Y007377D03*
X005426Y007378D03*
X005426Y007380D03*
X005426Y007381D03*
X005426Y007382D03*
X005426Y007383D03*
X005426Y007385D03*
X005426Y007386D03*
X005426Y007387D03*
X005426Y007388D03*
X005426Y007390D03*
X005426Y007391D03*
X005426Y007392D03*
X005426Y007393D03*
X005426Y007395D03*
X005426Y007396D03*
X005426Y007397D03*
X005426Y007398D03*
X005426Y007400D03*
X005426Y007401D03*
X005426Y007402D03*
X005426Y007403D03*
X005426Y007405D03*
X005426Y007406D03*
X005426Y007407D03*
X005426Y007408D03*
X005426Y007410D03*
X005426Y007411D03*
X005426Y007412D03*
X005426Y007413D03*
X005426Y007415D03*
X005426Y007416D03*
X005426Y007417D03*
X005426Y007418D03*
X005426Y007420D03*
X005426Y007421D03*
X005426Y007422D03*
X005426Y007423D03*
X005426Y007425D03*
X005426Y007426D03*
X005426Y007427D03*
X005426Y007428D03*
X005426Y007430D03*
X005426Y007431D03*
X005426Y007432D03*
X005426Y007433D03*
X005426Y007435D03*
X005426Y007436D03*
X005426Y007437D03*
X005426Y007438D03*
X005426Y007440D03*
X005426Y007441D03*
X005426Y007442D03*
X005426Y007443D03*
X005426Y007445D03*
X005426Y007446D03*
X005426Y007447D03*
X005426Y007448D03*
X005426Y007450D03*
X005426Y007451D03*
X005426Y007452D03*
X005426Y007453D03*
X005426Y007455D03*
X005426Y007456D03*
X005426Y007457D03*
X005426Y007458D03*
X005426Y007460D03*
X005426Y007461D03*
X005426Y007462D03*
X005426Y007463D03*
X005426Y007465D03*
X005426Y007466D03*
X005426Y007467D03*
X005426Y007468D03*
X005426Y007470D03*
X005426Y007471D03*
X005426Y007472D03*
X005426Y007473D03*
X005426Y007475D03*
X005426Y007476D03*
X005426Y007477D03*
X005426Y007478D03*
X005426Y007480D03*
X005426Y007481D03*
X005426Y007482D03*
X005426Y007483D03*
X005426Y007485D03*
X005426Y007486D03*
X005426Y007487D03*
X005426Y007488D03*
X005426Y007490D03*
X005426Y007491D03*
X005426Y007492D03*
X005426Y007493D03*
X005426Y007495D03*
X005426Y007496D03*
X005426Y007497D03*
X005426Y007498D03*
X005426Y007500D03*
X005426Y007501D03*
X005426Y007502D03*
D726*
X004871Y007502D03*
X004871Y007501D03*
X004871Y007500D03*
X004871Y007498D03*
X004871Y007497D03*
X004871Y007496D03*
X004871Y007495D03*
X004871Y007493D03*
X004871Y007492D03*
X004871Y007491D03*
X004871Y007490D03*
X004871Y007488D03*
X004871Y007487D03*
X004871Y007486D03*
X004871Y007485D03*
X004871Y007483D03*
X004871Y007482D03*
X004871Y007481D03*
X004871Y007480D03*
X004871Y007478D03*
X004871Y007477D03*
X004871Y007476D03*
X004871Y007475D03*
X004871Y007473D03*
X004871Y007472D03*
X004871Y007471D03*
X004871Y007470D03*
X004871Y007468D03*
X004871Y007467D03*
X004871Y007466D03*
X004871Y007465D03*
X004871Y007463D03*
X004871Y007462D03*
X004871Y007461D03*
X004871Y007460D03*
X004871Y007458D03*
X004871Y007457D03*
X004871Y007456D03*
X004871Y007455D03*
X004871Y007453D03*
X004871Y007452D03*
X004871Y007451D03*
X004871Y007450D03*
X004871Y007448D03*
X004871Y007447D03*
X004871Y007446D03*
X004871Y007445D03*
X004871Y007443D03*
X004871Y007442D03*
X004871Y007441D03*
X004871Y007440D03*
X004871Y007438D03*
X004871Y007437D03*
X004871Y007436D03*
X004871Y007435D03*
X004871Y007433D03*
X004871Y007432D03*
X004871Y007431D03*
X004871Y007430D03*
X004871Y007428D03*
X004871Y007427D03*
X004871Y007426D03*
X004871Y007425D03*
X004871Y007423D03*
X004871Y007422D03*
X004871Y007421D03*
X004871Y007420D03*
X004871Y007418D03*
X004871Y007417D03*
X004871Y007416D03*
X004871Y007415D03*
X004871Y007413D03*
X004871Y007412D03*
X004871Y007411D03*
X004871Y007410D03*
X004871Y007408D03*
X004871Y007407D03*
X004871Y007406D03*
X004871Y007405D03*
X004871Y007403D03*
X004871Y007402D03*
X004871Y007401D03*
X004871Y007400D03*
X004871Y007398D03*
X004871Y007397D03*
X004871Y007396D03*
X004871Y007395D03*
X004871Y007393D03*
X004871Y007392D03*
X004871Y007391D03*
X004871Y007390D03*
X004871Y007388D03*
X004871Y007387D03*
X004871Y007386D03*
X004871Y007385D03*
X004871Y007383D03*
X004871Y007382D03*
X004871Y007381D03*
X004871Y007380D03*
X004871Y007378D03*
X004871Y007377D03*
X004871Y007376D03*
X004871Y007375D03*
D727*
X005153Y007539D03*
D728*
X005153Y007540D03*
D729*
X005152Y007540D03*
X005152Y007541D03*
X005152Y007542D03*
X005152Y007543D03*
D730*
X005152Y007543D03*
X005152Y007542D03*
X005152Y007541D03*
D731*
X005152Y007544D03*
D732*
X005152Y007544D03*
X005152Y007545D03*
X005152Y007546D03*
D733*
X005152Y007546D03*
X005152Y007545D03*
D734*
X005152Y007547D03*
D735*
X005152Y007547D03*
D736*
X005152Y007548D03*
X005152Y007549D03*
X005152Y007549D03*
D737*
X005152Y007548D03*
D738*
X005152Y007550D03*
D739*
X005152Y007550D03*
D740*
X005152Y007551D03*
D741*
X005152Y007551D03*
X005152Y007552D03*
D742*
X005152Y007552D03*
D743*
X005152Y007553D03*
D744*
X005152Y007553D03*
D745*
X005152Y007554D03*
X005152Y007554D03*
D746*
X005152Y007555D03*
D747*
X005152Y007555D03*
D748*
X005152Y007556D03*
D749*
X005152Y007556D03*
X005152Y007557D03*
D750*
X005152Y007557D03*
D751*
X005152Y007558D03*
X005152Y007559D03*
X005152Y007559D03*
D752*
X005152Y007558D03*
D753*
X005152Y007560D03*
X005152Y007561D03*
D754*
X005152Y007561D03*
X005152Y007560D03*
D755*
X005152Y007562D03*
X005152Y007563D03*
D756*
X005152Y007563D03*
X005152Y007562D03*
D757*
X005152Y007564D03*
X005152Y007564D03*
X005152Y007565D03*
D758*
X005152Y007565D03*
D759*
X005152Y007566D03*
X005152Y007567D03*
D760*
X005152Y007567D03*
X005152Y007566D03*
D761*
X005152Y007568D03*
X005152Y007569D03*
D762*
X005152Y007568D03*
D763*
X005153Y007569D03*
D764*
X005152Y007570D03*
D765*
X005152Y007570D03*
D766*
X005153Y007571D03*
D767*
X005152Y007571D03*
X005152Y007572D03*
D768*
X005152Y007572D03*
D769*
X005153Y007573D03*
D770*
X005152Y007573D03*
D771*
X005152Y007574D03*
D772*
X005153Y007574D03*
D773*
X005152Y007575D03*
D774*
X005152Y007575D03*
D775*
X005153Y007576D03*
D776*
X005152Y007576D03*
X005152Y007577D03*
D777*
X005153Y007577D03*
D778*
X005152Y007578D03*
D779*
X005153Y007578D03*
D780*
X005152Y007579D03*
X005152Y007579D03*
D781*
X005153Y007580D03*
D782*
X005152Y007580D03*
D783*
X005152Y007581D03*
D784*
X005153Y007581D03*
D785*
X005152Y007582D03*
D786*
X005153Y007582D03*
D787*
X005152Y007583D03*
D788*
X005152Y007583D03*
D789*
X005153Y007584D03*
D790*
X005152Y007584D03*
D791*
X005153Y007585D03*
D792*
X005153Y007585D03*
D793*
X005153Y007586D03*
D794*
X005152Y007586D03*
D795*
X005152Y007587D03*
D796*
X005152Y007587D03*
D797*
X005152Y007588D03*
D798*
X005152Y007588D03*
D799*
X005152Y007589D03*
D800*
X005152Y007589D03*
D801*
X005152Y007590D03*
D802*
X005152Y007590D03*
D803*
X005152Y007591D03*
D804*
X005152Y007591D03*
D805*
X005152Y007592D03*
D806*
X005152Y007592D03*
D807*
X005152Y007593D03*
D808*
X005152Y007593D03*
D809*
X005152Y007594D03*
D810*
X005152Y007594D03*
D811*
X005152Y007595D03*
D812*
X005152Y007595D03*
D813*
X005152Y007596D03*
D814*
X005152Y007596D03*
D815*
X005152Y007597D03*
D816*
X005152Y007597D03*
D817*
X005152Y007598D03*
D818*
X005152Y007598D03*
D819*
X005152Y007599D03*
D820*
X005152Y007599D03*
D821*
X005152Y007600D03*
D822*
X005152Y007600D03*
D823*
X005152Y007601D03*
D824*
X005152Y007601D03*
D825*
X005152Y007602D03*
D826*
X005153Y007602D03*
D827*
X005153Y007603D03*
D828*
X005153Y007603D03*
D829*
X005153Y007604D03*
D830*
X005153Y007604D03*
D831*
X005153Y007605D03*
D832*
X005153Y007605D03*
D833*
X005153Y007606D03*
D834*
X005153Y007606D03*
D835*
X005153Y007607D03*
D836*
X005153Y007607D03*
D837*
X005153Y007608D03*
D838*
X005153Y007608D03*
D839*
X005153Y007609D03*
D840*
X005153Y007609D03*
D841*
X005153Y007610D03*
D842*
X005153Y007610D03*
D843*
X005152Y007611D03*
D844*
X005152Y007611D03*
D845*
X005152Y007612D03*
D846*
X005152Y007612D03*
D847*
X005152Y007613D03*
D848*
X005152Y007613D03*
D849*
X005152Y007614D03*
D850*
X005152Y007614D03*
D851*
X005152Y007615D03*
D852*
X005152Y007615D03*
D853*
X005152Y007616D03*
D854*
X005152Y007616D03*
D855*
X005152Y007617D03*
D856*
X005152Y007617D03*
D857*
X005152Y007618D03*
D858*
X005152Y007618D03*
D859*
X005152Y007619D03*
D860*
X005152Y007619D03*
D861*
X005152Y007620D03*
D862*
X005152Y007620D03*
D863*
X005152Y007621D03*
D864*
X005152Y007621D03*
D865*
X005152Y007622D03*
D866*
X005152Y007622D03*
D867*
X005152Y007623D03*
D868*
X005152Y007623D03*
D869*
X005152Y007624D03*
D870*
X005152Y007624D03*
D871*
X005152Y007625D03*
D872*
X005152Y007625D03*
D873*
X005152Y007626D03*
D874*
X005152Y007626D03*
D875*
X005153Y007627D03*
D876*
X005153Y007627D03*
D877*
X005153Y007628D03*
D878*
X005153Y007628D03*
D879*
X005153Y007629D03*
D880*
X005153Y007629D03*
D881*
X005153Y007630D03*
D882*
X005153Y007630D03*
D883*
X005153Y007631D03*
D884*
X005153Y007631D03*
D885*
X005153Y007632D03*
D886*
X005153Y007632D03*
D887*
X005153Y007633D03*
D888*
X005153Y007633D03*
D889*
X005153Y007634D03*
D890*
X005153Y007634D03*
D891*
X005153Y007635D03*
D892*
X005152Y007635D03*
D893*
X005152Y007636D03*
D894*
X005152Y007636D03*
D895*
X005152Y007637D03*
D896*
X005152Y007637D03*
D897*
X005152Y007638D03*
D898*
X005152Y007638D03*
D899*
X005152Y007639D03*
D900*
X005152Y007639D03*
D901*
X005152Y007640D03*
D902*
X005152Y007640D03*
D903*
X005152Y007641D03*
D904*
X005152Y007641D03*
D905*
X005152Y007642D03*
D906*
X005152Y007642D03*
D907*
X005152Y007643D03*
D908*
X005152Y007643D03*
D909*
X005152Y007644D03*
D910*
X005152Y007644D03*
D911*
X005152Y007645D03*
D912*
X005152Y007645D03*
D913*
X005152Y007646D03*
D914*
X005152Y007646D03*
D915*
X005152Y007647D03*
D916*
X005152Y007647D03*
D917*
X005152Y007648D03*
D918*
X005152Y007648D03*
D919*
X005152Y007649D03*
D920*
X005152Y007649D03*
D921*
X005152Y007650D03*
D922*
X005152Y007650D03*
D923*
X005152Y007651D03*
D924*
X005152Y007651D03*
D925*
X005153Y007652D03*
D926*
X005153Y007652D03*
D927*
X005153Y007653D03*
D928*
X005153Y007653D03*
D929*
X005153Y007654D03*
D930*
X005153Y007654D03*
D931*
X005153Y007655D03*
D932*
X005153Y007655D03*
D933*
X005153Y007656D03*
D934*
X005153Y007656D03*
D935*
X005153Y007657D03*
D936*
X005153Y007657D03*
D937*
X005153Y007658D03*
D938*
X005153Y007658D03*
D939*
X005153Y007659D03*
D940*
X005152Y007659D03*
D941*
X005152Y007660D03*
D942*
X005152Y007660D03*
D943*
X005152Y007661D03*
D944*
X005152Y007661D03*
D945*
X005152Y007662D03*
D946*
X005152Y007662D03*
D947*
X005152Y007663D03*
D948*
X005152Y007663D03*
D949*
X005152Y007664D03*
D950*
X005152Y007664D03*
D951*
X005152Y007665D03*
D952*
X005152Y007665D03*
D953*
X005152Y007666D03*
D954*
X005152Y007666D03*
D955*
X005152Y007667D03*
D956*
X005152Y007667D03*
D957*
X005152Y007668D03*
D958*
X005152Y007668D03*
D959*
X005152Y007669D03*
D960*
X005152Y007669D03*
D961*
X005152Y007670D03*
D962*
X005152Y007670D03*
D963*
X005152Y007671D03*
D964*
X005152Y007671D03*
D965*
X005152Y007672D03*
D966*
X005152Y007672D03*
D967*
X005152Y007673D03*
D968*
X005152Y007673D03*
D969*
X005152Y007674D03*
D970*
X005152Y007674D03*
D971*
X005152Y007675D03*
D972*
X005152Y007675D03*
D973*
X005152Y007676D03*
D974*
X005153Y007676D03*
D975*
X005153Y007677D03*
D976*
X005153Y007677D03*
D977*
X005153Y007678D03*
D978*
X005153Y007678D03*
D979*
X005153Y007679D03*
D980*
X005153Y007679D03*
D981*
X005153Y007680D03*
D982*
X005153Y007680D03*
D983*
X005153Y007681D03*
D984*
X005153Y007681D03*
D985*
X005153Y007682D03*
D986*
X005153Y007682D03*
D987*
X005153Y007683D03*
D988*
X005153Y007683D03*
D989*
X005152Y007684D03*
D990*
X005152Y007684D03*
D991*
X005152Y007685D03*
D992*
X005152Y007685D03*
D993*
X005152Y007686D03*
D994*
X005152Y007686D03*
D995*
X005152Y007687D03*
D996*
X005152Y007687D03*
D997*
X005152Y007688D03*
D998*
X005152Y007688D03*
D999*
X005152Y007689D03*
D1000*
X005152Y007689D03*
D1001*
X005152Y007690D03*
D1002*
X005152Y007690D03*
D1003*
X005152Y007691D03*
D1004*
X005152Y007691D03*
D1005*
X005152Y007692D03*
D1006*
X005152Y007692D03*
D1007*
X005152Y007693D03*
D1008*
X005152Y007693D03*
D1009*
X005152Y007694D03*
D1010*
X005152Y007694D03*
D1011*
X005152Y007695D03*
D1012*
X005152Y007695D03*
D1013*
X005152Y007696D03*
D1014*
X005152Y007696D03*
D1015*
X005152Y007697D03*
D1016*
X005152Y007697D03*
D1017*
X005152Y007698D03*
D1018*
X005152Y007698D03*
D1019*
X005152Y007699D03*
D1020*
X005152Y007699D03*
D1021*
X005152Y007700D03*
D1022*
X005152Y007700D03*
D1023*
X005153Y007701D03*
D1024*
X005153Y007701D03*
D1025*
X005153Y007702D03*
D1026*
X005153Y007702D03*
D1027*
X005153Y007703D03*
D1028*
X005153Y007703D03*
D1029*
X005153Y007704D03*
D1030*
X005153Y007704D03*
D1031*
X005153Y007705D03*
D1032*
X005153Y007705D03*
D1033*
X005153Y007706D03*
D1034*
X005153Y007706D03*
D1035*
X005153Y007707D03*
D1036*
X005153Y007707D03*
D1037*
X005153Y007708D03*
D1038*
X005152Y007708D03*
D1039*
X005152Y007709D03*
D1040*
X005152Y007709D03*
D1041*
X005152Y007710D03*
D1042*
X005152Y007710D03*
D1043*
X005152Y007711D03*
D1044*
X005152Y007711D03*
D1045*
X005152Y007712D03*
D1046*
X005152Y007712D03*
D1047*
X005152Y007713D03*
D1048*
X005152Y007713D03*
D1049*
X005152Y007714D03*
D1050*
X005152Y007714D03*
D1051*
X005152Y007715D03*
D1052*
X005152Y007715D03*
D1053*
X005152Y007716D03*
D1054*
X005152Y007716D03*
D1055*
X005152Y007717D03*
D1056*
X005152Y007717D03*
D1057*
X005152Y007718D03*
D1058*
X005152Y007718D03*
D1059*
X005152Y007719D03*
D1060*
X005153Y007719D03*
D1061*
X005152Y007720D03*
D1062*
X005152Y007720D03*
D1063*
X005152Y007721D03*
D1064*
X005152Y007721D03*
D1065*
X005152Y007722D03*
D1066*
X005153Y007722D03*
D1067*
X005153Y007723D03*
D1068*
X005153Y007723D03*
D1069*
X005153Y007724D03*
D1070*
X005153Y007724D03*
D1071*
X005153Y007725D03*
D1072*
X005153Y007725D03*
D1073*
X005153Y007726D03*
D1074*
X005153Y007726D03*
D1075*
X005153Y007727D03*
D1076*
X005153Y007727D03*
D1077*
X005153Y007728D03*
D1078*
X005153Y007728D03*
D1079*
X005153Y007729D03*
D1080*
X005153Y007729D03*
D1081*
X005656Y006676D02*
X005655Y006676D01*
X005655Y006675D01*
X005656Y006675D01*
X005656Y006675D01*
X005656Y006676D01*
X005656Y006676D01*
X005656Y006675D01*
X005657Y006676D02*
X005656Y006676D01*
X005657Y006676D02*
X005657Y006676D01*
X005657Y006676D01*
X005657Y006675D01*
X005657Y006676D01*
X005657Y006676D01*
X005657Y006676D01*
X005657Y006675D01*
X005657Y006675D01*
X005658Y006675D01*
X005658Y006676D01*
X005657Y006676D01*
X005658Y006675D02*
X005658Y006675D01*
X005658Y006675D01*
X005658Y006675D01*
X005658Y006675D01*
X005659Y006675D02*
X005659Y006676D01*
X005659Y006676D01*
X005659Y006676D01*
X005659Y006676D01*
X005659Y006675D01*
X005659Y006675D01*
X005659Y006675D01*
X005659Y006675D01*
X005660Y006675D02*
X005660Y006675D01*
X005660Y006675D01*
X005660Y006675D01*
X005660Y006676D01*
X005660Y006676D01*
X005660Y006676D01*
X005660Y006675D01*
X005660Y006675D01*
X005661Y006675D02*
X005661Y006676D01*
X005661Y006676D01*
X005661Y006676D01*
X005661Y006676D01*
X005661Y006675D01*
X005661Y006675D01*
X005661Y006675D01*
X005661Y006675D01*
X005662Y006675D01*
X005663Y006675D01*
X005663Y006675D01*
X005663Y006676D01*
X005663Y006676D01*
X005663Y006676D01*
X005664Y006676D02*
X005664Y006675D01*
X005664Y006675D01*
X005664Y006675D01*
X005664Y006675D01*
X005664Y006675D01*
X005664Y006676D02*
X005664Y006676D01*
X005664Y006676D01*
X005665Y006675D02*
X005665Y006676D01*
X005666Y006676D01*
X005666Y006676D01*
X005666Y006676D01*
X005667Y006676D01*
X005667Y006676D01*
X005668Y006676D01*
X005668Y006676D01*
X005668Y006676D01*
X005668Y006675D01*
X005667Y006675D01*
X005666Y006675D01*
X005666Y006675D01*
X005666Y006675D01*
X005666Y006676D01*
X005665Y006675D02*
X005665Y006676D01*
X005666Y006675D02*
X005665Y006675D01*
X005667Y006675D02*
X005667Y006675D01*
X005667Y006676D01*
X005667Y006675D02*
X005668Y006675D01*
X005669Y006675D01*
X005669Y006676D01*
X005669Y006675D01*
X005668Y006676D02*
X005668Y006675D01*
X005667Y006675D02*
X005667Y006675D01*
X005667Y006675D01*
X005668Y006676D02*
X005669Y006676D01*
X005670Y006675D02*
X005670Y006676D01*
X005671Y006676D02*
X005671Y006675D01*
X005671Y006675D01*
X005671Y006675D01*
X005671Y006676D01*
X005671Y006676D01*
X005671Y006676D01*
X005671Y006676D01*
X005671Y006675D02*
X005671Y006675D01*
X005672Y006676D02*
X005672Y006675D01*
X005672Y006676D01*
X005672Y006676D01*
X005672Y006676D01*
X005672Y006675D01*
X005672Y006676D01*
X005672Y006676D01*
X005672Y006676D01*
X005673Y006676D01*
X005673Y006676D01*
X005673Y006676D01*
X005673Y006675D01*
X005673Y006675D01*
X005673Y006675D01*
X005672Y006675D01*
X005673Y006676D02*
X005673Y006675D01*
X005674Y006676D02*
X005673Y006676D01*
X005674Y006676D02*
X005674Y006676D01*
X005674Y006675D01*
X005674Y006676D02*
X005674Y006676D01*
X005675Y006675D01*
X005662Y006676D02*
X005662Y006676D01*
X005662Y006675D01*
M02*
