G75*
%MOIN*%
%OFA0B0*%
%FSLAX24Y24*%
%IPPOS*%
%LPD*%
%AMOC8*
5,1,8,0,0,1.08239X$1,22.5*
%
%ADD10C,0.0472*%
%ADD11C,0.0787*%
%ADD12C,0.0800*%
%ADD13R,0.0800X0.0800*%
%ADD14C,0.0740*%
%ADD15C,0.0100*%
%ADD16C,0.0400*%
%ADD17C,0.0350*%
%ADD18C,0.0160*%
%ADD19C,0.0120*%
D10*
X003170Y002330D03*
X005080Y002330D03*
D11*
X005546Y001228D03*
X002704Y001228D03*
D12*
X008525Y008197D03*
D13*
X008525Y006819D03*
D14*
X007475Y009978D03*
X006475Y009978D03*
X005475Y009978D03*
X003975Y009978D03*
X002975Y009978D03*
X000975Y008128D03*
X000975Y007128D03*
X000975Y006128D03*
X000975Y004128D03*
X000975Y003128D03*
D15*
X001920Y000913D02*
X001770Y000763D01*
X002458Y000763D01*
X002407Y000784D01*
X002260Y000931D01*
X002180Y001123D01*
X002180Y001332D01*
X002260Y001524D01*
X002407Y001672D01*
X002600Y001751D01*
X002808Y001751D01*
X003000Y001672D01*
X003148Y001524D01*
X003227Y001332D01*
X003227Y001123D01*
X003148Y000931D01*
X003000Y000784D01*
X002950Y000763D01*
X005300Y000763D01*
X005250Y000784D01*
X005102Y000931D01*
X005023Y001123D01*
X005023Y001332D01*
X005102Y001524D01*
X005250Y001672D01*
X005442Y001751D01*
X005650Y001751D01*
X005843Y001672D01*
X005990Y001524D01*
X006070Y001332D01*
X006070Y001123D01*
X005990Y000931D01*
X005843Y000784D01*
X005792Y000763D01*
X009725Y000763D01*
X009755Y000766D01*
X009806Y000796D01*
X009836Y000848D01*
X009840Y000878D01*
X009840Y009183D01*
X009689Y009032D01*
X009689Y009032D01*
X009388Y008908D01*
X009062Y008908D01*
X008761Y009032D01*
X008761Y009032D01*
X008530Y009263D01*
X008530Y009263D01*
X008405Y009564D01*
X008405Y009891D01*
X008530Y010192D01*
X008530Y010192D01*
X008680Y010343D01*
X007817Y010343D01*
X007899Y010261D01*
X007975Y010077D01*
X007975Y009878D01*
X007899Y009694D01*
X007758Y009554D01*
X007574Y009478D01*
X007376Y009478D01*
X007192Y009554D01*
X007051Y009694D01*
X006975Y009878D01*
X006975Y010077D01*
X007051Y010261D01*
X007133Y010343D01*
X006817Y010343D01*
X006899Y010261D01*
X006975Y010077D01*
X006975Y009878D01*
X006899Y009694D01*
X006877Y009672D01*
X007412Y009138D01*
X007535Y009015D01*
X007535Y007784D01*
X007605Y007714D01*
X007655Y007593D01*
X007655Y007526D01*
X007785Y007656D01*
X007896Y007768D01*
X008180Y007768D01*
X008167Y007777D01*
X008105Y007838D01*
X008055Y007908D01*
X008015Y007985D01*
X007989Y008068D01*
X007976Y008147D01*
X008475Y008147D01*
X008475Y008247D01*
X008475Y008745D01*
X008396Y008733D01*
X008314Y008706D01*
X008237Y008667D01*
X008167Y008616D01*
X008105Y008555D01*
X008055Y008485D01*
X008015Y008408D01*
X007989Y008325D01*
X007976Y008247D01*
X008475Y008247D01*
X008575Y008247D01*
X008575Y008745D01*
X008654Y008733D01*
X008736Y008706D01*
X008813Y008667D01*
X008883Y008616D01*
X008945Y008555D01*
X008995Y008485D01*
X009035Y008408D01*
X009061Y008325D01*
X009074Y008247D01*
X008575Y008247D01*
X008575Y008147D01*
X009074Y008147D01*
X009061Y008068D01*
X009035Y007985D01*
X008995Y007908D01*
X008945Y007838D01*
X008883Y007777D01*
X008870Y007768D01*
X009354Y007768D01*
X009504Y007618D01*
X009615Y007506D01*
X009615Y007154D01*
X009705Y007064D01*
X009755Y006943D01*
X009755Y006812D01*
X009705Y006691D01*
X009612Y006598D01*
X009491Y006548D01*
X009359Y006548D01*
X009238Y006598D01*
X009145Y006691D01*
X009095Y006812D01*
X009095Y006943D01*
X009145Y007064D01*
X009235Y007154D01*
X009235Y007349D01*
X009196Y007388D01*
X008054Y007388D01*
X008015Y007349D01*
X008015Y007292D01*
X008071Y007349D01*
X008979Y007349D01*
X009055Y007272D01*
X009055Y006365D01*
X008979Y006289D01*
X008735Y006289D01*
X008735Y003491D01*
X008535Y003291D01*
X008412Y003168D01*
X006782Y003168D01*
X006712Y003098D01*
X006591Y003048D01*
X006459Y003048D01*
X006338Y003098D01*
X006245Y003191D01*
X006195Y003312D01*
X006195Y003443D01*
X006245Y003564D01*
X006338Y003657D01*
X006459Y003708D01*
X006591Y003708D01*
X006712Y003657D01*
X006782Y003588D01*
X008238Y003588D01*
X008315Y003665D01*
X008315Y006289D01*
X008071Y006289D01*
X007995Y006365D01*
X007995Y007129D01*
X007904Y007038D01*
X007754Y006888D01*
X003616Y006888D01*
X003548Y006819D01*
X003436Y006773D01*
X003314Y006773D01*
X003202Y006819D01*
X003116Y006905D01*
X003070Y007017D01*
X003070Y007138D01*
X003116Y007250D01*
X003202Y007336D01*
X003314Y007383D01*
X003436Y007383D01*
X003548Y007336D01*
X003616Y007268D01*
X007118Y007268D01*
X007045Y007341D01*
X006995Y007462D01*
X006995Y007593D01*
X007045Y007714D01*
X007115Y007784D01*
X007115Y008841D01*
X006478Y009478D01*
X006376Y009478D01*
X006192Y009554D01*
X006051Y009694D01*
X005975Y009878D01*
X005975Y010077D01*
X006051Y010261D01*
X006133Y010343D01*
X005817Y010343D01*
X005899Y010261D01*
X005975Y010077D01*
X005975Y009878D01*
X005899Y009694D01*
X005758Y009554D01*
X005574Y009478D01*
X005376Y009478D01*
X005192Y009554D01*
X005051Y009694D01*
X004975Y009878D01*
X004975Y010077D01*
X005051Y010261D01*
X005133Y010343D01*
X004317Y010343D01*
X004399Y010261D01*
X004475Y010077D01*
X004475Y009878D01*
X004399Y009694D01*
X004258Y009554D01*
X004074Y009478D01*
X003876Y009478D01*
X003692Y009554D01*
X003551Y009694D01*
X003475Y009878D01*
X003475Y010077D01*
X003551Y010261D01*
X003633Y010343D01*
X003317Y010343D01*
X003399Y010261D01*
X003475Y010077D01*
X003475Y009878D01*
X003399Y009694D01*
X003258Y009554D01*
X003155Y009511D01*
X003155Y007989D01*
X003202Y008036D01*
X003314Y008083D01*
X003436Y008083D01*
X003548Y008036D01*
X003634Y007950D01*
X003680Y007838D01*
X003680Y007717D01*
X003634Y007605D01*
X003548Y007519D01*
X003436Y007473D01*
X003314Y007473D01*
X003202Y007519D01*
X003124Y007598D01*
X002950Y007598D01*
X002900Y007648D01*
X002900Y007648D01*
X002795Y007753D01*
X002795Y009511D01*
X002692Y009554D01*
X002551Y009694D01*
X002475Y009878D01*
X002475Y010077D01*
X002551Y010261D01*
X002633Y010343D01*
X001770Y010343D01*
X001920Y010192D01*
X001920Y010192D01*
X002045Y009891D01*
X002045Y009564D01*
X001920Y009263D01*
X001920Y009263D01*
X001689Y009032D01*
X001689Y009032D01*
X001388Y008908D01*
X001062Y008908D01*
X000761Y009032D01*
X000761Y009032D01*
X000610Y009183D01*
X000610Y008470D01*
X000692Y008551D01*
X000876Y008628D01*
X001074Y008628D01*
X001258Y008551D01*
X001399Y008411D01*
X001475Y008227D01*
X001475Y008028D01*
X001399Y007844D01*
X001258Y007704D01*
X001074Y007628D01*
X000876Y007628D01*
X000692Y007704D01*
X000610Y007785D01*
X000610Y007470D01*
X000692Y007551D01*
X000876Y007628D01*
X001074Y007628D01*
X001258Y007551D01*
X001399Y007411D01*
X001475Y007227D01*
X001475Y007028D01*
X001399Y006844D01*
X001258Y006704D01*
X001093Y006635D01*
X001097Y006635D01*
X001175Y006609D01*
X001248Y006572D01*
X001314Y006524D01*
X001372Y006466D01*
X001420Y006400D01*
X001457Y006327D01*
X001482Y006249D01*
X001494Y006178D01*
X001025Y006178D01*
X001025Y006078D01*
X001494Y006078D01*
X001482Y006006D01*
X001457Y005928D01*
X001420Y005855D01*
X001372Y005789D01*
X001314Y005731D01*
X001248Y005683D01*
X001175Y005646D01*
X001097Y005620D01*
X001025Y005609D01*
X001025Y006078D01*
X000925Y006078D01*
X000925Y005609D01*
X000853Y005620D01*
X000775Y005646D01*
X000702Y005683D01*
X000636Y005731D01*
X000610Y005757D01*
X000610Y004470D01*
X000692Y004551D01*
X000876Y004628D01*
X001074Y004628D01*
X001258Y004551D01*
X001399Y004411D01*
X001475Y004227D01*
X001475Y004028D01*
X001399Y003844D01*
X001258Y003704D01*
X001074Y003628D01*
X000876Y003628D01*
X000692Y003704D01*
X000610Y003785D01*
X000610Y003470D01*
X000692Y003551D01*
X000876Y003628D01*
X001074Y003628D01*
X001258Y003551D01*
X001399Y003411D01*
X001475Y003227D01*
X001475Y003028D01*
X001399Y002844D01*
X001258Y002704D01*
X001074Y002628D01*
X000876Y002628D01*
X000692Y002704D01*
X000610Y002785D01*
X000610Y001922D01*
X000761Y002073D01*
X000761Y002073D01*
X001062Y002198D01*
X001388Y002198D01*
X001689Y002073D01*
X001689Y002073D01*
X001920Y001842D01*
X001920Y001842D01*
X002045Y001541D01*
X002045Y001214D01*
X001920Y000913D01*
X001920Y000913D01*
X001924Y000923D02*
X002268Y000923D01*
X002222Y001022D02*
X001965Y001022D01*
X002006Y001120D02*
X002181Y001120D01*
X002180Y001219D02*
X002045Y001219D01*
X002045Y001317D02*
X002180Y001317D01*
X002215Y001416D02*
X002045Y001416D01*
X002045Y001514D02*
X002256Y001514D01*
X002348Y001613D02*
X002015Y001613D01*
X001974Y001711D02*
X002503Y001711D01*
X002905Y001711D02*
X005345Y001711D01*
X005191Y001613D02*
X003059Y001613D01*
X003152Y001514D02*
X005098Y001514D01*
X005057Y001416D02*
X003193Y001416D01*
X003227Y001317D02*
X005023Y001317D01*
X005023Y001219D02*
X003227Y001219D01*
X003226Y001120D02*
X005024Y001120D01*
X005065Y001022D02*
X003185Y001022D01*
X003140Y000923D02*
X005110Y000923D01*
X005209Y000825D02*
X003041Y000825D01*
X002366Y000825D02*
X001832Y000825D01*
X001934Y001810D02*
X009840Y001810D01*
X009840Y001908D02*
X001854Y001908D01*
X001756Y002007D02*
X002994Y002007D01*
X002963Y002019D02*
X003097Y001964D01*
X003243Y001964D01*
X003378Y002019D01*
X003481Y002122D01*
X003536Y002257D01*
X003536Y002403D01*
X003494Y002504D01*
X003578Y002539D01*
X003664Y002625D01*
X003710Y002737D01*
X003710Y002858D01*
X003673Y002948D01*
X004274Y002948D01*
X004352Y002869D01*
X004464Y002823D01*
X004586Y002823D01*
X004698Y002869D01*
X004784Y002955D01*
X004830Y003067D01*
X004830Y003188D01*
X004784Y003300D01*
X004698Y003386D01*
X004586Y003433D01*
X004464Y003433D01*
X004352Y003386D01*
X004274Y003308D01*
X003482Y003308D01*
X003414Y003313D01*
X003408Y003308D01*
X003400Y003308D01*
X003353Y003260D01*
X003338Y003248D01*
X003330Y003248D01*
X003283Y003200D01*
X003231Y003156D01*
X003231Y003148D01*
X003225Y003142D01*
X003225Y003074D01*
X003223Y003047D01*
X003146Y002970D01*
X003100Y002858D01*
X003100Y002737D01*
X003117Y002696D01*
X003097Y002696D01*
X001240Y002696D01*
X001349Y002795D02*
X003100Y002795D01*
X003097Y002696D02*
X002963Y002640D01*
X002860Y002537D01*
X002804Y002403D01*
X002804Y002257D01*
X002860Y002122D01*
X002963Y002019D01*
X002877Y002105D02*
X001611Y002105D01*
X000839Y002105D02*
X000610Y002105D01*
X000610Y002007D02*
X000694Y002007D01*
X000610Y002204D02*
X002826Y002204D01*
X002804Y002302D02*
X000610Y002302D01*
X000610Y002401D02*
X002804Y002401D01*
X002844Y002499D02*
X000610Y002499D01*
X000610Y002598D02*
X002920Y002598D01*
X003114Y002893D02*
X001419Y002893D01*
X001460Y002992D02*
X003168Y002992D01*
X003225Y003090D02*
X001475Y003090D01*
X001475Y003189D02*
X003270Y003189D01*
X003380Y003287D02*
X001450Y003287D01*
X001409Y003386D02*
X004352Y003386D01*
X004525Y003128D02*
X003475Y003128D01*
X003405Y003068D01*
X003405Y002798D01*
X003636Y002598D02*
X004829Y002598D01*
X004872Y002640D02*
X004769Y002537D01*
X004714Y002403D01*
X004714Y002257D01*
X004769Y002122D01*
X004872Y002019D01*
X005007Y001964D01*
X005153Y001964D01*
X005287Y002019D01*
X005390Y002122D01*
X005446Y002257D01*
X005446Y002403D01*
X005390Y002537D01*
X005287Y002640D01*
X005153Y002696D01*
X009840Y002696D01*
X009840Y002598D02*
X005330Y002598D01*
X005406Y002499D02*
X009840Y002499D01*
X009840Y002401D02*
X005446Y002401D01*
X005446Y002302D02*
X009840Y002302D01*
X009840Y002204D02*
X005424Y002204D01*
X005373Y002105D02*
X009840Y002105D01*
X009840Y002007D02*
X005256Y002007D01*
X004903Y002007D02*
X003347Y002007D01*
X003463Y002105D02*
X004787Y002105D01*
X004736Y002204D02*
X003514Y002204D01*
X003536Y002302D02*
X004714Y002302D01*
X004714Y002401D02*
X003536Y002401D01*
X003497Y002499D02*
X004753Y002499D01*
X004872Y002640D02*
X005007Y002696D01*
X005153Y002696D01*
X005007Y002696D02*
X003693Y002696D01*
X003710Y002795D02*
X009840Y002795D01*
X009840Y002893D02*
X004722Y002893D01*
X004799Y002992D02*
X009840Y002992D01*
X009840Y003090D02*
X006693Y003090D01*
X006357Y003090D02*
X004830Y003090D01*
X004830Y003189D02*
X006247Y003189D01*
X006205Y003287D02*
X004789Y003287D01*
X004698Y003386D02*
X006195Y003386D01*
X006212Y003484D02*
X001326Y003484D01*
X001183Y003583D02*
X006263Y003583D01*
X006395Y003681D02*
X004706Y003681D01*
X004686Y003673D02*
X004798Y003719D01*
X004866Y003788D01*
X005804Y003788D01*
X005904Y003888D01*
X006015Y003999D01*
X006015Y004851D01*
X006065Y004972D01*
X006065Y005103D01*
X006026Y005198D01*
X006324Y005198D01*
X006402Y005119D01*
X006514Y005073D01*
X006636Y005073D01*
X006748Y005119D01*
X006834Y005205D01*
X006880Y005317D01*
X006880Y005438D01*
X006834Y005550D01*
X006748Y005636D01*
X006636Y005683D01*
X006514Y005683D01*
X006402Y005636D01*
X006324Y005558D01*
X002405Y005558D01*
X002405Y007481D01*
X002498Y007519D01*
X002584Y007605D01*
X002630Y007717D01*
X002630Y007838D01*
X002584Y007950D01*
X002498Y008036D01*
X002386Y008083D01*
X002264Y008083D01*
X002152Y008036D01*
X002066Y007950D01*
X002020Y007838D01*
X002020Y007717D01*
X002045Y007657D01*
X002045Y005403D01*
X002150Y005298D01*
X002250Y005198D01*
X005444Y005198D01*
X005405Y005103D01*
X005405Y004972D01*
X005455Y004851D01*
X005548Y004758D01*
X005635Y004722D01*
X005635Y004168D01*
X004866Y004168D01*
X004798Y004236D01*
X004686Y004283D01*
X004564Y004283D01*
X004452Y004236D01*
X004366Y004150D01*
X004320Y004038D01*
X004320Y003917D01*
X004366Y003805D01*
X004452Y003719D01*
X004564Y003673D01*
X004686Y003673D01*
X004544Y003681D02*
X001204Y003681D01*
X001334Y003780D02*
X004392Y003780D01*
X004336Y003878D02*
X001413Y003878D01*
X001454Y003977D02*
X004320Y003977D01*
X004335Y004075D02*
X001475Y004075D01*
X001475Y004174D02*
X004390Y004174D01*
X004539Y004272D02*
X001456Y004272D01*
X001416Y004371D02*
X002051Y004371D01*
X002016Y004405D02*
X002102Y004319D01*
X002214Y004273D01*
X002336Y004273D01*
X002448Y004319D01*
X002534Y004405D01*
X002551Y004448D01*
X004374Y004448D01*
X004452Y004369D01*
X004564Y004323D01*
X004686Y004323D01*
X004798Y004369D01*
X004884Y004455D01*
X004930Y004567D01*
X004930Y004688D01*
X004884Y004800D01*
X004798Y004886D01*
X004686Y004933D01*
X004564Y004933D01*
X004452Y004886D01*
X004374Y004808D01*
X002476Y004808D01*
X002448Y004836D01*
X002336Y004883D01*
X002214Y004883D01*
X002102Y004836D01*
X002016Y004750D01*
X001970Y004638D01*
X001970Y004517D01*
X002016Y004405D01*
X001990Y004469D02*
X001341Y004469D01*
X001219Y004568D02*
X001970Y004568D01*
X001982Y004666D02*
X000610Y004666D01*
X000610Y004568D02*
X000731Y004568D01*
X000610Y004765D02*
X002031Y004765D01*
X002167Y004863D02*
X000610Y004863D01*
X000610Y004962D02*
X005409Y004962D01*
X005405Y005060D02*
X000610Y005060D01*
X000610Y005159D02*
X005428Y005159D01*
X005450Y004863D02*
X004821Y004863D01*
X004898Y004765D02*
X005541Y004765D01*
X005635Y004666D02*
X004930Y004666D01*
X004930Y004568D02*
X005635Y004568D01*
X005635Y004469D02*
X004889Y004469D01*
X004799Y004371D02*
X005635Y004371D01*
X005635Y004272D02*
X004711Y004272D01*
X004860Y004174D02*
X005635Y004174D01*
X005894Y003878D02*
X008315Y003878D01*
X008315Y003780D02*
X004858Y003780D01*
X004451Y004371D02*
X002499Y004371D01*
X002275Y004578D02*
X002325Y004628D01*
X004625Y004628D01*
X004429Y004863D02*
X002383Y004863D01*
X002191Y005257D02*
X000610Y005257D01*
X000610Y005356D02*
X002092Y005356D01*
X002045Y005454D02*
X000610Y005454D01*
X000610Y005553D02*
X002045Y005553D01*
X002045Y005651D02*
X001185Y005651D01*
X001332Y005750D02*
X002045Y005750D01*
X002045Y005848D02*
X001415Y005848D01*
X001463Y005947D02*
X002045Y005947D01*
X002045Y006045D02*
X001488Y006045D01*
X001483Y006242D02*
X002045Y006242D01*
X002045Y006144D02*
X001025Y006144D01*
X001025Y006045D02*
X000925Y006045D01*
X000925Y005947D02*
X001025Y005947D01*
X001025Y005848D02*
X000925Y005848D01*
X000925Y005750D02*
X001025Y005750D01*
X001025Y005651D02*
X000925Y005651D01*
X000765Y005651D02*
X000610Y005651D01*
X000610Y005750D02*
X000618Y005750D01*
X001295Y006538D02*
X002045Y006538D01*
X002045Y006636D02*
X001095Y006636D01*
X001289Y006735D02*
X002045Y006735D01*
X002045Y006833D02*
X001388Y006833D01*
X001435Y006932D02*
X002045Y006932D01*
X002045Y007030D02*
X001475Y007030D01*
X001475Y007129D02*
X002045Y007129D01*
X002045Y007227D02*
X001475Y007227D01*
X001434Y007326D02*
X002045Y007326D01*
X002045Y007424D02*
X001386Y007424D01*
X001287Y007523D02*
X002045Y007523D01*
X002045Y007621D02*
X001090Y007621D01*
X001274Y007720D02*
X002020Y007720D01*
X002020Y007818D02*
X001373Y007818D01*
X001429Y007917D02*
X002052Y007917D01*
X002131Y008015D02*
X001470Y008015D01*
X001475Y008114D02*
X002795Y008114D01*
X002795Y008212D02*
X001475Y008212D01*
X001440Y008311D02*
X002795Y008311D01*
X002795Y008409D02*
X001400Y008409D01*
X001302Y008508D02*
X002795Y008508D01*
X002795Y008606D02*
X001126Y008606D01*
X000824Y008606D02*
X000610Y008606D01*
X000610Y008508D02*
X000648Y008508D01*
X000610Y008705D02*
X002795Y008705D01*
X002795Y008803D02*
X000610Y008803D01*
X000610Y008902D02*
X002795Y008902D01*
X002795Y009000D02*
X001611Y009000D01*
X001756Y009099D02*
X002795Y009099D01*
X002795Y009197D02*
X001854Y009197D01*
X001934Y009296D02*
X002795Y009296D01*
X002795Y009394D02*
X001974Y009394D01*
X002015Y009493D02*
X002795Y009493D01*
X002654Y009591D02*
X002045Y009591D01*
X002045Y009690D02*
X002556Y009690D01*
X002512Y009788D02*
X002045Y009788D01*
X002045Y009887D02*
X002475Y009887D01*
X002475Y009985D02*
X002006Y009985D01*
X001965Y010084D02*
X002478Y010084D01*
X002519Y010182D02*
X001924Y010182D01*
X001832Y010281D02*
X002571Y010281D01*
X002975Y009978D02*
X002975Y007828D01*
X003025Y007778D01*
X003375Y007778D01*
X003648Y007917D02*
X007115Y007917D01*
X007115Y008015D02*
X003569Y008015D01*
X003680Y007818D02*
X007115Y007818D01*
X007050Y007720D02*
X003680Y007720D01*
X003640Y007621D02*
X007007Y007621D01*
X006995Y007523D02*
X003551Y007523D01*
X003558Y007326D02*
X007060Y007326D01*
X007011Y007424D02*
X002405Y007424D01*
X002405Y007326D02*
X003192Y007326D01*
X003107Y007227D02*
X002405Y007227D01*
X002405Y007129D02*
X003070Y007129D01*
X003070Y007030D02*
X002405Y007030D01*
X002405Y006932D02*
X003105Y006932D01*
X003188Y006833D02*
X002405Y006833D01*
X002405Y006735D02*
X007995Y006735D01*
X007995Y006833D02*
X003562Y006833D01*
X003199Y007523D02*
X002501Y007523D01*
X002590Y007621D02*
X002927Y007621D01*
X002828Y007720D02*
X002630Y007720D01*
X002630Y007818D02*
X002795Y007818D01*
X002795Y007917D02*
X002598Y007917D01*
X002519Y008015D02*
X002795Y008015D01*
X003155Y008015D02*
X003181Y008015D01*
X003155Y008114D02*
X007115Y008114D01*
X007115Y008212D02*
X003155Y008212D01*
X003155Y008311D02*
X007115Y008311D01*
X007115Y008409D02*
X003155Y008409D01*
X003155Y008508D02*
X007115Y008508D01*
X007115Y008606D02*
X003155Y008606D01*
X003155Y008705D02*
X007115Y008705D01*
X007115Y008803D02*
X003155Y008803D01*
X003155Y008902D02*
X007054Y008902D01*
X006955Y009000D02*
X003155Y009000D01*
X003155Y009099D02*
X006857Y009099D01*
X006758Y009197D02*
X003155Y009197D01*
X003155Y009296D02*
X006660Y009296D01*
X006561Y009394D02*
X003155Y009394D01*
X003155Y009493D02*
X003839Y009493D01*
X003654Y009591D02*
X003296Y009591D01*
X003394Y009690D02*
X003556Y009690D01*
X003512Y009788D02*
X003438Y009788D01*
X003475Y009887D02*
X003475Y009887D01*
X003475Y009985D02*
X003475Y009985D01*
X003472Y010084D02*
X003478Y010084D01*
X003519Y010182D02*
X003431Y010182D01*
X003379Y010281D02*
X003571Y010281D01*
X004379Y010281D02*
X005071Y010281D01*
X005019Y010182D02*
X004431Y010182D01*
X004472Y010084D02*
X004978Y010084D01*
X004975Y009985D02*
X004475Y009985D01*
X004475Y009887D02*
X004975Y009887D01*
X005012Y009788D02*
X004438Y009788D01*
X004394Y009690D02*
X005056Y009690D01*
X005154Y009591D02*
X004296Y009591D01*
X004111Y009493D02*
X005339Y009493D01*
X005611Y009493D02*
X006339Y009493D01*
X006154Y009591D02*
X005796Y009591D01*
X005894Y009690D02*
X006056Y009690D01*
X006012Y009788D02*
X005938Y009788D01*
X005975Y009887D02*
X005975Y009887D01*
X005975Y009985D02*
X005975Y009985D01*
X005972Y010084D02*
X005978Y010084D01*
X006019Y010182D02*
X005931Y010182D01*
X005879Y010281D02*
X006071Y010281D01*
X006879Y010281D02*
X007071Y010281D01*
X007019Y010182D02*
X006931Y010182D01*
X006972Y010084D02*
X006978Y010084D01*
X006975Y009985D02*
X006975Y009985D01*
X006975Y009887D02*
X006975Y009887D01*
X006938Y009788D02*
X007012Y009788D01*
X007056Y009690D02*
X006894Y009690D01*
X006958Y009591D02*
X007154Y009591D01*
X007057Y009493D02*
X007339Y009493D01*
X007155Y009394D02*
X008476Y009394D01*
X008516Y009296D02*
X007254Y009296D01*
X007352Y009197D02*
X008596Y009197D01*
X008694Y009099D02*
X007451Y009099D01*
X007535Y009000D02*
X008839Y009000D01*
X008739Y008705D02*
X009840Y008705D01*
X009840Y008803D02*
X007535Y008803D01*
X007535Y008705D02*
X008311Y008705D01*
X008157Y008606D02*
X007535Y008606D01*
X007535Y008508D02*
X008071Y008508D01*
X008016Y008409D02*
X007535Y008409D01*
X007535Y008311D02*
X007986Y008311D01*
X007981Y008114D02*
X007535Y008114D01*
X007535Y008212D02*
X008475Y008212D01*
X008475Y008311D02*
X008575Y008311D01*
X008575Y008409D02*
X008475Y008409D01*
X008475Y008508D02*
X008575Y008508D01*
X008575Y008606D02*
X008475Y008606D01*
X008475Y008705D02*
X008575Y008705D01*
X008893Y008606D02*
X009840Y008606D01*
X009840Y008508D02*
X008979Y008508D01*
X009034Y008409D02*
X009840Y008409D01*
X009840Y008311D02*
X009064Y008311D01*
X009069Y008114D02*
X009840Y008114D01*
X009840Y008212D02*
X008575Y008212D01*
X008924Y007818D02*
X009840Y007818D01*
X009840Y007720D02*
X009402Y007720D01*
X009500Y007621D02*
X009840Y007621D01*
X009840Y007523D02*
X009599Y007523D01*
X009615Y007424D02*
X009840Y007424D01*
X009840Y007326D02*
X009615Y007326D01*
X009615Y007227D02*
X009840Y007227D01*
X009840Y007129D02*
X009641Y007129D01*
X009719Y007030D02*
X009840Y007030D01*
X009840Y006932D02*
X009755Y006932D01*
X009755Y006833D02*
X009840Y006833D01*
X009840Y006735D02*
X009723Y006735D01*
X009650Y006636D02*
X009840Y006636D01*
X009840Y006538D02*
X009055Y006538D01*
X009055Y006636D02*
X009200Y006636D01*
X009127Y006735D02*
X009055Y006735D01*
X009055Y006833D02*
X009095Y006833D01*
X009095Y006932D02*
X009055Y006932D01*
X009055Y007030D02*
X009131Y007030D01*
X009055Y007129D02*
X009209Y007129D01*
X009235Y007227D02*
X009055Y007227D01*
X009002Y007326D02*
X009235Y007326D01*
X009000Y007917D02*
X009840Y007917D01*
X009840Y008015D02*
X009044Y008015D01*
X009840Y008902D02*
X007535Y008902D01*
X007611Y009493D02*
X008435Y009493D01*
X008405Y009591D02*
X007796Y009591D01*
X007894Y009690D02*
X008405Y009690D01*
X008405Y009788D02*
X007938Y009788D01*
X007975Y009887D02*
X008405Y009887D01*
X008444Y009985D02*
X007975Y009985D01*
X007972Y010084D02*
X008485Y010084D01*
X008526Y010182D02*
X007931Y010182D01*
X007879Y010281D02*
X008618Y010281D01*
X009611Y009000D02*
X009840Y009000D01*
X009840Y009099D02*
X009756Y009099D01*
X008126Y007818D02*
X007535Y007818D01*
X007535Y007917D02*
X008050Y007917D01*
X008006Y008015D02*
X007535Y008015D01*
X007600Y007720D02*
X007848Y007720D01*
X007750Y007621D02*
X007643Y007621D01*
X008015Y007326D02*
X008048Y007326D01*
X007995Y007129D02*
X007995Y007129D01*
X007995Y007030D02*
X007896Y007030D01*
X007798Y006932D02*
X007995Y006932D01*
X007995Y006636D02*
X002405Y006636D01*
X002405Y006538D02*
X007995Y006538D01*
X007995Y006439D02*
X002405Y006439D01*
X002405Y006341D02*
X008019Y006341D01*
X008315Y006242D02*
X002405Y006242D01*
X002405Y006144D02*
X008315Y006144D01*
X008315Y006045D02*
X002405Y006045D01*
X002405Y005947D02*
X008315Y005947D01*
X008315Y005848D02*
X002405Y005848D01*
X002405Y005750D02*
X008315Y005750D01*
X008315Y005651D02*
X006712Y005651D01*
X006831Y005553D02*
X008315Y005553D01*
X008315Y005454D02*
X006873Y005454D01*
X006880Y005356D02*
X008315Y005356D01*
X008315Y005257D02*
X006855Y005257D01*
X006787Y005159D02*
X008315Y005159D01*
X008315Y005060D02*
X006065Y005060D01*
X006061Y004962D02*
X008315Y004962D01*
X008315Y004863D02*
X006020Y004863D01*
X006015Y004765D02*
X008315Y004765D01*
X008315Y004666D02*
X006015Y004666D01*
X006015Y004568D02*
X008315Y004568D01*
X008315Y004469D02*
X006015Y004469D01*
X006015Y004371D02*
X008315Y004371D01*
X008315Y004272D02*
X006015Y004272D01*
X006015Y004174D02*
X008315Y004174D01*
X008315Y004075D02*
X006015Y004075D01*
X005993Y003977D02*
X008315Y003977D01*
X008315Y003681D02*
X006655Y003681D01*
X006363Y005159D02*
X006042Y005159D01*
X006438Y005651D02*
X002405Y005651D01*
X002225Y005478D02*
X002325Y005378D01*
X006575Y005378D01*
X008531Y003287D02*
X009840Y003287D01*
X009840Y003189D02*
X008433Y003189D01*
X008630Y003386D02*
X009840Y003386D01*
X009840Y003484D02*
X008728Y003484D01*
X008735Y003583D02*
X009840Y003583D01*
X009840Y003681D02*
X008735Y003681D01*
X008735Y003780D02*
X009840Y003780D01*
X009840Y003878D02*
X008735Y003878D01*
X008735Y003977D02*
X009840Y003977D01*
X009840Y004075D02*
X008735Y004075D01*
X008735Y004174D02*
X009840Y004174D01*
X009840Y004272D02*
X008735Y004272D01*
X008735Y004371D02*
X009840Y004371D01*
X009840Y004469D02*
X008735Y004469D01*
X008735Y004568D02*
X009840Y004568D01*
X009840Y004666D02*
X008735Y004666D01*
X008735Y004765D02*
X009840Y004765D01*
X009840Y004863D02*
X008735Y004863D01*
X008735Y004962D02*
X009840Y004962D01*
X009840Y005060D02*
X008735Y005060D01*
X008735Y005159D02*
X009840Y005159D01*
X009840Y005257D02*
X008735Y005257D01*
X008735Y005356D02*
X009840Y005356D01*
X009840Y005454D02*
X008735Y005454D01*
X008735Y005553D02*
X009840Y005553D01*
X009840Y005651D02*
X008735Y005651D01*
X008735Y005750D02*
X009840Y005750D01*
X009840Y005848D02*
X008735Y005848D01*
X008735Y005947D02*
X009840Y005947D01*
X009840Y006045D02*
X008735Y006045D01*
X008735Y006144D02*
X009840Y006144D01*
X009840Y006242D02*
X008735Y006242D01*
X009031Y006341D02*
X009840Y006341D01*
X009840Y006439D02*
X009055Y006439D01*
X009840Y001711D02*
X005747Y001711D01*
X005902Y001613D02*
X009840Y001613D01*
X009840Y001514D02*
X005994Y001514D01*
X006035Y001416D02*
X009840Y001416D01*
X009840Y001317D02*
X006070Y001317D01*
X006070Y001219D02*
X009840Y001219D01*
X009840Y001120D02*
X006069Y001120D01*
X006028Y001022D02*
X009840Y001022D01*
X009840Y000923D02*
X005982Y000923D01*
X005884Y000825D02*
X009823Y000825D01*
X004328Y002893D02*
X003696Y002893D01*
X002225Y005478D02*
X002225Y007678D01*
X002325Y007778D01*
X002045Y006439D02*
X001391Y006439D01*
X001450Y006341D02*
X002045Y006341D01*
X000860Y007621D02*
X000610Y007621D01*
X000610Y007523D02*
X000663Y007523D01*
X000676Y007720D02*
X000610Y007720D01*
X000610Y009000D02*
X000839Y009000D01*
X000694Y009099D02*
X000610Y009099D01*
X000610Y003780D02*
X000616Y003780D01*
X000610Y003681D02*
X000746Y003681D01*
X000767Y003583D02*
X000610Y003583D01*
X000610Y003484D02*
X000624Y003484D01*
X000610Y002696D02*
X000710Y002696D01*
D16*
X004575Y006018D03*
X004975Y006018D03*
X005375Y006018D03*
X005735Y005038D03*
X006525Y003378D03*
X009425Y006878D03*
X007325Y007528D03*
D17*
X006575Y005378D03*
X004625Y004628D03*
X004625Y003978D03*
X004525Y003128D03*
X003405Y002798D03*
X002275Y004578D03*
X003375Y007078D03*
X003375Y007778D03*
X002325Y007778D03*
X001375Y007618D03*
X002175Y009768D03*
X003475Y009568D03*
X007075Y002518D03*
D18*
X006525Y003378D02*
X008325Y003378D01*
X008525Y003578D01*
X008525Y006819D01*
X007325Y007528D02*
X007325Y008928D01*
X006475Y009778D01*
X006475Y009978D01*
D19*
X007975Y007578D02*
X009275Y007578D01*
X009425Y007428D01*
X009425Y006878D01*
X007975Y007578D02*
X007825Y007428D01*
X007825Y007228D01*
X007675Y007078D01*
X003375Y007078D01*
X005735Y005038D02*
X005825Y004938D01*
X005825Y004078D01*
X005725Y003978D01*
X004625Y003978D01*
M02*
