%
M48
M72
T01C0.0150
T02C0.0200
T03C0.0236
T04C0.0400
T05C0.0433
T06C0.1300
%
T01
X3405Y2798
X4525Y3128
X4625Y3978
X4625Y4628
X6575Y5378
X7075Y2518
X3375Y7078
X3375Y7778
X2325Y7778
X1375Y7618
X2175Y9768
X3475Y9568
X2275Y4578
T02
X4575Y6018
X4975Y6018
X5375Y6018
X5735Y5038
X6525Y3378
X9425Y6878
X7325Y7528
T03
X5080Y2330
X3170Y2330
T04
X975Y3128
X975Y4128
X975Y6128
X975Y7128
X975Y8128
X2975Y9978
X3975Y9978
X5475Y9978
X6475Y9978
X7475Y9978
X8525Y8197
X8525Y6819
T05
X5546Y1228
X2704Y1228
T06
X1225Y1378
X1225Y9728
X9225Y9728
M30
